%
M48
M72
T01C0.01969
T02C0.03937
T03C0.04000
T04C0.04400
T05C0.04724
T06C0.07874
T07C0.08661
T08C0.11811
T09C0.12598
%
T01
X123359Y30020
X139107Y42392
X129560Y55787
X144727Y71949
X107060Y88287
X103310Y97037
X135170Y117195
X114560Y127037
X162060Y107037
X162060Y95787
X190810Y100787
X203310Y100787
X207060Y77037
X202227Y67579
X178723Y35886
X261154Y42392
X276715Y18819
X320210Y42392
X308399Y77825
X285899Y100325
X325899Y102825
X347060Y95787
X352060Y95787
X352060Y85787
X352060Y125787
X352060Y137037
X341095Y149498
X380465Y157372
X329649Y176575
X315899Y176575
X282149Y172825
X255899Y184075
X243310Y182037
X232060Y187037
X227060Y182037
X222060Y187037
X220810Y193287
X222060Y209537
X249560Y204537
X258310Y200787
X249560Y197037
X255899Y215325
X228280Y240305
X193310Y208287
X185810Y208287
X165229Y215433
X135810Y200787
X135603Y192805
X152060Y185787
X157060Y180787
X147060Y177037
X148310Y172037
X147060Y160787
X162060Y172037
X182414Y176250
X192060Y178287
X188310Y163287
X202060Y163287
X182414Y152628
X168310Y142037
X194560Y127037
X204560Y134537
X233595Y152628
X232060Y160787
X243310Y168287
X259560Y150787
X360269Y203307
X379215Y217185
X384462Y205374
X339462Y233996
X377965Y126063
X109668Y208681
X52060Y177037
X37060Y175787
X37060Y162037
X48310Y155787
X47050Y144695
X32050Y129695
T02
X37375Y79183
X47375Y79183
X57375Y79183
X67375Y79183
X33310Y64537
X33310Y54537
X33310Y44537
X33310Y34537
X179560Y215787
X189560Y215787
X199560Y215787
X209560Y215787
X333782Y155630
X333782Y145787
X333782Y135945
X390869Y135945
X390869Y155630
X372621Y203287
X348605Y203287
X360810Y222185
T03
X265810Y132037
X265810Y120787
T04
X262060Y174537
X302060Y174537
T05
X292060Y200787
X282060Y200787
X272060Y200787
X272060Y210787
X282060Y210787
X292060Y210787
X122060Y232037
X67060Y232037
X54186Y193848
X34501Y193848
X67060Y142037
X79560Y142037
X109560Y142037
X122060Y142037
T06
X153560Y120287
X235560Y120287
X369314Y44803
X235560Y211287
X153560Y211287
X89314Y44803
T07
X363310Y121772
X363310Y169803
T08
X68310Y39537
X62375Y114183
T09
X46745Y15423
X213280Y15817
X255013Y78022
X379816Y15817
X213280Y234715
X46745Y234715
X379816Y235108
M30
