G75*
%MOIN*%
%OFA0B0*%
%FSLAX25Y25*%
%IPPOS*%
%LPD*%
%AMOC8*
5,1,8,0,0,1.08239X$1,22.5*
%
%ADD10R,0.05937X0.05937*%
%ADD11C,0.05937*%
%ADD12C,0.00000*%
%ADD13R,0.09843X0.09843*%
%ADD14C,0.07087*%
%ADD15R,0.07087X0.07087*%
%ADD16R,0.12661X0.12661*%
%ADD17OC8,0.11811*%
%ADD18C,0.07874*%
%ADD19C,0.06600*%
%ADD20OC8,0.08500*%
%ADD21C,0.03569*%
%ADD22C,0.01600*%
%ADD23C,0.03200*%
%ADD24C,0.01200*%
%ADD25C,0.06600*%
D10*
X0033310Y0034537D03*
X0067375Y0079183D03*
X0179560Y0215787D03*
X0333782Y0155630D03*
X0333782Y0145787D03*
X0333782Y0135945D03*
X0390869Y0135945D03*
X0390869Y0155630D03*
D11*
X0209560Y0215787D03*
X0199560Y0215787D03*
X0189560Y0215787D03*
X0057375Y0079183D03*
X0047375Y0079183D03*
X0037375Y0079183D03*
X0033310Y0064537D03*
X0033310Y0054537D03*
X0033310Y0044537D03*
D12*
X0062404Y0039537D02*
X0062406Y0039690D01*
X0062412Y0039844D01*
X0062422Y0039997D01*
X0062436Y0040149D01*
X0062454Y0040302D01*
X0062476Y0040453D01*
X0062501Y0040604D01*
X0062531Y0040755D01*
X0062565Y0040905D01*
X0062602Y0041053D01*
X0062643Y0041201D01*
X0062688Y0041347D01*
X0062737Y0041493D01*
X0062790Y0041637D01*
X0062846Y0041779D01*
X0062906Y0041920D01*
X0062970Y0042060D01*
X0063037Y0042198D01*
X0063108Y0042334D01*
X0063183Y0042468D01*
X0063260Y0042600D01*
X0063342Y0042730D01*
X0063426Y0042858D01*
X0063514Y0042984D01*
X0063605Y0043107D01*
X0063699Y0043228D01*
X0063797Y0043346D01*
X0063897Y0043462D01*
X0064001Y0043575D01*
X0064107Y0043686D01*
X0064216Y0043794D01*
X0064328Y0043899D01*
X0064442Y0044000D01*
X0064560Y0044099D01*
X0064679Y0044195D01*
X0064801Y0044288D01*
X0064926Y0044377D01*
X0065053Y0044464D01*
X0065182Y0044546D01*
X0065313Y0044626D01*
X0065446Y0044702D01*
X0065581Y0044775D01*
X0065718Y0044844D01*
X0065857Y0044909D01*
X0065997Y0044971D01*
X0066139Y0045029D01*
X0066282Y0045084D01*
X0066427Y0045135D01*
X0066573Y0045182D01*
X0066720Y0045225D01*
X0066868Y0045264D01*
X0067017Y0045300D01*
X0067167Y0045331D01*
X0067318Y0045359D01*
X0067469Y0045383D01*
X0067622Y0045403D01*
X0067774Y0045419D01*
X0067927Y0045431D01*
X0068080Y0045439D01*
X0068233Y0045443D01*
X0068387Y0045443D01*
X0068540Y0045439D01*
X0068693Y0045431D01*
X0068846Y0045419D01*
X0068998Y0045403D01*
X0069151Y0045383D01*
X0069302Y0045359D01*
X0069453Y0045331D01*
X0069603Y0045300D01*
X0069752Y0045264D01*
X0069900Y0045225D01*
X0070047Y0045182D01*
X0070193Y0045135D01*
X0070338Y0045084D01*
X0070481Y0045029D01*
X0070623Y0044971D01*
X0070763Y0044909D01*
X0070902Y0044844D01*
X0071039Y0044775D01*
X0071174Y0044702D01*
X0071307Y0044626D01*
X0071438Y0044546D01*
X0071567Y0044464D01*
X0071694Y0044377D01*
X0071819Y0044288D01*
X0071941Y0044195D01*
X0072060Y0044099D01*
X0072178Y0044000D01*
X0072292Y0043899D01*
X0072404Y0043794D01*
X0072513Y0043686D01*
X0072619Y0043575D01*
X0072723Y0043462D01*
X0072823Y0043346D01*
X0072921Y0043228D01*
X0073015Y0043107D01*
X0073106Y0042984D01*
X0073194Y0042858D01*
X0073278Y0042730D01*
X0073360Y0042600D01*
X0073437Y0042468D01*
X0073512Y0042334D01*
X0073583Y0042198D01*
X0073650Y0042060D01*
X0073714Y0041920D01*
X0073774Y0041779D01*
X0073830Y0041637D01*
X0073883Y0041493D01*
X0073932Y0041347D01*
X0073977Y0041201D01*
X0074018Y0041053D01*
X0074055Y0040905D01*
X0074089Y0040755D01*
X0074119Y0040604D01*
X0074144Y0040453D01*
X0074166Y0040302D01*
X0074184Y0040149D01*
X0074198Y0039997D01*
X0074208Y0039844D01*
X0074214Y0039690D01*
X0074216Y0039537D01*
X0074214Y0039384D01*
X0074208Y0039230D01*
X0074198Y0039077D01*
X0074184Y0038925D01*
X0074166Y0038772D01*
X0074144Y0038621D01*
X0074119Y0038470D01*
X0074089Y0038319D01*
X0074055Y0038169D01*
X0074018Y0038021D01*
X0073977Y0037873D01*
X0073932Y0037727D01*
X0073883Y0037581D01*
X0073830Y0037437D01*
X0073774Y0037295D01*
X0073714Y0037154D01*
X0073650Y0037014D01*
X0073583Y0036876D01*
X0073512Y0036740D01*
X0073437Y0036606D01*
X0073360Y0036474D01*
X0073278Y0036344D01*
X0073194Y0036216D01*
X0073106Y0036090D01*
X0073015Y0035967D01*
X0072921Y0035846D01*
X0072823Y0035728D01*
X0072723Y0035612D01*
X0072619Y0035499D01*
X0072513Y0035388D01*
X0072404Y0035280D01*
X0072292Y0035175D01*
X0072178Y0035074D01*
X0072060Y0034975D01*
X0071941Y0034879D01*
X0071819Y0034786D01*
X0071694Y0034697D01*
X0071567Y0034610D01*
X0071438Y0034528D01*
X0071307Y0034448D01*
X0071174Y0034372D01*
X0071039Y0034299D01*
X0070902Y0034230D01*
X0070763Y0034165D01*
X0070623Y0034103D01*
X0070481Y0034045D01*
X0070338Y0033990D01*
X0070193Y0033939D01*
X0070047Y0033892D01*
X0069900Y0033849D01*
X0069752Y0033810D01*
X0069603Y0033774D01*
X0069453Y0033743D01*
X0069302Y0033715D01*
X0069151Y0033691D01*
X0068998Y0033671D01*
X0068846Y0033655D01*
X0068693Y0033643D01*
X0068540Y0033635D01*
X0068387Y0033631D01*
X0068233Y0033631D01*
X0068080Y0033635D01*
X0067927Y0033643D01*
X0067774Y0033655D01*
X0067622Y0033671D01*
X0067469Y0033691D01*
X0067318Y0033715D01*
X0067167Y0033743D01*
X0067017Y0033774D01*
X0066868Y0033810D01*
X0066720Y0033849D01*
X0066573Y0033892D01*
X0066427Y0033939D01*
X0066282Y0033990D01*
X0066139Y0034045D01*
X0065997Y0034103D01*
X0065857Y0034165D01*
X0065718Y0034230D01*
X0065581Y0034299D01*
X0065446Y0034372D01*
X0065313Y0034448D01*
X0065182Y0034528D01*
X0065053Y0034610D01*
X0064926Y0034697D01*
X0064801Y0034786D01*
X0064679Y0034879D01*
X0064560Y0034975D01*
X0064442Y0035074D01*
X0064328Y0035175D01*
X0064216Y0035280D01*
X0064107Y0035388D01*
X0064001Y0035499D01*
X0063897Y0035612D01*
X0063797Y0035728D01*
X0063699Y0035846D01*
X0063605Y0035967D01*
X0063514Y0036090D01*
X0063426Y0036216D01*
X0063342Y0036344D01*
X0063260Y0036474D01*
X0063183Y0036606D01*
X0063108Y0036740D01*
X0063037Y0036876D01*
X0062970Y0037014D01*
X0062906Y0037154D01*
X0062846Y0037295D01*
X0062790Y0037437D01*
X0062737Y0037581D01*
X0062688Y0037727D01*
X0062643Y0037873D01*
X0062602Y0038021D01*
X0062565Y0038169D01*
X0062531Y0038319D01*
X0062501Y0038470D01*
X0062476Y0038621D01*
X0062454Y0038772D01*
X0062436Y0038925D01*
X0062422Y0039077D01*
X0062412Y0039230D01*
X0062406Y0039384D01*
X0062404Y0039537D01*
X0040446Y0015423D02*
X0040448Y0015581D01*
X0040454Y0015739D01*
X0040464Y0015897D01*
X0040478Y0016055D01*
X0040496Y0016212D01*
X0040517Y0016369D01*
X0040543Y0016525D01*
X0040573Y0016681D01*
X0040606Y0016836D01*
X0040644Y0016989D01*
X0040685Y0017142D01*
X0040730Y0017294D01*
X0040779Y0017445D01*
X0040832Y0017594D01*
X0040888Y0017742D01*
X0040948Y0017888D01*
X0041012Y0018033D01*
X0041080Y0018176D01*
X0041151Y0018318D01*
X0041225Y0018458D01*
X0041303Y0018595D01*
X0041385Y0018731D01*
X0041469Y0018865D01*
X0041558Y0018996D01*
X0041649Y0019125D01*
X0041744Y0019252D01*
X0041841Y0019377D01*
X0041942Y0019499D01*
X0042046Y0019618D01*
X0042153Y0019735D01*
X0042263Y0019849D01*
X0042376Y0019960D01*
X0042491Y0020069D01*
X0042609Y0020174D01*
X0042730Y0020276D01*
X0042853Y0020376D01*
X0042979Y0020472D01*
X0043107Y0020565D01*
X0043237Y0020655D01*
X0043370Y0020741D01*
X0043505Y0020825D01*
X0043641Y0020904D01*
X0043780Y0020981D01*
X0043921Y0021053D01*
X0044063Y0021123D01*
X0044207Y0021188D01*
X0044353Y0021250D01*
X0044500Y0021308D01*
X0044649Y0021363D01*
X0044799Y0021414D01*
X0044950Y0021461D01*
X0045102Y0021504D01*
X0045255Y0021543D01*
X0045410Y0021579D01*
X0045565Y0021610D01*
X0045721Y0021638D01*
X0045877Y0021662D01*
X0046034Y0021682D01*
X0046192Y0021698D01*
X0046349Y0021710D01*
X0046508Y0021718D01*
X0046666Y0021722D01*
X0046824Y0021722D01*
X0046982Y0021718D01*
X0047141Y0021710D01*
X0047298Y0021698D01*
X0047456Y0021682D01*
X0047613Y0021662D01*
X0047769Y0021638D01*
X0047925Y0021610D01*
X0048080Y0021579D01*
X0048235Y0021543D01*
X0048388Y0021504D01*
X0048540Y0021461D01*
X0048691Y0021414D01*
X0048841Y0021363D01*
X0048990Y0021308D01*
X0049137Y0021250D01*
X0049283Y0021188D01*
X0049427Y0021123D01*
X0049569Y0021053D01*
X0049710Y0020981D01*
X0049849Y0020904D01*
X0049985Y0020825D01*
X0050120Y0020741D01*
X0050253Y0020655D01*
X0050383Y0020565D01*
X0050511Y0020472D01*
X0050637Y0020376D01*
X0050760Y0020276D01*
X0050881Y0020174D01*
X0050999Y0020069D01*
X0051114Y0019960D01*
X0051227Y0019849D01*
X0051337Y0019735D01*
X0051444Y0019618D01*
X0051548Y0019499D01*
X0051649Y0019377D01*
X0051746Y0019252D01*
X0051841Y0019125D01*
X0051932Y0018996D01*
X0052021Y0018865D01*
X0052105Y0018731D01*
X0052187Y0018595D01*
X0052265Y0018458D01*
X0052339Y0018318D01*
X0052410Y0018176D01*
X0052478Y0018033D01*
X0052542Y0017888D01*
X0052602Y0017742D01*
X0052658Y0017594D01*
X0052711Y0017445D01*
X0052760Y0017294D01*
X0052805Y0017142D01*
X0052846Y0016989D01*
X0052884Y0016836D01*
X0052917Y0016681D01*
X0052947Y0016525D01*
X0052973Y0016369D01*
X0052994Y0016212D01*
X0053012Y0016055D01*
X0053026Y0015897D01*
X0053036Y0015739D01*
X0053042Y0015581D01*
X0053044Y0015423D01*
X0053042Y0015265D01*
X0053036Y0015107D01*
X0053026Y0014949D01*
X0053012Y0014791D01*
X0052994Y0014634D01*
X0052973Y0014477D01*
X0052947Y0014321D01*
X0052917Y0014165D01*
X0052884Y0014010D01*
X0052846Y0013857D01*
X0052805Y0013704D01*
X0052760Y0013552D01*
X0052711Y0013401D01*
X0052658Y0013252D01*
X0052602Y0013104D01*
X0052542Y0012958D01*
X0052478Y0012813D01*
X0052410Y0012670D01*
X0052339Y0012528D01*
X0052265Y0012388D01*
X0052187Y0012251D01*
X0052105Y0012115D01*
X0052021Y0011981D01*
X0051932Y0011850D01*
X0051841Y0011721D01*
X0051746Y0011594D01*
X0051649Y0011469D01*
X0051548Y0011347D01*
X0051444Y0011228D01*
X0051337Y0011111D01*
X0051227Y0010997D01*
X0051114Y0010886D01*
X0050999Y0010777D01*
X0050881Y0010672D01*
X0050760Y0010570D01*
X0050637Y0010470D01*
X0050511Y0010374D01*
X0050383Y0010281D01*
X0050253Y0010191D01*
X0050120Y0010105D01*
X0049985Y0010021D01*
X0049849Y0009942D01*
X0049710Y0009865D01*
X0049569Y0009793D01*
X0049427Y0009723D01*
X0049283Y0009658D01*
X0049137Y0009596D01*
X0048990Y0009538D01*
X0048841Y0009483D01*
X0048691Y0009432D01*
X0048540Y0009385D01*
X0048388Y0009342D01*
X0048235Y0009303D01*
X0048080Y0009267D01*
X0047925Y0009236D01*
X0047769Y0009208D01*
X0047613Y0009184D01*
X0047456Y0009164D01*
X0047298Y0009148D01*
X0047141Y0009136D01*
X0046982Y0009128D01*
X0046824Y0009124D01*
X0046666Y0009124D01*
X0046508Y0009128D01*
X0046349Y0009136D01*
X0046192Y0009148D01*
X0046034Y0009164D01*
X0045877Y0009184D01*
X0045721Y0009208D01*
X0045565Y0009236D01*
X0045410Y0009267D01*
X0045255Y0009303D01*
X0045102Y0009342D01*
X0044950Y0009385D01*
X0044799Y0009432D01*
X0044649Y0009483D01*
X0044500Y0009538D01*
X0044353Y0009596D01*
X0044207Y0009658D01*
X0044063Y0009723D01*
X0043921Y0009793D01*
X0043780Y0009865D01*
X0043641Y0009942D01*
X0043505Y0010021D01*
X0043370Y0010105D01*
X0043237Y0010191D01*
X0043107Y0010281D01*
X0042979Y0010374D01*
X0042853Y0010470D01*
X0042730Y0010570D01*
X0042609Y0010672D01*
X0042491Y0010777D01*
X0042376Y0010886D01*
X0042263Y0010997D01*
X0042153Y0011111D01*
X0042046Y0011228D01*
X0041942Y0011347D01*
X0041841Y0011469D01*
X0041744Y0011594D01*
X0041649Y0011721D01*
X0041558Y0011850D01*
X0041469Y0011981D01*
X0041385Y0012115D01*
X0041303Y0012251D01*
X0041225Y0012388D01*
X0041151Y0012528D01*
X0041080Y0012670D01*
X0041012Y0012813D01*
X0040948Y0012958D01*
X0040888Y0013104D01*
X0040832Y0013252D01*
X0040779Y0013401D01*
X0040730Y0013552D01*
X0040685Y0013704D01*
X0040644Y0013857D01*
X0040606Y0014010D01*
X0040573Y0014165D01*
X0040543Y0014321D01*
X0040517Y0014477D01*
X0040496Y0014634D01*
X0040478Y0014791D01*
X0040464Y0014949D01*
X0040454Y0015107D01*
X0040448Y0015265D01*
X0040446Y0015423D01*
X0056469Y0114183D02*
X0056471Y0114336D01*
X0056477Y0114490D01*
X0056487Y0114643D01*
X0056501Y0114795D01*
X0056519Y0114948D01*
X0056541Y0115099D01*
X0056566Y0115250D01*
X0056596Y0115401D01*
X0056630Y0115551D01*
X0056667Y0115699D01*
X0056708Y0115847D01*
X0056753Y0115993D01*
X0056802Y0116139D01*
X0056855Y0116283D01*
X0056911Y0116425D01*
X0056971Y0116566D01*
X0057035Y0116706D01*
X0057102Y0116844D01*
X0057173Y0116980D01*
X0057248Y0117114D01*
X0057325Y0117246D01*
X0057407Y0117376D01*
X0057491Y0117504D01*
X0057579Y0117630D01*
X0057670Y0117753D01*
X0057764Y0117874D01*
X0057862Y0117992D01*
X0057962Y0118108D01*
X0058066Y0118221D01*
X0058172Y0118332D01*
X0058281Y0118440D01*
X0058393Y0118545D01*
X0058507Y0118646D01*
X0058625Y0118745D01*
X0058744Y0118841D01*
X0058866Y0118934D01*
X0058991Y0119023D01*
X0059118Y0119110D01*
X0059247Y0119192D01*
X0059378Y0119272D01*
X0059511Y0119348D01*
X0059646Y0119421D01*
X0059783Y0119490D01*
X0059922Y0119555D01*
X0060062Y0119617D01*
X0060204Y0119675D01*
X0060347Y0119730D01*
X0060492Y0119781D01*
X0060638Y0119828D01*
X0060785Y0119871D01*
X0060933Y0119910D01*
X0061082Y0119946D01*
X0061232Y0119977D01*
X0061383Y0120005D01*
X0061534Y0120029D01*
X0061687Y0120049D01*
X0061839Y0120065D01*
X0061992Y0120077D01*
X0062145Y0120085D01*
X0062298Y0120089D01*
X0062452Y0120089D01*
X0062605Y0120085D01*
X0062758Y0120077D01*
X0062911Y0120065D01*
X0063063Y0120049D01*
X0063216Y0120029D01*
X0063367Y0120005D01*
X0063518Y0119977D01*
X0063668Y0119946D01*
X0063817Y0119910D01*
X0063965Y0119871D01*
X0064112Y0119828D01*
X0064258Y0119781D01*
X0064403Y0119730D01*
X0064546Y0119675D01*
X0064688Y0119617D01*
X0064828Y0119555D01*
X0064967Y0119490D01*
X0065104Y0119421D01*
X0065239Y0119348D01*
X0065372Y0119272D01*
X0065503Y0119192D01*
X0065632Y0119110D01*
X0065759Y0119023D01*
X0065884Y0118934D01*
X0066006Y0118841D01*
X0066125Y0118745D01*
X0066243Y0118646D01*
X0066357Y0118545D01*
X0066469Y0118440D01*
X0066578Y0118332D01*
X0066684Y0118221D01*
X0066788Y0118108D01*
X0066888Y0117992D01*
X0066986Y0117874D01*
X0067080Y0117753D01*
X0067171Y0117630D01*
X0067259Y0117504D01*
X0067343Y0117376D01*
X0067425Y0117246D01*
X0067502Y0117114D01*
X0067577Y0116980D01*
X0067648Y0116844D01*
X0067715Y0116706D01*
X0067779Y0116566D01*
X0067839Y0116425D01*
X0067895Y0116283D01*
X0067948Y0116139D01*
X0067997Y0115993D01*
X0068042Y0115847D01*
X0068083Y0115699D01*
X0068120Y0115551D01*
X0068154Y0115401D01*
X0068184Y0115250D01*
X0068209Y0115099D01*
X0068231Y0114948D01*
X0068249Y0114795D01*
X0068263Y0114643D01*
X0068273Y0114490D01*
X0068279Y0114336D01*
X0068281Y0114183D01*
X0068279Y0114030D01*
X0068273Y0113876D01*
X0068263Y0113723D01*
X0068249Y0113571D01*
X0068231Y0113418D01*
X0068209Y0113267D01*
X0068184Y0113116D01*
X0068154Y0112965D01*
X0068120Y0112815D01*
X0068083Y0112667D01*
X0068042Y0112519D01*
X0067997Y0112373D01*
X0067948Y0112227D01*
X0067895Y0112083D01*
X0067839Y0111941D01*
X0067779Y0111800D01*
X0067715Y0111660D01*
X0067648Y0111522D01*
X0067577Y0111386D01*
X0067502Y0111252D01*
X0067425Y0111120D01*
X0067343Y0110990D01*
X0067259Y0110862D01*
X0067171Y0110736D01*
X0067080Y0110613D01*
X0066986Y0110492D01*
X0066888Y0110374D01*
X0066788Y0110258D01*
X0066684Y0110145D01*
X0066578Y0110034D01*
X0066469Y0109926D01*
X0066357Y0109821D01*
X0066243Y0109720D01*
X0066125Y0109621D01*
X0066006Y0109525D01*
X0065884Y0109432D01*
X0065759Y0109343D01*
X0065632Y0109256D01*
X0065503Y0109174D01*
X0065372Y0109094D01*
X0065239Y0109018D01*
X0065104Y0108945D01*
X0064967Y0108876D01*
X0064828Y0108811D01*
X0064688Y0108749D01*
X0064546Y0108691D01*
X0064403Y0108636D01*
X0064258Y0108585D01*
X0064112Y0108538D01*
X0063965Y0108495D01*
X0063817Y0108456D01*
X0063668Y0108420D01*
X0063518Y0108389D01*
X0063367Y0108361D01*
X0063216Y0108337D01*
X0063063Y0108317D01*
X0062911Y0108301D01*
X0062758Y0108289D01*
X0062605Y0108281D01*
X0062452Y0108277D01*
X0062298Y0108277D01*
X0062145Y0108281D01*
X0061992Y0108289D01*
X0061839Y0108301D01*
X0061687Y0108317D01*
X0061534Y0108337D01*
X0061383Y0108361D01*
X0061232Y0108389D01*
X0061082Y0108420D01*
X0060933Y0108456D01*
X0060785Y0108495D01*
X0060638Y0108538D01*
X0060492Y0108585D01*
X0060347Y0108636D01*
X0060204Y0108691D01*
X0060062Y0108749D01*
X0059922Y0108811D01*
X0059783Y0108876D01*
X0059646Y0108945D01*
X0059511Y0109018D01*
X0059378Y0109094D01*
X0059247Y0109174D01*
X0059118Y0109256D01*
X0058991Y0109343D01*
X0058866Y0109432D01*
X0058744Y0109525D01*
X0058625Y0109621D01*
X0058507Y0109720D01*
X0058393Y0109821D01*
X0058281Y0109926D01*
X0058172Y0110034D01*
X0058066Y0110145D01*
X0057962Y0110258D01*
X0057862Y0110374D01*
X0057764Y0110492D01*
X0057670Y0110613D01*
X0057579Y0110736D01*
X0057491Y0110862D01*
X0057407Y0110990D01*
X0057325Y0111120D01*
X0057248Y0111252D01*
X0057173Y0111386D01*
X0057102Y0111522D01*
X0057035Y0111660D01*
X0056971Y0111800D01*
X0056911Y0111941D01*
X0056855Y0112083D01*
X0056802Y0112227D01*
X0056753Y0112373D01*
X0056708Y0112519D01*
X0056667Y0112667D01*
X0056630Y0112815D01*
X0056596Y0112965D01*
X0056566Y0113116D01*
X0056541Y0113267D01*
X0056519Y0113418D01*
X0056501Y0113571D01*
X0056487Y0113723D01*
X0056477Y0113876D01*
X0056471Y0114030D01*
X0056469Y0114183D01*
X0149623Y0120287D02*
X0149625Y0120412D01*
X0149631Y0120537D01*
X0149641Y0120661D01*
X0149655Y0120785D01*
X0149672Y0120909D01*
X0149694Y0121032D01*
X0149720Y0121154D01*
X0149749Y0121276D01*
X0149782Y0121396D01*
X0149820Y0121515D01*
X0149860Y0121634D01*
X0149905Y0121750D01*
X0149953Y0121865D01*
X0150005Y0121979D01*
X0150061Y0122091D01*
X0150120Y0122201D01*
X0150182Y0122309D01*
X0150248Y0122416D01*
X0150317Y0122520D01*
X0150390Y0122621D01*
X0150465Y0122721D01*
X0150544Y0122818D01*
X0150626Y0122912D01*
X0150711Y0123004D01*
X0150798Y0123093D01*
X0150889Y0123179D01*
X0150982Y0123262D01*
X0151078Y0123343D01*
X0151176Y0123420D01*
X0151276Y0123494D01*
X0151379Y0123565D01*
X0151484Y0123632D01*
X0151592Y0123697D01*
X0151701Y0123757D01*
X0151812Y0123815D01*
X0151925Y0123868D01*
X0152039Y0123918D01*
X0152155Y0123965D01*
X0152272Y0124007D01*
X0152391Y0124046D01*
X0152511Y0124082D01*
X0152632Y0124113D01*
X0152754Y0124141D01*
X0152876Y0124164D01*
X0153000Y0124184D01*
X0153124Y0124200D01*
X0153248Y0124212D01*
X0153373Y0124220D01*
X0153498Y0124224D01*
X0153622Y0124224D01*
X0153747Y0124220D01*
X0153872Y0124212D01*
X0153996Y0124200D01*
X0154120Y0124184D01*
X0154244Y0124164D01*
X0154366Y0124141D01*
X0154488Y0124113D01*
X0154609Y0124082D01*
X0154729Y0124046D01*
X0154848Y0124007D01*
X0154965Y0123965D01*
X0155081Y0123918D01*
X0155195Y0123868D01*
X0155308Y0123815D01*
X0155419Y0123757D01*
X0155529Y0123697D01*
X0155636Y0123632D01*
X0155741Y0123565D01*
X0155844Y0123494D01*
X0155944Y0123420D01*
X0156042Y0123343D01*
X0156138Y0123262D01*
X0156231Y0123179D01*
X0156322Y0123093D01*
X0156409Y0123004D01*
X0156494Y0122912D01*
X0156576Y0122818D01*
X0156655Y0122721D01*
X0156730Y0122621D01*
X0156803Y0122520D01*
X0156872Y0122416D01*
X0156938Y0122309D01*
X0157000Y0122201D01*
X0157059Y0122091D01*
X0157115Y0121979D01*
X0157167Y0121865D01*
X0157215Y0121750D01*
X0157260Y0121634D01*
X0157300Y0121515D01*
X0157338Y0121396D01*
X0157371Y0121276D01*
X0157400Y0121154D01*
X0157426Y0121032D01*
X0157448Y0120909D01*
X0157465Y0120785D01*
X0157479Y0120661D01*
X0157489Y0120537D01*
X0157495Y0120412D01*
X0157497Y0120287D01*
X0157495Y0120162D01*
X0157489Y0120037D01*
X0157479Y0119913D01*
X0157465Y0119789D01*
X0157448Y0119665D01*
X0157426Y0119542D01*
X0157400Y0119420D01*
X0157371Y0119298D01*
X0157338Y0119178D01*
X0157300Y0119059D01*
X0157260Y0118940D01*
X0157215Y0118824D01*
X0157167Y0118709D01*
X0157115Y0118595D01*
X0157059Y0118483D01*
X0157000Y0118373D01*
X0156938Y0118265D01*
X0156872Y0118158D01*
X0156803Y0118054D01*
X0156730Y0117953D01*
X0156655Y0117853D01*
X0156576Y0117756D01*
X0156494Y0117662D01*
X0156409Y0117570D01*
X0156322Y0117481D01*
X0156231Y0117395D01*
X0156138Y0117312D01*
X0156042Y0117231D01*
X0155944Y0117154D01*
X0155844Y0117080D01*
X0155741Y0117009D01*
X0155636Y0116942D01*
X0155528Y0116877D01*
X0155419Y0116817D01*
X0155308Y0116759D01*
X0155195Y0116706D01*
X0155081Y0116656D01*
X0154965Y0116609D01*
X0154848Y0116567D01*
X0154729Y0116528D01*
X0154609Y0116492D01*
X0154488Y0116461D01*
X0154366Y0116433D01*
X0154244Y0116410D01*
X0154120Y0116390D01*
X0153996Y0116374D01*
X0153872Y0116362D01*
X0153747Y0116354D01*
X0153622Y0116350D01*
X0153498Y0116350D01*
X0153373Y0116354D01*
X0153248Y0116362D01*
X0153124Y0116374D01*
X0153000Y0116390D01*
X0152876Y0116410D01*
X0152754Y0116433D01*
X0152632Y0116461D01*
X0152511Y0116492D01*
X0152391Y0116528D01*
X0152272Y0116567D01*
X0152155Y0116609D01*
X0152039Y0116656D01*
X0151925Y0116706D01*
X0151812Y0116759D01*
X0151701Y0116817D01*
X0151591Y0116877D01*
X0151484Y0116942D01*
X0151379Y0117009D01*
X0151276Y0117080D01*
X0151176Y0117154D01*
X0151078Y0117231D01*
X0150982Y0117312D01*
X0150889Y0117395D01*
X0150798Y0117481D01*
X0150711Y0117570D01*
X0150626Y0117662D01*
X0150544Y0117756D01*
X0150465Y0117853D01*
X0150390Y0117953D01*
X0150317Y0118054D01*
X0150248Y0118158D01*
X0150182Y0118265D01*
X0150120Y0118373D01*
X0150061Y0118483D01*
X0150005Y0118595D01*
X0149953Y0118709D01*
X0149905Y0118824D01*
X0149860Y0118940D01*
X0149820Y0119059D01*
X0149782Y0119178D01*
X0149749Y0119298D01*
X0149720Y0119420D01*
X0149694Y0119542D01*
X0149672Y0119665D01*
X0149655Y0119789D01*
X0149641Y0119913D01*
X0149631Y0120037D01*
X0149625Y0120162D01*
X0149623Y0120287D01*
X0231623Y0120287D02*
X0231625Y0120412D01*
X0231631Y0120537D01*
X0231641Y0120661D01*
X0231655Y0120785D01*
X0231672Y0120909D01*
X0231694Y0121032D01*
X0231720Y0121154D01*
X0231749Y0121276D01*
X0231782Y0121396D01*
X0231820Y0121515D01*
X0231860Y0121634D01*
X0231905Y0121750D01*
X0231953Y0121865D01*
X0232005Y0121979D01*
X0232061Y0122091D01*
X0232120Y0122201D01*
X0232182Y0122309D01*
X0232248Y0122416D01*
X0232317Y0122520D01*
X0232390Y0122621D01*
X0232465Y0122721D01*
X0232544Y0122818D01*
X0232626Y0122912D01*
X0232711Y0123004D01*
X0232798Y0123093D01*
X0232889Y0123179D01*
X0232982Y0123262D01*
X0233078Y0123343D01*
X0233176Y0123420D01*
X0233276Y0123494D01*
X0233379Y0123565D01*
X0233484Y0123632D01*
X0233592Y0123697D01*
X0233701Y0123757D01*
X0233812Y0123815D01*
X0233925Y0123868D01*
X0234039Y0123918D01*
X0234155Y0123965D01*
X0234272Y0124007D01*
X0234391Y0124046D01*
X0234511Y0124082D01*
X0234632Y0124113D01*
X0234754Y0124141D01*
X0234876Y0124164D01*
X0235000Y0124184D01*
X0235124Y0124200D01*
X0235248Y0124212D01*
X0235373Y0124220D01*
X0235498Y0124224D01*
X0235622Y0124224D01*
X0235747Y0124220D01*
X0235872Y0124212D01*
X0235996Y0124200D01*
X0236120Y0124184D01*
X0236244Y0124164D01*
X0236366Y0124141D01*
X0236488Y0124113D01*
X0236609Y0124082D01*
X0236729Y0124046D01*
X0236848Y0124007D01*
X0236965Y0123965D01*
X0237081Y0123918D01*
X0237195Y0123868D01*
X0237308Y0123815D01*
X0237419Y0123757D01*
X0237529Y0123697D01*
X0237636Y0123632D01*
X0237741Y0123565D01*
X0237844Y0123494D01*
X0237944Y0123420D01*
X0238042Y0123343D01*
X0238138Y0123262D01*
X0238231Y0123179D01*
X0238322Y0123093D01*
X0238409Y0123004D01*
X0238494Y0122912D01*
X0238576Y0122818D01*
X0238655Y0122721D01*
X0238730Y0122621D01*
X0238803Y0122520D01*
X0238872Y0122416D01*
X0238938Y0122309D01*
X0239000Y0122201D01*
X0239059Y0122091D01*
X0239115Y0121979D01*
X0239167Y0121865D01*
X0239215Y0121750D01*
X0239260Y0121634D01*
X0239300Y0121515D01*
X0239338Y0121396D01*
X0239371Y0121276D01*
X0239400Y0121154D01*
X0239426Y0121032D01*
X0239448Y0120909D01*
X0239465Y0120785D01*
X0239479Y0120661D01*
X0239489Y0120537D01*
X0239495Y0120412D01*
X0239497Y0120287D01*
X0239495Y0120162D01*
X0239489Y0120037D01*
X0239479Y0119913D01*
X0239465Y0119789D01*
X0239448Y0119665D01*
X0239426Y0119542D01*
X0239400Y0119420D01*
X0239371Y0119298D01*
X0239338Y0119178D01*
X0239300Y0119059D01*
X0239260Y0118940D01*
X0239215Y0118824D01*
X0239167Y0118709D01*
X0239115Y0118595D01*
X0239059Y0118483D01*
X0239000Y0118373D01*
X0238938Y0118265D01*
X0238872Y0118158D01*
X0238803Y0118054D01*
X0238730Y0117953D01*
X0238655Y0117853D01*
X0238576Y0117756D01*
X0238494Y0117662D01*
X0238409Y0117570D01*
X0238322Y0117481D01*
X0238231Y0117395D01*
X0238138Y0117312D01*
X0238042Y0117231D01*
X0237944Y0117154D01*
X0237844Y0117080D01*
X0237741Y0117009D01*
X0237636Y0116942D01*
X0237528Y0116877D01*
X0237419Y0116817D01*
X0237308Y0116759D01*
X0237195Y0116706D01*
X0237081Y0116656D01*
X0236965Y0116609D01*
X0236848Y0116567D01*
X0236729Y0116528D01*
X0236609Y0116492D01*
X0236488Y0116461D01*
X0236366Y0116433D01*
X0236244Y0116410D01*
X0236120Y0116390D01*
X0235996Y0116374D01*
X0235872Y0116362D01*
X0235747Y0116354D01*
X0235622Y0116350D01*
X0235498Y0116350D01*
X0235373Y0116354D01*
X0235248Y0116362D01*
X0235124Y0116374D01*
X0235000Y0116390D01*
X0234876Y0116410D01*
X0234754Y0116433D01*
X0234632Y0116461D01*
X0234511Y0116492D01*
X0234391Y0116528D01*
X0234272Y0116567D01*
X0234155Y0116609D01*
X0234039Y0116656D01*
X0233925Y0116706D01*
X0233812Y0116759D01*
X0233701Y0116817D01*
X0233591Y0116877D01*
X0233484Y0116942D01*
X0233379Y0117009D01*
X0233276Y0117080D01*
X0233176Y0117154D01*
X0233078Y0117231D01*
X0232982Y0117312D01*
X0232889Y0117395D01*
X0232798Y0117481D01*
X0232711Y0117570D01*
X0232626Y0117662D01*
X0232544Y0117756D01*
X0232465Y0117853D01*
X0232390Y0117953D01*
X0232317Y0118054D01*
X0232248Y0118158D01*
X0232182Y0118265D01*
X0232120Y0118373D01*
X0232061Y0118483D01*
X0232005Y0118595D01*
X0231953Y0118709D01*
X0231905Y0118824D01*
X0231860Y0118940D01*
X0231820Y0119059D01*
X0231782Y0119178D01*
X0231749Y0119298D01*
X0231720Y0119420D01*
X0231694Y0119542D01*
X0231672Y0119665D01*
X0231655Y0119789D01*
X0231641Y0119913D01*
X0231631Y0120037D01*
X0231625Y0120162D01*
X0231623Y0120287D01*
X0248714Y0078022D02*
X0248716Y0078180D01*
X0248722Y0078338D01*
X0248732Y0078496D01*
X0248746Y0078654D01*
X0248764Y0078811D01*
X0248785Y0078968D01*
X0248811Y0079124D01*
X0248841Y0079280D01*
X0248874Y0079435D01*
X0248912Y0079588D01*
X0248953Y0079741D01*
X0248998Y0079893D01*
X0249047Y0080044D01*
X0249100Y0080193D01*
X0249156Y0080341D01*
X0249216Y0080487D01*
X0249280Y0080632D01*
X0249348Y0080775D01*
X0249419Y0080917D01*
X0249493Y0081057D01*
X0249571Y0081194D01*
X0249653Y0081330D01*
X0249737Y0081464D01*
X0249826Y0081595D01*
X0249917Y0081724D01*
X0250012Y0081851D01*
X0250109Y0081976D01*
X0250210Y0082098D01*
X0250314Y0082217D01*
X0250421Y0082334D01*
X0250531Y0082448D01*
X0250644Y0082559D01*
X0250759Y0082668D01*
X0250877Y0082773D01*
X0250998Y0082875D01*
X0251121Y0082975D01*
X0251247Y0083071D01*
X0251375Y0083164D01*
X0251505Y0083254D01*
X0251638Y0083340D01*
X0251773Y0083424D01*
X0251909Y0083503D01*
X0252048Y0083580D01*
X0252189Y0083652D01*
X0252331Y0083722D01*
X0252475Y0083787D01*
X0252621Y0083849D01*
X0252768Y0083907D01*
X0252917Y0083962D01*
X0253067Y0084013D01*
X0253218Y0084060D01*
X0253370Y0084103D01*
X0253523Y0084142D01*
X0253678Y0084178D01*
X0253833Y0084209D01*
X0253989Y0084237D01*
X0254145Y0084261D01*
X0254302Y0084281D01*
X0254460Y0084297D01*
X0254617Y0084309D01*
X0254776Y0084317D01*
X0254934Y0084321D01*
X0255092Y0084321D01*
X0255250Y0084317D01*
X0255409Y0084309D01*
X0255566Y0084297D01*
X0255724Y0084281D01*
X0255881Y0084261D01*
X0256037Y0084237D01*
X0256193Y0084209D01*
X0256348Y0084178D01*
X0256503Y0084142D01*
X0256656Y0084103D01*
X0256808Y0084060D01*
X0256959Y0084013D01*
X0257109Y0083962D01*
X0257258Y0083907D01*
X0257405Y0083849D01*
X0257551Y0083787D01*
X0257695Y0083722D01*
X0257837Y0083652D01*
X0257978Y0083580D01*
X0258117Y0083503D01*
X0258253Y0083424D01*
X0258388Y0083340D01*
X0258521Y0083254D01*
X0258651Y0083164D01*
X0258779Y0083071D01*
X0258905Y0082975D01*
X0259028Y0082875D01*
X0259149Y0082773D01*
X0259267Y0082668D01*
X0259382Y0082559D01*
X0259495Y0082448D01*
X0259605Y0082334D01*
X0259712Y0082217D01*
X0259816Y0082098D01*
X0259917Y0081976D01*
X0260014Y0081851D01*
X0260109Y0081724D01*
X0260200Y0081595D01*
X0260289Y0081464D01*
X0260373Y0081330D01*
X0260455Y0081194D01*
X0260533Y0081057D01*
X0260607Y0080917D01*
X0260678Y0080775D01*
X0260746Y0080632D01*
X0260810Y0080487D01*
X0260870Y0080341D01*
X0260926Y0080193D01*
X0260979Y0080044D01*
X0261028Y0079893D01*
X0261073Y0079741D01*
X0261114Y0079588D01*
X0261152Y0079435D01*
X0261185Y0079280D01*
X0261215Y0079124D01*
X0261241Y0078968D01*
X0261262Y0078811D01*
X0261280Y0078654D01*
X0261294Y0078496D01*
X0261304Y0078338D01*
X0261310Y0078180D01*
X0261312Y0078022D01*
X0261310Y0077864D01*
X0261304Y0077706D01*
X0261294Y0077548D01*
X0261280Y0077390D01*
X0261262Y0077233D01*
X0261241Y0077076D01*
X0261215Y0076920D01*
X0261185Y0076764D01*
X0261152Y0076609D01*
X0261114Y0076456D01*
X0261073Y0076303D01*
X0261028Y0076151D01*
X0260979Y0076000D01*
X0260926Y0075851D01*
X0260870Y0075703D01*
X0260810Y0075557D01*
X0260746Y0075412D01*
X0260678Y0075269D01*
X0260607Y0075127D01*
X0260533Y0074987D01*
X0260455Y0074850D01*
X0260373Y0074714D01*
X0260289Y0074580D01*
X0260200Y0074449D01*
X0260109Y0074320D01*
X0260014Y0074193D01*
X0259917Y0074068D01*
X0259816Y0073946D01*
X0259712Y0073827D01*
X0259605Y0073710D01*
X0259495Y0073596D01*
X0259382Y0073485D01*
X0259267Y0073376D01*
X0259149Y0073271D01*
X0259028Y0073169D01*
X0258905Y0073069D01*
X0258779Y0072973D01*
X0258651Y0072880D01*
X0258521Y0072790D01*
X0258388Y0072704D01*
X0258253Y0072620D01*
X0258117Y0072541D01*
X0257978Y0072464D01*
X0257837Y0072392D01*
X0257695Y0072322D01*
X0257551Y0072257D01*
X0257405Y0072195D01*
X0257258Y0072137D01*
X0257109Y0072082D01*
X0256959Y0072031D01*
X0256808Y0071984D01*
X0256656Y0071941D01*
X0256503Y0071902D01*
X0256348Y0071866D01*
X0256193Y0071835D01*
X0256037Y0071807D01*
X0255881Y0071783D01*
X0255724Y0071763D01*
X0255566Y0071747D01*
X0255409Y0071735D01*
X0255250Y0071727D01*
X0255092Y0071723D01*
X0254934Y0071723D01*
X0254776Y0071727D01*
X0254617Y0071735D01*
X0254460Y0071747D01*
X0254302Y0071763D01*
X0254145Y0071783D01*
X0253989Y0071807D01*
X0253833Y0071835D01*
X0253678Y0071866D01*
X0253523Y0071902D01*
X0253370Y0071941D01*
X0253218Y0071984D01*
X0253067Y0072031D01*
X0252917Y0072082D01*
X0252768Y0072137D01*
X0252621Y0072195D01*
X0252475Y0072257D01*
X0252331Y0072322D01*
X0252189Y0072392D01*
X0252048Y0072464D01*
X0251909Y0072541D01*
X0251773Y0072620D01*
X0251638Y0072704D01*
X0251505Y0072790D01*
X0251375Y0072880D01*
X0251247Y0072973D01*
X0251121Y0073069D01*
X0250998Y0073169D01*
X0250877Y0073271D01*
X0250759Y0073376D01*
X0250644Y0073485D01*
X0250531Y0073596D01*
X0250421Y0073710D01*
X0250314Y0073827D01*
X0250210Y0073946D01*
X0250109Y0074068D01*
X0250012Y0074193D01*
X0249917Y0074320D01*
X0249826Y0074449D01*
X0249737Y0074580D01*
X0249653Y0074714D01*
X0249571Y0074850D01*
X0249493Y0074987D01*
X0249419Y0075127D01*
X0249348Y0075269D01*
X0249280Y0075412D01*
X0249216Y0075557D01*
X0249156Y0075703D01*
X0249100Y0075851D01*
X0249047Y0076000D01*
X0248998Y0076151D01*
X0248953Y0076303D01*
X0248912Y0076456D01*
X0248874Y0076609D01*
X0248841Y0076764D01*
X0248811Y0076920D01*
X0248785Y0077076D01*
X0248764Y0077233D01*
X0248746Y0077390D01*
X0248732Y0077548D01*
X0248722Y0077706D01*
X0248716Y0077864D01*
X0248714Y0078022D01*
X0206981Y0015817D02*
X0206983Y0015975D01*
X0206989Y0016133D01*
X0206999Y0016291D01*
X0207013Y0016449D01*
X0207031Y0016606D01*
X0207052Y0016763D01*
X0207078Y0016919D01*
X0207108Y0017075D01*
X0207141Y0017230D01*
X0207179Y0017383D01*
X0207220Y0017536D01*
X0207265Y0017688D01*
X0207314Y0017839D01*
X0207367Y0017988D01*
X0207423Y0018136D01*
X0207483Y0018282D01*
X0207547Y0018427D01*
X0207615Y0018570D01*
X0207686Y0018712D01*
X0207760Y0018852D01*
X0207838Y0018989D01*
X0207920Y0019125D01*
X0208004Y0019259D01*
X0208093Y0019390D01*
X0208184Y0019519D01*
X0208279Y0019646D01*
X0208376Y0019771D01*
X0208477Y0019893D01*
X0208581Y0020012D01*
X0208688Y0020129D01*
X0208798Y0020243D01*
X0208911Y0020354D01*
X0209026Y0020463D01*
X0209144Y0020568D01*
X0209265Y0020670D01*
X0209388Y0020770D01*
X0209514Y0020866D01*
X0209642Y0020959D01*
X0209772Y0021049D01*
X0209905Y0021135D01*
X0210040Y0021219D01*
X0210176Y0021298D01*
X0210315Y0021375D01*
X0210456Y0021447D01*
X0210598Y0021517D01*
X0210742Y0021582D01*
X0210888Y0021644D01*
X0211035Y0021702D01*
X0211184Y0021757D01*
X0211334Y0021808D01*
X0211485Y0021855D01*
X0211637Y0021898D01*
X0211790Y0021937D01*
X0211945Y0021973D01*
X0212100Y0022004D01*
X0212256Y0022032D01*
X0212412Y0022056D01*
X0212569Y0022076D01*
X0212727Y0022092D01*
X0212884Y0022104D01*
X0213043Y0022112D01*
X0213201Y0022116D01*
X0213359Y0022116D01*
X0213517Y0022112D01*
X0213676Y0022104D01*
X0213833Y0022092D01*
X0213991Y0022076D01*
X0214148Y0022056D01*
X0214304Y0022032D01*
X0214460Y0022004D01*
X0214615Y0021973D01*
X0214770Y0021937D01*
X0214923Y0021898D01*
X0215075Y0021855D01*
X0215226Y0021808D01*
X0215376Y0021757D01*
X0215525Y0021702D01*
X0215672Y0021644D01*
X0215818Y0021582D01*
X0215962Y0021517D01*
X0216104Y0021447D01*
X0216245Y0021375D01*
X0216384Y0021298D01*
X0216520Y0021219D01*
X0216655Y0021135D01*
X0216788Y0021049D01*
X0216918Y0020959D01*
X0217046Y0020866D01*
X0217172Y0020770D01*
X0217295Y0020670D01*
X0217416Y0020568D01*
X0217534Y0020463D01*
X0217649Y0020354D01*
X0217762Y0020243D01*
X0217872Y0020129D01*
X0217979Y0020012D01*
X0218083Y0019893D01*
X0218184Y0019771D01*
X0218281Y0019646D01*
X0218376Y0019519D01*
X0218467Y0019390D01*
X0218556Y0019259D01*
X0218640Y0019125D01*
X0218722Y0018989D01*
X0218800Y0018852D01*
X0218874Y0018712D01*
X0218945Y0018570D01*
X0219013Y0018427D01*
X0219077Y0018282D01*
X0219137Y0018136D01*
X0219193Y0017988D01*
X0219246Y0017839D01*
X0219295Y0017688D01*
X0219340Y0017536D01*
X0219381Y0017383D01*
X0219419Y0017230D01*
X0219452Y0017075D01*
X0219482Y0016919D01*
X0219508Y0016763D01*
X0219529Y0016606D01*
X0219547Y0016449D01*
X0219561Y0016291D01*
X0219571Y0016133D01*
X0219577Y0015975D01*
X0219579Y0015817D01*
X0219577Y0015659D01*
X0219571Y0015501D01*
X0219561Y0015343D01*
X0219547Y0015185D01*
X0219529Y0015028D01*
X0219508Y0014871D01*
X0219482Y0014715D01*
X0219452Y0014559D01*
X0219419Y0014404D01*
X0219381Y0014251D01*
X0219340Y0014098D01*
X0219295Y0013946D01*
X0219246Y0013795D01*
X0219193Y0013646D01*
X0219137Y0013498D01*
X0219077Y0013352D01*
X0219013Y0013207D01*
X0218945Y0013064D01*
X0218874Y0012922D01*
X0218800Y0012782D01*
X0218722Y0012645D01*
X0218640Y0012509D01*
X0218556Y0012375D01*
X0218467Y0012244D01*
X0218376Y0012115D01*
X0218281Y0011988D01*
X0218184Y0011863D01*
X0218083Y0011741D01*
X0217979Y0011622D01*
X0217872Y0011505D01*
X0217762Y0011391D01*
X0217649Y0011280D01*
X0217534Y0011171D01*
X0217416Y0011066D01*
X0217295Y0010964D01*
X0217172Y0010864D01*
X0217046Y0010768D01*
X0216918Y0010675D01*
X0216788Y0010585D01*
X0216655Y0010499D01*
X0216520Y0010415D01*
X0216384Y0010336D01*
X0216245Y0010259D01*
X0216104Y0010187D01*
X0215962Y0010117D01*
X0215818Y0010052D01*
X0215672Y0009990D01*
X0215525Y0009932D01*
X0215376Y0009877D01*
X0215226Y0009826D01*
X0215075Y0009779D01*
X0214923Y0009736D01*
X0214770Y0009697D01*
X0214615Y0009661D01*
X0214460Y0009630D01*
X0214304Y0009602D01*
X0214148Y0009578D01*
X0213991Y0009558D01*
X0213833Y0009542D01*
X0213676Y0009530D01*
X0213517Y0009522D01*
X0213359Y0009518D01*
X0213201Y0009518D01*
X0213043Y0009522D01*
X0212884Y0009530D01*
X0212727Y0009542D01*
X0212569Y0009558D01*
X0212412Y0009578D01*
X0212256Y0009602D01*
X0212100Y0009630D01*
X0211945Y0009661D01*
X0211790Y0009697D01*
X0211637Y0009736D01*
X0211485Y0009779D01*
X0211334Y0009826D01*
X0211184Y0009877D01*
X0211035Y0009932D01*
X0210888Y0009990D01*
X0210742Y0010052D01*
X0210598Y0010117D01*
X0210456Y0010187D01*
X0210315Y0010259D01*
X0210176Y0010336D01*
X0210040Y0010415D01*
X0209905Y0010499D01*
X0209772Y0010585D01*
X0209642Y0010675D01*
X0209514Y0010768D01*
X0209388Y0010864D01*
X0209265Y0010964D01*
X0209144Y0011066D01*
X0209026Y0011171D01*
X0208911Y0011280D01*
X0208798Y0011391D01*
X0208688Y0011505D01*
X0208581Y0011622D01*
X0208477Y0011741D01*
X0208376Y0011863D01*
X0208279Y0011988D01*
X0208184Y0012115D01*
X0208093Y0012244D01*
X0208004Y0012375D01*
X0207920Y0012509D01*
X0207838Y0012645D01*
X0207760Y0012782D01*
X0207686Y0012922D01*
X0207615Y0013064D01*
X0207547Y0013207D01*
X0207483Y0013352D01*
X0207423Y0013498D01*
X0207367Y0013646D01*
X0207314Y0013795D01*
X0207265Y0013946D01*
X0207220Y0014098D01*
X0207179Y0014251D01*
X0207141Y0014404D01*
X0207108Y0014559D01*
X0207078Y0014715D01*
X0207052Y0014871D01*
X0207031Y0015028D01*
X0207013Y0015185D01*
X0206999Y0015343D01*
X0206989Y0015501D01*
X0206983Y0015659D01*
X0206981Y0015817D01*
X0373517Y0015817D02*
X0373519Y0015975D01*
X0373525Y0016133D01*
X0373535Y0016291D01*
X0373549Y0016449D01*
X0373567Y0016606D01*
X0373588Y0016763D01*
X0373614Y0016919D01*
X0373644Y0017075D01*
X0373677Y0017230D01*
X0373715Y0017383D01*
X0373756Y0017536D01*
X0373801Y0017688D01*
X0373850Y0017839D01*
X0373903Y0017988D01*
X0373959Y0018136D01*
X0374019Y0018282D01*
X0374083Y0018427D01*
X0374151Y0018570D01*
X0374222Y0018712D01*
X0374296Y0018852D01*
X0374374Y0018989D01*
X0374456Y0019125D01*
X0374540Y0019259D01*
X0374629Y0019390D01*
X0374720Y0019519D01*
X0374815Y0019646D01*
X0374912Y0019771D01*
X0375013Y0019893D01*
X0375117Y0020012D01*
X0375224Y0020129D01*
X0375334Y0020243D01*
X0375447Y0020354D01*
X0375562Y0020463D01*
X0375680Y0020568D01*
X0375801Y0020670D01*
X0375924Y0020770D01*
X0376050Y0020866D01*
X0376178Y0020959D01*
X0376308Y0021049D01*
X0376441Y0021135D01*
X0376576Y0021219D01*
X0376712Y0021298D01*
X0376851Y0021375D01*
X0376992Y0021447D01*
X0377134Y0021517D01*
X0377278Y0021582D01*
X0377424Y0021644D01*
X0377571Y0021702D01*
X0377720Y0021757D01*
X0377870Y0021808D01*
X0378021Y0021855D01*
X0378173Y0021898D01*
X0378326Y0021937D01*
X0378481Y0021973D01*
X0378636Y0022004D01*
X0378792Y0022032D01*
X0378948Y0022056D01*
X0379105Y0022076D01*
X0379263Y0022092D01*
X0379420Y0022104D01*
X0379579Y0022112D01*
X0379737Y0022116D01*
X0379895Y0022116D01*
X0380053Y0022112D01*
X0380212Y0022104D01*
X0380369Y0022092D01*
X0380527Y0022076D01*
X0380684Y0022056D01*
X0380840Y0022032D01*
X0380996Y0022004D01*
X0381151Y0021973D01*
X0381306Y0021937D01*
X0381459Y0021898D01*
X0381611Y0021855D01*
X0381762Y0021808D01*
X0381912Y0021757D01*
X0382061Y0021702D01*
X0382208Y0021644D01*
X0382354Y0021582D01*
X0382498Y0021517D01*
X0382640Y0021447D01*
X0382781Y0021375D01*
X0382920Y0021298D01*
X0383056Y0021219D01*
X0383191Y0021135D01*
X0383324Y0021049D01*
X0383454Y0020959D01*
X0383582Y0020866D01*
X0383708Y0020770D01*
X0383831Y0020670D01*
X0383952Y0020568D01*
X0384070Y0020463D01*
X0384185Y0020354D01*
X0384298Y0020243D01*
X0384408Y0020129D01*
X0384515Y0020012D01*
X0384619Y0019893D01*
X0384720Y0019771D01*
X0384817Y0019646D01*
X0384912Y0019519D01*
X0385003Y0019390D01*
X0385092Y0019259D01*
X0385176Y0019125D01*
X0385258Y0018989D01*
X0385336Y0018852D01*
X0385410Y0018712D01*
X0385481Y0018570D01*
X0385549Y0018427D01*
X0385613Y0018282D01*
X0385673Y0018136D01*
X0385729Y0017988D01*
X0385782Y0017839D01*
X0385831Y0017688D01*
X0385876Y0017536D01*
X0385917Y0017383D01*
X0385955Y0017230D01*
X0385988Y0017075D01*
X0386018Y0016919D01*
X0386044Y0016763D01*
X0386065Y0016606D01*
X0386083Y0016449D01*
X0386097Y0016291D01*
X0386107Y0016133D01*
X0386113Y0015975D01*
X0386115Y0015817D01*
X0386113Y0015659D01*
X0386107Y0015501D01*
X0386097Y0015343D01*
X0386083Y0015185D01*
X0386065Y0015028D01*
X0386044Y0014871D01*
X0386018Y0014715D01*
X0385988Y0014559D01*
X0385955Y0014404D01*
X0385917Y0014251D01*
X0385876Y0014098D01*
X0385831Y0013946D01*
X0385782Y0013795D01*
X0385729Y0013646D01*
X0385673Y0013498D01*
X0385613Y0013352D01*
X0385549Y0013207D01*
X0385481Y0013064D01*
X0385410Y0012922D01*
X0385336Y0012782D01*
X0385258Y0012645D01*
X0385176Y0012509D01*
X0385092Y0012375D01*
X0385003Y0012244D01*
X0384912Y0012115D01*
X0384817Y0011988D01*
X0384720Y0011863D01*
X0384619Y0011741D01*
X0384515Y0011622D01*
X0384408Y0011505D01*
X0384298Y0011391D01*
X0384185Y0011280D01*
X0384070Y0011171D01*
X0383952Y0011066D01*
X0383831Y0010964D01*
X0383708Y0010864D01*
X0383582Y0010768D01*
X0383454Y0010675D01*
X0383324Y0010585D01*
X0383191Y0010499D01*
X0383056Y0010415D01*
X0382920Y0010336D01*
X0382781Y0010259D01*
X0382640Y0010187D01*
X0382498Y0010117D01*
X0382354Y0010052D01*
X0382208Y0009990D01*
X0382061Y0009932D01*
X0381912Y0009877D01*
X0381762Y0009826D01*
X0381611Y0009779D01*
X0381459Y0009736D01*
X0381306Y0009697D01*
X0381151Y0009661D01*
X0380996Y0009630D01*
X0380840Y0009602D01*
X0380684Y0009578D01*
X0380527Y0009558D01*
X0380369Y0009542D01*
X0380212Y0009530D01*
X0380053Y0009522D01*
X0379895Y0009518D01*
X0379737Y0009518D01*
X0379579Y0009522D01*
X0379420Y0009530D01*
X0379263Y0009542D01*
X0379105Y0009558D01*
X0378948Y0009578D01*
X0378792Y0009602D01*
X0378636Y0009630D01*
X0378481Y0009661D01*
X0378326Y0009697D01*
X0378173Y0009736D01*
X0378021Y0009779D01*
X0377870Y0009826D01*
X0377720Y0009877D01*
X0377571Y0009932D01*
X0377424Y0009990D01*
X0377278Y0010052D01*
X0377134Y0010117D01*
X0376992Y0010187D01*
X0376851Y0010259D01*
X0376712Y0010336D01*
X0376576Y0010415D01*
X0376441Y0010499D01*
X0376308Y0010585D01*
X0376178Y0010675D01*
X0376050Y0010768D01*
X0375924Y0010864D01*
X0375801Y0010964D01*
X0375680Y0011066D01*
X0375562Y0011171D01*
X0375447Y0011280D01*
X0375334Y0011391D01*
X0375224Y0011505D01*
X0375117Y0011622D01*
X0375013Y0011741D01*
X0374912Y0011863D01*
X0374815Y0011988D01*
X0374720Y0012115D01*
X0374629Y0012244D01*
X0374540Y0012375D01*
X0374456Y0012509D01*
X0374374Y0012645D01*
X0374296Y0012782D01*
X0374222Y0012922D01*
X0374151Y0013064D01*
X0374083Y0013207D01*
X0374019Y0013352D01*
X0373959Y0013498D01*
X0373903Y0013646D01*
X0373850Y0013795D01*
X0373801Y0013946D01*
X0373756Y0014098D01*
X0373715Y0014251D01*
X0373677Y0014404D01*
X0373644Y0014559D01*
X0373614Y0014715D01*
X0373588Y0014871D01*
X0373567Y0015028D01*
X0373549Y0015185D01*
X0373535Y0015343D01*
X0373525Y0015501D01*
X0373519Y0015659D01*
X0373517Y0015817D01*
X0231623Y0211287D02*
X0231625Y0211412D01*
X0231631Y0211537D01*
X0231641Y0211661D01*
X0231655Y0211785D01*
X0231672Y0211909D01*
X0231694Y0212032D01*
X0231720Y0212154D01*
X0231749Y0212276D01*
X0231782Y0212396D01*
X0231820Y0212515D01*
X0231860Y0212634D01*
X0231905Y0212750D01*
X0231953Y0212865D01*
X0232005Y0212979D01*
X0232061Y0213091D01*
X0232120Y0213201D01*
X0232182Y0213309D01*
X0232248Y0213416D01*
X0232317Y0213520D01*
X0232390Y0213621D01*
X0232465Y0213721D01*
X0232544Y0213818D01*
X0232626Y0213912D01*
X0232711Y0214004D01*
X0232798Y0214093D01*
X0232889Y0214179D01*
X0232982Y0214262D01*
X0233078Y0214343D01*
X0233176Y0214420D01*
X0233276Y0214494D01*
X0233379Y0214565D01*
X0233484Y0214632D01*
X0233592Y0214697D01*
X0233701Y0214757D01*
X0233812Y0214815D01*
X0233925Y0214868D01*
X0234039Y0214918D01*
X0234155Y0214965D01*
X0234272Y0215007D01*
X0234391Y0215046D01*
X0234511Y0215082D01*
X0234632Y0215113D01*
X0234754Y0215141D01*
X0234876Y0215164D01*
X0235000Y0215184D01*
X0235124Y0215200D01*
X0235248Y0215212D01*
X0235373Y0215220D01*
X0235498Y0215224D01*
X0235622Y0215224D01*
X0235747Y0215220D01*
X0235872Y0215212D01*
X0235996Y0215200D01*
X0236120Y0215184D01*
X0236244Y0215164D01*
X0236366Y0215141D01*
X0236488Y0215113D01*
X0236609Y0215082D01*
X0236729Y0215046D01*
X0236848Y0215007D01*
X0236965Y0214965D01*
X0237081Y0214918D01*
X0237195Y0214868D01*
X0237308Y0214815D01*
X0237419Y0214757D01*
X0237529Y0214697D01*
X0237636Y0214632D01*
X0237741Y0214565D01*
X0237844Y0214494D01*
X0237944Y0214420D01*
X0238042Y0214343D01*
X0238138Y0214262D01*
X0238231Y0214179D01*
X0238322Y0214093D01*
X0238409Y0214004D01*
X0238494Y0213912D01*
X0238576Y0213818D01*
X0238655Y0213721D01*
X0238730Y0213621D01*
X0238803Y0213520D01*
X0238872Y0213416D01*
X0238938Y0213309D01*
X0239000Y0213201D01*
X0239059Y0213091D01*
X0239115Y0212979D01*
X0239167Y0212865D01*
X0239215Y0212750D01*
X0239260Y0212634D01*
X0239300Y0212515D01*
X0239338Y0212396D01*
X0239371Y0212276D01*
X0239400Y0212154D01*
X0239426Y0212032D01*
X0239448Y0211909D01*
X0239465Y0211785D01*
X0239479Y0211661D01*
X0239489Y0211537D01*
X0239495Y0211412D01*
X0239497Y0211287D01*
X0239495Y0211162D01*
X0239489Y0211037D01*
X0239479Y0210913D01*
X0239465Y0210789D01*
X0239448Y0210665D01*
X0239426Y0210542D01*
X0239400Y0210420D01*
X0239371Y0210298D01*
X0239338Y0210178D01*
X0239300Y0210059D01*
X0239260Y0209940D01*
X0239215Y0209824D01*
X0239167Y0209709D01*
X0239115Y0209595D01*
X0239059Y0209483D01*
X0239000Y0209373D01*
X0238938Y0209265D01*
X0238872Y0209158D01*
X0238803Y0209054D01*
X0238730Y0208953D01*
X0238655Y0208853D01*
X0238576Y0208756D01*
X0238494Y0208662D01*
X0238409Y0208570D01*
X0238322Y0208481D01*
X0238231Y0208395D01*
X0238138Y0208312D01*
X0238042Y0208231D01*
X0237944Y0208154D01*
X0237844Y0208080D01*
X0237741Y0208009D01*
X0237636Y0207942D01*
X0237528Y0207877D01*
X0237419Y0207817D01*
X0237308Y0207759D01*
X0237195Y0207706D01*
X0237081Y0207656D01*
X0236965Y0207609D01*
X0236848Y0207567D01*
X0236729Y0207528D01*
X0236609Y0207492D01*
X0236488Y0207461D01*
X0236366Y0207433D01*
X0236244Y0207410D01*
X0236120Y0207390D01*
X0235996Y0207374D01*
X0235872Y0207362D01*
X0235747Y0207354D01*
X0235622Y0207350D01*
X0235498Y0207350D01*
X0235373Y0207354D01*
X0235248Y0207362D01*
X0235124Y0207374D01*
X0235000Y0207390D01*
X0234876Y0207410D01*
X0234754Y0207433D01*
X0234632Y0207461D01*
X0234511Y0207492D01*
X0234391Y0207528D01*
X0234272Y0207567D01*
X0234155Y0207609D01*
X0234039Y0207656D01*
X0233925Y0207706D01*
X0233812Y0207759D01*
X0233701Y0207817D01*
X0233591Y0207877D01*
X0233484Y0207942D01*
X0233379Y0208009D01*
X0233276Y0208080D01*
X0233176Y0208154D01*
X0233078Y0208231D01*
X0232982Y0208312D01*
X0232889Y0208395D01*
X0232798Y0208481D01*
X0232711Y0208570D01*
X0232626Y0208662D01*
X0232544Y0208756D01*
X0232465Y0208853D01*
X0232390Y0208953D01*
X0232317Y0209054D01*
X0232248Y0209158D01*
X0232182Y0209265D01*
X0232120Y0209373D01*
X0232061Y0209483D01*
X0232005Y0209595D01*
X0231953Y0209709D01*
X0231905Y0209824D01*
X0231860Y0209940D01*
X0231820Y0210059D01*
X0231782Y0210178D01*
X0231749Y0210298D01*
X0231720Y0210420D01*
X0231694Y0210542D01*
X0231672Y0210665D01*
X0231655Y0210789D01*
X0231641Y0210913D01*
X0231631Y0211037D01*
X0231625Y0211162D01*
X0231623Y0211287D01*
X0206981Y0234715D02*
X0206983Y0234873D01*
X0206989Y0235031D01*
X0206999Y0235189D01*
X0207013Y0235347D01*
X0207031Y0235504D01*
X0207052Y0235661D01*
X0207078Y0235817D01*
X0207108Y0235973D01*
X0207141Y0236128D01*
X0207179Y0236281D01*
X0207220Y0236434D01*
X0207265Y0236586D01*
X0207314Y0236737D01*
X0207367Y0236886D01*
X0207423Y0237034D01*
X0207483Y0237180D01*
X0207547Y0237325D01*
X0207615Y0237468D01*
X0207686Y0237610D01*
X0207760Y0237750D01*
X0207838Y0237887D01*
X0207920Y0238023D01*
X0208004Y0238157D01*
X0208093Y0238288D01*
X0208184Y0238417D01*
X0208279Y0238544D01*
X0208376Y0238669D01*
X0208477Y0238791D01*
X0208581Y0238910D01*
X0208688Y0239027D01*
X0208798Y0239141D01*
X0208911Y0239252D01*
X0209026Y0239361D01*
X0209144Y0239466D01*
X0209265Y0239568D01*
X0209388Y0239668D01*
X0209514Y0239764D01*
X0209642Y0239857D01*
X0209772Y0239947D01*
X0209905Y0240033D01*
X0210040Y0240117D01*
X0210176Y0240196D01*
X0210315Y0240273D01*
X0210456Y0240345D01*
X0210598Y0240415D01*
X0210742Y0240480D01*
X0210888Y0240542D01*
X0211035Y0240600D01*
X0211184Y0240655D01*
X0211334Y0240706D01*
X0211485Y0240753D01*
X0211637Y0240796D01*
X0211790Y0240835D01*
X0211945Y0240871D01*
X0212100Y0240902D01*
X0212256Y0240930D01*
X0212412Y0240954D01*
X0212569Y0240974D01*
X0212727Y0240990D01*
X0212884Y0241002D01*
X0213043Y0241010D01*
X0213201Y0241014D01*
X0213359Y0241014D01*
X0213517Y0241010D01*
X0213676Y0241002D01*
X0213833Y0240990D01*
X0213991Y0240974D01*
X0214148Y0240954D01*
X0214304Y0240930D01*
X0214460Y0240902D01*
X0214615Y0240871D01*
X0214770Y0240835D01*
X0214923Y0240796D01*
X0215075Y0240753D01*
X0215226Y0240706D01*
X0215376Y0240655D01*
X0215525Y0240600D01*
X0215672Y0240542D01*
X0215818Y0240480D01*
X0215962Y0240415D01*
X0216104Y0240345D01*
X0216245Y0240273D01*
X0216384Y0240196D01*
X0216520Y0240117D01*
X0216655Y0240033D01*
X0216788Y0239947D01*
X0216918Y0239857D01*
X0217046Y0239764D01*
X0217172Y0239668D01*
X0217295Y0239568D01*
X0217416Y0239466D01*
X0217534Y0239361D01*
X0217649Y0239252D01*
X0217762Y0239141D01*
X0217872Y0239027D01*
X0217979Y0238910D01*
X0218083Y0238791D01*
X0218184Y0238669D01*
X0218281Y0238544D01*
X0218376Y0238417D01*
X0218467Y0238288D01*
X0218556Y0238157D01*
X0218640Y0238023D01*
X0218722Y0237887D01*
X0218800Y0237750D01*
X0218874Y0237610D01*
X0218945Y0237468D01*
X0219013Y0237325D01*
X0219077Y0237180D01*
X0219137Y0237034D01*
X0219193Y0236886D01*
X0219246Y0236737D01*
X0219295Y0236586D01*
X0219340Y0236434D01*
X0219381Y0236281D01*
X0219419Y0236128D01*
X0219452Y0235973D01*
X0219482Y0235817D01*
X0219508Y0235661D01*
X0219529Y0235504D01*
X0219547Y0235347D01*
X0219561Y0235189D01*
X0219571Y0235031D01*
X0219577Y0234873D01*
X0219579Y0234715D01*
X0219577Y0234557D01*
X0219571Y0234399D01*
X0219561Y0234241D01*
X0219547Y0234083D01*
X0219529Y0233926D01*
X0219508Y0233769D01*
X0219482Y0233613D01*
X0219452Y0233457D01*
X0219419Y0233302D01*
X0219381Y0233149D01*
X0219340Y0232996D01*
X0219295Y0232844D01*
X0219246Y0232693D01*
X0219193Y0232544D01*
X0219137Y0232396D01*
X0219077Y0232250D01*
X0219013Y0232105D01*
X0218945Y0231962D01*
X0218874Y0231820D01*
X0218800Y0231680D01*
X0218722Y0231543D01*
X0218640Y0231407D01*
X0218556Y0231273D01*
X0218467Y0231142D01*
X0218376Y0231013D01*
X0218281Y0230886D01*
X0218184Y0230761D01*
X0218083Y0230639D01*
X0217979Y0230520D01*
X0217872Y0230403D01*
X0217762Y0230289D01*
X0217649Y0230178D01*
X0217534Y0230069D01*
X0217416Y0229964D01*
X0217295Y0229862D01*
X0217172Y0229762D01*
X0217046Y0229666D01*
X0216918Y0229573D01*
X0216788Y0229483D01*
X0216655Y0229397D01*
X0216520Y0229313D01*
X0216384Y0229234D01*
X0216245Y0229157D01*
X0216104Y0229085D01*
X0215962Y0229015D01*
X0215818Y0228950D01*
X0215672Y0228888D01*
X0215525Y0228830D01*
X0215376Y0228775D01*
X0215226Y0228724D01*
X0215075Y0228677D01*
X0214923Y0228634D01*
X0214770Y0228595D01*
X0214615Y0228559D01*
X0214460Y0228528D01*
X0214304Y0228500D01*
X0214148Y0228476D01*
X0213991Y0228456D01*
X0213833Y0228440D01*
X0213676Y0228428D01*
X0213517Y0228420D01*
X0213359Y0228416D01*
X0213201Y0228416D01*
X0213043Y0228420D01*
X0212884Y0228428D01*
X0212727Y0228440D01*
X0212569Y0228456D01*
X0212412Y0228476D01*
X0212256Y0228500D01*
X0212100Y0228528D01*
X0211945Y0228559D01*
X0211790Y0228595D01*
X0211637Y0228634D01*
X0211485Y0228677D01*
X0211334Y0228724D01*
X0211184Y0228775D01*
X0211035Y0228830D01*
X0210888Y0228888D01*
X0210742Y0228950D01*
X0210598Y0229015D01*
X0210456Y0229085D01*
X0210315Y0229157D01*
X0210176Y0229234D01*
X0210040Y0229313D01*
X0209905Y0229397D01*
X0209772Y0229483D01*
X0209642Y0229573D01*
X0209514Y0229666D01*
X0209388Y0229762D01*
X0209265Y0229862D01*
X0209144Y0229964D01*
X0209026Y0230069D01*
X0208911Y0230178D01*
X0208798Y0230289D01*
X0208688Y0230403D01*
X0208581Y0230520D01*
X0208477Y0230639D01*
X0208376Y0230761D01*
X0208279Y0230886D01*
X0208184Y0231013D01*
X0208093Y0231142D01*
X0208004Y0231273D01*
X0207920Y0231407D01*
X0207838Y0231543D01*
X0207760Y0231680D01*
X0207686Y0231820D01*
X0207615Y0231962D01*
X0207547Y0232105D01*
X0207483Y0232250D01*
X0207423Y0232396D01*
X0207367Y0232544D01*
X0207314Y0232693D01*
X0207265Y0232844D01*
X0207220Y0232996D01*
X0207179Y0233149D01*
X0207141Y0233302D01*
X0207108Y0233457D01*
X0207078Y0233613D01*
X0207052Y0233769D01*
X0207031Y0233926D01*
X0207013Y0234083D01*
X0206999Y0234241D01*
X0206989Y0234399D01*
X0206983Y0234557D01*
X0206981Y0234715D01*
X0149623Y0211287D02*
X0149625Y0211412D01*
X0149631Y0211537D01*
X0149641Y0211661D01*
X0149655Y0211785D01*
X0149672Y0211909D01*
X0149694Y0212032D01*
X0149720Y0212154D01*
X0149749Y0212276D01*
X0149782Y0212396D01*
X0149820Y0212515D01*
X0149860Y0212634D01*
X0149905Y0212750D01*
X0149953Y0212865D01*
X0150005Y0212979D01*
X0150061Y0213091D01*
X0150120Y0213201D01*
X0150182Y0213309D01*
X0150248Y0213416D01*
X0150317Y0213520D01*
X0150390Y0213621D01*
X0150465Y0213721D01*
X0150544Y0213818D01*
X0150626Y0213912D01*
X0150711Y0214004D01*
X0150798Y0214093D01*
X0150889Y0214179D01*
X0150982Y0214262D01*
X0151078Y0214343D01*
X0151176Y0214420D01*
X0151276Y0214494D01*
X0151379Y0214565D01*
X0151484Y0214632D01*
X0151592Y0214697D01*
X0151701Y0214757D01*
X0151812Y0214815D01*
X0151925Y0214868D01*
X0152039Y0214918D01*
X0152155Y0214965D01*
X0152272Y0215007D01*
X0152391Y0215046D01*
X0152511Y0215082D01*
X0152632Y0215113D01*
X0152754Y0215141D01*
X0152876Y0215164D01*
X0153000Y0215184D01*
X0153124Y0215200D01*
X0153248Y0215212D01*
X0153373Y0215220D01*
X0153498Y0215224D01*
X0153622Y0215224D01*
X0153747Y0215220D01*
X0153872Y0215212D01*
X0153996Y0215200D01*
X0154120Y0215184D01*
X0154244Y0215164D01*
X0154366Y0215141D01*
X0154488Y0215113D01*
X0154609Y0215082D01*
X0154729Y0215046D01*
X0154848Y0215007D01*
X0154965Y0214965D01*
X0155081Y0214918D01*
X0155195Y0214868D01*
X0155308Y0214815D01*
X0155419Y0214757D01*
X0155529Y0214697D01*
X0155636Y0214632D01*
X0155741Y0214565D01*
X0155844Y0214494D01*
X0155944Y0214420D01*
X0156042Y0214343D01*
X0156138Y0214262D01*
X0156231Y0214179D01*
X0156322Y0214093D01*
X0156409Y0214004D01*
X0156494Y0213912D01*
X0156576Y0213818D01*
X0156655Y0213721D01*
X0156730Y0213621D01*
X0156803Y0213520D01*
X0156872Y0213416D01*
X0156938Y0213309D01*
X0157000Y0213201D01*
X0157059Y0213091D01*
X0157115Y0212979D01*
X0157167Y0212865D01*
X0157215Y0212750D01*
X0157260Y0212634D01*
X0157300Y0212515D01*
X0157338Y0212396D01*
X0157371Y0212276D01*
X0157400Y0212154D01*
X0157426Y0212032D01*
X0157448Y0211909D01*
X0157465Y0211785D01*
X0157479Y0211661D01*
X0157489Y0211537D01*
X0157495Y0211412D01*
X0157497Y0211287D01*
X0157495Y0211162D01*
X0157489Y0211037D01*
X0157479Y0210913D01*
X0157465Y0210789D01*
X0157448Y0210665D01*
X0157426Y0210542D01*
X0157400Y0210420D01*
X0157371Y0210298D01*
X0157338Y0210178D01*
X0157300Y0210059D01*
X0157260Y0209940D01*
X0157215Y0209824D01*
X0157167Y0209709D01*
X0157115Y0209595D01*
X0157059Y0209483D01*
X0157000Y0209373D01*
X0156938Y0209265D01*
X0156872Y0209158D01*
X0156803Y0209054D01*
X0156730Y0208953D01*
X0156655Y0208853D01*
X0156576Y0208756D01*
X0156494Y0208662D01*
X0156409Y0208570D01*
X0156322Y0208481D01*
X0156231Y0208395D01*
X0156138Y0208312D01*
X0156042Y0208231D01*
X0155944Y0208154D01*
X0155844Y0208080D01*
X0155741Y0208009D01*
X0155636Y0207942D01*
X0155528Y0207877D01*
X0155419Y0207817D01*
X0155308Y0207759D01*
X0155195Y0207706D01*
X0155081Y0207656D01*
X0154965Y0207609D01*
X0154848Y0207567D01*
X0154729Y0207528D01*
X0154609Y0207492D01*
X0154488Y0207461D01*
X0154366Y0207433D01*
X0154244Y0207410D01*
X0154120Y0207390D01*
X0153996Y0207374D01*
X0153872Y0207362D01*
X0153747Y0207354D01*
X0153622Y0207350D01*
X0153498Y0207350D01*
X0153373Y0207354D01*
X0153248Y0207362D01*
X0153124Y0207374D01*
X0153000Y0207390D01*
X0152876Y0207410D01*
X0152754Y0207433D01*
X0152632Y0207461D01*
X0152511Y0207492D01*
X0152391Y0207528D01*
X0152272Y0207567D01*
X0152155Y0207609D01*
X0152039Y0207656D01*
X0151925Y0207706D01*
X0151812Y0207759D01*
X0151701Y0207817D01*
X0151591Y0207877D01*
X0151484Y0207942D01*
X0151379Y0208009D01*
X0151276Y0208080D01*
X0151176Y0208154D01*
X0151078Y0208231D01*
X0150982Y0208312D01*
X0150889Y0208395D01*
X0150798Y0208481D01*
X0150711Y0208570D01*
X0150626Y0208662D01*
X0150544Y0208756D01*
X0150465Y0208853D01*
X0150390Y0208953D01*
X0150317Y0209054D01*
X0150248Y0209158D01*
X0150182Y0209265D01*
X0150120Y0209373D01*
X0150061Y0209483D01*
X0150005Y0209595D01*
X0149953Y0209709D01*
X0149905Y0209824D01*
X0149860Y0209940D01*
X0149820Y0210059D01*
X0149782Y0210178D01*
X0149749Y0210298D01*
X0149720Y0210420D01*
X0149694Y0210542D01*
X0149672Y0210665D01*
X0149655Y0210789D01*
X0149641Y0210913D01*
X0149631Y0211037D01*
X0149625Y0211162D01*
X0149623Y0211287D01*
X0040446Y0234715D02*
X0040448Y0234873D01*
X0040454Y0235031D01*
X0040464Y0235189D01*
X0040478Y0235347D01*
X0040496Y0235504D01*
X0040517Y0235661D01*
X0040543Y0235817D01*
X0040573Y0235973D01*
X0040606Y0236128D01*
X0040644Y0236281D01*
X0040685Y0236434D01*
X0040730Y0236586D01*
X0040779Y0236737D01*
X0040832Y0236886D01*
X0040888Y0237034D01*
X0040948Y0237180D01*
X0041012Y0237325D01*
X0041080Y0237468D01*
X0041151Y0237610D01*
X0041225Y0237750D01*
X0041303Y0237887D01*
X0041385Y0238023D01*
X0041469Y0238157D01*
X0041558Y0238288D01*
X0041649Y0238417D01*
X0041744Y0238544D01*
X0041841Y0238669D01*
X0041942Y0238791D01*
X0042046Y0238910D01*
X0042153Y0239027D01*
X0042263Y0239141D01*
X0042376Y0239252D01*
X0042491Y0239361D01*
X0042609Y0239466D01*
X0042730Y0239568D01*
X0042853Y0239668D01*
X0042979Y0239764D01*
X0043107Y0239857D01*
X0043237Y0239947D01*
X0043370Y0240033D01*
X0043505Y0240117D01*
X0043641Y0240196D01*
X0043780Y0240273D01*
X0043921Y0240345D01*
X0044063Y0240415D01*
X0044207Y0240480D01*
X0044353Y0240542D01*
X0044500Y0240600D01*
X0044649Y0240655D01*
X0044799Y0240706D01*
X0044950Y0240753D01*
X0045102Y0240796D01*
X0045255Y0240835D01*
X0045410Y0240871D01*
X0045565Y0240902D01*
X0045721Y0240930D01*
X0045877Y0240954D01*
X0046034Y0240974D01*
X0046192Y0240990D01*
X0046349Y0241002D01*
X0046508Y0241010D01*
X0046666Y0241014D01*
X0046824Y0241014D01*
X0046982Y0241010D01*
X0047141Y0241002D01*
X0047298Y0240990D01*
X0047456Y0240974D01*
X0047613Y0240954D01*
X0047769Y0240930D01*
X0047925Y0240902D01*
X0048080Y0240871D01*
X0048235Y0240835D01*
X0048388Y0240796D01*
X0048540Y0240753D01*
X0048691Y0240706D01*
X0048841Y0240655D01*
X0048990Y0240600D01*
X0049137Y0240542D01*
X0049283Y0240480D01*
X0049427Y0240415D01*
X0049569Y0240345D01*
X0049710Y0240273D01*
X0049849Y0240196D01*
X0049985Y0240117D01*
X0050120Y0240033D01*
X0050253Y0239947D01*
X0050383Y0239857D01*
X0050511Y0239764D01*
X0050637Y0239668D01*
X0050760Y0239568D01*
X0050881Y0239466D01*
X0050999Y0239361D01*
X0051114Y0239252D01*
X0051227Y0239141D01*
X0051337Y0239027D01*
X0051444Y0238910D01*
X0051548Y0238791D01*
X0051649Y0238669D01*
X0051746Y0238544D01*
X0051841Y0238417D01*
X0051932Y0238288D01*
X0052021Y0238157D01*
X0052105Y0238023D01*
X0052187Y0237887D01*
X0052265Y0237750D01*
X0052339Y0237610D01*
X0052410Y0237468D01*
X0052478Y0237325D01*
X0052542Y0237180D01*
X0052602Y0237034D01*
X0052658Y0236886D01*
X0052711Y0236737D01*
X0052760Y0236586D01*
X0052805Y0236434D01*
X0052846Y0236281D01*
X0052884Y0236128D01*
X0052917Y0235973D01*
X0052947Y0235817D01*
X0052973Y0235661D01*
X0052994Y0235504D01*
X0053012Y0235347D01*
X0053026Y0235189D01*
X0053036Y0235031D01*
X0053042Y0234873D01*
X0053044Y0234715D01*
X0053042Y0234557D01*
X0053036Y0234399D01*
X0053026Y0234241D01*
X0053012Y0234083D01*
X0052994Y0233926D01*
X0052973Y0233769D01*
X0052947Y0233613D01*
X0052917Y0233457D01*
X0052884Y0233302D01*
X0052846Y0233149D01*
X0052805Y0232996D01*
X0052760Y0232844D01*
X0052711Y0232693D01*
X0052658Y0232544D01*
X0052602Y0232396D01*
X0052542Y0232250D01*
X0052478Y0232105D01*
X0052410Y0231962D01*
X0052339Y0231820D01*
X0052265Y0231680D01*
X0052187Y0231543D01*
X0052105Y0231407D01*
X0052021Y0231273D01*
X0051932Y0231142D01*
X0051841Y0231013D01*
X0051746Y0230886D01*
X0051649Y0230761D01*
X0051548Y0230639D01*
X0051444Y0230520D01*
X0051337Y0230403D01*
X0051227Y0230289D01*
X0051114Y0230178D01*
X0050999Y0230069D01*
X0050881Y0229964D01*
X0050760Y0229862D01*
X0050637Y0229762D01*
X0050511Y0229666D01*
X0050383Y0229573D01*
X0050253Y0229483D01*
X0050120Y0229397D01*
X0049985Y0229313D01*
X0049849Y0229234D01*
X0049710Y0229157D01*
X0049569Y0229085D01*
X0049427Y0229015D01*
X0049283Y0228950D01*
X0049137Y0228888D01*
X0048990Y0228830D01*
X0048841Y0228775D01*
X0048691Y0228724D01*
X0048540Y0228677D01*
X0048388Y0228634D01*
X0048235Y0228595D01*
X0048080Y0228559D01*
X0047925Y0228528D01*
X0047769Y0228500D01*
X0047613Y0228476D01*
X0047456Y0228456D01*
X0047298Y0228440D01*
X0047141Y0228428D01*
X0046982Y0228420D01*
X0046824Y0228416D01*
X0046666Y0228416D01*
X0046508Y0228420D01*
X0046349Y0228428D01*
X0046192Y0228440D01*
X0046034Y0228456D01*
X0045877Y0228476D01*
X0045721Y0228500D01*
X0045565Y0228528D01*
X0045410Y0228559D01*
X0045255Y0228595D01*
X0045102Y0228634D01*
X0044950Y0228677D01*
X0044799Y0228724D01*
X0044649Y0228775D01*
X0044500Y0228830D01*
X0044353Y0228888D01*
X0044207Y0228950D01*
X0044063Y0229015D01*
X0043921Y0229085D01*
X0043780Y0229157D01*
X0043641Y0229234D01*
X0043505Y0229313D01*
X0043370Y0229397D01*
X0043237Y0229483D01*
X0043107Y0229573D01*
X0042979Y0229666D01*
X0042853Y0229762D01*
X0042730Y0229862D01*
X0042609Y0229964D01*
X0042491Y0230069D01*
X0042376Y0230178D01*
X0042263Y0230289D01*
X0042153Y0230403D01*
X0042046Y0230520D01*
X0041942Y0230639D01*
X0041841Y0230761D01*
X0041744Y0230886D01*
X0041649Y0231013D01*
X0041558Y0231142D01*
X0041469Y0231273D01*
X0041385Y0231407D01*
X0041303Y0231543D01*
X0041225Y0231680D01*
X0041151Y0231820D01*
X0041080Y0231962D01*
X0041012Y0232105D01*
X0040948Y0232250D01*
X0040888Y0232396D01*
X0040832Y0232544D01*
X0040779Y0232693D01*
X0040730Y0232844D01*
X0040685Y0232996D01*
X0040644Y0233149D01*
X0040606Y0233302D01*
X0040573Y0233457D01*
X0040543Y0233613D01*
X0040517Y0233769D01*
X0040496Y0233926D01*
X0040478Y0234083D01*
X0040464Y0234241D01*
X0040454Y0234399D01*
X0040448Y0234557D01*
X0040446Y0234715D01*
X0373517Y0235108D02*
X0373519Y0235266D01*
X0373525Y0235424D01*
X0373535Y0235582D01*
X0373549Y0235740D01*
X0373567Y0235897D01*
X0373588Y0236054D01*
X0373614Y0236210D01*
X0373644Y0236366D01*
X0373677Y0236521D01*
X0373715Y0236674D01*
X0373756Y0236827D01*
X0373801Y0236979D01*
X0373850Y0237130D01*
X0373903Y0237279D01*
X0373959Y0237427D01*
X0374019Y0237573D01*
X0374083Y0237718D01*
X0374151Y0237861D01*
X0374222Y0238003D01*
X0374296Y0238143D01*
X0374374Y0238280D01*
X0374456Y0238416D01*
X0374540Y0238550D01*
X0374629Y0238681D01*
X0374720Y0238810D01*
X0374815Y0238937D01*
X0374912Y0239062D01*
X0375013Y0239184D01*
X0375117Y0239303D01*
X0375224Y0239420D01*
X0375334Y0239534D01*
X0375447Y0239645D01*
X0375562Y0239754D01*
X0375680Y0239859D01*
X0375801Y0239961D01*
X0375924Y0240061D01*
X0376050Y0240157D01*
X0376178Y0240250D01*
X0376308Y0240340D01*
X0376441Y0240426D01*
X0376576Y0240510D01*
X0376712Y0240589D01*
X0376851Y0240666D01*
X0376992Y0240738D01*
X0377134Y0240808D01*
X0377278Y0240873D01*
X0377424Y0240935D01*
X0377571Y0240993D01*
X0377720Y0241048D01*
X0377870Y0241099D01*
X0378021Y0241146D01*
X0378173Y0241189D01*
X0378326Y0241228D01*
X0378481Y0241264D01*
X0378636Y0241295D01*
X0378792Y0241323D01*
X0378948Y0241347D01*
X0379105Y0241367D01*
X0379263Y0241383D01*
X0379420Y0241395D01*
X0379579Y0241403D01*
X0379737Y0241407D01*
X0379895Y0241407D01*
X0380053Y0241403D01*
X0380212Y0241395D01*
X0380369Y0241383D01*
X0380527Y0241367D01*
X0380684Y0241347D01*
X0380840Y0241323D01*
X0380996Y0241295D01*
X0381151Y0241264D01*
X0381306Y0241228D01*
X0381459Y0241189D01*
X0381611Y0241146D01*
X0381762Y0241099D01*
X0381912Y0241048D01*
X0382061Y0240993D01*
X0382208Y0240935D01*
X0382354Y0240873D01*
X0382498Y0240808D01*
X0382640Y0240738D01*
X0382781Y0240666D01*
X0382920Y0240589D01*
X0383056Y0240510D01*
X0383191Y0240426D01*
X0383324Y0240340D01*
X0383454Y0240250D01*
X0383582Y0240157D01*
X0383708Y0240061D01*
X0383831Y0239961D01*
X0383952Y0239859D01*
X0384070Y0239754D01*
X0384185Y0239645D01*
X0384298Y0239534D01*
X0384408Y0239420D01*
X0384515Y0239303D01*
X0384619Y0239184D01*
X0384720Y0239062D01*
X0384817Y0238937D01*
X0384912Y0238810D01*
X0385003Y0238681D01*
X0385092Y0238550D01*
X0385176Y0238416D01*
X0385258Y0238280D01*
X0385336Y0238143D01*
X0385410Y0238003D01*
X0385481Y0237861D01*
X0385549Y0237718D01*
X0385613Y0237573D01*
X0385673Y0237427D01*
X0385729Y0237279D01*
X0385782Y0237130D01*
X0385831Y0236979D01*
X0385876Y0236827D01*
X0385917Y0236674D01*
X0385955Y0236521D01*
X0385988Y0236366D01*
X0386018Y0236210D01*
X0386044Y0236054D01*
X0386065Y0235897D01*
X0386083Y0235740D01*
X0386097Y0235582D01*
X0386107Y0235424D01*
X0386113Y0235266D01*
X0386115Y0235108D01*
X0386113Y0234950D01*
X0386107Y0234792D01*
X0386097Y0234634D01*
X0386083Y0234476D01*
X0386065Y0234319D01*
X0386044Y0234162D01*
X0386018Y0234006D01*
X0385988Y0233850D01*
X0385955Y0233695D01*
X0385917Y0233542D01*
X0385876Y0233389D01*
X0385831Y0233237D01*
X0385782Y0233086D01*
X0385729Y0232937D01*
X0385673Y0232789D01*
X0385613Y0232643D01*
X0385549Y0232498D01*
X0385481Y0232355D01*
X0385410Y0232213D01*
X0385336Y0232073D01*
X0385258Y0231936D01*
X0385176Y0231800D01*
X0385092Y0231666D01*
X0385003Y0231535D01*
X0384912Y0231406D01*
X0384817Y0231279D01*
X0384720Y0231154D01*
X0384619Y0231032D01*
X0384515Y0230913D01*
X0384408Y0230796D01*
X0384298Y0230682D01*
X0384185Y0230571D01*
X0384070Y0230462D01*
X0383952Y0230357D01*
X0383831Y0230255D01*
X0383708Y0230155D01*
X0383582Y0230059D01*
X0383454Y0229966D01*
X0383324Y0229876D01*
X0383191Y0229790D01*
X0383056Y0229706D01*
X0382920Y0229627D01*
X0382781Y0229550D01*
X0382640Y0229478D01*
X0382498Y0229408D01*
X0382354Y0229343D01*
X0382208Y0229281D01*
X0382061Y0229223D01*
X0381912Y0229168D01*
X0381762Y0229117D01*
X0381611Y0229070D01*
X0381459Y0229027D01*
X0381306Y0228988D01*
X0381151Y0228952D01*
X0380996Y0228921D01*
X0380840Y0228893D01*
X0380684Y0228869D01*
X0380527Y0228849D01*
X0380369Y0228833D01*
X0380212Y0228821D01*
X0380053Y0228813D01*
X0379895Y0228809D01*
X0379737Y0228809D01*
X0379579Y0228813D01*
X0379420Y0228821D01*
X0379263Y0228833D01*
X0379105Y0228849D01*
X0378948Y0228869D01*
X0378792Y0228893D01*
X0378636Y0228921D01*
X0378481Y0228952D01*
X0378326Y0228988D01*
X0378173Y0229027D01*
X0378021Y0229070D01*
X0377870Y0229117D01*
X0377720Y0229168D01*
X0377571Y0229223D01*
X0377424Y0229281D01*
X0377278Y0229343D01*
X0377134Y0229408D01*
X0376992Y0229478D01*
X0376851Y0229550D01*
X0376712Y0229627D01*
X0376576Y0229706D01*
X0376441Y0229790D01*
X0376308Y0229876D01*
X0376178Y0229966D01*
X0376050Y0230059D01*
X0375924Y0230155D01*
X0375801Y0230255D01*
X0375680Y0230357D01*
X0375562Y0230462D01*
X0375447Y0230571D01*
X0375334Y0230682D01*
X0375224Y0230796D01*
X0375117Y0230913D01*
X0375013Y0231032D01*
X0374912Y0231154D01*
X0374815Y0231279D01*
X0374720Y0231406D01*
X0374629Y0231535D01*
X0374540Y0231666D01*
X0374456Y0231800D01*
X0374374Y0231936D01*
X0374296Y0232073D01*
X0374222Y0232213D01*
X0374151Y0232355D01*
X0374083Y0232498D01*
X0374019Y0232643D01*
X0373959Y0232789D01*
X0373903Y0232937D01*
X0373850Y0233086D01*
X0373801Y0233237D01*
X0373756Y0233389D01*
X0373715Y0233542D01*
X0373677Y0233695D01*
X0373644Y0233850D01*
X0373614Y0234006D01*
X0373588Y0234162D01*
X0373567Y0234319D01*
X0373549Y0234476D01*
X0373535Y0234634D01*
X0373525Y0234792D01*
X0373519Y0234950D01*
X0373517Y0235108D01*
D13*
X0122060Y0232037D03*
X0067060Y0232037D03*
X0067060Y0142037D03*
X0079560Y0142037D03*
X0109560Y0142037D03*
X0122060Y0142037D03*
D14*
X0034501Y0193848D03*
X0272060Y0200787D03*
X0282060Y0200787D03*
X0292060Y0200787D03*
X0282060Y0210787D03*
X0272060Y0210787D03*
D15*
X0292060Y0210787D03*
X0054186Y0193848D03*
D16*
X0363310Y0169803D03*
X0363310Y0121772D03*
D17*
X0369314Y0044803D03*
X0089314Y0044803D03*
D18*
X0348605Y0199350D02*
X0348605Y0207224D01*
X0372621Y0207224D02*
X0372621Y0199350D01*
X0364747Y0222185D02*
X0356873Y0222185D01*
D19*
X0302060Y0174537D03*
X0262060Y0174537D03*
D20*
X0265810Y0132037D03*
X0265810Y0120787D03*
D21*
X0285899Y0100325D03*
X0308399Y0077825D03*
X0347060Y0095787D03*
X0352060Y0095787D03*
X0352060Y0085787D03*
X0325899Y0102825D03*
X0352060Y0125787D03*
X0352060Y0137037D03*
X0341095Y0149498D03*
X0380465Y0157372D03*
X0329649Y0176575D03*
X0315899Y0176575D03*
X0282149Y0172825D03*
X0255899Y0184075D03*
X0243310Y0182037D03*
X0232060Y0187037D03*
X0227060Y0182037D03*
X0222060Y0187037D03*
X0220810Y0193287D03*
X0222060Y0209537D03*
X0249560Y0204537D03*
X0258310Y0200787D03*
X0249560Y0197037D03*
X0255899Y0215325D03*
X0228280Y0240305D03*
X0193310Y0208287D03*
X0185810Y0208287D03*
X0165229Y0215433D03*
X0135810Y0200787D03*
X0135603Y0192805D03*
X0152060Y0185787D03*
X0157060Y0180787D03*
X0147060Y0177037D03*
X0148310Y0172037D03*
X0147060Y0160787D03*
X0162060Y0172037D03*
X0182414Y0176250D03*
X0192060Y0178287D03*
X0188310Y0163287D03*
X0202060Y0163287D03*
X0182414Y0152628D03*
X0168310Y0142037D03*
X0194560Y0127037D03*
X0204560Y0134537D03*
X0233595Y0152628D03*
X0232060Y0160787D03*
X0243310Y0168287D03*
X0259560Y0150787D03*
X0203310Y0100787D03*
X0190810Y0100787D03*
X0162060Y0095787D03*
X0162060Y0107037D03*
X0135170Y0117195D03*
X0114560Y0127037D03*
X0103310Y0097037D03*
X0107060Y0088287D03*
X0144727Y0071949D03*
X0129560Y0055787D03*
X0139107Y0042392D03*
X0123359Y0030020D03*
X0178723Y0035886D03*
X0202227Y0067579D03*
X0207060Y0077037D03*
X0261154Y0042392D03*
X0276715Y0018819D03*
X0320210Y0042392D03*
X0377965Y0126063D03*
X0360269Y0203307D03*
X0379215Y0217185D03*
X0384462Y0205374D03*
X0339462Y0233996D03*
X0109668Y0208681D03*
X0052060Y0177037D03*
X0037060Y0175787D03*
X0037060Y0162037D03*
X0048310Y0155787D03*
X0047050Y0144695D03*
X0032050Y0129695D03*
D22*
X0067060Y0128287D02*
X0068310Y0127037D01*
X0073310Y0127037D01*
X0073310Y0105787D01*
X0074560Y0104537D01*
X0100810Y0104537D01*
X0103310Y0102037D01*
X0103310Y0097037D01*
X0107060Y0088287D02*
X0195810Y0088287D01*
X0197060Y0089537D01*
X0197060Y0124537D01*
X0194560Y0127037D01*
X0202060Y0127037D01*
X0204560Y0129537D01*
X0204560Y0134537D01*
X0224560Y0134537D01*
X0227060Y0137037D01*
X0227060Y0182037D01*
X0222060Y0187037D02*
X0232060Y0187037D01*
X0243310Y0182037D02*
X0243310Y0168287D01*
X0238310Y0160787D02*
X0232060Y0160787D01*
X0238310Y0160787D02*
X0239560Y0159537D01*
X0239560Y0153287D01*
X0242060Y0150787D01*
X0259560Y0150787D01*
X0265810Y0120787D02*
X0265810Y0104537D01*
X0262060Y0100787D01*
X0203310Y0100787D01*
X0190810Y0100787D02*
X0172060Y0100787D01*
X0168310Y0104537D01*
X0168310Y0142037D01*
X0147060Y0160787D02*
X0147060Y0170787D01*
X0148310Y0172037D01*
X0147060Y0177037D02*
X0147060Y0202037D01*
X0149560Y0204537D01*
X0249560Y0204537D01*
X0258310Y0200787D02*
X0154560Y0200787D01*
X0152060Y0198287D01*
X0152060Y0185787D01*
X0157060Y0180787D02*
X0157060Y0194537D01*
X0159560Y0197037D01*
X0249560Y0197037D01*
X0263310Y0197037D01*
X0263310Y0183287D01*
X0264560Y0182037D01*
X0297060Y0182037D01*
X0298310Y0183287D01*
X0298310Y0208287D01*
X0295810Y0210787D01*
X0292060Y0210787D01*
X0272060Y0210787D02*
X0272060Y0220787D01*
X0269560Y0223287D01*
X0225810Y0223287D01*
X0222060Y0219537D01*
X0222060Y0209537D01*
X0220810Y0193287D02*
X0164560Y0193287D01*
X0162060Y0190787D01*
X0162060Y0172037D01*
X0188310Y0163287D02*
X0202060Y0163287D01*
X0202060Y0172037D01*
X0199560Y0174537D01*
X0193310Y0174537D01*
X0192060Y0175787D01*
X0192060Y0178287D01*
X0193310Y0208287D02*
X0185810Y0208287D01*
X0067060Y0142037D02*
X0067060Y0128287D01*
X0073310Y0127037D02*
X0114560Y0127037D01*
X0162060Y0107037D02*
X0162060Y0095787D01*
X0192060Y0073287D02*
X0194560Y0075787D01*
X0205810Y0075787D01*
X0207060Y0077037D01*
X0192060Y0073287D02*
X0192060Y0025787D01*
X0184560Y0018287D01*
X0063310Y0018287D01*
X0060810Y0020787D01*
X0060810Y0032037D01*
X0058310Y0034537D01*
X0033310Y0034537D01*
X0033310Y0054537D02*
X0045810Y0054537D01*
X0047060Y0055787D01*
X0047060Y0072037D01*
X0048310Y0072037D01*
X0049560Y0072037D01*
X0074560Y0072037D01*
X0075810Y0073287D01*
X0075810Y0082037D01*
X0077060Y0083287D01*
X0110810Y0083287D01*
X0112060Y0082037D01*
X0112060Y0057037D01*
X0113310Y0055787D01*
X0129560Y0055787D01*
X0047060Y0072037D02*
X0047060Y0078868D01*
X0047375Y0079183D01*
X0048310Y0155787D02*
X0048310Y0159537D01*
X0047060Y0160787D01*
X0038310Y0160787D01*
X0037060Y0162037D01*
X0037060Y0175787D02*
X0038310Y0177037D01*
X0052060Y0177037D01*
X0345967Y0155630D02*
X0347060Y0154537D01*
X0347060Y0095787D01*
X0352060Y0095787D02*
X0352060Y0085787D01*
D23*
X0352060Y0125787D02*
X0352060Y0137037D01*
X0345967Y0155630D02*
X0333782Y0155630D01*
D24*
X0025810Y0245787D02*
X0025810Y0003287D01*
X0399560Y0003287D01*
X0399560Y0245787D01*
X0382072Y0245787D01*
X0384023Y0245265D01*
X0386508Y0243830D01*
X0388537Y0241801D01*
X0389972Y0239315D01*
X0390715Y0236543D01*
X0390715Y0233673D01*
X0389972Y0230901D01*
X0388537Y0228416D01*
X0386508Y0226387D01*
X0384023Y0224952D01*
X0381251Y0224209D01*
X0378381Y0224209D01*
X0375609Y0224952D01*
X0373124Y0226387D01*
X0371094Y0228416D01*
X0369659Y0230901D01*
X0368917Y0233673D01*
X0368917Y0236543D01*
X0369659Y0239315D01*
X0371094Y0241801D01*
X0373124Y0243830D01*
X0375609Y0245265D01*
X0377560Y0245787D01*
X0135969Y0245787D01*
X0152169Y0229587D01*
X0203655Y0229587D01*
X0203124Y0230508D01*
X0202381Y0233280D01*
X0202381Y0236149D01*
X0203124Y0238922D01*
X0204559Y0241407D01*
X0206588Y0243436D01*
X0209073Y0244871D01*
X0211845Y0245614D01*
X0214715Y0245614D01*
X0217487Y0244871D01*
X0219973Y0243436D01*
X0222002Y0241407D01*
X0223437Y0238922D01*
X0223814Y0237512D01*
X0225807Y0238337D01*
X0299563Y0238337D01*
X0301879Y0237378D01*
X0303651Y0235606D01*
X0309901Y0229356D01*
X0310860Y0227041D01*
X0310860Y0214647D01*
X0315919Y0209587D01*
X0342075Y0209587D01*
X0342724Y0211154D01*
X0344676Y0213105D01*
X0347225Y0214161D01*
X0349985Y0214161D01*
X0352535Y0213105D01*
X0354486Y0211154D01*
X0355542Y0208604D01*
X0355542Y0197971D01*
X0354486Y0195421D01*
X0352535Y0193469D01*
X0349985Y0192413D01*
X0347225Y0192413D01*
X0344676Y0193469D01*
X0342724Y0195421D01*
X0342075Y0196987D01*
X0312057Y0196987D01*
X0309741Y0197947D01*
X0302110Y0205578D01*
X0302110Y0182532D01*
X0301531Y0181135D01*
X0301234Y0180837D01*
X0303313Y0180837D01*
X0305629Y0179878D01*
X0307401Y0178106D01*
X0308360Y0175791D01*
X0308360Y0173284D01*
X0307401Y0170969D01*
X0305629Y0169197D01*
X0303313Y0168237D01*
X0300807Y0168237D01*
X0298491Y0169197D01*
X0296719Y0170969D01*
X0295760Y0173284D01*
X0295760Y0175791D01*
X0296719Y0178106D01*
X0296850Y0178237D01*
X0265290Y0178237D01*
X0265797Y0177730D01*
X0266251Y0177106D01*
X0266601Y0176418D01*
X0266839Y0175685D01*
X0266942Y0175037D01*
X0262560Y0175037D01*
X0262560Y0174037D01*
X0262560Y0169656D01*
X0263207Y0169758D01*
X0263941Y0169996D01*
X0264628Y0170347D01*
X0265252Y0170800D01*
X0265797Y0171345D01*
X0266251Y0171969D01*
X0266601Y0172656D01*
X0266839Y0173390D01*
X0266942Y0174037D01*
X0262560Y0174037D01*
X0261560Y0174037D01*
X0261560Y0169656D01*
X0260913Y0169758D01*
X0260179Y0169996D01*
X0259492Y0170347D01*
X0258868Y0170800D01*
X0258322Y0171345D01*
X0257869Y0171969D01*
X0257519Y0172656D01*
X0257281Y0173390D01*
X0257178Y0174037D01*
X0261560Y0174037D01*
X0261560Y0175037D01*
X0257178Y0175037D01*
X0257281Y0175685D01*
X0257519Y0176418D01*
X0257869Y0177106D01*
X0258322Y0177730D01*
X0258868Y0178275D01*
X0259492Y0178728D01*
X0260179Y0179078D01*
X0260913Y0179317D01*
X0261560Y0179419D01*
X0261560Y0175037D01*
X0262560Y0175037D01*
X0262560Y0178753D01*
X0262407Y0178816D01*
X0261338Y0179885D01*
X0261338Y0179885D01*
X0260088Y0181135D01*
X0259510Y0182532D01*
X0259510Y0193237D01*
X0252526Y0193237D01*
X0252270Y0192982D01*
X0250512Y0192253D01*
X0248608Y0192253D01*
X0246850Y0192982D01*
X0246594Y0193237D01*
X0225594Y0193237D01*
X0225594Y0192336D01*
X0224989Y0190874D01*
X0225026Y0190837D01*
X0229094Y0190837D01*
X0229350Y0191093D01*
X0231108Y0191822D01*
X0233012Y0191822D01*
X0234770Y0191093D01*
X0236116Y0189747D01*
X0236844Y0187989D01*
X0236844Y0186086D01*
X0236116Y0184327D01*
X0234770Y0182982D01*
X0233012Y0182253D01*
X0231844Y0182253D01*
X0231844Y0181086D01*
X0231116Y0179327D01*
X0230860Y0179071D01*
X0230860Y0165469D01*
X0231108Y0165572D01*
X0233012Y0165572D01*
X0234770Y0164843D01*
X0235026Y0164587D01*
X0239066Y0164587D01*
X0240462Y0164009D01*
X0241531Y0162940D01*
X0242781Y0161690D01*
X0243360Y0160293D01*
X0243360Y0154861D01*
X0243634Y0154587D01*
X0256594Y0154587D01*
X0256850Y0154843D01*
X0258608Y0155572D01*
X0260512Y0155572D01*
X0262270Y0154843D01*
X0263616Y0153497D01*
X0264344Y0151739D01*
X0264344Y0149836D01*
X0263616Y0148077D01*
X0262270Y0146732D01*
X0260512Y0146003D01*
X0258608Y0146003D01*
X0256850Y0146732D01*
X0256594Y0146987D01*
X0241304Y0146987D01*
X0239907Y0147566D01*
X0237407Y0150066D01*
X0236338Y0151135D01*
X0235760Y0152532D01*
X0235760Y0156987D01*
X0235026Y0156987D01*
X0234770Y0156732D01*
X0233012Y0156003D01*
X0231108Y0156003D01*
X0230860Y0156106D01*
X0230860Y0136282D01*
X0230281Y0134885D01*
X0227781Y0132385D01*
X0226712Y0131316D01*
X0225316Y0130737D01*
X0208360Y0130737D01*
X0208360Y0128782D01*
X0207781Y0127385D01*
X0206712Y0126316D01*
X0204212Y0123816D01*
X0202816Y0123237D01*
X0200860Y0123237D01*
X0200860Y0104951D01*
X0202358Y0105572D01*
X0204262Y0105572D01*
X0206020Y0104843D01*
X0206276Y0104587D01*
X0260486Y0104587D01*
X0262010Y0106111D01*
X0262010Y0114334D01*
X0258560Y0117784D01*
X0258560Y0123790D01*
X0261182Y0126412D01*
X0258560Y0129034D01*
X0258560Y0135040D01*
X0262807Y0139287D01*
X0268813Y0139287D01*
X0273060Y0135040D01*
X0273060Y0129034D01*
X0270438Y0126412D01*
X0273060Y0123790D01*
X0273060Y0117784D01*
X0269610Y0114334D01*
X0269610Y0103782D01*
X0269031Y0102385D01*
X0265281Y0098635D01*
X0264212Y0097566D01*
X0262816Y0096987D01*
X0206276Y0096987D01*
X0206020Y0096732D01*
X0204262Y0096003D01*
X0202358Y0096003D01*
X0200860Y0096624D01*
X0200860Y0088782D01*
X0200281Y0087385D01*
X0197962Y0085066D01*
X0196566Y0084487D01*
X0114984Y0084487D01*
X0115281Y0084190D01*
X0115860Y0082793D01*
X0115860Y0059587D01*
X0126594Y0059587D01*
X0126850Y0059843D01*
X0128608Y0060572D01*
X0130512Y0060572D01*
X0132270Y0059843D01*
X0133616Y0058497D01*
X0134344Y0056739D01*
X0134344Y0054836D01*
X0133616Y0053077D01*
X0132270Y0051732D01*
X0130512Y0051003D01*
X0128608Y0051003D01*
X0126850Y0051732D01*
X0126594Y0051987D01*
X0112554Y0051987D01*
X0111157Y0052566D01*
X0109907Y0053816D01*
X0108838Y0054885D01*
X0108260Y0056282D01*
X0108260Y0079487D01*
X0079610Y0079487D01*
X0079610Y0072532D01*
X0079031Y0071135D01*
X0077781Y0069885D01*
X0076712Y0068816D01*
X0075316Y0068237D01*
X0050860Y0068237D01*
X0050860Y0055032D01*
X0050281Y0053635D01*
X0047962Y0051316D01*
X0046566Y0050737D01*
X0037951Y0050737D01*
X0036691Y0049478D01*
X0035020Y0048785D01*
X0035064Y0048771D01*
X0035704Y0048445D01*
X0036286Y0048022D01*
X0036795Y0047514D01*
X0037217Y0046932D01*
X0037544Y0046291D01*
X0037766Y0045607D01*
X0037875Y0044922D01*
X0033694Y0044922D01*
X0033694Y0044153D01*
X0037875Y0044153D01*
X0037766Y0043468D01*
X0037544Y0042784D01*
X0037217Y0042143D01*
X0036795Y0041561D01*
X0036286Y0041053D01*
X0035704Y0040630D01*
X0035461Y0040506D01*
X0036875Y0040506D01*
X0037978Y0040049D01*
X0038822Y0039205D01*
X0039181Y0038337D01*
X0057804Y0038337D01*
X0057804Y0040920D01*
X0058520Y0043592D01*
X0059903Y0045988D01*
X0061859Y0047944D01*
X0064255Y0049327D01*
X0066927Y0050043D01*
X0069693Y0050043D01*
X0072365Y0049327D01*
X0074760Y0047944D01*
X0076716Y0045988D01*
X0078100Y0043592D01*
X0078815Y0040920D01*
X0078815Y0038154D01*
X0078100Y0035482D01*
X0076716Y0033087D01*
X0074760Y0031131D01*
X0072365Y0029748D01*
X0069693Y0029032D01*
X0066927Y0029032D01*
X0064610Y0029653D01*
X0064610Y0022361D01*
X0064884Y0022087D01*
X0182986Y0022087D01*
X0188260Y0027361D01*
X0188260Y0074043D01*
X0188838Y0075440D01*
X0191338Y0077940D01*
X0192407Y0079009D01*
X0193804Y0079587D01*
X0202938Y0079587D01*
X0203004Y0079747D01*
X0204350Y0081093D01*
X0206108Y0081822D01*
X0208012Y0081822D01*
X0209770Y0081093D01*
X0211116Y0079747D01*
X0211844Y0077989D01*
X0211844Y0076086D01*
X0211116Y0074327D01*
X0209770Y0072982D01*
X0208012Y0072253D01*
X0207207Y0072253D01*
X0206566Y0071987D01*
X0196134Y0071987D01*
X0195860Y0071713D01*
X0195860Y0025032D01*
X0195281Y0023635D01*
X0194212Y0022566D01*
X0186712Y0015066D01*
X0185316Y0014487D01*
X0062554Y0014487D01*
X0061157Y0015066D01*
X0057588Y0018635D01*
X0057010Y0020032D01*
X0057010Y0030463D01*
X0056736Y0030737D01*
X0039181Y0030737D01*
X0038822Y0029870D01*
X0037978Y0029026D01*
X0036875Y0028569D01*
X0029745Y0028569D01*
X0028642Y0029026D01*
X0027798Y0029870D01*
X0027341Y0030972D01*
X0027341Y0038103D01*
X0027798Y0039205D01*
X0028642Y0040049D01*
X0029745Y0040506D01*
X0031159Y0040506D01*
X0030916Y0040630D01*
X0030334Y0041053D01*
X0029825Y0041561D01*
X0029403Y0042143D01*
X0029076Y0042784D01*
X0028854Y0043468D01*
X0028745Y0044153D01*
X0032926Y0044153D01*
X0032926Y0044922D01*
X0028745Y0044922D01*
X0028854Y0045607D01*
X0029076Y0046291D01*
X0029403Y0046932D01*
X0029825Y0047514D01*
X0030334Y0048022D01*
X0030916Y0048445D01*
X0031556Y0048771D01*
X0031600Y0048785D01*
X0029929Y0049478D01*
X0028250Y0051157D01*
X0027341Y0053350D01*
X0027341Y0055725D01*
X0028250Y0057918D01*
X0029869Y0059537D01*
X0028250Y0061157D01*
X0027341Y0063350D01*
X0027341Y0065725D01*
X0028250Y0067918D01*
X0029929Y0069597D01*
X0032123Y0070506D01*
X0034497Y0070506D01*
X0036691Y0069597D01*
X0038370Y0067918D01*
X0039278Y0065725D01*
X0039278Y0063350D01*
X0038370Y0061157D01*
X0036751Y0059537D01*
X0037951Y0058337D01*
X0043260Y0058337D01*
X0043260Y0074857D01*
X0042375Y0075742D01*
X0040756Y0074123D01*
X0038562Y0073215D01*
X0036188Y0073215D01*
X0033994Y0074123D01*
X0032315Y0075802D01*
X0031406Y0077996D01*
X0031406Y0080370D01*
X0032315Y0082564D01*
X0033994Y0084243D01*
X0036188Y0085152D01*
X0038562Y0085152D01*
X0040756Y0084243D01*
X0042375Y0082624D01*
X0043994Y0084243D01*
X0046188Y0085152D01*
X0048562Y0085152D01*
X0050756Y0084243D01*
X0052435Y0082564D01*
X0053127Y0080893D01*
X0053141Y0080937D01*
X0053468Y0081577D01*
X0053890Y0082159D01*
X0054399Y0082668D01*
X0054980Y0083090D01*
X0055621Y0083417D01*
X0056305Y0083639D01*
X0056991Y0083748D01*
X0056991Y0079567D01*
X0057759Y0079567D01*
X0057759Y0083748D01*
X0058445Y0083639D01*
X0059129Y0083417D01*
X0059769Y0083090D01*
X0060351Y0082668D01*
X0060860Y0082159D01*
X0061282Y0081577D01*
X0061406Y0081334D01*
X0061406Y0082748D01*
X0061863Y0083851D01*
X0062707Y0084695D01*
X0063810Y0085152D01*
X0070940Y0085152D01*
X0072043Y0084695D01*
X0072577Y0084161D01*
X0072588Y0084190D01*
X0073657Y0085259D01*
X0074907Y0086509D01*
X0076304Y0087087D01*
X0102379Y0087087D01*
X0102276Y0087336D01*
X0102276Y0089239D01*
X0103004Y0090997D01*
X0104260Y0092253D01*
X0102358Y0092253D01*
X0100600Y0092982D01*
X0099254Y0094327D01*
X0098526Y0096086D01*
X0098526Y0097989D01*
X0099254Y0099747D01*
X0099510Y0100003D01*
X0099510Y0100463D01*
X0099236Y0100737D01*
X0073804Y0100737D01*
X0072407Y0101316D01*
X0071157Y0102566D01*
X0070088Y0103635D01*
X0069510Y0105032D01*
X0069510Y0106461D01*
X0068825Y0105777D01*
X0066430Y0104393D01*
X0063758Y0103678D01*
X0060992Y0103678D01*
X0058320Y0104393D01*
X0055924Y0105777D01*
X0053968Y0107733D01*
X0052585Y0110128D01*
X0051869Y0112800D01*
X0051869Y0115566D01*
X0052585Y0118238D01*
X0053968Y0120634D01*
X0055924Y0122590D01*
X0058320Y0123973D01*
X0060992Y0124689D01*
X0063758Y0124689D01*
X0065844Y0124130D01*
X0064907Y0125066D01*
X0063838Y0126135D01*
X0063260Y0127532D01*
X0063260Y0134116D01*
X0061542Y0134116D01*
X0060439Y0134573D01*
X0059595Y0135417D01*
X0059139Y0136519D01*
X0059139Y0147555D01*
X0059595Y0148658D01*
X0060439Y0149502D01*
X0061542Y0149959D01*
X0072578Y0149959D01*
X0073310Y0149655D01*
X0074042Y0149959D01*
X0085078Y0149959D01*
X0086181Y0149502D01*
X0087024Y0148658D01*
X0087481Y0147555D01*
X0087481Y0136519D01*
X0087024Y0135417D01*
X0086181Y0134573D01*
X0085078Y0134116D01*
X0074042Y0134116D01*
X0073310Y0134419D01*
X0072578Y0134116D01*
X0070860Y0134116D01*
X0070860Y0130837D01*
X0111594Y0130837D01*
X0111850Y0131093D01*
X0113608Y0131822D01*
X0115512Y0131822D01*
X0117270Y0131093D01*
X0118616Y0129747D01*
X0119344Y0127989D01*
X0119344Y0126086D01*
X0118616Y0124327D01*
X0117270Y0122982D01*
X0115512Y0122253D01*
X0113608Y0122253D01*
X0111850Y0122982D01*
X0111594Y0123237D01*
X0077110Y0123237D01*
X0077110Y0108337D01*
X0101566Y0108337D01*
X0102962Y0107759D01*
X0104031Y0106690D01*
X0106531Y0104190D01*
X0107110Y0102793D01*
X0107110Y0100003D01*
X0107366Y0099747D01*
X0108094Y0097989D01*
X0108094Y0096086D01*
X0107366Y0094327D01*
X0106110Y0093072D01*
X0108012Y0093072D01*
X0109770Y0092343D01*
X0110026Y0092087D01*
X0158994Y0092087D01*
X0158004Y0093077D01*
X0157276Y0094836D01*
X0157276Y0096739D01*
X0158004Y0098497D01*
X0158260Y0098753D01*
X0158260Y0104071D01*
X0158004Y0104327D01*
X0157276Y0106086D01*
X0157276Y0107989D01*
X0158004Y0109747D01*
X0159350Y0111093D01*
X0161108Y0111822D01*
X0163012Y0111822D01*
X0164510Y0111201D01*
X0164510Y0139071D01*
X0164254Y0139327D01*
X0163526Y0141086D01*
X0163526Y0142989D01*
X0164254Y0144747D01*
X0165600Y0146093D01*
X0167358Y0146822D01*
X0169262Y0146822D01*
X0171020Y0146093D01*
X0172366Y0144747D01*
X0173094Y0142989D01*
X0173094Y0141086D01*
X0172366Y0139327D01*
X0172110Y0139071D01*
X0172110Y0106111D01*
X0173634Y0104587D01*
X0187844Y0104587D01*
X0188100Y0104843D01*
X0189858Y0105572D01*
X0191762Y0105572D01*
X0193260Y0104951D01*
X0193260Y0122397D01*
X0191850Y0122982D01*
X0190504Y0124327D01*
X0189776Y0126086D01*
X0189776Y0127989D01*
X0190504Y0129747D01*
X0191850Y0131093D01*
X0193608Y0131822D01*
X0195512Y0131822D01*
X0197270Y0131093D01*
X0197526Y0130837D01*
X0200486Y0130837D01*
X0200760Y0131111D01*
X0200760Y0131571D01*
X0200504Y0131827D01*
X0199776Y0133586D01*
X0199776Y0135489D01*
X0200504Y0137247D01*
X0201850Y0138593D01*
X0203608Y0139322D01*
X0205512Y0139322D01*
X0207270Y0138593D01*
X0207526Y0138337D01*
X0222986Y0138337D01*
X0223260Y0138611D01*
X0223260Y0179071D01*
X0223004Y0179327D01*
X0222276Y0181086D01*
X0222276Y0182253D01*
X0221108Y0182253D01*
X0219350Y0182982D01*
X0218004Y0184327D01*
X0217276Y0186086D01*
X0217276Y0187989D01*
X0217881Y0189450D01*
X0217844Y0189487D01*
X0166134Y0189487D01*
X0165860Y0189213D01*
X0165860Y0175003D01*
X0166116Y0174747D01*
X0166844Y0172989D01*
X0166844Y0171086D01*
X0166116Y0169327D01*
X0164770Y0167982D01*
X0163012Y0167253D01*
X0161108Y0167253D01*
X0159350Y0167982D01*
X0158004Y0169327D01*
X0157276Y0171086D01*
X0157276Y0172989D01*
X0158004Y0174747D01*
X0158260Y0175003D01*
X0158260Y0176106D01*
X0158012Y0176003D01*
X0156108Y0176003D01*
X0154350Y0176732D01*
X0153004Y0178077D01*
X0152276Y0179836D01*
X0152276Y0181003D01*
X0151108Y0181003D01*
X0150860Y0181106D01*
X0150860Y0180003D01*
X0151116Y0179747D01*
X0151844Y0177989D01*
X0151844Y0176086D01*
X0151605Y0175508D01*
X0152366Y0174747D01*
X0153094Y0172989D01*
X0153094Y0171086D01*
X0152366Y0169327D01*
X0151020Y0167982D01*
X0150860Y0167915D01*
X0150860Y0163753D01*
X0151116Y0163497D01*
X0151844Y0161739D01*
X0151844Y0159836D01*
X0151116Y0158077D01*
X0149770Y0156732D01*
X0148012Y0156003D01*
X0146108Y0156003D01*
X0144350Y0156732D01*
X0143004Y0158077D01*
X0142276Y0159836D01*
X0142276Y0161739D01*
X0143004Y0163497D01*
X0143260Y0163753D01*
X0143260Y0171543D01*
X0143526Y0172185D01*
X0143526Y0172989D01*
X0143765Y0173567D01*
X0143004Y0174327D01*
X0142276Y0176086D01*
X0142276Y0177989D01*
X0143004Y0179747D01*
X0143260Y0180003D01*
X0143260Y0202793D01*
X0143838Y0204190D01*
X0144907Y0205259D01*
X0146257Y0206609D01*
X0145023Y0209589D01*
X0145023Y0212986D01*
X0146323Y0216123D01*
X0147515Y0217315D01*
X0145991Y0217947D01*
X0129981Y0233957D01*
X0129981Y0226519D01*
X0129524Y0225417D01*
X0128681Y0224573D01*
X0127578Y0224116D01*
X0116542Y0224116D01*
X0115439Y0224573D01*
X0114595Y0225417D01*
X0114139Y0226519D01*
X0114139Y0235737D01*
X0074981Y0235737D01*
X0074981Y0226519D01*
X0074524Y0225417D01*
X0073681Y0224573D01*
X0072578Y0224116D01*
X0061542Y0224116D01*
X0060439Y0224573D01*
X0059595Y0225417D01*
X0059139Y0226519D01*
X0059139Y0237555D01*
X0059595Y0238658D01*
X0060439Y0239502D01*
X0061432Y0239913D01*
X0061719Y0240606D01*
X0066719Y0245606D01*
X0066900Y0245787D01*
X0025810Y0245787D01*
X0025810Y0244980D02*
X0042946Y0244980D01*
X0042538Y0244871D02*
X0040053Y0243436D01*
X0038023Y0241407D01*
X0036589Y0238922D01*
X0035846Y0236149D01*
X0035846Y0233280D01*
X0036589Y0230508D01*
X0038023Y0228022D01*
X0040053Y0225993D01*
X0042538Y0224558D01*
X0045310Y0223815D01*
X0048180Y0223815D01*
X0050952Y0224558D01*
X0053437Y0225993D01*
X0055467Y0228022D01*
X0056901Y0230508D01*
X0057644Y0233280D01*
X0057644Y0236149D01*
X0056901Y0238922D01*
X0055467Y0241407D01*
X0053437Y0243436D01*
X0050952Y0244871D01*
X0048180Y0245614D01*
X0045310Y0245614D01*
X0042538Y0244871D01*
X0040652Y0243782D02*
X0025810Y0243782D01*
X0025810Y0242583D02*
X0039200Y0242583D01*
X0038011Y0241385D02*
X0025810Y0241385D01*
X0025810Y0240186D02*
X0037319Y0240186D01*
X0036627Y0238988D02*
X0025810Y0238988D01*
X0025810Y0237789D02*
X0036285Y0237789D01*
X0035964Y0236591D02*
X0025810Y0236591D01*
X0025810Y0235392D02*
X0035846Y0235392D01*
X0035846Y0234194D02*
X0025810Y0234194D01*
X0025810Y0232995D02*
X0035922Y0232995D01*
X0036243Y0231797D02*
X0025810Y0231797D01*
X0025810Y0230598D02*
X0036564Y0230598D01*
X0037228Y0229400D02*
X0025810Y0229400D01*
X0025810Y0228201D02*
X0037920Y0228201D01*
X0039043Y0227003D02*
X0025810Y0227003D01*
X0025810Y0225804D02*
X0040380Y0225804D01*
X0042456Y0224606D02*
X0025810Y0224606D01*
X0025810Y0223407D02*
X0140531Y0223407D01*
X0141729Y0222209D02*
X0025810Y0222209D01*
X0025810Y0221010D02*
X0142928Y0221010D01*
X0144126Y0219812D02*
X0025810Y0219812D01*
X0025810Y0218613D02*
X0145325Y0218613D01*
X0147275Y0217415D02*
X0025810Y0217415D01*
X0025810Y0216216D02*
X0146416Y0216216D01*
X0145865Y0215018D02*
X0025810Y0215018D01*
X0025810Y0213819D02*
X0145368Y0213819D01*
X0145023Y0212621D02*
X0025810Y0212621D01*
X0025810Y0211422D02*
X0145023Y0211422D01*
X0145023Y0210224D02*
X0025810Y0210224D01*
X0025810Y0209025D02*
X0145257Y0209025D01*
X0145753Y0207827D02*
X0025810Y0207827D01*
X0025810Y0206628D02*
X0146250Y0206628D01*
X0145078Y0205430D02*
X0025810Y0205430D01*
X0025810Y0204231D02*
X0143880Y0204231D01*
X0143359Y0203032D02*
X0025810Y0203032D01*
X0025810Y0201834D02*
X0143260Y0201834D01*
X0143260Y0200635D02*
X0025810Y0200635D01*
X0025810Y0199437D02*
X0048445Y0199437D01*
X0048099Y0199091D02*
X0047643Y0197988D01*
X0047643Y0189708D01*
X0048099Y0188606D01*
X0048943Y0187762D01*
X0050046Y0187305D01*
X0058326Y0187305D01*
X0059429Y0187762D01*
X0060273Y0188606D01*
X0060729Y0189708D01*
X0060729Y0197988D01*
X0060273Y0199091D01*
X0059429Y0199935D01*
X0058326Y0200392D01*
X0050046Y0200392D01*
X0048943Y0199935D01*
X0048099Y0199091D01*
X0047746Y0198238D02*
X0037209Y0198238D01*
X0037197Y0198247D02*
X0036475Y0198615D01*
X0035705Y0198865D01*
X0035082Y0198964D01*
X0035082Y0194430D01*
X0033920Y0194430D01*
X0033920Y0198964D01*
X0033296Y0198865D01*
X0032527Y0198615D01*
X0031805Y0198247D01*
X0031150Y0197772D01*
X0030578Y0197199D01*
X0030102Y0196544D01*
X0029734Y0195823D01*
X0029484Y0195053D01*
X0029386Y0194430D01*
X0033920Y0194430D01*
X0033920Y0193267D01*
X0035082Y0193267D01*
X0035082Y0188733D01*
X0035705Y0188832D01*
X0036475Y0189082D01*
X0037197Y0189449D01*
X0037852Y0189925D01*
X0038424Y0190498D01*
X0038900Y0191153D01*
X0039267Y0191874D01*
X0039518Y0192644D01*
X0039616Y0193267D01*
X0035082Y0193267D01*
X0035082Y0194430D01*
X0039616Y0194430D01*
X0039518Y0195053D01*
X0039267Y0195823D01*
X0038900Y0196544D01*
X0038424Y0197199D01*
X0037852Y0197772D01*
X0037197Y0198247D01*
X0038540Y0197040D02*
X0047643Y0197040D01*
X0047643Y0195841D02*
X0039258Y0195841D01*
X0039582Y0194643D02*
X0047643Y0194643D01*
X0047643Y0193444D02*
X0035082Y0193444D01*
X0033920Y0193444D02*
X0025810Y0193444D01*
X0025810Y0192246D02*
X0029614Y0192246D01*
X0029734Y0191874D02*
X0030102Y0191153D01*
X0030578Y0190498D01*
X0031150Y0189925D01*
X0031805Y0189449D01*
X0032527Y0189082D01*
X0033296Y0188832D01*
X0033920Y0188733D01*
X0033920Y0193267D01*
X0029386Y0193267D01*
X0029484Y0192644D01*
X0029734Y0191874D01*
X0030178Y0191047D02*
X0025810Y0191047D01*
X0025810Y0189849D02*
X0031255Y0189849D01*
X0033920Y0189849D02*
X0035082Y0189849D01*
X0035082Y0191047D02*
X0033920Y0191047D01*
X0033920Y0192246D02*
X0035082Y0192246D01*
X0035082Y0194643D02*
X0033920Y0194643D01*
X0033920Y0195841D02*
X0035082Y0195841D01*
X0035082Y0197040D02*
X0033920Y0197040D01*
X0033920Y0198238D02*
X0035082Y0198238D01*
X0031793Y0198238D02*
X0025810Y0198238D01*
X0025810Y0197040D02*
X0030462Y0197040D01*
X0029744Y0195841D02*
X0025810Y0195841D01*
X0025810Y0194643D02*
X0029419Y0194643D01*
X0025810Y0188650D02*
X0048081Y0188650D01*
X0047643Y0189849D02*
X0037746Y0189849D01*
X0038823Y0191047D02*
X0047643Y0191047D01*
X0047643Y0192246D02*
X0039388Y0192246D01*
X0049692Y0187452D02*
X0025810Y0187452D01*
X0025810Y0186253D02*
X0143260Y0186253D01*
X0143260Y0185055D02*
X0025810Y0185055D01*
X0025810Y0183856D02*
X0143260Y0183856D01*
X0143260Y0182658D02*
X0025810Y0182658D01*
X0025810Y0181459D02*
X0050233Y0181459D01*
X0051108Y0181822D02*
X0049350Y0181093D01*
X0049094Y0180837D01*
X0037554Y0180837D01*
X0036913Y0180572D01*
X0036108Y0180572D01*
X0034350Y0179843D01*
X0033004Y0178497D01*
X0032276Y0176739D01*
X0032276Y0174836D01*
X0033004Y0173077D01*
X0034350Y0171732D01*
X0036108Y0171003D01*
X0038012Y0171003D01*
X0039770Y0171732D01*
X0041116Y0173077D01*
X0041182Y0173237D01*
X0049094Y0173237D01*
X0049350Y0172982D01*
X0051108Y0172253D01*
X0053012Y0172253D01*
X0054770Y0172982D01*
X0056116Y0174327D01*
X0056844Y0176086D01*
X0056844Y0177989D01*
X0056116Y0179747D01*
X0054770Y0181093D01*
X0053012Y0181822D01*
X0051108Y0181822D01*
X0053886Y0181459D02*
X0143260Y0181459D01*
X0143260Y0180261D02*
X0055603Y0180261D01*
X0056400Y0179062D02*
X0142720Y0179062D01*
X0142276Y0177864D02*
X0056844Y0177864D01*
X0056844Y0176665D02*
X0142276Y0176665D01*
X0142532Y0175467D02*
X0056588Y0175467D01*
X0056057Y0174268D02*
X0143063Y0174268D01*
X0143559Y0173070D02*
X0054858Y0173070D01*
X0049262Y0173070D02*
X0041108Y0173070D01*
X0039910Y0171871D02*
X0143396Y0171871D01*
X0143260Y0170673D02*
X0025810Y0170673D01*
X0025810Y0171871D02*
X0034210Y0171871D01*
X0033012Y0173070D02*
X0025810Y0173070D01*
X0025810Y0174268D02*
X0032511Y0174268D01*
X0032276Y0175467D02*
X0025810Y0175467D01*
X0025810Y0176665D02*
X0032276Y0176665D01*
X0032742Y0177864D02*
X0025810Y0177864D01*
X0025810Y0179062D02*
X0033569Y0179062D01*
X0035358Y0180261D02*
X0025810Y0180261D01*
X0025810Y0169474D02*
X0143260Y0169474D01*
X0143260Y0168276D02*
X0025810Y0168276D01*
X0025810Y0167077D02*
X0143260Y0167077D01*
X0143260Y0165879D02*
X0039985Y0165879D01*
X0039770Y0166093D02*
X0038012Y0166822D01*
X0036108Y0166822D01*
X0034350Y0166093D01*
X0033004Y0164747D01*
X0032276Y0162989D01*
X0032276Y0161086D01*
X0033004Y0159327D01*
X0034350Y0157982D01*
X0036108Y0157253D01*
X0036912Y0157253D01*
X0037554Y0156987D01*
X0043629Y0156987D01*
X0043526Y0156739D01*
X0043526Y0154836D01*
X0044254Y0153077D01*
X0045600Y0151732D01*
X0047358Y0151003D01*
X0049262Y0151003D01*
X0051020Y0151732D01*
X0052366Y0153077D01*
X0053094Y0154836D01*
X0053094Y0156739D01*
X0052366Y0158497D01*
X0052110Y0158753D01*
X0052110Y0160293D01*
X0051531Y0161690D01*
X0050281Y0162940D01*
X0049212Y0164009D01*
X0047816Y0164587D01*
X0041182Y0164587D01*
X0041116Y0164747D01*
X0039770Y0166093D01*
X0041144Y0164680D02*
X0143260Y0164680D01*
X0142997Y0163482D02*
X0049740Y0163482D01*
X0050938Y0162283D02*
X0142501Y0162283D01*
X0142276Y0161085D02*
X0051782Y0161085D01*
X0052110Y0159886D02*
X0142276Y0159886D01*
X0142751Y0158688D02*
X0052176Y0158688D01*
X0052784Y0157489D02*
X0143592Y0157489D01*
X0145414Y0156291D02*
X0053094Y0156291D01*
X0053094Y0155092D02*
X0223260Y0155092D01*
X0223260Y0153894D02*
X0052704Y0153894D01*
X0051983Y0152695D02*
X0223260Y0152695D01*
X0223260Y0151496D02*
X0050453Y0151496D01*
X0046167Y0151496D02*
X0025810Y0151496D01*
X0025810Y0150298D02*
X0223260Y0150298D01*
X0223260Y0149099D02*
X0116583Y0149099D01*
X0116181Y0149502D02*
X0115078Y0149959D01*
X0104042Y0149959D01*
X0102939Y0149502D01*
X0102095Y0148658D01*
X0101639Y0147555D01*
X0101639Y0136519D01*
X0102095Y0135417D01*
X0102939Y0134573D01*
X0104042Y0134116D01*
X0115078Y0134116D01*
X0116181Y0134573D01*
X0117024Y0135417D01*
X0117066Y0135516D01*
X0121479Y0135516D01*
X0121479Y0141456D01*
X0122641Y0141456D01*
X0122641Y0135516D01*
X0127192Y0135516D01*
X0127599Y0135625D01*
X0127964Y0135836D01*
X0128262Y0136134D01*
X0128472Y0136499D01*
X0128581Y0136905D01*
X0128581Y0141456D01*
X0122641Y0141456D01*
X0122641Y0142619D01*
X0121479Y0142619D01*
X0121479Y0148559D01*
X0117066Y0148559D01*
X0117024Y0148658D01*
X0116181Y0149502D01*
X0121479Y0147901D02*
X0122641Y0147901D01*
X0122641Y0148559D02*
X0122641Y0142619D01*
X0128581Y0142619D01*
X0128581Y0147169D01*
X0128472Y0147576D01*
X0128262Y0147941D01*
X0127964Y0148239D01*
X0127599Y0148450D01*
X0127192Y0148559D01*
X0122641Y0148559D01*
X0122641Y0146702D02*
X0121479Y0146702D01*
X0121479Y0145504D02*
X0122641Y0145504D01*
X0122641Y0144305D02*
X0121479Y0144305D01*
X0121479Y0143107D02*
X0122641Y0143107D01*
X0122641Y0141908D02*
X0163526Y0141908D01*
X0163575Y0143107D02*
X0128581Y0143107D01*
X0128581Y0144305D02*
X0164071Y0144305D01*
X0165011Y0145504D02*
X0128581Y0145504D01*
X0128581Y0146702D02*
X0167071Y0146702D01*
X0169549Y0146702D02*
X0223260Y0146702D01*
X0223260Y0145504D02*
X0171609Y0145504D01*
X0172549Y0144305D02*
X0223260Y0144305D01*
X0223260Y0143107D02*
X0173045Y0143107D01*
X0173094Y0141908D02*
X0223260Y0141908D01*
X0223260Y0140710D02*
X0172938Y0140710D01*
X0172442Y0139511D02*
X0223260Y0139511D01*
X0230860Y0139511D02*
X0327814Y0139511D01*
X0327814Y0139510D02*
X0327814Y0132380D01*
X0328271Y0131277D01*
X0329115Y0130433D01*
X0330217Y0129976D01*
X0337348Y0129976D01*
X0338450Y0130433D01*
X0339294Y0131277D01*
X0339751Y0132380D01*
X0339751Y0139510D01*
X0339294Y0140613D01*
X0338450Y0141457D01*
X0337885Y0141691D01*
X0338031Y0141836D01*
X0338242Y0142201D01*
X0338351Y0142608D01*
X0338351Y0145403D01*
X0334167Y0145403D01*
X0334167Y0146172D01*
X0338351Y0146172D01*
X0338351Y0148967D01*
X0338242Y0149373D01*
X0338031Y0149738D01*
X0337885Y0149884D01*
X0338450Y0150118D01*
X0339294Y0150962D01*
X0339322Y0151030D01*
X0343260Y0151030D01*
X0343260Y0098753D01*
X0343004Y0098497D01*
X0342276Y0096739D01*
X0342276Y0094836D01*
X0343004Y0093077D01*
X0344350Y0091732D01*
X0346108Y0091003D01*
X0348012Y0091003D01*
X0348260Y0091106D01*
X0348260Y0088753D01*
X0348004Y0088497D01*
X0347276Y0086739D01*
X0347276Y0084836D01*
X0348004Y0083077D01*
X0349350Y0081732D01*
X0351108Y0081003D01*
X0353012Y0081003D01*
X0354770Y0081732D01*
X0356116Y0083077D01*
X0356844Y0084836D01*
X0356844Y0086739D01*
X0356116Y0088497D01*
X0355860Y0088753D01*
X0355860Y0092821D01*
X0356116Y0093077D01*
X0356844Y0094836D01*
X0356844Y0096739D01*
X0356116Y0098497D01*
X0354770Y0099843D01*
X0353012Y0100572D01*
X0351108Y0100572D01*
X0350860Y0100469D01*
X0350860Y0121106D01*
X0351108Y0121003D01*
X0353012Y0121003D01*
X0353979Y0121404D01*
X0353979Y0114844D01*
X0354436Y0113742D01*
X0355280Y0112898D01*
X0356382Y0112441D01*
X0370237Y0112441D01*
X0371340Y0112898D01*
X0372184Y0113742D01*
X0372641Y0114844D01*
X0372641Y0128699D01*
X0372184Y0129802D01*
X0371340Y0130646D01*
X0370237Y0131102D01*
X0356660Y0131102D01*
X0356660Y0135641D01*
X0356844Y0136086D01*
X0356844Y0137989D01*
X0356116Y0139747D01*
X0354770Y0141093D01*
X0353012Y0141822D01*
X0351108Y0141822D01*
X0350860Y0141719D01*
X0350860Y0155293D01*
X0350567Y0155999D01*
X0350567Y0156545D01*
X0349867Y0158236D01*
X0348573Y0159530D01*
X0346882Y0160230D01*
X0339322Y0160230D01*
X0339294Y0160298D01*
X0338450Y0161142D01*
X0337348Y0161598D01*
X0330217Y0161598D01*
X0329115Y0161142D01*
X0328271Y0160298D01*
X0327814Y0159195D01*
X0327814Y0152065D01*
X0328271Y0150962D01*
X0329115Y0150118D01*
X0329679Y0149884D01*
X0329534Y0149738D01*
X0329323Y0149373D01*
X0329214Y0148967D01*
X0329214Y0146172D01*
X0333398Y0146172D01*
X0333398Y0145403D01*
X0329214Y0145403D01*
X0329214Y0142608D01*
X0329323Y0142201D01*
X0329534Y0141836D01*
X0329679Y0141691D01*
X0329115Y0141457D01*
X0328271Y0140613D01*
X0327814Y0139510D01*
X0327814Y0138313D02*
X0269788Y0138313D01*
X0270986Y0137114D02*
X0327814Y0137114D01*
X0327814Y0135916D02*
X0272185Y0135916D01*
X0273060Y0134717D02*
X0327814Y0134717D01*
X0327814Y0133519D02*
X0273060Y0133519D01*
X0273060Y0132320D02*
X0327838Y0132320D01*
X0328426Y0131122D02*
X0273060Y0131122D01*
X0273060Y0129923D02*
X0343260Y0129923D01*
X0343260Y0128725D02*
X0272750Y0128725D01*
X0271552Y0127526D02*
X0343260Y0127526D01*
X0343260Y0126328D02*
X0270523Y0126328D01*
X0271721Y0125129D02*
X0343260Y0125129D01*
X0343260Y0123931D02*
X0272920Y0123931D01*
X0273060Y0122732D02*
X0343260Y0122732D01*
X0343260Y0121534D02*
X0273060Y0121534D01*
X0273060Y0120335D02*
X0343260Y0120335D01*
X0343260Y0119137D02*
X0273060Y0119137D01*
X0273060Y0117938D02*
X0343260Y0117938D01*
X0343260Y0116740D02*
X0272015Y0116740D01*
X0270817Y0115541D02*
X0343260Y0115541D01*
X0343260Y0114343D02*
X0269618Y0114343D01*
X0269610Y0113144D02*
X0343260Y0113144D01*
X0343260Y0111946D02*
X0269610Y0111946D01*
X0269610Y0110747D02*
X0343260Y0110747D01*
X0343260Y0109549D02*
X0269610Y0109549D01*
X0269610Y0108350D02*
X0343260Y0108350D01*
X0343260Y0107152D02*
X0269610Y0107152D01*
X0269610Y0105953D02*
X0343260Y0105953D01*
X0343260Y0104755D02*
X0269610Y0104755D01*
X0269517Y0103556D02*
X0343260Y0103556D01*
X0343260Y0102358D02*
X0269004Y0102358D01*
X0267806Y0101159D02*
X0343260Y0101159D01*
X0343260Y0099961D02*
X0266607Y0099961D01*
X0265409Y0098762D02*
X0343260Y0098762D01*
X0342617Y0097563D02*
X0264207Y0097563D01*
X0260653Y0104755D02*
X0206109Y0104755D01*
X0200860Y0105953D02*
X0261852Y0105953D01*
X0262010Y0107152D02*
X0200860Y0107152D01*
X0200860Y0108350D02*
X0262010Y0108350D01*
X0262010Y0109549D02*
X0200860Y0109549D01*
X0200860Y0110747D02*
X0262010Y0110747D01*
X0262010Y0111946D02*
X0237729Y0111946D01*
X0237258Y0111750D02*
X0240396Y0113050D01*
X0242797Y0115452D01*
X0244097Y0118589D01*
X0244097Y0121986D01*
X0242797Y0125123D01*
X0240396Y0127525D01*
X0237258Y0128824D01*
X0233862Y0128824D01*
X0230724Y0127525D01*
X0228323Y0125123D01*
X0227023Y0121986D01*
X0227023Y0118589D01*
X0228323Y0115452D01*
X0230724Y0113050D01*
X0233862Y0111750D01*
X0237258Y0111750D01*
X0240490Y0113144D02*
X0262010Y0113144D01*
X0262002Y0114343D02*
X0241688Y0114343D01*
X0242834Y0115541D02*
X0260803Y0115541D01*
X0259605Y0116740D02*
X0243331Y0116740D01*
X0243827Y0117938D02*
X0258560Y0117938D01*
X0258560Y0119137D02*
X0244097Y0119137D01*
X0244097Y0120335D02*
X0258560Y0120335D01*
X0258560Y0121534D02*
X0244097Y0121534D01*
X0243788Y0122732D02*
X0258560Y0122732D01*
X0258700Y0123931D02*
X0243291Y0123931D01*
X0242791Y0125129D02*
X0259899Y0125129D01*
X0261097Y0126328D02*
X0241593Y0126328D01*
X0240392Y0127526D02*
X0260068Y0127526D01*
X0258870Y0128725D02*
X0237499Y0128725D01*
X0233621Y0128725D02*
X0208336Y0128725D01*
X0208360Y0129923D02*
X0258560Y0129923D01*
X0258560Y0131122D02*
X0226244Y0131122D01*
X0227717Y0132320D02*
X0258560Y0132320D01*
X0258560Y0133519D02*
X0228915Y0133519D01*
X0230114Y0134717D02*
X0258560Y0134717D01*
X0259435Y0135916D02*
X0230708Y0135916D01*
X0230860Y0137114D02*
X0260634Y0137114D01*
X0261832Y0138313D02*
X0230860Y0138313D01*
X0230860Y0140710D02*
X0328368Y0140710D01*
X0329492Y0141908D02*
X0230860Y0141908D01*
X0230860Y0143107D02*
X0329214Y0143107D01*
X0329214Y0144305D02*
X0230860Y0144305D01*
X0230860Y0145504D02*
X0333398Y0145504D01*
X0334167Y0145504D02*
X0343260Y0145504D01*
X0343260Y0146702D02*
X0338351Y0146702D01*
X0338351Y0147901D02*
X0343260Y0147901D01*
X0343260Y0149099D02*
X0338315Y0149099D01*
X0338630Y0150298D02*
X0343260Y0150298D01*
X0350860Y0150298D02*
X0399560Y0150298D01*
X0399560Y0151496D02*
X0394935Y0151496D01*
X0394820Y0151381D02*
X0395118Y0151679D01*
X0395328Y0152044D01*
X0395437Y0152451D01*
X0395437Y0155246D01*
X0391253Y0155246D01*
X0391253Y0156014D01*
X0390485Y0156014D01*
X0390485Y0160198D01*
X0387690Y0160198D01*
X0387283Y0160089D01*
X0386918Y0159879D01*
X0386620Y0159581D01*
X0386410Y0159216D01*
X0386300Y0158809D01*
X0386300Y0156014D01*
X0390485Y0156014D01*
X0390485Y0155246D01*
X0386300Y0155246D01*
X0386300Y0152451D01*
X0386410Y0152044D01*
X0386620Y0151679D01*
X0386918Y0151381D01*
X0387283Y0151170D01*
X0387690Y0151061D01*
X0390485Y0151061D01*
X0390485Y0155246D01*
X0391253Y0155246D01*
X0391253Y0151061D01*
X0394048Y0151061D01*
X0394455Y0151170D01*
X0394820Y0151381D01*
X0395437Y0152695D02*
X0399560Y0152695D01*
X0399560Y0153894D02*
X0395437Y0153894D01*
X0395437Y0155092D02*
X0399560Y0155092D01*
X0399560Y0156291D02*
X0395437Y0156291D01*
X0395437Y0156014D02*
X0395437Y0158809D01*
X0395328Y0159216D01*
X0395118Y0159581D01*
X0394820Y0159879D01*
X0394455Y0160089D01*
X0394048Y0160198D01*
X0391253Y0160198D01*
X0391253Y0156014D01*
X0395437Y0156014D01*
X0395437Y0157489D02*
X0399560Y0157489D01*
X0399560Y0158688D02*
X0395437Y0158688D01*
X0394807Y0159886D02*
X0399560Y0159886D01*
X0399560Y0161085D02*
X0371495Y0161085D01*
X0371340Y0160929D02*
X0372184Y0161773D01*
X0372641Y0162876D01*
X0372641Y0176731D01*
X0372184Y0177833D01*
X0371340Y0178677D01*
X0370237Y0179134D01*
X0356382Y0179134D01*
X0355280Y0178677D01*
X0354436Y0177833D01*
X0353979Y0176731D01*
X0353979Y0162876D01*
X0354436Y0161773D01*
X0355280Y0160929D01*
X0356382Y0160472D01*
X0370237Y0160472D01*
X0371340Y0160929D01*
X0372395Y0162283D02*
X0399560Y0162283D01*
X0399560Y0163482D02*
X0372641Y0163482D01*
X0372641Y0164680D02*
X0399560Y0164680D01*
X0399560Y0165879D02*
X0372641Y0165879D01*
X0372641Y0167077D02*
X0399560Y0167077D01*
X0399560Y0168276D02*
X0372641Y0168276D01*
X0372641Y0169474D02*
X0399560Y0169474D01*
X0399560Y0170673D02*
X0372641Y0170673D01*
X0372641Y0171871D02*
X0399560Y0171871D01*
X0399560Y0173070D02*
X0372641Y0173070D01*
X0372641Y0174268D02*
X0399560Y0174268D01*
X0399560Y0175467D02*
X0372641Y0175467D01*
X0372641Y0176665D02*
X0399560Y0176665D01*
X0399560Y0177864D02*
X0372153Y0177864D01*
X0370410Y0179062D02*
X0399560Y0179062D01*
X0399560Y0180261D02*
X0304705Y0180261D01*
X0306445Y0179062D02*
X0356210Y0179062D01*
X0354466Y0177864D02*
X0307501Y0177864D01*
X0307998Y0176665D02*
X0353979Y0176665D01*
X0353979Y0175467D02*
X0308360Y0175467D01*
X0308360Y0174268D02*
X0353979Y0174268D01*
X0353979Y0173070D02*
X0308271Y0173070D01*
X0307775Y0171871D02*
X0353979Y0171871D01*
X0353979Y0170673D02*
X0307105Y0170673D01*
X0305906Y0169474D02*
X0353979Y0169474D01*
X0353979Y0168276D02*
X0303405Y0168276D01*
X0300714Y0168276D02*
X0248094Y0168276D01*
X0248094Y0167336D02*
X0248094Y0169239D01*
X0247366Y0170997D01*
X0247110Y0171253D01*
X0247110Y0179071D01*
X0247366Y0179327D01*
X0248094Y0181086D01*
X0248094Y0182989D01*
X0247366Y0184747D01*
X0246020Y0186093D01*
X0244262Y0186822D01*
X0242358Y0186822D01*
X0240600Y0186093D01*
X0239254Y0184747D01*
X0238526Y0182989D01*
X0238526Y0181086D01*
X0239254Y0179327D01*
X0239510Y0179071D01*
X0239510Y0171253D01*
X0239254Y0170997D01*
X0238526Y0169239D01*
X0238526Y0167336D01*
X0239254Y0165577D01*
X0240600Y0164232D01*
X0242358Y0163503D01*
X0244262Y0163503D01*
X0246020Y0164232D01*
X0247366Y0165577D01*
X0248094Y0167336D01*
X0247987Y0167077D02*
X0353979Y0167077D01*
X0353979Y0165879D02*
X0247491Y0165879D01*
X0246469Y0164680D02*
X0353979Y0164680D01*
X0353979Y0163482D02*
X0240990Y0163482D01*
X0240151Y0164680D02*
X0234933Y0164680D01*
X0230860Y0165879D02*
X0239129Y0165879D01*
X0238633Y0167077D02*
X0230860Y0167077D01*
X0230860Y0168276D02*
X0238526Y0168276D01*
X0238623Y0169474D02*
X0230860Y0169474D01*
X0230860Y0170673D02*
X0239120Y0170673D01*
X0239510Y0171871D02*
X0230860Y0171871D01*
X0230860Y0173070D02*
X0239510Y0173070D01*
X0239510Y0174268D02*
X0230860Y0174268D01*
X0230860Y0175467D02*
X0239510Y0175467D01*
X0239510Y0176665D02*
X0230860Y0176665D01*
X0230860Y0177864D02*
X0239510Y0177864D01*
X0239510Y0179062D02*
X0230860Y0179062D01*
X0231502Y0180261D02*
X0238867Y0180261D01*
X0238526Y0181459D02*
X0231844Y0181459D01*
X0233988Y0182658D02*
X0238526Y0182658D01*
X0238885Y0183856D02*
X0235645Y0183856D01*
X0236417Y0185055D02*
X0239561Y0185055D01*
X0240986Y0186253D02*
X0236844Y0186253D01*
X0236844Y0187452D02*
X0259510Y0187452D01*
X0259510Y0188650D02*
X0236570Y0188650D01*
X0236014Y0189849D02*
X0259510Y0189849D01*
X0259510Y0191047D02*
X0234816Y0191047D01*
X0229304Y0191047D02*
X0225061Y0191047D01*
X0225557Y0192246D02*
X0259510Y0192246D01*
X0267110Y0192246D02*
X0294510Y0192246D01*
X0294510Y0193444D02*
X0267110Y0193444D01*
X0267110Y0194643D02*
X0279796Y0194643D01*
X0280758Y0194244D02*
X0283361Y0194244D01*
X0285766Y0195240D01*
X0287060Y0196534D01*
X0288353Y0195240D01*
X0290758Y0194244D01*
X0293361Y0194244D01*
X0294510Y0194720D01*
X0294510Y0185837D01*
X0267110Y0185837D01*
X0267110Y0197793D01*
X0266531Y0199190D01*
X0265462Y0200259D01*
X0264066Y0200837D01*
X0263094Y0200837D01*
X0263094Y0201739D01*
X0262366Y0203497D01*
X0261020Y0204843D01*
X0259262Y0205572D01*
X0257358Y0205572D01*
X0255600Y0204843D01*
X0255344Y0204587D01*
X0254344Y0204587D01*
X0254344Y0205489D01*
X0253616Y0207247D01*
X0252270Y0208593D01*
X0250512Y0209322D01*
X0248608Y0209322D01*
X0246850Y0208593D01*
X0246594Y0208337D01*
X0243578Y0208337D01*
X0244097Y0209589D01*
X0244097Y0212986D01*
X0242797Y0216123D01*
X0240396Y0218525D01*
X0238072Y0219487D01*
X0267986Y0219487D01*
X0268260Y0219213D01*
X0268260Y0216241D01*
X0266513Y0214494D01*
X0265517Y0212089D01*
X0265517Y0209486D01*
X0266513Y0207081D01*
X0268353Y0205240D01*
X0269045Y0204954D01*
X0268709Y0204710D01*
X0268137Y0204138D01*
X0267661Y0203483D01*
X0267293Y0202762D01*
X0267043Y0201992D01*
X0266945Y0201369D01*
X0271479Y0201369D01*
X0271479Y0200206D01*
X0272641Y0200206D01*
X0272641Y0195672D01*
X0273264Y0195771D01*
X0274034Y0196021D01*
X0274756Y0196388D01*
X0275411Y0196864D01*
X0275983Y0197437D01*
X0276227Y0197772D01*
X0276513Y0197081D01*
X0278353Y0195240D01*
X0280758Y0194244D01*
X0277752Y0195841D02*
X0273482Y0195841D01*
X0272641Y0195841D02*
X0271479Y0195841D01*
X0271479Y0195672D02*
X0271479Y0200206D01*
X0266945Y0200206D01*
X0267043Y0199583D01*
X0267293Y0198813D01*
X0267661Y0198092D01*
X0268137Y0197437D01*
X0268709Y0196864D01*
X0269364Y0196388D01*
X0270086Y0196021D01*
X0270856Y0195771D01*
X0271479Y0195672D01*
X0270638Y0195841D02*
X0267110Y0195841D01*
X0267110Y0197040D02*
X0268534Y0197040D01*
X0267586Y0198238D02*
X0266926Y0198238D01*
X0267091Y0199437D02*
X0266284Y0199437D01*
X0264553Y0200635D02*
X0271479Y0200635D01*
X0271479Y0199437D02*
X0272641Y0199437D01*
X0272641Y0198238D02*
X0271479Y0198238D01*
X0271479Y0197040D02*
X0272641Y0197040D01*
X0275586Y0197040D02*
X0276554Y0197040D01*
X0284324Y0194643D02*
X0289796Y0194643D01*
X0287752Y0195841D02*
X0286368Y0195841D01*
X0294324Y0194643D02*
X0294510Y0194643D01*
X0294510Y0191047D02*
X0267110Y0191047D01*
X0267110Y0189849D02*
X0294510Y0189849D01*
X0294510Y0188650D02*
X0267110Y0188650D01*
X0267110Y0187452D02*
X0294510Y0187452D01*
X0294510Y0186253D02*
X0267110Y0186253D01*
X0259510Y0186253D02*
X0245634Y0186253D01*
X0247058Y0185055D02*
X0259510Y0185055D01*
X0259510Y0183856D02*
X0247735Y0183856D01*
X0248094Y0182658D02*
X0259510Y0182658D01*
X0259954Y0181459D02*
X0248094Y0181459D01*
X0247752Y0180261D02*
X0260963Y0180261D01*
X0261560Y0179062D02*
X0262161Y0179062D01*
X0262560Y0177864D02*
X0261560Y0177864D01*
X0261560Y0176665D02*
X0262560Y0176665D01*
X0262560Y0175467D02*
X0261560Y0175467D01*
X0261560Y0174268D02*
X0247110Y0174268D01*
X0247110Y0173070D02*
X0257385Y0173070D01*
X0257940Y0171871D02*
X0247110Y0171871D01*
X0247500Y0170673D02*
X0259043Y0170673D01*
X0261560Y0170673D02*
X0262560Y0170673D01*
X0262560Y0171871D02*
X0261560Y0171871D01*
X0261560Y0173070D02*
X0262560Y0173070D01*
X0262560Y0174268D02*
X0295760Y0174268D01*
X0295760Y0175467D02*
X0266874Y0175467D01*
X0266475Y0176665D02*
X0296122Y0176665D01*
X0296619Y0177864D02*
X0265663Y0177864D01*
X0260147Y0179062D02*
X0247110Y0179062D01*
X0247110Y0177864D02*
X0258457Y0177864D01*
X0257645Y0176665D02*
X0247110Y0176665D01*
X0247110Y0175467D02*
X0257246Y0175467D01*
X0265077Y0170673D02*
X0297015Y0170673D01*
X0296345Y0171871D02*
X0266180Y0171871D01*
X0266735Y0173070D02*
X0295849Y0173070D01*
X0298214Y0169474D02*
X0247997Y0169474D01*
X0242188Y0162283D02*
X0354225Y0162283D01*
X0355124Y0161085D02*
X0338507Y0161085D01*
X0347713Y0159886D02*
X0386931Y0159886D01*
X0386300Y0158688D02*
X0349415Y0158688D01*
X0350176Y0157489D02*
X0386300Y0157489D01*
X0386300Y0156291D02*
X0350567Y0156291D01*
X0350860Y0155092D02*
X0386300Y0155092D01*
X0386300Y0153894D02*
X0350860Y0153894D01*
X0350860Y0152695D02*
X0386300Y0152695D01*
X0386803Y0151496D02*
X0350860Y0151496D01*
X0350860Y0149099D02*
X0399560Y0149099D01*
X0399560Y0147901D02*
X0350860Y0147901D01*
X0350860Y0146702D02*
X0399560Y0146702D01*
X0399560Y0145504D02*
X0350860Y0145504D01*
X0350860Y0144305D02*
X0399560Y0144305D01*
X0399560Y0143107D02*
X0350860Y0143107D01*
X0350860Y0141908D02*
X0387292Y0141908D01*
X0387304Y0141913D02*
X0386201Y0141457D01*
X0385357Y0140613D01*
X0384900Y0139510D01*
X0384900Y0132380D01*
X0385357Y0131277D01*
X0386201Y0130433D01*
X0387304Y0129976D01*
X0394434Y0129976D01*
X0395537Y0130433D01*
X0396381Y0131277D01*
X0396837Y0132380D01*
X0396837Y0139510D01*
X0396381Y0140613D01*
X0395537Y0141457D01*
X0394434Y0141913D01*
X0387304Y0141913D01*
X0385454Y0140710D02*
X0355153Y0140710D01*
X0356214Y0139511D02*
X0384901Y0139511D01*
X0384900Y0138313D02*
X0356710Y0138313D01*
X0356844Y0137114D02*
X0384900Y0137114D01*
X0384900Y0135916D02*
X0356774Y0135916D01*
X0356660Y0134717D02*
X0384900Y0134717D01*
X0384900Y0133519D02*
X0356660Y0133519D01*
X0356660Y0132320D02*
X0384925Y0132320D01*
X0385512Y0131122D02*
X0356660Y0131122D01*
X0372062Y0129923D02*
X0399560Y0129923D01*
X0399560Y0128725D02*
X0372630Y0128725D01*
X0372641Y0127526D02*
X0399560Y0127526D01*
X0399560Y0126328D02*
X0372641Y0126328D01*
X0372641Y0125129D02*
X0399560Y0125129D01*
X0399560Y0123931D02*
X0372641Y0123931D01*
X0372641Y0122732D02*
X0399560Y0122732D01*
X0399560Y0121534D02*
X0372641Y0121534D01*
X0372641Y0120335D02*
X0399560Y0120335D01*
X0399560Y0119137D02*
X0372641Y0119137D01*
X0372641Y0117938D02*
X0399560Y0117938D01*
X0399560Y0116740D02*
X0372641Y0116740D01*
X0372641Y0115541D02*
X0399560Y0115541D01*
X0399560Y0114343D02*
X0372433Y0114343D01*
X0371586Y0113144D02*
X0399560Y0113144D01*
X0399560Y0111946D02*
X0350860Y0111946D01*
X0350860Y0113144D02*
X0355033Y0113144D01*
X0354187Y0114343D02*
X0350860Y0114343D01*
X0350860Y0115541D02*
X0353979Y0115541D01*
X0353979Y0116740D02*
X0350860Y0116740D01*
X0350860Y0117938D02*
X0353979Y0117938D01*
X0353979Y0119137D02*
X0350860Y0119137D01*
X0350860Y0120335D02*
X0353979Y0120335D01*
X0350860Y0110747D02*
X0399560Y0110747D01*
X0399560Y0109549D02*
X0350860Y0109549D01*
X0350860Y0108350D02*
X0399560Y0108350D01*
X0399560Y0107152D02*
X0350860Y0107152D01*
X0350860Y0105953D02*
X0399560Y0105953D01*
X0399560Y0104755D02*
X0350860Y0104755D01*
X0350860Y0103556D02*
X0399560Y0103556D01*
X0399560Y0102358D02*
X0350860Y0102358D01*
X0350860Y0101159D02*
X0399560Y0101159D01*
X0399560Y0099961D02*
X0354487Y0099961D01*
X0355851Y0098762D02*
X0399560Y0098762D01*
X0399560Y0097563D02*
X0356503Y0097563D01*
X0356844Y0096365D02*
X0399560Y0096365D01*
X0399560Y0095166D02*
X0356844Y0095166D01*
X0356485Y0093968D02*
X0399560Y0093968D01*
X0399560Y0092769D02*
X0355860Y0092769D01*
X0355860Y0091571D02*
X0399560Y0091571D01*
X0399560Y0090372D02*
X0355860Y0090372D01*
X0355860Y0089174D02*
X0399560Y0089174D01*
X0399560Y0087975D02*
X0356332Y0087975D01*
X0356829Y0086777D02*
X0399560Y0086777D01*
X0399560Y0085578D02*
X0356844Y0085578D01*
X0356655Y0084380D02*
X0399560Y0084380D01*
X0399560Y0083181D02*
X0356159Y0083181D01*
X0355021Y0081983D02*
X0399560Y0081983D01*
X0399560Y0080784D02*
X0265556Y0080784D01*
X0265877Y0079586D02*
X0399560Y0079586D01*
X0399560Y0078387D02*
X0265912Y0078387D01*
X0265912Y0079457D02*
X0265169Y0082229D01*
X0263734Y0084714D01*
X0261705Y0086743D01*
X0259220Y0088178D01*
X0256448Y0088921D01*
X0253578Y0088921D01*
X0250806Y0088178D01*
X0248320Y0086743D01*
X0246291Y0084714D01*
X0244856Y0082229D01*
X0244113Y0079457D01*
X0244113Y0076587D01*
X0244856Y0073815D01*
X0246291Y0071329D01*
X0248320Y0069300D01*
X0250806Y0067865D01*
X0253578Y0067122D01*
X0256448Y0067122D01*
X0259220Y0067865D01*
X0261705Y0069300D01*
X0263734Y0071329D01*
X0265169Y0073815D01*
X0265912Y0076587D01*
X0265912Y0079457D01*
X0265912Y0077189D02*
X0399560Y0077189D01*
X0399560Y0075990D02*
X0265752Y0075990D01*
X0265431Y0074792D02*
X0399560Y0074792D01*
X0399560Y0073593D02*
X0265041Y0073593D01*
X0264349Y0072395D02*
X0399560Y0072395D01*
X0399560Y0071196D02*
X0263601Y0071196D01*
X0262403Y0069998D02*
X0399560Y0069998D01*
X0399560Y0068799D02*
X0260837Y0068799D01*
X0258232Y0067601D02*
X0399560Y0067601D01*
X0399560Y0066402D02*
X0195860Y0066402D01*
X0195860Y0065204D02*
X0399560Y0065204D01*
X0399560Y0064005D02*
X0195860Y0064005D01*
X0195860Y0062807D02*
X0399560Y0062807D01*
X0399560Y0061608D02*
X0195860Y0061608D01*
X0195860Y0060410D02*
X0399560Y0060410D01*
X0399560Y0059211D02*
X0195860Y0059211D01*
X0195860Y0058013D02*
X0399560Y0058013D01*
X0399560Y0056814D02*
X0195860Y0056814D01*
X0195860Y0055616D02*
X0399560Y0055616D01*
X0399560Y0054417D02*
X0195860Y0054417D01*
X0195860Y0053219D02*
X0365135Y0053219D01*
X0365625Y0053709D02*
X0360408Y0048492D01*
X0360408Y0041114D01*
X0365625Y0035898D01*
X0373003Y0035898D01*
X0378219Y0041114D01*
X0378219Y0048492D01*
X0373003Y0053709D01*
X0365625Y0053709D01*
X0363937Y0052020D02*
X0195860Y0052020D01*
X0195860Y0050822D02*
X0362738Y0050822D01*
X0361539Y0049623D02*
X0195860Y0049623D01*
X0195860Y0048425D02*
X0360408Y0048425D01*
X0360408Y0047226D02*
X0195860Y0047226D01*
X0195860Y0046027D02*
X0360408Y0046027D01*
X0360408Y0044829D02*
X0195860Y0044829D01*
X0195860Y0043630D02*
X0360408Y0043630D01*
X0360408Y0042432D02*
X0195860Y0042432D01*
X0195860Y0041233D02*
X0360408Y0041233D01*
X0361488Y0040035D02*
X0195860Y0040035D01*
X0195860Y0038836D02*
X0362686Y0038836D01*
X0363885Y0037638D02*
X0195860Y0037638D01*
X0195860Y0036439D02*
X0365083Y0036439D01*
X0373544Y0036439D02*
X0399560Y0036439D01*
X0399560Y0035241D02*
X0195860Y0035241D01*
X0195860Y0034042D02*
X0399560Y0034042D01*
X0399560Y0032844D02*
X0195860Y0032844D01*
X0195860Y0031645D02*
X0399560Y0031645D01*
X0399560Y0030447D02*
X0195860Y0030447D01*
X0195860Y0029248D02*
X0399560Y0029248D01*
X0399560Y0028050D02*
X0195860Y0028050D01*
X0195860Y0026851D02*
X0399560Y0026851D01*
X0399560Y0025653D02*
X0384578Y0025653D01*
X0384023Y0025973D02*
X0381251Y0026716D01*
X0378381Y0026716D01*
X0375609Y0025973D01*
X0373124Y0024538D01*
X0371094Y0022509D01*
X0369659Y0020024D01*
X0368917Y0017252D01*
X0368917Y0014382D01*
X0369659Y0011610D01*
X0371094Y0009125D01*
X0373124Y0007095D01*
X0375609Y0005660D01*
X0378381Y0004918D01*
X0381251Y0004918D01*
X0384023Y0005660D01*
X0386508Y0007095D01*
X0388537Y0009125D01*
X0389972Y0011610D01*
X0390715Y0014382D01*
X0390715Y0017252D01*
X0389972Y0020024D01*
X0388537Y0022509D01*
X0386508Y0024538D01*
X0384023Y0025973D01*
X0386592Y0024454D02*
X0399560Y0024454D01*
X0399560Y0023256D02*
X0387791Y0023256D01*
X0388798Y0022057D02*
X0399560Y0022057D01*
X0399560Y0020859D02*
X0389490Y0020859D01*
X0390070Y0019660D02*
X0399560Y0019660D01*
X0399560Y0018462D02*
X0390391Y0018462D01*
X0390712Y0017263D02*
X0399560Y0017263D01*
X0399560Y0016065D02*
X0390715Y0016065D01*
X0390715Y0014866D02*
X0399560Y0014866D01*
X0399560Y0013668D02*
X0390524Y0013668D01*
X0390202Y0012469D02*
X0399560Y0012469D01*
X0399560Y0011271D02*
X0389776Y0011271D01*
X0389084Y0010072D02*
X0399560Y0010072D01*
X0399560Y0008874D02*
X0388286Y0008874D01*
X0387088Y0007675D02*
X0399560Y0007675D01*
X0399560Y0006477D02*
X0385436Y0006477D01*
X0382596Y0005278D02*
X0399560Y0005278D01*
X0399560Y0004080D02*
X0025810Y0004080D01*
X0025810Y0005278D02*
X0042518Y0005278D01*
X0042538Y0005267D02*
X0045310Y0004524D01*
X0048180Y0004524D01*
X0050952Y0005267D01*
X0053437Y0006702D01*
X0055467Y0008731D01*
X0056901Y0011216D01*
X0057644Y0013988D01*
X0057644Y0016858D01*
X0056901Y0019630D01*
X0055467Y0022115D01*
X0053437Y0024145D01*
X0050952Y0025580D01*
X0048180Y0026322D01*
X0045310Y0026322D01*
X0042538Y0025580D01*
X0040053Y0024145D01*
X0038023Y0022115D01*
X0036589Y0019630D01*
X0035846Y0016858D01*
X0035846Y0013988D01*
X0036589Y0011216D01*
X0038023Y0008731D01*
X0040053Y0006702D01*
X0042538Y0005267D01*
X0040443Y0006477D02*
X0025810Y0006477D01*
X0025810Y0007675D02*
X0039079Y0007675D01*
X0037941Y0008874D02*
X0025810Y0008874D01*
X0025810Y0010072D02*
X0037249Y0010072D01*
X0036574Y0011271D02*
X0025810Y0011271D01*
X0025810Y0012469D02*
X0036253Y0012469D01*
X0035932Y0013668D02*
X0025810Y0013668D01*
X0025810Y0014866D02*
X0035846Y0014866D01*
X0035846Y0016065D02*
X0025810Y0016065D01*
X0025810Y0017263D02*
X0035954Y0017263D01*
X0036275Y0018462D02*
X0025810Y0018462D01*
X0025810Y0019660D02*
X0036606Y0019660D01*
X0037298Y0020859D02*
X0025810Y0020859D01*
X0025810Y0022057D02*
X0037990Y0022057D01*
X0039164Y0023256D02*
X0025810Y0023256D01*
X0025810Y0024454D02*
X0040589Y0024454D01*
X0042811Y0025653D02*
X0025810Y0025653D01*
X0025810Y0026851D02*
X0057010Y0026851D01*
X0057010Y0025653D02*
X0050679Y0025653D01*
X0052901Y0024454D02*
X0057010Y0024454D01*
X0057010Y0023256D02*
X0054326Y0023256D01*
X0055500Y0022057D02*
X0057010Y0022057D01*
X0057010Y0020859D02*
X0056192Y0020859D01*
X0056884Y0019660D02*
X0057164Y0019660D01*
X0057215Y0018462D02*
X0057762Y0018462D01*
X0057536Y0017263D02*
X0058960Y0017263D01*
X0060159Y0016065D02*
X0057644Y0016065D01*
X0057644Y0014866D02*
X0061640Y0014866D01*
X0057558Y0013668D02*
X0202573Y0013668D01*
X0202381Y0014382D02*
X0202381Y0017252D01*
X0203124Y0020024D01*
X0204559Y0022509D01*
X0206588Y0024538D01*
X0209073Y0025973D01*
X0211845Y0026716D01*
X0214715Y0026716D01*
X0217487Y0025973D01*
X0219973Y0024538D01*
X0222002Y0022509D01*
X0223437Y0020024D01*
X0224180Y0017252D01*
X0224180Y0014382D01*
X0223437Y0011610D01*
X0222002Y0009125D01*
X0219973Y0007095D01*
X0217487Y0005660D01*
X0214715Y0004918D01*
X0211845Y0004918D01*
X0209073Y0005660D01*
X0206588Y0007095D01*
X0204559Y0009125D01*
X0203124Y0011610D01*
X0202381Y0014382D01*
X0202381Y0014866D02*
X0186230Y0014866D01*
X0187711Y0016065D02*
X0202381Y0016065D01*
X0202384Y0017263D02*
X0188910Y0017263D01*
X0190108Y0018462D02*
X0202705Y0018462D01*
X0203027Y0019660D02*
X0191307Y0019660D01*
X0192505Y0020859D02*
X0203606Y0020859D01*
X0204298Y0022057D02*
X0193704Y0022057D01*
X0194902Y0023256D02*
X0205305Y0023256D01*
X0206504Y0024454D02*
X0195621Y0024454D01*
X0195860Y0025653D02*
X0208518Y0025653D01*
X0218043Y0025653D02*
X0375054Y0025653D01*
X0373039Y0024454D02*
X0220057Y0024454D01*
X0221255Y0023256D02*
X0371841Y0023256D01*
X0370833Y0022057D02*
X0222263Y0022057D01*
X0222955Y0020859D02*
X0370141Y0020859D01*
X0369562Y0019660D02*
X0223534Y0019660D01*
X0223855Y0018462D02*
X0369241Y0018462D01*
X0368920Y0017263D02*
X0224177Y0017263D01*
X0224180Y0016065D02*
X0368917Y0016065D01*
X0368917Y0014866D02*
X0224180Y0014866D01*
X0223988Y0013668D02*
X0369108Y0013668D01*
X0369429Y0012469D02*
X0223667Y0012469D01*
X0223241Y0011271D02*
X0369855Y0011271D01*
X0370547Y0010072D02*
X0222549Y0010072D01*
X0221751Y0008874D02*
X0371345Y0008874D01*
X0372544Y0007675D02*
X0220552Y0007675D01*
X0218901Y0006477D02*
X0374195Y0006477D01*
X0377036Y0005278D02*
X0216060Y0005278D01*
X0210500Y0005278D02*
X0050972Y0005278D01*
X0053047Y0006477D02*
X0207660Y0006477D01*
X0206008Y0007675D02*
X0054411Y0007675D01*
X0055549Y0008874D02*
X0204810Y0008874D01*
X0204012Y0010072D02*
X0056241Y0010072D01*
X0056916Y0011271D02*
X0203320Y0011271D01*
X0202894Y0012469D02*
X0057237Y0012469D01*
X0064610Y0023256D02*
X0184154Y0023256D01*
X0185353Y0024454D02*
X0064610Y0024454D01*
X0064610Y0025653D02*
X0186551Y0025653D01*
X0187750Y0026851D02*
X0064610Y0026851D01*
X0064610Y0028050D02*
X0188260Y0028050D01*
X0188260Y0029248D02*
X0070501Y0029248D01*
X0073576Y0030447D02*
X0188260Y0030447D01*
X0188260Y0031645D02*
X0075275Y0031645D01*
X0076473Y0032844D02*
X0188260Y0032844D01*
X0188260Y0034042D02*
X0077268Y0034042D01*
X0077960Y0035241D02*
X0188260Y0035241D01*
X0188260Y0036439D02*
X0093544Y0036439D01*
X0093003Y0035898D02*
X0098219Y0041114D01*
X0098219Y0048492D01*
X0093003Y0053709D01*
X0085625Y0053709D01*
X0080408Y0048492D01*
X0080408Y0041114D01*
X0085625Y0035898D01*
X0093003Y0035898D01*
X0094743Y0037638D02*
X0188260Y0037638D01*
X0188260Y0038836D02*
X0095941Y0038836D01*
X0097140Y0040035D02*
X0188260Y0040035D01*
X0188260Y0041233D02*
X0098219Y0041233D01*
X0098219Y0042432D02*
X0188260Y0042432D01*
X0188260Y0043630D02*
X0098219Y0043630D01*
X0098219Y0044829D02*
X0188260Y0044829D01*
X0188260Y0046027D02*
X0098219Y0046027D01*
X0098219Y0047226D02*
X0188260Y0047226D01*
X0188260Y0048425D02*
X0098219Y0048425D01*
X0097088Y0049623D02*
X0188260Y0049623D01*
X0188260Y0050822D02*
X0095890Y0050822D01*
X0094691Y0052020D02*
X0112475Y0052020D01*
X0110505Y0053219D02*
X0093493Y0053219D01*
X0085135Y0053219D02*
X0049865Y0053219D01*
X0050605Y0054417D02*
X0109306Y0054417D01*
X0108536Y0055616D02*
X0050860Y0055616D01*
X0050860Y0056814D02*
X0108260Y0056814D01*
X0108260Y0058013D02*
X0050860Y0058013D01*
X0050860Y0059211D02*
X0108260Y0059211D01*
X0108260Y0060410D02*
X0050860Y0060410D01*
X0050860Y0061608D02*
X0108260Y0061608D01*
X0108260Y0062807D02*
X0050860Y0062807D01*
X0050860Y0064005D02*
X0108260Y0064005D01*
X0108260Y0065204D02*
X0050860Y0065204D01*
X0050860Y0066402D02*
X0108260Y0066402D01*
X0108260Y0067601D02*
X0050860Y0067601D01*
X0043260Y0067601D02*
X0038501Y0067601D01*
X0038998Y0066402D02*
X0043260Y0066402D01*
X0043260Y0065204D02*
X0039278Y0065204D01*
X0039278Y0064005D02*
X0043260Y0064005D01*
X0043260Y0062807D02*
X0039053Y0062807D01*
X0038557Y0061608D02*
X0043260Y0061608D01*
X0043260Y0060410D02*
X0037623Y0060410D01*
X0037077Y0059211D02*
X0043260Y0059211D01*
X0048667Y0052020D02*
X0083937Y0052020D01*
X0082738Y0050822D02*
X0046769Y0050822D01*
X0036836Y0049623D02*
X0065360Y0049623D01*
X0062692Y0048425D02*
X0035732Y0048425D01*
X0037004Y0047226D02*
X0061142Y0047226D01*
X0059943Y0046027D02*
X0037629Y0046027D01*
X0037792Y0043630D02*
X0058542Y0043630D01*
X0058209Y0042432D02*
X0037365Y0042432D01*
X0036467Y0041233D02*
X0057888Y0041233D01*
X0057804Y0040035D02*
X0037992Y0040035D01*
X0038974Y0038836D02*
X0057804Y0038836D01*
X0059234Y0044829D02*
X0033694Y0044829D01*
X0032926Y0044829D02*
X0025810Y0044829D01*
X0025810Y0046027D02*
X0028991Y0046027D01*
X0029616Y0047226D02*
X0025810Y0047226D01*
X0025810Y0048425D02*
X0030888Y0048425D01*
X0029784Y0049623D02*
X0025810Y0049623D01*
X0025810Y0050822D02*
X0028585Y0050822D01*
X0027892Y0052020D02*
X0025810Y0052020D01*
X0025810Y0053219D02*
X0027396Y0053219D01*
X0027341Y0054417D02*
X0025810Y0054417D01*
X0025810Y0055616D02*
X0027341Y0055616D01*
X0027793Y0056814D02*
X0025810Y0056814D01*
X0025810Y0058013D02*
X0028344Y0058013D01*
X0029543Y0059211D02*
X0025810Y0059211D01*
X0025810Y0060410D02*
X0028997Y0060410D01*
X0028063Y0061608D02*
X0025810Y0061608D01*
X0025810Y0062807D02*
X0027567Y0062807D01*
X0027341Y0064005D02*
X0025810Y0064005D01*
X0025810Y0065204D02*
X0027341Y0065204D01*
X0027622Y0066402D02*
X0025810Y0066402D01*
X0025810Y0067601D02*
X0028119Y0067601D01*
X0029131Y0068799D02*
X0025810Y0068799D01*
X0025810Y0069998D02*
X0030896Y0069998D01*
X0035724Y0069998D02*
X0043260Y0069998D01*
X0043260Y0071196D02*
X0025810Y0071196D01*
X0025810Y0072395D02*
X0043260Y0072395D01*
X0043260Y0073593D02*
X0039476Y0073593D01*
X0041424Y0074792D02*
X0043260Y0074792D01*
X0043260Y0068799D02*
X0037489Y0068799D01*
X0035273Y0073593D02*
X0025810Y0073593D01*
X0025810Y0074792D02*
X0033325Y0074792D01*
X0032237Y0075990D02*
X0025810Y0075990D01*
X0025810Y0077189D02*
X0031741Y0077189D01*
X0031406Y0078387D02*
X0025810Y0078387D01*
X0025810Y0079586D02*
X0031406Y0079586D01*
X0031578Y0080784D02*
X0025810Y0080784D01*
X0025810Y0081983D02*
X0032074Y0081983D01*
X0032932Y0083181D02*
X0025810Y0083181D01*
X0025810Y0084380D02*
X0034325Y0084380D01*
X0040425Y0084380D02*
X0044325Y0084380D01*
X0042932Y0083181D02*
X0041817Y0083181D01*
X0050425Y0084380D02*
X0062392Y0084380D01*
X0061586Y0083181D02*
X0059591Y0083181D01*
X0057759Y0083181D02*
X0056991Y0083181D01*
X0056991Y0081983D02*
X0057759Y0081983D01*
X0057759Y0080784D02*
X0056991Y0080784D01*
X0056991Y0079586D02*
X0057759Y0079586D01*
X0060988Y0081983D02*
X0061406Y0081983D01*
X0055159Y0083181D02*
X0051817Y0083181D01*
X0052675Y0081983D02*
X0053762Y0081983D01*
X0072358Y0084380D02*
X0072778Y0084380D01*
X0073977Y0085578D02*
X0025810Y0085578D01*
X0025810Y0086777D02*
X0075554Y0086777D01*
X0079610Y0078387D02*
X0108260Y0078387D01*
X0108260Y0077189D02*
X0079610Y0077189D01*
X0079610Y0075990D02*
X0108260Y0075990D01*
X0108260Y0074792D02*
X0079610Y0074792D01*
X0079610Y0073593D02*
X0108260Y0073593D01*
X0108260Y0072395D02*
X0079553Y0072395D01*
X0079057Y0071196D02*
X0108260Y0071196D01*
X0108260Y0069998D02*
X0077894Y0069998D01*
X0076672Y0068799D02*
X0108260Y0068799D01*
X0115860Y0068799D02*
X0188260Y0068799D01*
X0188260Y0067601D02*
X0115860Y0067601D01*
X0115860Y0066402D02*
X0188260Y0066402D01*
X0188260Y0065204D02*
X0115860Y0065204D01*
X0115860Y0064005D02*
X0188260Y0064005D01*
X0188260Y0062807D02*
X0115860Y0062807D01*
X0115860Y0061608D02*
X0188260Y0061608D01*
X0188260Y0060410D02*
X0130903Y0060410D01*
X0132902Y0059211D02*
X0188260Y0059211D01*
X0188260Y0058013D02*
X0133817Y0058013D01*
X0134313Y0056814D02*
X0188260Y0056814D01*
X0188260Y0055616D02*
X0134344Y0055616D01*
X0134171Y0054417D02*
X0188260Y0054417D01*
X0188260Y0053219D02*
X0133674Y0053219D01*
X0132559Y0052020D02*
X0188260Y0052020D01*
X0195860Y0067601D02*
X0251793Y0067601D01*
X0249188Y0068799D02*
X0195860Y0068799D01*
X0195860Y0069998D02*
X0247623Y0069998D01*
X0246424Y0071196D02*
X0195860Y0071196D01*
X0188260Y0071196D02*
X0115860Y0071196D01*
X0115860Y0069998D02*
X0188260Y0069998D01*
X0188260Y0072395D02*
X0115860Y0072395D01*
X0115860Y0073593D02*
X0188260Y0073593D01*
X0188570Y0074792D02*
X0115860Y0074792D01*
X0115860Y0075990D02*
X0189389Y0075990D01*
X0190587Y0077189D02*
X0115860Y0077189D01*
X0115860Y0078387D02*
X0191786Y0078387D01*
X0193800Y0079586D02*
X0115860Y0079586D01*
X0115860Y0080784D02*
X0204041Y0080784D01*
X0210079Y0080784D02*
X0244469Y0080784D01*
X0244148Y0079586D02*
X0211183Y0079586D01*
X0211679Y0078387D02*
X0244113Y0078387D01*
X0244113Y0077189D02*
X0211844Y0077189D01*
X0211805Y0075990D02*
X0244273Y0075990D01*
X0244594Y0074792D02*
X0211308Y0074792D01*
X0210382Y0073593D02*
X0244984Y0073593D01*
X0245676Y0072395D02*
X0208353Y0072395D01*
X0198475Y0085578D02*
X0247156Y0085578D01*
X0246098Y0084380D02*
X0115091Y0084380D01*
X0115699Y0083181D02*
X0245406Y0083181D01*
X0244790Y0081983D02*
X0115860Y0081983D01*
X0102276Y0087975D02*
X0025810Y0087975D01*
X0025810Y0089174D02*
X0102276Y0089174D01*
X0102745Y0090372D02*
X0025810Y0090372D01*
X0025810Y0091571D02*
X0103578Y0091571D01*
X0101112Y0092769D02*
X0025810Y0092769D01*
X0025810Y0093968D02*
X0099613Y0093968D01*
X0098906Y0095166D02*
X0025810Y0095166D01*
X0025810Y0096365D02*
X0098526Y0096365D01*
X0098526Y0097563D02*
X0025810Y0097563D01*
X0025810Y0098762D02*
X0098846Y0098762D01*
X0099467Y0099961D02*
X0025810Y0099961D01*
X0025810Y0101159D02*
X0072786Y0101159D01*
X0071366Y0102358D02*
X0025810Y0102358D01*
X0025810Y0103556D02*
X0070167Y0103556D01*
X0069625Y0104755D02*
X0067055Y0104755D01*
X0069002Y0105953D02*
X0069510Y0105953D01*
X0077110Y0108350D02*
X0157425Y0108350D01*
X0157276Y0107152D02*
X0103570Y0107152D01*
X0104768Y0105953D02*
X0157331Y0105953D01*
X0157827Y0104755D02*
X0105967Y0104755D01*
X0106794Y0103556D02*
X0158260Y0103556D01*
X0158260Y0102358D02*
X0107110Y0102358D01*
X0107110Y0101159D02*
X0158260Y0101159D01*
X0158260Y0099961D02*
X0107153Y0099961D01*
X0107774Y0098762D02*
X0158260Y0098762D01*
X0157617Y0097563D02*
X0108094Y0097563D01*
X0108094Y0096365D02*
X0157276Y0096365D01*
X0157276Y0095166D02*
X0107713Y0095166D01*
X0107006Y0093968D02*
X0157635Y0093968D01*
X0158312Y0092769D02*
X0108741Y0092769D01*
X0077110Y0109549D02*
X0157922Y0109549D01*
X0159004Y0110747D02*
X0077110Y0110747D01*
X0077110Y0111946D02*
X0151390Y0111946D01*
X0151862Y0111750D02*
X0155258Y0111750D01*
X0158396Y0113050D01*
X0160797Y0115452D01*
X0162097Y0118589D01*
X0162097Y0121986D01*
X0160797Y0125123D01*
X0158396Y0127525D01*
X0155258Y0128824D01*
X0151862Y0128824D01*
X0148724Y0127525D01*
X0146323Y0125123D01*
X0145023Y0121986D01*
X0145023Y0118589D01*
X0146323Y0115452D01*
X0148724Y0113050D01*
X0151862Y0111750D01*
X0148630Y0113144D02*
X0077110Y0113144D01*
X0077110Y0114343D02*
X0147432Y0114343D01*
X0146286Y0115541D02*
X0077110Y0115541D01*
X0077110Y0116740D02*
X0145789Y0116740D01*
X0145293Y0117938D02*
X0077110Y0117938D01*
X0077110Y0119137D02*
X0145023Y0119137D01*
X0145023Y0120335D02*
X0077110Y0120335D01*
X0077110Y0121534D02*
X0145023Y0121534D01*
X0145332Y0122732D02*
X0116668Y0122732D01*
X0118219Y0123931D02*
X0145829Y0123931D01*
X0146329Y0125129D02*
X0118948Y0125129D01*
X0119344Y0126328D02*
X0147527Y0126328D01*
X0148728Y0127526D02*
X0119344Y0127526D01*
X0119039Y0128725D02*
X0151621Y0128725D01*
X0155499Y0128725D02*
X0164510Y0128725D01*
X0164510Y0129923D02*
X0118440Y0129923D01*
X0117201Y0131122D02*
X0164510Y0131122D01*
X0164510Y0132320D02*
X0070860Y0132320D01*
X0070860Y0131122D02*
X0111919Y0131122D01*
X0116325Y0134717D02*
X0164510Y0134717D01*
X0164510Y0133519D02*
X0070860Y0133519D01*
X0063260Y0133519D02*
X0025810Y0133519D01*
X0025810Y0134717D02*
X0060295Y0134717D01*
X0059389Y0135916D02*
X0025810Y0135916D01*
X0025810Y0137114D02*
X0059139Y0137114D01*
X0059139Y0138313D02*
X0025810Y0138313D01*
X0025810Y0139511D02*
X0059139Y0139511D01*
X0059139Y0140710D02*
X0025810Y0140710D01*
X0025810Y0141908D02*
X0059139Y0141908D01*
X0059139Y0143107D02*
X0025810Y0143107D01*
X0025810Y0144305D02*
X0059139Y0144305D01*
X0059139Y0145504D02*
X0025810Y0145504D01*
X0025810Y0146702D02*
X0059139Y0146702D01*
X0059282Y0147901D02*
X0025810Y0147901D01*
X0025810Y0149099D02*
X0060037Y0149099D01*
X0044636Y0152695D02*
X0025810Y0152695D01*
X0025810Y0153894D02*
X0043916Y0153894D01*
X0043526Y0155092D02*
X0025810Y0155092D01*
X0025810Y0156291D02*
X0043526Y0156291D01*
X0035539Y0157489D02*
X0025810Y0157489D01*
X0025810Y0158688D02*
X0033644Y0158688D01*
X0032773Y0159886D02*
X0025810Y0159886D01*
X0025810Y0161085D02*
X0032276Y0161085D01*
X0032276Y0162283D02*
X0025810Y0162283D01*
X0025810Y0163482D02*
X0032480Y0163482D01*
X0032976Y0164680D02*
X0025810Y0164680D01*
X0025810Y0165879D02*
X0034135Y0165879D01*
X0058680Y0187452D02*
X0143260Y0187452D01*
X0143260Y0188650D02*
X0060291Y0188650D01*
X0060729Y0189849D02*
X0143260Y0189849D01*
X0143260Y0191047D02*
X0060729Y0191047D01*
X0060729Y0192246D02*
X0143260Y0192246D01*
X0143260Y0193444D02*
X0060729Y0193444D01*
X0060729Y0194643D02*
X0143260Y0194643D01*
X0143260Y0195841D02*
X0060729Y0195841D01*
X0060729Y0197040D02*
X0143260Y0197040D01*
X0143260Y0198238D02*
X0060626Y0198238D01*
X0059927Y0199437D02*
X0143260Y0199437D01*
X0135810Y0200787D02*
X0135603Y0199331D01*
X0135603Y0192805D01*
X0150860Y0180261D02*
X0152276Y0180261D01*
X0152596Y0179062D02*
X0151400Y0179062D01*
X0151844Y0177864D02*
X0153218Y0177864D01*
X0154510Y0176665D02*
X0151844Y0176665D01*
X0151647Y0175467D02*
X0158260Y0175467D01*
X0157806Y0174268D02*
X0152564Y0174268D01*
X0153061Y0173070D02*
X0157309Y0173070D01*
X0157276Y0171871D02*
X0153094Y0171871D01*
X0152923Y0170673D02*
X0157447Y0170673D01*
X0157943Y0169474D02*
X0152427Y0169474D01*
X0151314Y0168276D02*
X0159056Y0168276D01*
X0165064Y0168276D02*
X0223260Y0168276D01*
X0223260Y0169474D02*
X0166177Y0169474D01*
X0166673Y0170673D02*
X0223260Y0170673D01*
X0223260Y0171871D02*
X0166844Y0171871D01*
X0166811Y0173070D02*
X0223260Y0173070D01*
X0223260Y0174268D02*
X0166314Y0174268D01*
X0165860Y0175467D02*
X0223260Y0175467D01*
X0223260Y0176665D02*
X0165860Y0176665D01*
X0165860Y0177864D02*
X0223260Y0177864D01*
X0223260Y0179062D02*
X0165860Y0179062D01*
X0165860Y0180261D02*
X0222617Y0180261D01*
X0222276Y0181459D02*
X0165860Y0181459D01*
X0165860Y0182658D02*
X0220131Y0182658D01*
X0218475Y0183856D02*
X0165860Y0183856D01*
X0165860Y0185055D02*
X0217703Y0185055D01*
X0217276Y0186253D02*
X0165860Y0186253D01*
X0165860Y0187452D02*
X0217276Y0187452D01*
X0217550Y0188650D02*
X0165860Y0188650D01*
X0161578Y0208337D02*
X0181026Y0208337D01*
X0181026Y0209239D01*
X0181754Y0210997D01*
X0181976Y0211219D01*
X0179944Y0211219D01*
X0179944Y0215403D01*
X0179176Y0215403D01*
X0179176Y0211219D01*
X0176381Y0211219D01*
X0175974Y0211328D01*
X0175609Y0211539D01*
X0175311Y0211836D01*
X0175100Y0212201D01*
X0174991Y0212608D01*
X0174991Y0215403D01*
X0179176Y0215403D01*
X0179176Y0216172D01*
X0174991Y0216172D01*
X0174991Y0216987D01*
X0159933Y0216987D01*
X0160797Y0216123D01*
X0162097Y0212986D01*
X0162097Y0209589D01*
X0161578Y0208337D01*
X0161863Y0209025D02*
X0181026Y0209025D01*
X0181433Y0210224D02*
X0162097Y0210224D01*
X0162097Y0211422D02*
X0175811Y0211422D01*
X0174991Y0212621D02*
X0162097Y0212621D01*
X0161752Y0213819D02*
X0174991Y0213819D01*
X0174991Y0215018D02*
X0161255Y0215018D01*
X0160704Y0216216D02*
X0174991Y0216216D01*
X0179176Y0215018D02*
X0179944Y0215018D01*
X0179944Y0213819D02*
X0179176Y0213819D01*
X0179176Y0212621D02*
X0179944Y0212621D01*
X0179944Y0211422D02*
X0179176Y0211422D01*
X0203100Y0230598D02*
X0151159Y0230598D01*
X0149960Y0231797D02*
X0202779Y0231797D01*
X0202457Y0232995D02*
X0148762Y0232995D01*
X0147563Y0234194D02*
X0202381Y0234194D01*
X0202381Y0235392D02*
X0146365Y0235392D01*
X0145166Y0236591D02*
X0202499Y0236591D01*
X0202821Y0237789D02*
X0143968Y0237789D01*
X0142769Y0238988D02*
X0203162Y0238988D01*
X0203854Y0240186D02*
X0141571Y0240186D01*
X0140372Y0241385D02*
X0204546Y0241385D01*
X0205735Y0242583D02*
X0139174Y0242583D01*
X0137975Y0243782D02*
X0207187Y0243782D01*
X0209482Y0244980D02*
X0136776Y0244980D01*
X0130943Y0232995D02*
X0129981Y0232995D01*
X0129981Y0231797D02*
X0132141Y0231797D01*
X0133340Y0230598D02*
X0129981Y0230598D01*
X0129981Y0229400D02*
X0134538Y0229400D01*
X0135737Y0228201D02*
X0129981Y0228201D01*
X0129981Y0227003D02*
X0136935Y0227003D01*
X0138134Y0225804D02*
X0129685Y0225804D01*
X0128713Y0224606D02*
X0139332Y0224606D01*
X0115406Y0224606D02*
X0073713Y0224606D01*
X0074685Y0225804D02*
X0114435Y0225804D01*
X0114139Y0227003D02*
X0074981Y0227003D01*
X0074981Y0228201D02*
X0114139Y0228201D01*
X0114139Y0229400D02*
X0074981Y0229400D01*
X0074981Y0230598D02*
X0114139Y0230598D01*
X0114139Y0231797D02*
X0074981Y0231797D01*
X0074981Y0232995D02*
X0114139Y0232995D01*
X0114139Y0234194D02*
X0074981Y0234194D01*
X0074981Y0235392D02*
X0114139Y0235392D01*
X0066093Y0244980D02*
X0050544Y0244980D01*
X0052838Y0243782D02*
X0064895Y0243782D01*
X0063696Y0242583D02*
X0054290Y0242583D01*
X0055479Y0241385D02*
X0062498Y0241385D01*
X0061545Y0240186D02*
X0056171Y0240186D01*
X0056863Y0238988D02*
X0059925Y0238988D01*
X0059236Y0237789D02*
X0057205Y0237789D01*
X0057526Y0236591D02*
X0059139Y0236591D01*
X0059139Y0235392D02*
X0057644Y0235392D01*
X0057644Y0234194D02*
X0059139Y0234194D01*
X0059139Y0232995D02*
X0057568Y0232995D01*
X0057247Y0231797D02*
X0059139Y0231797D01*
X0059139Y0230598D02*
X0056926Y0230598D01*
X0056262Y0229400D02*
X0059139Y0229400D01*
X0059139Y0228201D02*
X0055570Y0228201D01*
X0054447Y0227003D02*
X0059139Y0227003D01*
X0059435Y0225804D02*
X0053110Y0225804D01*
X0051034Y0224606D02*
X0060406Y0224606D01*
X0150860Y0167077D02*
X0223260Y0167077D01*
X0223260Y0165879D02*
X0150860Y0165879D01*
X0150860Y0164680D02*
X0223260Y0164680D01*
X0223260Y0163482D02*
X0151122Y0163482D01*
X0151619Y0162283D02*
X0223260Y0162283D01*
X0223260Y0161085D02*
X0151844Y0161085D01*
X0151844Y0159886D02*
X0223260Y0159886D01*
X0223260Y0158688D02*
X0151369Y0158688D01*
X0150528Y0157489D02*
X0223260Y0157489D01*
X0223260Y0156291D02*
X0148705Y0156291D01*
X0128285Y0147901D02*
X0223260Y0147901D01*
X0230860Y0147901D02*
X0239572Y0147901D01*
X0238374Y0149099D02*
X0230860Y0149099D01*
X0230860Y0150298D02*
X0237175Y0150298D01*
X0236189Y0151496D02*
X0230860Y0151496D01*
X0230860Y0152695D02*
X0235760Y0152695D01*
X0235760Y0153894D02*
X0230860Y0153894D01*
X0230860Y0155092D02*
X0235760Y0155092D01*
X0235760Y0156291D02*
X0233705Y0156291D01*
X0243032Y0161085D02*
X0329057Y0161085D01*
X0328100Y0159886D02*
X0243360Y0159886D01*
X0243360Y0158688D02*
X0327814Y0158688D01*
X0327814Y0157489D02*
X0243360Y0157489D01*
X0243360Y0156291D02*
X0327814Y0156291D01*
X0327814Y0155092D02*
X0261669Y0155092D01*
X0263220Y0153894D02*
X0327814Y0153894D01*
X0327814Y0152695D02*
X0263948Y0152695D01*
X0264344Y0151496D02*
X0328049Y0151496D01*
X0328935Y0150298D02*
X0264344Y0150298D01*
X0264039Y0149099D02*
X0329249Y0149099D01*
X0329214Y0147901D02*
X0263439Y0147901D01*
X0262200Y0146702D02*
X0329214Y0146702D01*
X0338351Y0144305D02*
X0343260Y0144305D01*
X0343260Y0143107D02*
X0338351Y0143107D01*
X0338073Y0141908D02*
X0343260Y0141908D01*
X0343260Y0140710D02*
X0339197Y0140710D01*
X0339750Y0139511D02*
X0343260Y0139511D01*
X0343260Y0138313D02*
X0339751Y0138313D01*
X0339751Y0137114D02*
X0343260Y0137114D01*
X0343260Y0135916D02*
X0339751Y0135916D01*
X0339751Y0134717D02*
X0343260Y0134717D01*
X0343260Y0133519D02*
X0339751Y0133519D01*
X0339726Y0132320D02*
X0343260Y0132320D01*
X0343260Y0131122D02*
X0339139Y0131122D01*
X0390485Y0151496D02*
X0391253Y0151496D01*
X0391253Y0152695D02*
X0390485Y0152695D01*
X0390485Y0153894D02*
X0391253Y0153894D01*
X0391253Y0155092D02*
X0390485Y0155092D01*
X0390485Y0156291D02*
X0391253Y0156291D01*
X0391253Y0157489D02*
X0390485Y0157489D01*
X0390485Y0158688D02*
X0391253Y0158688D01*
X0391253Y0159886D02*
X0390485Y0159886D01*
X0394446Y0141908D02*
X0399560Y0141908D01*
X0399560Y0140710D02*
X0396284Y0140710D01*
X0396837Y0139511D02*
X0399560Y0139511D01*
X0399560Y0138313D02*
X0396837Y0138313D01*
X0396837Y0137114D02*
X0399560Y0137114D01*
X0399560Y0135916D02*
X0396837Y0135916D01*
X0396837Y0134717D02*
X0399560Y0134717D01*
X0399560Y0133519D02*
X0396837Y0133519D01*
X0396813Y0132320D02*
X0399560Y0132320D01*
X0399560Y0131122D02*
X0396226Y0131122D01*
X0342276Y0096365D02*
X0205135Y0096365D01*
X0201485Y0096365D02*
X0200860Y0096365D01*
X0200860Y0095166D02*
X0342276Y0095166D01*
X0342635Y0093968D02*
X0200860Y0093968D01*
X0200860Y0092769D02*
X0343312Y0092769D01*
X0344738Y0091571D02*
X0200860Y0091571D01*
X0200860Y0090372D02*
X0348260Y0090372D01*
X0348260Y0089174D02*
X0200860Y0089174D01*
X0200526Y0087975D02*
X0250455Y0087975D01*
X0248379Y0086777D02*
X0199673Y0086777D01*
X0188011Y0104755D02*
X0173467Y0104755D01*
X0172268Y0105953D02*
X0193260Y0105953D01*
X0193260Y0107152D02*
X0172110Y0107152D01*
X0172110Y0108350D02*
X0193260Y0108350D01*
X0193260Y0109549D02*
X0172110Y0109549D01*
X0172110Y0110747D02*
X0193260Y0110747D01*
X0193260Y0111946D02*
X0172110Y0111946D01*
X0172110Y0113144D02*
X0193260Y0113144D01*
X0193260Y0114343D02*
X0172110Y0114343D01*
X0172110Y0115541D02*
X0193260Y0115541D01*
X0193260Y0116740D02*
X0172110Y0116740D01*
X0172110Y0117938D02*
X0193260Y0117938D01*
X0193260Y0119137D02*
X0172110Y0119137D01*
X0172110Y0120335D02*
X0193260Y0120335D01*
X0193260Y0121534D02*
X0172110Y0121534D01*
X0172110Y0122732D02*
X0192452Y0122732D01*
X0190901Y0123931D02*
X0172110Y0123931D01*
X0172110Y0125129D02*
X0190172Y0125129D01*
X0189776Y0126328D02*
X0172110Y0126328D01*
X0172110Y0127526D02*
X0189776Y0127526D01*
X0190080Y0128725D02*
X0172110Y0128725D01*
X0172110Y0129923D02*
X0190680Y0129923D01*
X0191919Y0131122D02*
X0172110Y0131122D01*
X0172110Y0132320D02*
X0200300Y0132320D01*
X0200760Y0131122D02*
X0197201Y0131122D01*
X0199803Y0133519D02*
X0172110Y0133519D01*
X0172110Y0134717D02*
X0199776Y0134717D01*
X0199952Y0135916D02*
X0172110Y0135916D01*
X0172110Y0137114D02*
X0200449Y0137114D01*
X0201569Y0138313D02*
X0172110Y0138313D01*
X0164510Y0138313D02*
X0128581Y0138313D01*
X0128581Y0139511D02*
X0164178Y0139511D01*
X0163681Y0140710D02*
X0128581Y0140710D01*
X0122641Y0140710D02*
X0121479Y0140710D01*
X0121479Y0139511D02*
X0122641Y0139511D01*
X0122641Y0138313D02*
X0121479Y0138313D01*
X0121479Y0137114D02*
X0122641Y0137114D01*
X0122641Y0135916D02*
X0121479Y0135916D01*
X0128044Y0135916D02*
X0164510Y0135916D01*
X0164510Y0137114D02*
X0128581Y0137114D01*
X0112452Y0122732D02*
X0077110Y0122732D01*
X0064844Y0125129D02*
X0025810Y0125129D01*
X0025810Y0123931D02*
X0058247Y0123931D01*
X0056171Y0122732D02*
X0025810Y0122732D01*
X0025810Y0121534D02*
X0054869Y0121534D01*
X0053796Y0120335D02*
X0025810Y0120335D01*
X0025810Y0119137D02*
X0053104Y0119137D01*
X0052505Y0117938D02*
X0025810Y0117938D01*
X0025810Y0116740D02*
X0052184Y0116740D01*
X0051869Y0115541D02*
X0025810Y0115541D01*
X0025810Y0114343D02*
X0051869Y0114343D01*
X0051869Y0113144D02*
X0025810Y0113144D01*
X0025810Y0111946D02*
X0052098Y0111946D01*
X0052419Y0110747D02*
X0025810Y0110747D01*
X0025810Y0109549D02*
X0052920Y0109549D01*
X0053612Y0108350D02*
X0025810Y0108350D01*
X0025810Y0107152D02*
X0054549Y0107152D01*
X0055748Y0105953D02*
X0025810Y0105953D01*
X0025810Y0104755D02*
X0057695Y0104755D01*
X0063759Y0126328D02*
X0025810Y0126328D01*
X0025810Y0127526D02*
X0063262Y0127526D01*
X0063260Y0128725D02*
X0025810Y0128725D01*
X0025810Y0129923D02*
X0063260Y0129923D01*
X0063260Y0131122D02*
X0025810Y0131122D01*
X0025810Y0132320D02*
X0063260Y0132320D01*
X0086325Y0134717D02*
X0102795Y0134717D01*
X0101889Y0135916D02*
X0087231Y0135916D01*
X0087481Y0137114D02*
X0101639Y0137114D01*
X0101639Y0138313D02*
X0087481Y0138313D01*
X0087481Y0139511D02*
X0101639Y0139511D01*
X0101639Y0140710D02*
X0087481Y0140710D01*
X0087481Y0141908D02*
X0101639Y0141908D01*
X0101639Y0143107D02*
X0087481Y0143107D01*
X0087481Y0144305D02*
X0101639Y0144305D01*
X0101639Y0145504D02*
X0087481Y0145504D01*
X0087481Y0146702D02*
X0101639Y0146702D01*
X0101782Y0147901D02*
X0087338Y0147901D01*
X0086583Y0149099D02*
X0102537Y0149099D01*
X0158392Y0127526D02*
X0164510Y0127526D01*
X0164510Y0126328D02*
X0159593Y0126328D01*
X0160791Y0125129D02*
X0164510Y0125129D01*
X0164510Y0123931D02*
X0161291Y0123931D01*
X0161788Y0122732D02*
X0164510Y0122732D01*
X0164510Y0121534D02*
X0162097Y0121534D01*
X0162097Y0120335D02*
X0164510Y0120335D01*
X0164510Y0119137D02*
X0162097Y0119137D01*
X0161827Y0117938D02*
X0164510Y0117938D01*
X0164510Y0116740D02*
X0161331Y0116740D01*
X0160834Y0115541D02*
X0164510Y0115541D01*
X0164510Y0114343D02*
X0159688Y0114343D01*
X0158490Y0113144D02*
X0164510Y0113144D01*
X0164510Y0111946D02*
X0155729Y0111946D01*
X0200860Y0111946D02*
X0233390Y0111946D01*
X0230630Y0113144D02*
X0200860Y0113144D01*
X0200860Y0114343D02*
X0229432Y0114343D01*
X0228286Y0115541D02*
X0200860Y0115541D01*
X0200860Y0116740D02*
X0227789Y0116740D01*
X0227293Y0117938D02*
X0200860Y0117938D01*
X0200860Y0119137D02*
X0227023Y0119137D01*
X0227023Y0120335D02*
X0200860Y0120335D01*
X0200860Y0121534D02*
X0227023Y0121534D01*
X0227332Y0122732D02*
X0200860Y0122732D01*
X0204327Y0123931D02*
X0227829Y0123931D01*
X0228329Y0125129D02*
X0205526Y0125129D01*
X0206724Y0126328D02*
X0229527Y0126328D01*
X0230728Y0127526D02*
X0207840Y0127526D01*
X0230860Y0146702D02*
X0256920Y0146702D01*
X0257450Y0155092D02*
X0243360Y0155092D01*
X0301666Y0181459D02*
X0399560Y0181459D01*
X0399560Y0182658D02*
X0302110Y0182658D01*
X0302110Y0183856D02*
X0399560Y0183856D01*
X0399560Y0185055D02*
X0302110Y0185055D01*
X0302110Y0186253D02*
X0399560Y0186253D01*
X0399560Y0187452D02*
X0302110Y0187452D01*
X0302110Y0188650D02*
X0399560Y0188650D01*
X0399560Y0189849D02*
X0302110Y0189849D01*
X0302110Y0191047D02*
X0399560Y0191047D01*
X0399560Y0192246D02*
X0302110Y0192246D01*
X0302110Y0193444D02*
X0344736Y0193444D01*
X0343502Y0194643D02*
X0302110Y0194643D01*
X0302110Y0195841D02*
X0342550Y0195841D01*
X0352474Y0193444D02*
X0368752Y0193444D01*
X0368691Y0193469D02*
X0371241Y0192413D01*
X0374001Y0192413D01*
X0376550Y0193469D01*
X0378502Y0195421D01*
X0379558Y0197971D01*
X0379558Y0208604D01*
X0378502Y0211154D01*
X0376550Y0213105D01*
X0374001Y0214161D01*
X0371241Y0214161D01*
X0368691Y0213105D01*
X0366740Y0211154D01*
X0365684Y0208604D01*
X0365684Y0197971D01*
X0366740Y0195421D01*
X0368691Y0193469D01*
X0367518Y0194643D02*
X0353708Y0194643D01*
X0354660Y0195841D02*
X0366566Y0195841D01*
X0366069Y0197040D02*
X0355157Y0197040D01*
X0355542Y0198238D02*
X0365684Y0198238D01*
X0365684Y0199437D02*
X0355542Y0199437D01*
X0355542Y0200635D02*
X0365684Y0200635D01*
X0365684Y0201834D02*
X0355542Y0201834D01*
X0355542Y0203032D02*
X0365684Y0203032D01*
X0365684Y0204231D02*
X0355542Y0204231D01*
X0355542Y0205430D02*
X0365684Y0205430D01*
X0365684Y0206628D02*
X0355542Y0206628D01*
X0355542Y0207827D02*
X0365684Y0207827D01*
X0365858Y0209025D02*
X0355368Y0209025D01*
X0354871Y0210224D02*
X0366355Y0210224D01*
X0367008Y0211422D02*
X0354218Y0211422D01*
X0353019Y0212621D02*
X0368207Y0212621D01*
X0370415Y0213819D02*
X0350812Y0213819D01*
X0352943Y0216304D02*
X0355493Y0215248D01*
X0366127Y0215248D01*
X0368676Y0216304D01*
X0370628Y0218256D01*
X0371684Y0220805D01*
X0371684Y0223565D01*
X0370628Y0226115D01*
X0368676Y0228066D01*
X0366127Y0229122D01*
X0355493Y0229122D01*
X0352943Y0228066D01*
X0350992Y0226115D01*
X0349936Y0223565D01*
X0349936Y0220805D01*
X0350992Y0218256D01*
X0352943Y0216304D01*
X0353156Y0216216D02*
X0310860Y0216216D01*
X0310860Y0215018D02*
X0399560Y0215018D01*
X0399560Y0216216D02*
X0368464Y0216216D01*
X0369787Y0217415D02*
X0399560Y0217415D01*
X0399560Y0218613D02*
X0370776Y0218613D01*
X0371272Y0219812D02*
X0399560Y0219812D01*
X0399560Y0221010D02*
X0371684Y0221010D01*
X0371684Y0222209D02*
X0399560Y0222209D01*
X0399560Y0223407D02*
X0371684Y0223407D01*
X0371253Y0224606D02*
X0376901Y0224606D01*
X0374133Y0225804D02*
X0370756Y0225804D01*
X0369740Y0227003D02*
X0372508Y0227003D01*
X0371309Y0228201D02*
X0368350Y0228201D01*
X0370526Y0229400D02*
X0309857Y0229400D01*
X0310379Y0228201D02*
X0353270Y0228201D01*
X0351880Y0227003D02*
X0310860Y0227003D01*
X0310860Y0225804D02*
X0350863Y0225804D01*
X0350367Y0224606D02*
X0310860Y0224606D01*
X0310860Y0223407D02*
X0349936Y0223407D01*
X0349936Y0222209D02*
X0310860Y0222209D01*
X0310860Y0221010D02*
X0349936Y0221010D01*
X0350347Y0219812D02*
X0310860Y0219812D01*
X0310860Y0218613D02*
X0350844Y0218613D01*
X0351833Y0217415D02*
X0310860Y0217415D01*
X0311688Y0213819D02*
X0346399Y0213819D01*
X0344191Y0212621D02*
X0312886Y0212621D01*
X0314085Y0211422D02*
X0342992Y0211422D01*
X0342339Y0210224D02*
X0315283Y0210224D01*
X0304655Y0203032D02*
X0302110Y0203032D01*
X0302110Y0201834D02*
X0305854Y0201834D01*
X0307052Y0200635D02*
X0302110Y0200635D01*
X0302110Y0199437D02*
X0308251Y0199437D01*
X0309449Y0198238D02*
X0302110Y0198238D01*
X0302110Y0197040D02*
X0311930Y0197040D01*
X0303457Y0204231D02*
X0302110Y0204231D01*
X0302110Y0205430D02*
X0302258Y0205430D01*
X0268230Y0204231D02*
X0261632Y0204231D01*
X0262558Y0203032D02*
X0267431Y0203032D01*
X0267018Y0201834D02*
X0263055Y0201834D01*
X0259605Y0205430D02*
X0268164Y0205430D01*
X0266966Y0206628D02*
X0253872Y0206628D01*
X0254344Y0205430D02*
X0257015Y0205430D01*
X0253037Y0207827D02*
X0266204Y0207827D01*
X0265708Y0209025D02*
X0251228Y0209025D01*
X0247892Y0209025D02*
X0243863Y0209025D01*
X0244097Y0210224D02*
X0265517Y0210224D01*
X0265517Y0211422D02*
X0244097Y0211422D01*
X0244097Y0212621D02*
X0265737Y0212621D01*
X0266233Y0213819D02*
X0243752Y0213819D01*
X0243255Y0215018D02*
X0267037Y0215018D01*
X0268235Y0216216D02*
X0242704Y0216216D01*
X0241506Y0217415D02*
X0268260Y0217415D01*
X0268260Y0218613D02*
X0240182Y0218613D01*
X0224484Y0237789D02*
X0223740Y0237789D01*
X0223399Y0238988D02*
X0369572Y0238988D01*
X0369251Y0237789D02*
X0300886Y0237789D01*
X0302666Y0236591D02*
X0368929Y0236591D01*
X0368917Y0235392D02*
X0303865Y0235392D01*
X0305063Y0234194D02*
X0368917Y0234194D01*
X0369098Y0232995D02*
X0306262Y0232995D01*
X0307460Y0231797D02*
X0369419Y0231797D01*
X0369834Y0230598D02*
X0308659Y0230598D01*
X0370162Y0240186D02*
X0222707Y0240186D01*
X0222015Y0241385D02*
X0370854Y0241385D01*
X0371877Y0242583D02*
X0220825Y0242583D01*
X0219374Y0243782D02*
X0373076Y0243782D01*
X0375116Y0244980D02*
X0217079Y0244980D01*
X0374827Y0213819D02*
X0399560Y0213819D01*
X0399560Y0212621D02*
X0377035Y0212621D01*
X0378234Y0211422D02*
X0399560Y0211422D01*
X0399560Y0210224D02*
X0378887Y0210224D01*
X0379384Y0209025D02*
X0399560Y0209025D01*
X0399560Y0207827D02*
X0379558Y0207827D01*
X0379558Y0206628D02*
X0399560Y0206628D01*
X0399560Y0205430D02*
X0379558Y0205430D01*
X0379558Y0204231D02*
X0399560Y0204231D01*
X0399560Y0203032D02*
X0379558Y0203032D01*
X0379558Y0201834D02*
X0399560Y0201834D01*
X0399560Y0200635D02*
X0379558Y0200635D01*
X0379558Y0199437D02*
X0399560Y0199437D01*
X0399560Y0198238D02*
X0379558Y0198238D01*
X0379172Y0197040D02*
X0399560Y0197040D01*
X0399560Y0195841D02*
X0378676Y0195841D01*
X0377724Y0194643D02*
X0399560Y0194643D01*
X0399560Y0193444D02*
X0376490Y0193444D01*
X0382731Y0224606D02*
X0399560Y0224606D01*
X0399560Y0225804D02*
X0385499Y0225804D01*
X0387124Y0227003D02*
X0399560Y0227003D01*
X0399560Y0228201D02*
X0388323Y0228201D01*
X0389105Y0229400D02*
X0399560Y0229400D01*
X0399560Y0230598D02*
X0389797Y0230598D01*
X0390212Y0231797D02*
X0399560Y0231797D01*
X0399560Y0232995D02*
X0390533Y0232995D01*
X0390715Y0234194D02*
X0399560Y0234194D01*
X0399560Y0235392D02*
X0390715Y0235392D01*
X0390702Y0236591D02*
X0399560Y0236591D01*
X0399560Y0237789D02*
X0390381Y0237789D01*
X0390060Y0238988D02*
X0399560Y0238988D01*
X0399560Y0240186D02*
X0389469Y0240186D01*
X0388777Y0241385D02*
X0399560Y0241385D01*
X0399560Y0242583D02*
X0387755Y0242583D01*
X0386556Y0243782D02*
X0399560Y0243782D01*
X0399560Y0244980D02*
X0384515Y0244980D01*
X0347788Y0087975D02*
X0259571Y0087975D01*
X0261647Y0086777D02*
X0347291Y0086777D01*
X0347276Y0085578D02*
X0262870Y0085578D01*
X0263927Y0084380D02*
X0347465Y0084380D01*
X0347961Y0083181D02*
X0264619Y0083181D01*
X0265235Y0081983D02*
X0349099Y0081983D01*
X0373493Y0053219D02*
X0399560Y0053219D01*
X0399560Y0052020D02*
X0374691Y0052020D01*
X0375890Y0050822D02*
X0399560Y0050822D01*
X0399560Y0049623D02*
X0377088Y0049623D01*
X0378219Y0048425D02*
X0399560Y0048425D01*
X0399560Y0047226D02*
X0378219Y0047226D01*
X0378219Y0046027D02*
X0399560Y0046027D01*
X0399560Y0044829D02*
X0378219Y0044829D01*
X0378219Y0043630D02*
X0399560Y0043630D01*
X0399560Y0042432D02*
X0378219Y0042432D01*
X0378219Y0041233D02*
X0399560Y0041233D01*
X0399560Y0040035D02*
X0377140Y0040035D01*
X0375941Y0038836D02*
X0399560Y0038836D01*
X0399560Y0037638D02*
X0374743Y0037638D01*
X0128217Y0060410D02*
X0115860Y0060410D01*
X0081539Y0049623D02*
X0071260Y0049623D01*
X0073928Y0048425D02*
X0080408Y0048425D01*
X0080408Y0047226D02*
X0075478Y0047226D01*
X0076677Y0046027D02*
X0080408Y0046027D01*
X0080408Y0044829D02*
X0077386Y0044829D01*
X0078078Y0043630D02*
X0080408Y0043630D01*
X0080408Y0042432D02*
X0078410Y0042432D01*
X0078732Y0041233D02*
X0080408Y0041233D01*
X0081488Y0040035D02*
X0078815Y0040035D01*
X0078815Y0038836D02*
X0082686Y0038836D01*
X0083885Y0037638D02*
X0078677Y0037638D01*
X0078356Y0036439D02*
X0085083Y0036439D01*
X0066119Y0029248D02*
X0064610Y0029248D01*
X0057010Y0029248D02*
X0038201Y0029248D01*
X0039061Y0030447D02*
X0057010Y0030447D01*
X0057010Y0028050D02*
X0025810Y0028050D01*
X0025810Y0029248D02*
X0028419Y0029248D01*
X0027559Y0030447D02*
X0025810Y0030447D01*
X0025810Y0031645D02*
X0027341Y0031645D01*
X0027341Y0032844D02*
X0025810Y0032844D01*
X0025810Y0034042D02*
X0027341Y0034042D01*
X0027341Y0035241D02*
X0025810Y0035241D01*
X0025810Y0036439D02*
X0027341Y0036439D01*
X0027341Y0037638D02*
X0025810Y0037638D01*
X0025810Y0038836D02*
X0027645Y0038836D01*
X0028628Y0040035D02*
X0025810Y0040035D01*
X0025810Y0041233D02*
X0030153Y0041233D01*
X0029255Y0042432D02*
X0025810Y0042432D01*
X0025810Y0043630D02*
X0028828Y0043630D01*
D25*
X0304560Y0212037D02*
X0304560Y0225787D01*
X0298310Y0232037D01*
X0227060Y0232037D01*
X0218310Y0223287D01*
X0149560Y0223287D01*
X0130810Y0242037D01*
X0072060Y0242037D01*
X0067060Y0237037D01*
X0067060Y0232037D01*
X0304560Y0212037D02*
X0313310Y0203287D01*
X0348605Y0203287D01*
M02*
