G75*
%MOIN*%
%OFA0B0*%
%FSLAX25Y25*%
%IPPOS*%
%LPD*%
%AMOC8*
5,1,8,0,0,1.08239X$1,22.5*
%
%ADD10C,0.00000*%
D10*
X0040446Y0015423D02*
X0040448Y0015581D01*
X0040454Y0015739D01*
X0040464Y0015897D01*
X0040478Y0016055D01*
X0040496Y0016212D01*
X0040517Y0016369D01*
X0040543Y0016525D01*
X0040573Y0016681D01*
X0040606Y0016836D01*
X0040644Y0016989D01*
X0040685Y0017142D01*
X0040730Y0017294D01*
X0040779Y0017445D01*
X0040832Y0017594D01*
X0040888Y0017742D01*
X0040948Y0017888D01*
X0041012Y0018033D01*
X0041080Y0018176D01*
X0041151Y0018318D01*
X0041225Y0018458D01*
X0041303Y0018595D01*
X0041385Y0018731D01*
X0041469Y0018865D01*
X0041558Y0018996D01*
X0041649Y0019125D01*
X0041744Y0019252D01*
X0041841Y0019377D01*
X0041942Y0019499D01*
X0042046Y0019618D01*
X0042153Y0019735D01*
X0042263Y0019849D01*
X0042376Y0019960D01*
X0042491Y0020069D01*
X0042609Y0020174D01*
X0042730Y0020276D01*
X0042853Y0020376D01*
X0042979Y0020472D01*
X0043107Y0020565D01*
X0043237Y0020655D01*
X0043370Y0020741D01*
X0043505Y0020825D01*
X0043641Y0020904D01*
X0043780Y0020981D01*
X0043921Y0021053D01*
X0044063Y0021123D01*
X0044207Y0021188D01*
X0044353Y0021250D01*
X0044500Y0021308D01*
X0044649Y0021363D01*
X0044799Y0021414D01*
X0044950Y0021461D01*
X0045102Y0021504D01*
X0045255Y0021543D01*
X0045410Y0021579D01*
X0045565Y0021610D01*
X0045721Y0021638D01*
X0045877Y0021662D01*
X0046034Y0021682D01*
X0046192Y0021698D01*
X0046349Y0021710D01*
X0046508Y0021718D01*
X0046666Y0021722D01*
X0046824Y0021722D01*
X0046982Y0021718D01*
X0047141Y0021710D01*
X0047298Y0021698D01*
X0047456Y0021682D01*
X0047613Y0021662D01*
X0047769Y0021638D01*
X0047925Y0021610D01*
X0048080Y0021579D01*
X0048235Y0021543D01*
X0048388Y0021504D01*
X0048540Y0021461D01*
X0048691Y0021414D01*
X0048841Y0021363D01*
X0048990Y0021308D01*
X0049137Y0021250D01*
X0049283Y0021188D01*
X0049427Y0021123D01*
X0049569Y0021053D01*
X0049710Y0020981D01*
X0049849Y0020904D01*
X0049985Y0020825D01*
X0050120Y0020741D01*
X0050253Y0020655D01*
X0050383Y0020565D01*
X0050511Y0020472D01*
X0050637Y0020376D01*
X0050760Y0020276D01*
X0050881Y0020174D01*
X0050999Y0020069D01*
X0051114Y0019960D01*
X0051227Y0019849D01*
X0051337Y0019735D01*
X0051444Y0019618D01*
X0051548Y0019499D01*
X0051649Y0019377D01*
X0051746Y0019252D01*
X0051841Y0019125D01*
X0051932Y0018996D01*
X0052021Y0018865D01*
X0052105Y0018731D01*
X0052187Y0018595D01*
X0052265Y0018458D01*
X0052339Y0018318D01*
X0052410Y0018176D01*
X0052478Y0018033D01*
X0052542Y0017888D01*
X0052602Y0017742D01*
X0052658Y0017594D01*
X0052711Y0017445D01*
X0052760Y0017294D01*
X0052805Y0017142D01*
X0052846Y0016989D01*
X0052884Y0016836D01*
X0052917Y0016681D01*
X0052947Y0016525D01*
X0052973Y0016369D01*
X0052994Y0016212D01*
X0053012Y0016055D01*
X0053026Y0015897D01*
X0053036Y0015739D01*
X0053042Y0015581D01*
X0053044Y0015423D01*
X0053042Y0015265D01*
X0053036Y0015107D01*
X0053026Y0014949D01*
X0053012Y0014791D01*
X0052994Y0014634D01*
X0052973Y0014477D01*
X0052947Y0014321D01*
X0052917Y0014165D01*
X0052884Y0014010D01*
X0052846Y0013857D01*
X0052805Y0013704D01*
X0052760Y0013552D01*
X0052711Y0013401D01*
X0052658Y0013252D01*
X0052602Y0013104D01*
X0052542Y0012958D01*
X0052478Y0012813D01*
X0052410Y0012670D01*
X0052339Y0012528D01*
X0052265Y0012388D01*
X0052187Y0012251D01*
X0052105Y0012115D01*
X0052021Y0011981D01*
X0051932Y0011850D01*
X0051841Y0011721D01*
X0051746Y0011594D01*
X0051649Y0011469D01*
X0051548Y0011347D01*
X0051444Y0011228D01*
X0051337Y0011111D01*
X0051227Y0010997D01*
X0051114Y0010886D01*
X0050999Y0010777D01*
X0050881Y0010672D01*
X0050760Y0010570D01*
X0050637Y0010470D01*
X0050511Y0010374D01*
X0050383Y0010281D01*
X0050253Y0010191D01*
X0050120Y0010105D01*
X0049985Y0010021D01*
X0049849Y0009942D01*
X0049710Y0009865D01*
X0049569Y0009793D01*
X0049427Y0009723D01*
X0049283Y0009658D01*
X0049137Y0009596D01*
X0048990Y0009538D01*
X0048841Y0009483D01*
X0048691Y0009432D01*
X0048540Y0009385D01*
X0048388Y0009342D01*
X0048235Y0009303D01*
X0048080Y0009267D01*
X0047925Y0009236D01*
X0047769Y0009208D01*
X0047613Y0009184D01*
X0047456Y0009164D01*
X0047298Y0009148D01*
X0047141Y0009136D01*
X0046982Y0009128D01*
X0046824Y0009124D01*
X0046666Y0009124D01*
X0046508Y0009128D01*
X0046349Y0009136D01*
X0046192Y0009148D01*
X0046034Y0009164D01*
X0045877Y0009184D01*
X0045721Y0009208D01*
X0045565Y0009236D01*
X0045410Y0009267D01*
X0045255Y0009303D01*
X0045102Y0009342D01*
X0044950Y0009385D01*
X0044799Y0009432D01*
X0044649Y0009483D01*
X0044500Y0009538D01*
X0044353Y0009596D01*
X0044207Y0009658D01*
X0044063Y0009723D01*
X0043921Y0009793D01*
X0043780Y0009865D01*
X0043641Y0009942D01*
X0043505Y0010021D01*
X0043370Y0010105D01*
X0043237Y0010191D01*
X0043107Y0010281D01*
X0042979Y0010374D01*
X0042853Y0010470D01*
X0042730Y0010570D01*
X0042609Y0010672D01*
X0042491Y0010777D01*
X0042376Y0010886D01*
X0042263Y0010997D01*
X0042153Y0011111D01*
X0042046Y0011228D01*
X0041942Y0011347D01*
X0041841Y0011469D01*
X0041744Y0011594D01*
X0041649Y0011721D01*
X0041558Y0011850D01*
X0041469Y0011981D01*
X0041385Y0012115D01*
X0041303Y0012251D01*
X0041225Y0012388D01*
X0041151Y0012528D01*
X0041080Y0012670D01*
X0041012Y0012813D01*
X0040948Y0012958D01*
X0040888Y0013104D01*
X0040832Y0013252D01*
X0040779Y0013401D01*
X0040730Y0013552D01*
X0040685Y0013704D01*
X0040644Y0013857D01*
X0040606Y0014010D01*
X0040573Y0014165D01*
X0040543Y0014321D01*
X0040517Y0014477D01*
X0040496Y0014634D01*
X0040478Y0014791D01*
X0040464Y0014949D01*
X0040454Y0015107D01*
X0040448Y0015265D01*
X0040446Y0015423D01*
X0062404Y0039537D02*
X0062406Y0039690D01*
X0062412Y0039844D01*
X0062422Y0039997D01*
X0062436Y0040149D01*
X0062454Y0040302D01*
X0062476Y0040453D01*
X0062501Y0040604D01*
X0062531Y0040755D01*
X0062565Y0040905D01*
X0062602Y0041053D01*
X0062643Y0041201D01*
X0062688Y0041347D01*
X0062737Y0041493D01*
X0062790Y0041637D01*
X0062846Y0041779D01*
X0062906Y0041920D01*
X0062970Y0042060D01*
X0063037Y0042198D01*
X0063108Y0042334D01*
X0063183Y0042468D01*
X0063260Y0042600D01*
X0063342Y0042730D01*
X0063426Y0042858D01*
X0063514Y0042984D01*
X0063605Y0043107D01*
X0063699Y0043228D01*
X0063797Y0043346D01*
X0063897Y0043462D01*
X0064001Y0043575D01*
X0064107Y0043686D01*
X0064216Y0043794D01*
X0064328Y0043899D01*
X0064442Y0044000D01*
X0064560Y0044099D01*
X0064679Y0044195D01*
X0064801Y0044288D01*
X0064926Y0044377D01*
X0065053Y0044464D01*
X0065182Y0044546D01*
X0065313Y0044626D01*
X0065446Y0044702D01*
X0065581Y0044775D01*
X0065718Y0044844D01*
X0065857Y0044909D01*
X0065997Y0044971D01*
X0066139Y0045029D01*
X0066282Y0045084D01*
X0066427Y0045135D01*
X0066573Y0045182D01*
X0066720Y0045225D01*
X0066868Y0045264D01*
X0067017Y0045300D01*
X0067167Y0045331D01*
X0067318Y0045359D01*
X0067469Y0045383D01*
X0067622Y0045403D01*
X0067774Y0045419D01*
X0067927Y0045431D01*
X0068080Y0045439D01*
X0068233Y0045443D01*
X0068387Y0045443D01*
X0068540Y0045439D01*
X0068693Y0045431D01*
X0068846Y0045419D01*
X0068998Y0045403D01*
X0069151Y0045383D01*
X0069302Y0045359D01*
X0069453Y0045331D01*
X0069603Y0045300D01*
X0069752Y0045264D01*
X0069900Y0045225D01*
X0070047Y0045182D01*
X0070193Y0045135D01*
X0070338Y0045084D01*
X0070481Y0045029D01*
X0070623Y0044971D01*
X0070763Y0044909D01*
X0070902Y0044844D01*
X0071039Y0044775D01*
X0071174Y0044702D01*
X0071307Y0044626D01*
X0071438Y0044546D01*
X0071567Y0044464D01*
X0071694Y0044377D01*
X0071819Y0044288D01*
X0071941Y0044195D01*
X0072060Y0044099D01*
X0072178Y0044000D01*
X0072292Y0043899D01*
X0072404Y0043794D01*
X0072513Y0043686D01*
X0072619Y0043575D01*
X0072723Y0043462D01*
X0072823Y0043346D01*
X0072921Y0043228D01*
X0073015Y0043107D01*
X0073106Y0042984D01*
X0073194Y0042858D01*
X0073278Y0042730D01*
X0073360Y0042600D01*
X0073437Y0042468D01*
X0073512Y0042334D01*
X0073583Y0042198D01*
X0073650Y0042060D01*
X0073714Y0041920D01*
X0073774Y0041779D01*
X0073830Y0041637D01*
X0073883Y0041493D01*
X0073932Y0041347D01*
X0073977Y0041201D01*
X0074018Y0041053D01*
X0074055Y0040905D01*
X0074089Y0040755D01*
X0074119Y0040604D01*
X0074144Y0040453D01*
X0074166Y0040302D01*
X0074184Y0040149D01*
X0074198Y0039997D01*
X0074208Y0039844D01*
X0074214Y0039690D01*
X0074216Y0039537D01*
X0074214Y0039384D01*
X0074208Y0039230D01*
X0074198Y0039077D01*
X0074184Y0038925D01*
X0074166Y0038772D01*
X0074144Y0038621D01*
X0074119Y0038470D01*
X0074089Y0038319D01*
X0074055Y0038169D01*
X0074018Y0038021D01*
X0073977Y0037873D01*
X0073932Y0037727D01*
X0073883Y0037581D01*
X0073830Y0037437D01*
X0073774Y0037295D01*
X0073714Y0037154D01*
X0073650Y0037014D01*
X0073583Y0036876D01*
X0073512Y0036740D01*
X0073437Y0036606D01*
X0073360Y0036474D01*
X0073278Y0036344D01*
X0073194Y0036216D01*
X0073106Y0036090D01*
X0073015Y0035967D01*
X0072921Y0035846D01*
X0072823Y0035728D01*
X0072723Y0035612D01*
X0072619Y0035499D01*
X0072513Y0035388D01*
X0072404Y0035280D01*
X0072292Y0035175D01*
X0072178Y0035074D01*
X0072060Y0034975D01*
X0071941Y0034879D01*
X0071819Y0034786D01*
X0071694Y0034697D01*
X0071567Y0034610D01*
X0071438Y0034528D01*
X0071307Y0034448D01*
X0071174Y0034372D01*
X0071039Y0034299D01*
X0070902Y0034230D01*
X0070763Y0034165D01*
X0070623Y0034103D01*
X0070481Y0034045D01*
X0070338Y0033990D01*
X0070193Y0033939D01*
X0070047Y0033892D01*
X0069900Y0033849D01*
X0069752Y0033810D01*
X0069603Y0033774D01*
X0069453Y0033743D01*
X0069302Y0033715D01*
X0069151Y0033691D01*
X0068998Y0033671D01*
X0068846Y0033655D01*
X0068693Y0033643D01*
X0068540Y0033635D01*
X0068387Y0033631D01*
X0068233Y0033631D01*
X0068080Y0033635D01*
X0067927Y0033643D01*
X0067774Y0033655D01*
X0067622Y0033671D01*
X0067469Y0033691D01*
X0067318Y0033715D01*
X0067167Y0033743D01*
X0067017Y0033774D01*
X0066868Y0033810D01*
X0066720Y0033849D01*
X0066573Y0033892D01*
X0066427Y0033939D01*
X0066282Y0033990D01*
X0066139Y0034045D01*
X0065997Y0034103D01*
X0065857Y0034165D01*
X0065718Y0034230D01*
X0065581Y0034299D01*
X0065446Y0034372D01*
X0065313Y0034448D01*
X0065182Y0034528D01*
X0065053Y0034610D01*
X0064926Y0034697D01*
X0064801Y0034786D01*
X0064679Y0034879D01*
X0064560Y0034975D01*
X0064442Y0035074D01*
X0064328Y0035175D01*
X0064216Y0035280D01*
X0064107Y0035388D01*
X0064001Y0035499D01*
X0063897Y0035612D01*
X0063797Y0035728D01*
X0063699Y0035846D01*
X0063605Y0035967D01*
X0063514Y0036090D01*
X0063426Y0036216D01*
X0063342Y0036344D01*
X0063260Y0036474D01*
X0063183Y0036606D01*
X0063108Y0036740D01*
X0063037Y0036876D01*
X0062970Y0037014D01*
X0062906Y0037154D01*
X0062846Y0037295D01*
X0062790Y0037437D01*
X0062737Y0037581D01*
X0062688Y0037727D01*
X0062643Y0037873D01*
X0062602Y0038021D01*
X0062565Y0038169D01*
X0062531Y0038319D01*
X0062501Y0038470D01*
X0062476Y0038621D01*
X0062454Y0038772D01*
X0062436Y0038925D01*
X0062422Y0039077D01*
X0062412Y0039230D01*
X0062406Y0039384D01*
X0062404Y0039537D01*
X0056469Y0114183D02*
X0056471Y0114336D01*
X0056477Y0114490D01*
X0056487Y0114643D01*
X0056501Y0114795D01*
X0056519Y0114948D01*
X0056541Y0115099D01*
X0056566Y0115250D01*
X0056596Y0115401D01*
X0056630Y0115551D01*
X0056667Y0115699D01*
X0056708Y0115847D01*
X0056753Y0115993D01*
X0056802Y0116139D01*
X0056855Y0116283D01*
X0056911Y0116425D01*
X0056971Y0116566D01*
X0057035Y0116706D01*
X0057102Y0116844D01*
X0057173Y0116980D01*
X0057248Y0117114D01*
X0057325Y0117246D01*
X0057407Y0117376D01*
X0057491Y0117504D01*
X0057579Y0117630D01*
X0057670Y0117753D01*
X0057764Y0117874D01*
X0057862Y0117992D01*
X0057962Y0118108D01*
X0058066Y0118221D01*
X0058172Y0118332D01*
X0058281Y0118440D01*
X0058393Y0118545D01*
X0058507Y0118646D01*
X0058625Y0118745D01*
X0058744Y0118841D01*
X0058866Y0118934D01*
X0058991Y0119023D01*
X0059118Y0119110D01*
X0059247Y0119192D01*
X0059378Y0119272D01*
X0059511Y0119348D01*
X0059646Y0119421D01*
X0059783Y0119490D01*
X0059922Y0119555D01*
X0060062Y0119617D01*
X0060204Y0119675D01*
X0060347Y0119730D01*
X0060492Y0119781D01*
X0060638Y0119828D01*
X0060785Y0119871D01*
X0060933Y0119910D01*
X0061082Y0119946D01*
X0061232Y0119977D01*
X0061383Y0120005D01*
X0061534Y0120029D01*
X0061687Y0120049D01*
X0061839Y0120065D01*
X0061992Y0120077D01*
X0062145Y0120085D01*
X0062298Y0120089D01*
X0062452Y0120089D01*
X0062605Y0120085D01*
X0062758Y0120077D01*
X0062911Y0120065D01*
X0063063Y0120049D01*
X0063216Y0120029D01*
X0063367Y0120005D01*
X0063518Y0119977D01*
X0063668Y0119946D01*
X0063817Y0119910D01*
X0063965Y0119871D01*
X0064112Y0119828D01*
X0064258Y0119781D01*
X0064403Y0119730D01*
X0064546Y0119675D01*
X0064688Y0119617D01*
X0064828Y0119555D01*
X0064967Y0119490D01*
X0065104Y0119421D01*
X0065239Y0119348D01*
X0065372Y0119272D01*
X0065503Y0119192D01*
X0065632Y0119110D01*
X0065759Y0119023D01*
X0065884Y0118934D01*
X0066006Y0118841D01*
X0066125Y0118745D01*
X0066243Y0118646D01*
X0066357Y0118545D01*
X0066469Y0118440D01*
X0066578Y0118332D01*
X0066684Y0118221D01*
X0066788Y0118108D01*
X0066888Y0117992D01*
X0066986Y0117874D01*
X0067080Y0117753D01*
X0067171Y0117630D01*
X0067259Y0117504D01*
X0067343Y0117376D01*
X0067425Y0117246D01*
X0067502Y0117114D01*
X0067577Y0116980D01*
X0067648Y0116844D01*
X0067715Y0116706D01*
X0067779Y0116566D01*
X0067839Y0116425D01*
X0067895Y0116283D01*
X0067948Y0116139D01*
X0067997Y0115993D01*
X0068042Y0115847D01*
X0068083Y0115699D01*
X0068120Y0115551D01*
X0068154Y0115401D01*
X0068184Y0115250D01*
X0068209Y0115099D01*
X0068231Y0114948D01*
X0068249Y0114795D01*
X0068263Y0114643D01*
X0068273Y0114490D01*
X0068279Y0114336D01*
X0068281Y0114183D01*
X0068279Y0114030D01*
X0068273Y0113876D01*
X0068263Y0113723D01*
X0068249Y0113571D01*
X0068231Y0113418D01*
X0068209Y0113267D01*
X0068184Y0113116D01*
X0068154Y0112965D01*
X0068120Y0112815D01*
X0068083Y0112667D01*
X0068042Y0112519D01*
X0067997Y0112373D01*
X0067948Y0112227D01*
X0067895Y0112083D01*
X0067839Y0111941D01*
X0067779Y0111800D01*
X0067715Y0111660D01*
X0067648Y0111522D01*
X0067577Y0111386D01*
X0067502Y0111252D01*
X0067425Y0111120D01*
X0067343Y0110990D01*
X0067259Y0110862D01*
X0067171Y0110736D01*
X0067080Y0110613D01*
X0066986Y0110492D01*
X0066888Y0110374D01*
X0066788Y0110258D01*
X0066684Y0110145D01*
X0066578Y0110034D01*
X0066469Y0109926D01*
X0066357Y0109821D01*
X0066243Y0109720D01*
X0066125Y0109621D01*
X0066006Y0109525D01*
X0065884Y0109432D01*
X0065759Y0109343D01*
X0065632Y0109256D01*
X0065503Y0109174D01*
X0065372Y0109094D01*
X0065239Y0109018D01*
X0065104Y0108945D01*
X0064967Y0108876D01*
X0064828Y0108811D01*
X0064688Y0108749D01*
X0064546Y0108691D01*
X0064403Y0108636D01*
X0064258Y0108585D01*
X0064112Y0108538D01*
X0063965Y0108495D01*
X0063817Y0108456D01*
X0063668Y0108420D01*
X0063518Y0108389D01*
X0063367Y0108361D01*
X0063216Y0108337D01*
X0063063Y0108317D01*
X0062911Y0108301D01*
X0062758Y0108289D01*
X0062605Y0108281D01*
X0062452Y0108277D01*
X0062298Y0108277D01*
X0062145Y0108281D01*
X0061992Y0108289D01*
X0061839Y0108301D01*
X0061687Y0108317D01*
X0061534Y0108337D01*
X0061383Y0108361D01*
X0061232Y0108389D01*
X0061082Y0108420D01*
X0060933Y0108456D01*
X0060785Y0108495D01*
X0060638Y0108538D01*
X0060492Y0108585D01*
X0060347Y0108636D01*
X0060204Y0108691D01*
X0060062Y0108749D01*
X0059922Y0108811D01*
X0059783Y0108876D01*
X0059646Y0108945D01*
X0059511Y0109018D01*
X0059378Y0109094D01*
X0059247Y0109174D01*
X0059118Y0109256D01*
X0058991Y0109343D01*
X0058866Y0109432D01*
X0058744Y0109525D01*
X0058625Y0109621D01*
X0058507Y0109720D01*
X0058393Y0109821D01*
X0058281Y0109926D01*
X0058172Y0110034D01*
X0058066Y0110145D01*
X0057962Y0110258D01*
X0057862Y0110374D01*
X0057764Y0110492D01*
X0057670Y0110613D01*
X0057579Y0110736D01*
X0057491Y0110862D01*
X0057407Y0110990D01*
X0057325Y0111120D01*
X0057248Y0111252D01*
X0057173Y0111386D01*
X0057102Y0111522D01*
X0057035Y0111660D01*
X0056971Y0111800D01*
X0056911Y0111941D01*
X0056855Y0112083D01*
X0056802Y0112227D01*
X0056753Y0112373D01*
X0056708Y0112519D01*
X0056667Y0112667D01*
X0056630Y0112815D01*
X0056596Y0112965D01*
X0056566Y0113116D01*
X0056541Y0113267D01*
X0056519Y0113418D01*
X0056501Y0113571D01*
X0056487Y0113723D01*
X0056477Y0113876D01*
X0056471Y0114030D01*
X0056469Y0114183D01*
X0149623Y0120287D02*
X0149625Y0120412D01*
X0149631Y0120537D01*
X0149641Y0120661D01*
X0149655Y0120785D01*
X0149672Y0120909D01*
X0149694Y0121032D01*
X0149720Y0121154D01*
X0149749Y0121276D01*
X0149782Y0121396D01*
X0149820Y0121515D01*
X0149860Y0121634D01*
X0149905Y0121750D01*
X0149953Y0121865D01*
X0150005Y0121979D01*
X0150061Y0122091D01*
X0150120Y0122201D01*
X0150182Y0122309D01*
X0150248Y0122416D01*
X0150317Y0122520D01*
X0150390Y0122621D01*
X0150465Y0122721D01*
X0150544Y0122818D01*
X0150626Y0122912D01*
X0150711Y0123004D01*
X0150798Y0123093D01*
X0150889Y0123179D01*
X0150982Y0123262D01*
X0151078Y0123343D01*
X0151176Y0123420D01*
X0151276Y0123494D01*
X0151379Y0123565D01*
X0151484Y0123632D01*
X0151592Y0123697D01*
X0151701Y0123757D01*
X0151812Y0123815D01*
X0151925Y0123868D01*
X0152039Y0123918D01*
X0152155Y0123965D01*
X0152272Y0124007D01*
X0152391Y0124046D01*
X0152511Y0124082D01*
X0152632Y0124113D01*
X0152754Y0124141D01*
X0152876Y0124164D01*
X0153000Y0124184D01*
X0153124Y0124200D01*
X0153248Y0124212D01*
X0153373Y0124220D01*
X0153498Y0124224D01*
X0153622Y0124224D01*
X0153747Y0124220D01*
X0153872Y0124212D01*
X0153996Y0124200D01*
X0154120Y0124184D01*
X0154244Y0124164D01*
X0154366Y0124141D01*
X0154488Y0124113D01*
X0154609Y0124082D01*
X0154729Y0124046D01*
X0154848Y0124007D01*
X0154965Y0123965D01*
X0155081Y0123918D01*
X0155195Y0123868D01*
X0155308Y0123815D01*
X0155419Y0123757D01*
X0155529Y0123697D01*
X0155636Y0123632D01*
X0155741Y0123565D01*
X0155844Y0123494D01*
X0155944Y0123420D01*
X0156042Y0123343D01*
X0156138Y0123262D01*
X0156231Y0123179D01*
X0156322Y0123093D01*
X0156409Y0123004D01*
X0156494Y0122912D01*
X0156576Y0122818D01*
X0156655Y0122721D01*
X0156730Y0122621D01*
X0156803Y0122520D01*
X0156872Y0122416D01*
X0156938Y0122309D01*
X0157000Y0122201D01*
X0157059Y0122091D01*
X0157115Y0121979D01*
X0157167Y0121865D01*
X0157215Y0121750D01*
X0157260Y0121634D01*
X0157300Y0121515D01*
X0157338Y0121396D01*
X0157371Y0121276D01*
X0157400Y0121154D01*
X0157426Y0121032D01*
X0157448Y0120909D01*
X0157465Y0120785D01*
X0157479Y0120661D01*
X0157489Y0120537D01*
X0157495Y0120412D01*
X0157497Y0120287D01*
X0157495Y0120162D01*
X0157489Y0120037D01*
X0157479Y0119913D01*
X0157465Y0119789D01*
X0157448Y0119665D01*
X0157426Y0119542D01*
X0157400Y0119420D01*
X0157371Y0119298D01*
X0157338Y0119178D01*
X0157300Y0119059D01*
X0157260Y0118940D01*
X0157215Y0118824D01*
X0157167Y0118709D01*
X0157115Y0118595D01*
X0157059Y0118483D01*
X0157000Y0118373D01*
X0156938Y0118265D01*
X0156872Y0118158D01*
X0156803Y0118054D01*
X0156730Y0117953D01*
X0156655Y0117853D01*
X0156576Y0117756D01*
X0156494Y0117662D01*
X0156409Y0117570D01*
X0156322Y0117481D01*
X0156231Y0117395D01*
X0156138Y0117312D01*
X0156042Y0117231D01*
X0155944Y0117154D01*
X0155844Y0117080D01*
X0155741Y0117009D01*
X0155636Y0116942D01*
X0155528Y0116877D01*
X0155419Y0116817D01*
X0155308Y0116759D01*
X0155195Y0116706D01*
X0155081Y0116656D01*
X0154965Y0116609D01*
X0154848Y0116567D01*
X0154729Y0116528D01*
X0154609Y0116492D01*
X0154488Y0116461D01*
X0154366Y0116433D01*
X0154244Y0116410D01*
X0154120Y0116390D01*
X0153996Y0116374D01*
X0153872Y0116362D01*
X0153747Y0116354D01*
X0153622Y0116350D01*
X0153498Y0116350D01*
X0153373Y0116354D01*
X0153248Y0116362D01*
X0153124Y0116374D01*
X0153000Y0116390D01*
X0152876Y0116410D01*
X0152754Y0116433D01*
X0152632Y0116461D01*
X0152511Y0116492D01*
X0152391Y0116528D01*
X0152272Y0116567D01*
X0152155Y0116609D01*
X0152039Y0116656D01*
X0151925Y0116706D01*
X0151812Y0116759D01*
X0151701Y0116817D01*
X0151591Y0116877D01*
X0151484Y0116942D01*
X0151379Y0117009D01*
X0151276Y0117080D01*
X0151176Y0117154D01*
X0151078Y0117231D01*
X0150982Y0117312D01*
X0150889Y0117395D01*
X0150798Y0117481D01*
X0150711Y0117570D01*
X0150626Y0117662D01*
X0150544Y0117756D01*
X0150465Y0117853D01*
X0150390Y0117953D01*
X0150317Y0118054D01*
X0150248Y0118158D01*
X0150182Y0118265D01*
X0150120Y0118373D01*
X0150061Y0118483D01*
X0150005Y0118595D01*
X0149953Y0118709D01*
X0149905Y0118824D01*
X0149860Y0118940D01*
X0149820Y0119059D01*
X0149782Y0119178D01*
X0149749Y0119298D01*
X0149720Y0119420D01*
X0149694Y0119542D01*
X0149672Y0119665D01*
X0149655Y0119789D01*
X0149641Y0119913D01*
X0149631Y0120037D01*
X0149625Y0120162D01*
X0149623Y0120287D01*
X0231623Y0120287D02*
X0231625Y0120412D01*
X0231631Y0120537D01*
X0231641Y0120661D01*
X0231655Y0120785D01*
X0231672Y0120909D01*
X0231694Y0121032D01*
X0231720Y0121154D01*
X0231749Y0121276D01*
X0231782Y0121396D01*
X0231820Y0121515D01*
X0231860Y0121634D01*
X0231905Y0121750D01*
X0231953Y0121865D01*
X0232005Y0121979D01*
X0232061Y0122091D01*
X0232120Y0122201D01*
X0232182Y0122309D01*
X0232248Y0122416D01*
X0232317Y0122520D01*
X0232390Y0122621D01*
X0232465Y0122721D01*
X0232544Y0122818D01*
X0232626Y0122912D01*
X0232711Y0123004D01*
X0232798Y0123093D01*
X0232889Y0123179D01*
X0232982Y0123262D01*
X0233078Y0123343D01*
X0233176Y0123420D01*
X0233276Y0123494D01*
X0233379Y0123565D01*
X0233484Y0123632D01*
X0233592Y0123697D01*
X0233701Y0123757D01*
X0233812Y0123815D01*
X0233925Y0123868D01*
X0234039Y0123918D01*
X0234155Y0123965D01*
X0234272Y0124007D01*
X0234391Y0124046D01*
X0234511Y0124082D01*
X0234632Y0124113D01*
X0234754Y0124141D01*
X0234876Y0124164D01*
X0235000Y0124184D01*
X0235124Y0124200D01*
X0235248Y0124212D01*
X0235373Y0124220D01*
X0235498Y0124224D01*
X0235622Y0124224D01*
X0235747Y0124220D01*
X0235872Y0124212D01*
X0235996Y0124200D01*
X0236120Y0124184D01*
X0236244Y0124164D01*
X0236366Y0124141D01*
X0236488Y0124113D01*
X0236609Y0124082D01*
X0236729Y0124046D01*
X0236848Y0124007D01*
X0236965Y0123965D01*
X0237081Y0123918D01*
X0237195Y0123868D01*
X0237308Y0123815D01*
X0237419Y0123757D01*
X0237529Y0123697D01*
X0237636Y0123632D01*
X0237741Y0123565D01*
X0237844Y0123494D01*
X0237944Y0123420D01*
X0238042Y0123343D01*
X0238138Y0123262D01*
X0238231Y0123179D01*
X0238322Y0123093D01*
X0238409Y0123004D01*
X0238494Y0122912D01*
X0238576Y0122818D01*
X0238655Y0122721D01*
X0238730Y0122621D01*
X0238803Y0122520D01*
X0238872Y0122416D01*
X0238938Y0122309D01*
X0239000Y0122201D01*
X0239059Y0122091D01*
X0239115Y0121979D01*
X0239167Y0121865D01*
X0239215Y0121750D01*
X0239260Y0121634D01*
X0239300Y0121515D01*
X0239338Y0121396D01*
X0239371Y0121276D01*
X0239400Y0121154D01*
X0239426Y0121032D01*
X0239448Y0120909D01*
X0239465Y0120785D01*
X0239479Y0120661D01*
X0239489Y0120537D01*
X0239495Y0120412D01*
X0239497Y0120287D01*
X0239495Y0120162D01*
X0239489Y0120037D01*
X0239479Y0119913D01*
X0239465Y0119789D01*
X0239448Y0119665D01*
X0239426Y0119542D01*
X0239400Y0119420D01*
X0239371Y0119298D01*
X0239338Y0119178D01*
X0239300Y0119059D01*
X0239260Y0118940D01*
X0239215Y0118824D01*
X0239167Y0118709D01*
X0239115Y0118595D01*
X0239059Y0118483D01*
X0239000Y0118373D01*
X0238938Y0118265D01*
X0238872Y0118158D01*
X0238803Y0118054D01*
X0238730Y0117953D01*
X0238655Y0117853D01*
X0238576Y0117756D01*
X0238494Y0117662D01*
X0238409Y0117570D01*
X0238322Y0117481D01*
X0238231Y0117395D01*
X0238138Y0117312D01*
X0238042Y0117231D01*
X0237944Y0117154D01*
X0237844Y0117080D01*
X0237741Y0117009D01*
X0237636Y0116942D01*
X0237528Y0116877D01*
X0237419Y0116817D01*
X0237308Y0116759D01*
X0237195Y0116706D01*
X0237081Y0116656D01*
X0236965Y0116609D01*
X0236848Y0116567D01*
X0236729Y0116528D01*
X0236609Y0116492D01*
X0236488Y0116461D01*
X0236366Y0116433D01*
X0236244Y0116410D01*
X0236120Y0116390D01*
X0235996Y0116374D01*
X0235872Y0116362D01*
X0235747Y0116354D01*
X0235622Y0116350D01*
X0235498Y0116350D01*
X0235373Y0116354D01*
X0235248Y0116362D01*
X0235124Y0116374D01*
X0235000Y0116390D01*
X0234876Y0116410D01*
X0234754Y0116433D01*
X0234632Y0116461D01*
X0234511Y0116492D01*
X0234391Y0116528D01*
X0234272Y0116567D01*
X0234155Y0116609D01*
X0234039Y0116656D01*
X0233925Y0116706D01*
X0233812Y0116759D01*
X0233701Y0116817D01*
X0233591Y0116877D01*
X0233484Y0116942D01*
X0233379Y0117009D01*
X0233276Y0117080D01*
X0233176Y0117154D01*
X0233078Y0117231D01*
X0232982Y0117312D01*
X0232889Y0117395D01*
X0232798Y0117481D01*
X0232711Y0117570D01*
X0232626Y0117662D01*
X0232544Y0117756D01*
X0232465Y0117853D01*
X0232390Y0117953D01*
X0232317Y0118054D01*
X0232248Y0118158D01*
X0232182Y0118265D01*
X0232120Y0118373D01*
X0232061Y0118483D01*
X0232005Y0118595D01*
X0231953Y0118709D01*
X0231905Y0118824D01*
X0231860Y0118940D01*
X0231820Y0119059D01*
X0231782Y0119178D01*
X0231749Y0119298D01*
X0231720Y0119420D01*
X0231694Y0119542D01*
X0231672Y0119665D01*
X0231655Y0119789D01*
X0231641Y0119913D01*
X0231631Y0120037D01*
X0231625Y0120162D01*
X0231623Y0120287D01*
X0248714Y0078022D02*
X0248716Y0078180D01*
X0248722Y0078338D01*
X0248732Y0078496D01*
X0248746Y0078654D01*
X0248764Y0078811D01*
X0248785Y0078968D01*
X0248811Y0079124D01*
X0248841Y0079280D01*
X0248874Y0079435D01*
X0248912Y0079588D01*
X0248953Y0079741D01*
X0248998Y0079893D01*
X0249047Y0080044D01*
X0249100Y0080193D01*
X0249156Y0080341D01*
X0249216Y0080487D01*
X0249280Y0080632D01*
X0249348Y0080775D01*
X0249419Y0080917D01*
X0249493Y0081057D01*
X0249571Y0081194D01*
X0249653Y0081330D01*
X0249737Y0081464D01*
X0249826Y0081595D01*
X0249917Y0081724D01*
X0250012Y0081851D01*
X0250109Y0081976D01*
X0250210Y0082098D01*
X0250314Y0082217D01*
X0250421Y0082334D01*
X0250531Y0082448D01*
X0250644Y0082559D01*
X0250759Y0082668D01*
X0250877Y0082773D01*
X0250998Y0082875D01*
X0251121Y0082975D01*
X0251247Y0083071D01*
X0251375Y0083164D01*
X0251505Y0083254D01*
X0251638Y0083340D01*
X0251773Y0083424D01*
X0251909Y0083503D01*
X0252048Y0083580D01*
X0252189Y0083652D01*
X0252331Y0083722D01*
X0252475Y0083787D01*
X0252621Y0083849D01*
X0252768Y0083907D01*
X0252917Y0083962D01*
X0253067Y0084013D01*
X0253218Y0084060D01*
X0253370Y0084103D01*
X0253523Y0084142D01*
X0253678Y0084178D01*
X0253833Y0084209D01*
X0253989Y0084237D01*
X0254145Y0084261D01*
X0254302Y0084281D01*
X0254460Y0084297D01*
X0254617Y0084309D01*
X0254776Y0084317D01*
X0254934Y0084321D01*
X0255092Y0084321D01*
X0255250Y0084317D01*
X0255409Y0084309D01*
X0255566Y0084297D01*
X0255724Y0084281D01*
X0255881Y0084261D01*
X0256037Y0084237D01*
X0256193Y0084209D01*
X0256348Y0084178D01*
X0256503Y0084142D01*
X0256656Y0084103D01*
X0256808Y0084060D01*
X0256959Y0084013D01*
X0257109Y0083962D01*
X0257258Y0083907D01*
X0257405Y0083849D01*
X0257551Y0083787D01*
X0257695Y0083722D01*
X0257837Y0083652D01*
X0257978Y0083580D01*
X0258117Y0083503D01*
X0258253Y0083424D01*
X0258388Y0083340D01*
X0258521Y0083254D01*
X0258651Y0083164D01*
X0258779Y0083071D01*
X0258905Y0082975D01*
X0259028Y0082875D01*
X0259149Y0082773D01*
X0259267Y0082668D01*
X0259382Y0082559D01*
X0259495Y0082448D01*
X0259605Y0082334D01*
X0259712Y0082217D01*
X0259816Y0082098D01*
X0259917Y0081976D01*
X0260014Y0081851D01*
X0260109Y0081724D01*
X0260200Y0081595D01*
X0260289Y0081464D01*
X0260373Y0081330D01*
X0260455Y0081194D01*
X0260533Y0081057D01*
X0260607Y0080917D01*
X0260678Y0080775D01*
X0260746Y0080632D01*
X0260810Y0080487D01*
X0260870Y0080341D01*
X0260926Y0080193D01*
X0260979Y0080044D01*
X0261028Y0079893D01*
X0261073Y0079741D01*
X0261114Y0079588D01*
X0261152Y0079435D01*
X0261185Y0079280D01*
X0261215Y0079124D01*
X0261241Y0078968D01*
X0261262Y0078811D01*
X0261280Y0078654D01*
X0261294Y0078496D01*
X0261304Y0078338D01*
X0261310Y0078180D01*
X0261312Y0078022D01*
X0261310Y0077864D01*
X0261304Y0077706D01*
X0261294Y0077548D01*
X0261280Y0077390D01*
X0261262Y0077233D01*
X0261241Y0077076D01*
X0261215Y0076920D01*
X0261185Y0076764D01*
X0261152Y0076609D01*
X0261114Y0076456D01*
X0261073Y0076303D01*
X0261028Y0076151D01*
X0260979Y0076000D01*
X0260926Y0075851D01*
X0260870Y0075703D01*
X0260810Y0075557D01*
X0260746Y0075412D01*
X0260678Y0075269D01*
X0260607Y0075127D01*
X0260533Y0074987D01*
X0260455Y0074850D01*
X0260373Y0074714D01*
X0260289Y0074580D01*
X0260200Y0074449D01*
X0260109Y0074320D01*
X0260014Y0074193D01*
X0259917Y0074068D01*
X0259816Y0073946D01*
X0259712Y0073827D01*
X0259605Y0073710D01*
X0259495Y0073596D01*
X0259382Y0073485D01*
X0259267Y0073376D01*
X0259149Y0073271D01*
X0259028Y0073169D01*
X0258905Y0073069D01*
X0258779Y0072973D01*
X0258651Y0072880D01*
X0258521Y0072790D01*
X0258388Y0072704D01*
X0258253Y0072620D01*
X0258117Y0072541D01*
X0257978Y0072464D01*
X0257837Y0072392D01*
X0257695Y0072322D01*
X0257551Y0072257D01*
X0257405Y0072195D01*
X0257258Y0072137D01*
X0257109Y0072082D01*
X0256959Y0072031D01*
X0256808Y0071984D01*
X0256656Y0071941D01*
X0256503Y0071902D01*
X0256348Y0071866D01*
X0256193Y0071835D01*
X0256037Y0071807D01*
X0255881Y0071783D01*
X0255724Y0071763D01*
X0255566Y0071747D01*
X0255409Y0071735D01*
X0255250Y0071727D01*
X0255092Y0071723D01*
X0254934Y0071723D01*
X0254776Y0071727D01*
X0254617Y0071735D01*
X0254460Y0071747D01*
X0254302Y0071763D01*
X0254145Y0071783D01*
X0253989Y0071807D01*
X0253833Y0071835D01*
X0253678Y0071866D01*
X0253523Y0071902D01*
X0253370Y0071941D01*
X0253218Y0071984D01*
X0253067Y0072031D01*
X0252917Y0072082D01*
X0252768Y0072137D01*
X0252621Y0072195D01*
X0252475Y0072257D01*
X0252331Y0072322D01*
X0252189Y0072392D01*
X0252048Y0072464D01*
X0251909Y0072541D01*
X0251773Y0072620D01*
X0251638Y0072704D01*
X0251505Y0072790D01*
X0251375Y0072880D01*
X0251247Y0072973D01*
X0251121Y0073069D01*
X0250998Y0073169D01*
X0250877Y0073271D01*
X0250759Y0073376D01*
X0250644Y0073485D01*
X0250531Y0073596D01*
X0250421Y0073710D01*
X0250314Y0073827D01*
X0250210Y0073946D01*
X0250109Y0074068D01*
X0250012Y0074193D01*
X0249917Y0074320D01*
X0249826Y0074449D01*
X0249737Y0074580D01*
X0249653Y0074714D01*
X0249571Y0074850D01*
X0249493Y0074987D01*
X0249419Y0075127D01*
X0249348Y0075269D01*
X0249280Y0075412D01*
X0249216Y0075557D01*
X0249156Y0075703D01*
X0249100Y0075851D01*
X0249047Y0076000D01*
X0248998Y0076151D01*
X0248953Y0076303D01*
X0248912Y0076456D01*
X0248874Y0076609D01*
X0248841Y0076764D01*
X0248811Y0076920D01*
X0248785Y0077076D01*
X0248764Y0077233D01*
X0248746Y0077390D01*
X0248732Y0077548D01*
X0248722Y0077706D01*
X0248716Y0077864D01*
X0248714Y0078022D01*
X0206981Y0015817D02*
X0206983Y0015975D01*
X0206989Y0016133D01*
X0206999Y0016291D01*
X0207013Y0016449D01*
X0207031Y0016606D01*
X0207052Y0016763D01*
X0207078Y0016919D01*
X0207108Y0017075D01*
X0207141Y0017230D01*
X0207179Y0017383D01*
X0207220Y0017536D01*
X0207265Y0017688D01*
X0207314Y0017839D01*
X0207367Y0017988D01*
X0207423Y0018136D01*
X0207483Y0018282D01*
X0207547Y0018427D01*
X0207615Y0018570D01*
X0207686Y0018712D01*
X0207760Y0018852D01*
X0207838Y0018989D01*
X0207920Y0019125D01*
X0208004Y0019259D01*
X0208093Y0019390D01*
X0208184Y0019519D01*
X0208279Y0019646D01*
X0208376Y0019771D01*
X0208477Y0019893D01*
X0208581Y0020012D01*
X0208688Y0020129D01*
X0208798Y0020243D01*
X0208911Y0020354D01*
X0209026Y0020463D01*
X0209144Y0020568D01*
X0209265Y0020670D01*
X0209388Y0020770D01*
X0209514Y0020866D01*
X0209642Y0020959D01*
X0209772Y0021049D01*
X0209905Y0021135D01*
X0210040Y0021219D01*
X0210176Y0021298D01*
X0210315Y0021375D01*
X0210456Y0021447D01*
X0210598Y0021517D01*
X0210742Y0021582D01*
X0210888Y0021644D01*
X0211035Y0021702D01*
X0211184Y0021757D01*
X0211334Y0021808D01*
X0211485Y0021855D01*
X0211637Y0021898D01*
X0211790Y0021937D01*
X0211945Y0021973D01*
X0212100Y0022004D01*
X0212256Y0022032D01*
X0212412Y0022056D01*
X0212569Y0022076D01*
X0212727Y0022092D01*
X0212884Y0022104D01*
X0213043Y0022112D01*
X0213201Y0022116D01*
X0213359Y0022116D01*
X0213517Y0022112D01*
X0213676Y0022104D01*
X0213833Y0022092D01*
X0213991Y0022076D01*
X0214148Y0022056D01*
X0214304Y0022032D01*
X0214460Y0022004D01*
X0214615Y0021973D01*
X0214770Y0021937D01*
X0214923Y0021898D01*
X0215075Y0021855D01*
X0215226Y0021808D01*
X0215376Y0021757D01*
X0215525Y0021702D01*
X0215672Y0021644D01*
X0215818Y0021582D01*
X0215962Y0021517D01*
X0216104Y0021447D01*
X0216245Y0021375D01*
X0216384Y0021298D01*
X0216520Y0021219D01*
X0216655Y0021135D01*
X0216788Y0021049D01*
X0216918Y0020959D01*
X0217046Y0020866D01*
X0217172Y0020770D01*
X0217295Y0020670D01*
X0217416Y0020568D01*
X0217534Y0020463D01*
X0217649Y0020354D01*
X0217762Y0020243D01*
X0217872Y0020129D01*
X0217979Y0020012D01*
X0218083Y0019893D01*
X0218184Y0019771D01*
X0218281Y0019646D01*
X0218376Y0019519D01*
X0218467Y0019390D01*
X0218556Y0019259D01*
X0218640Y0019125D01*
X0218722Y0018989D01*
X0218800Y0018852D01*
X0218874Y0018712D01*
X0218945Y0018570D01*
X0219013Y0018427D01*
X0219077Y0018282D01*
X0219137Y0018136D01*
X0219193Y0017988D01*
X0219246Y0017839D01*
X0219295Y0017688D01*
X0219340Y0017536D01*
X0219381Y0017383D01*
X0219419Y0017230D01*
X0219452Y0017075D01*
X0219482Y0016919D01*
X0219508Y0016763D01*
X0219529Y0016606D01*
X0219547Y0016449D01*
X0219561Y0016291D01*
X0219571Y0016133D01*
X0219577Y0015975D01*
X0219579Y0015817D01*
X0219577Y0015659D01*
X0219571Y0015501D01*
X0219561Y0015343D01*
X0219547Y0015185D01*
X0219529Y0015028D01*
X0219508Y0014871D01*
X0219482Y0014715D01*
X0219452Y0014559D01*
X0219419Y0014404D01*
X0219381Y0014251D01*
X0219340Y0014098D01*
X0219295Y0013946D01*
X0219246Y0013795D01*
X0219193Y0013646D01*
X0219137Y0013498D01*
X0219077Y0013352D01*
X0219013Y0013207D01*
X0218945Y0013064D01*
X0218874Y0012922D01*
X0218800Y0012782D01*
X0218722Y0012645D01*
X0218640Y0012509D01*
X0218556Y0012375D01*
X0218467Y0012244D01*
X0218376Y0012115D01*
X0218281Y0011988D01*
X0218184Y0011863D01*
X0218083Y0011741D01*
X0217979Y0011622D01*
X0217872Y0011505D01*
X0217762Y0011391D01*
X0217649Y0011280D01*
X0217534Y0011171D01*
X0217416Y0011066D01*
X0217295Y0010964D01*
X0217172Y0010864D01*
X0217046Y0010768D01*
X0216918Y0010675D01*
X0216788Y0010585D01*
X0216655Y0010499D01*
X0216520Y0010415D01*
X0216384Y0010336D01*
X0216245Y0010259D01*
X0216104Y0010187D01*
X0215962Y0010117D01*
X0215818Y0010052D01*
X0215672Y0009990D01*
X0215525Y0009932D01*
X0215376Y0009877D01*
X0215226Y0009826D01*
X0215075Y0009779D01*
X0214923Y0009736D01*
X0214770Y0009697D01*
X0214615Y0009661D01*
X0214460Y0009630D01*
X0214304Y0009602D01*
X0214148Y0009578D01*
X0213991Y0009558D01*
X0213833Y0009542D01*
X0213676Y0009530D01*
X0213517Y0009522D01*
X0213359Y0009518D01*
X0213201Y0009518D01*
X0213043Y0009522D01*
X0212884Y0009530D01*
X0212727Y0009542D01*
X0212569Y0009558D01*
X0212412Y0009578D01*
X0212256Y0009602D01*
X0212100Y0009630D01*
X0211945Y0009661D01*
X0211790Y0009697D01*
X0211637Y0009736D01*
X0211485Y0009779D01*
X0211334Y0009826D01*
X0211184Y0009877D01*
X0211035Y0009932D01*
X0210888Y0009990D01*
X0210742Y0010052D01*
X0210598Y0010117D01*
X0210456Y0010187D01*
X0210315Y0010259D01*
X0210176Y0010336D01*
X0210040Y0010415D01*
X0209905Y0010499D01*
X0209772Y0010585D01*
X0209642Y0010675D01*
X0209514Y0010768D01*
X0209388Y0010864D01*
X0209265Y0010964D01*
X0209144Y0011066D01*
X0209026Y0011171D01*
X0208911Y0011280D01*
X0208798Y0011391D01*
X0208688Y0011505D01*
X0208581Y0011622D01*
X0208477Y0011741D01*
X0208376Y0011863D01*
X0208279Y0011988D01*
X0208184Y0012115D01*
X0208093Y0012244D01*
X0208004Y0012375D01*
X0207920Y0012509D01*
X0207838Y0012645D01*
X0207760Y0012782D01*
X0207686Y0012922D01*
X0207615Y0013064D01*
X0207547Y0013207D01*
X0207483Y0013352D01*
X0207423Y0013498D01*
X0207367Y0013646D01*
X0207314Y0013795D01*
X0207265Y0013946D01*
X0207220Y0014098D01*
X0207179Y0014251D01*
X0207141Y0014404D01*
X0207108Y0014559D01*
X0207078Y0014715D01*
X0207052Y0014871D01*
X0207031Y0015028D01*
X0207013Y0015185D01*
X0206999Y0015343D01*
X0206989Y0015501D01*
X0206983Y0015659D01*
X0206981Y0015817D01*
X0373517Y0015817D02*
X0373519Y0015975D01*
X0373525Y0016133D01*
X0373535Y0016291D01*
X0373549Y0016449D01*
X0373567Y0016606D01*
X0373588Y0016763D01*
X0373614Y0016919D01*
X0373644Y0017075D01*
X0373677Y0017230D01*
X0373715Y0017383D01*
X0373756Y0017536D01*
X0373801Y0017688D01*
X0373850Y0017839D01*
X0373903Y0017988D01*
X0373959Y0018136D01*
X0374019Y0018282D01*
X0374083Y0018427D01*
X0374151Y0018570D01*
X0374222Y0018712D01*
X0374296Y0018852D01*
X0374374Y0018989D01*
X0374456Y0019125D01*
X0374540Y0019259D01*
X0374629Y0019390D01*
X0374720Y0019519D01*
X0374815Y0019646D01*
X0374912Y0019771D01*
X0375013Y0019893D01*
X0375117Y0020012D01*
X0375224Y0020129D01*
X0375334Y0020243D01*
X0375447Y0020354D01*
X0375562Y0020463D01*
X0375680Y0020568D01*
X0375801Y0020670D01*
X0375924Y0020770D01*
X0376050Y0020866D01*
X0376178Y0020959D01*
X0376308Y0021049D01*
X0376441Y0021135D01*
X0376576Y0021219D01*
X0376712Y0021298D01*
X0376851Y0021375D01*
X0376992Y0021447D01*
X0377134Y0021517D01*
X0377278Y0021582D01*
X0377424Y0021644D01*
X0377571Y0021702D01*
X0377720Y0021757D01*
X0377870Y0021808D01*
X0378021Y0021855D01*
X0378173Y0021898D01*
X0378326Y0021937D01*
X0378481Y0021973D01*
X0378636Y0022004D01*
X0378792Y0022032D01*
X0378948Y0022056D01*
X0379105Y0022076D01*
X0379263Y0022092D01*
X0379420Y0022104D01*
X0379579Y0022112D01*
X0379737Y0022116D01*
X0379895Y0022116D01*
X0380053Y0022112D01*
X0380212Y0022104D01*
X0380369Y0022092D01*
X0380527Y0022076D01*
X0380684Y0022056D01*
X0380840Y0022032D01*
X0380996Y0022004D01*
X0381151Y0021973D01*
X0381306Y0021937D01*
X0381459Y0021898D01*
X0381611Y0021855D01*
X0381762Y0021808D01*
X0381912Y0021757D01*
X0382061Y0021702D01*
X0382208Y0021644D01*
X0382354Y0021582D01*
X0382498Y0021517D01*
X0382640Y0021447D01*
X0382781Y0021375D01*
X0382920Y0021298D01*
X0383056Y0021219D01*
X0383191Y0021135D01*
X0383324Y0021049D01*
X0383454Y0020959D01*
X0383582Y0020866D01*
X0383708Y0020770D01*
X0383831Y0020670D01*
X0383952Y0020568D01*
X0384070Y0020463D01*
X0384185Y0020354D01*
X0384298Y0020243D01*
X0384408Y0020129D01*
X0384515Y0020012D01*
X0384619Y0019893D01*
X0384720Y0019771D01*
X0384817Y0019646D01*
X0384912Y0019519D01*
X0385003Y0019390D01*
X0385092Y0019259D01*
X0385176Y0019125D01*
X0385258Y0018989D01*
X0385336Y0018852D01*
X0385410Y0018712D01*
X0385481Y0018570D01*
X0385549Y0018427D01*
X0385613Y0018282D01*
X0385673Y0018136D01*
X0385729Y0017988D01*
X0385782Y0017839D01*
X0385831Y0017688D01*
X0385876Y0017536D01*
X0385917Y0017383D01*
X0385955Y0017230D01*
X0385988Y0017075D01*
X0386018Y0016919D01*
X0386044Y0016763D01*
X0386065Y0016606D01*
X0386083Y0016449D01*
X0386097Y0016291D01*
X0386107Y0016133D01*
X0386113Y0015975D01*
X0386115Y0015817D01*
X0386113Y0015659D01*
X0386107Y0015501D01*
X0386097Y0015343D01*
X0386083Y0015185D01*
X0386065Y0015028D01*
X0386044Y0014871D01*
X0386018Y0014715D01*
X0385988Y0014559D01*
X0385955Y0014404D01*
X0385917Y0014251D01*
X0385876Y0014098D01*
X0385831Y0013946D01*
X0385782Y0013795D01*
X0385729Y0013646D01*
X0385673Y0013498D01*
X0385613Y0013352D01*
X0385549Y0013207D01*
X0385481Y0013064D01*
X0385410Y0012922D01*
X0385336Y0012782D01*
X0385258Y0012645D01*
X0385176Y0012509D01*
X0385092Y0012375D01*
X0385003Y0012244D01*
X0384912Y0012115D01*
X0384817Y0011988D01*
X0384720Y0011863D01*
X0384619Y0011741D01*
X0384515Y0011622D01*
X0384408Y0011505D01*
X0384298Y0011391D01*
X0384185Y0011280D01*
X0384070Y0011171D01*
X0383952Y0011066D01*
X0383831Y0010964D01*
X0383708Y0010864D01*
X0383582Y0010768D01*
X0383454Y0010675D01*
X0383324Y0010585D01*
X0383191Y0010499D01*
X0383056Y0010415D01*
X0382920Y0010336D01*
X0382781Y0010259D01*
X0382640Y0010187D01*
X0382498Y0010117D01*
X0382354Y0010052D01*
X0382208Y0009990D01*
X0382061Y0009932D01*
X0381912Y0009877D01*
X0381762Y0009826D01*
X0381611Y0009779D01*
X0381459Y0009736D01*
X0381306Y0009697D01*
X0381151Y0009661D01*
X0380996Y0009630D01*
X0380840Y0009602D01*
X0380684Y0009578D01*
X0380527Y0009558D01*
X0380369Y0009542D01*
X0380212Y0009530D01*
X0380053Y0009522D01*
X0379895Y0009518D01*
X0379737Y0009518D01*
X0379579Y0009522D01*
X0379420Y0009530D01*
X0379263Y0009542D01*
X0379105Y0009558D01*
X0378948Y0009578D01*
X0378792Y0009602D01*
X0378636Y0009630D01*
X0378481Y0009661D01*
X0378326Y0009697D01*
X0378173Y0009736D01*
X0378021Y0009779D01*
X0377870Y0009826D01*
X0377720Y0009877D01*
X0377571Y0009932D01*
X0377424Y0009990D01*
X0377278Y0010052D01*
X0377134Y0010117D01*
X0376992Y0010187D01*
X0376851Y0010259D01*
X0376712Y0010336D01*
X0376576Y0010415D01*
X0376441Y0010499D01*
X0376308Y0010585D01*
X0376178Y0010675D01*
X0376050Y0010768D01*
X0375924Y0010864D01*
X0375801Y0010964D01*
X0375680Y0011066D01*
X0375562Y0011171D01*
X0375447Y0011280D01*
X0375334Y0011391D01*
X0375224Y0011505D01*
X0375117Y0011622D01*
X0375013Y0011741D01*
X0374912Y0011863D01*
X0374815Y0011988D01*
X0374720Y0012115D01*
X0374629Y0012244D01*
X0374540Y0012375D01*
X0374456Y0012509D01*
X0374374Y0012645D01*
X0374296Y0012782D01*
X0374222Y0012922D01*
X0374151Y0013064D01*
X0374083Y0013207D01*
X0374019Y0013352D01*
X0373959Y0013498D01*
X0373903Y0013646D01*
X0373850Y0013795D01*
X0373801Y0013946D01*
X0373756Y0014098D01*
X0373715Y0014251D01*
X0373677Y0014404D01*
X0373644Y0014559D01*
X0373614Y0014715D01*
X0373588Y0014871D01*
X0373567Y0015028D01*
X0373549Y0015185D01*
X0373535Y0015343D01*
X0373525Y0015501D01*
X0373519Y0015659D01*
X0373517Y0015817D01*
X0231623Y0211287D02*
X0231625Y0211412D01*
X0231631Y0211537D01*
X0231641Y0211661D01*
X0231655Y0211785D01*
X0231672Y0211909D01*
X0231694Y0212032D01*
X0231720Y0212154D01*
X0231749Y0212276D01*
X0231782Y0212396D01*
X0231820Y0212515D01*
X0231860Y0212634D01*
X0231905Y0212750D01*
X0231953Y0212865D01*
X0232005Y0212979D01*
X0232061Y0213091D01*
X0232120Y0213201D01*
X0232182Y0213309D01*
X0232248Y0213416D01*
X0232317Y0213520D01*
X0232390Y0213621D01*
X0232465Y0213721D01*
X0232544Y0213818D01*
X0232626Y0213912D01*
X0232711Y0214004D01*
X0232798Y0214093D01*
X0232889Y0214179D01*
X0232982Y0214262D01*
X0233078Y0214343D01*
X0233176Y0214420D01*
X0233276Y0214494D01*
X0233379Y0214565D01*
X0233484Y0214632D01*
X0233592Y0214697D01*
X0233701Y0214757D01*
X0233812Y0214815D01*
X0233925Y0214868D01*
X0234039Y0214918D01*
X0234155Y0214965D01*
X0234272Y0215007D01*
X0234391Y0215046D01*
X0234511Y0215082D01*
X0234632Y0215113D01*
X0234754Y0215141D01*
X0234876Y0215164D01*
X0235000Y0215184D01*
X0235124Y0215200D01*
X0235248Y0215212D01*
X0235373Y0215220D01*
X0235498Y0215224D01*
X0235622Y0215224D01*
X0235747Y0215220D01*
X0235872Y0215212D01*
X0235996Y0215200D01*
X0236120Y0215184D01*
X0236244Y0215164D01*
X0236366Y0215141D01*
X0236488Y0215113D01*
X0236609Y0215082D01*
X0236729Y0215046D01*
X0236848Y0215007D01*
X0236965Y0214965D01*
X0237081Y0214918D01*
X0237195Y0214868D01*
X0237308Y0214815D01*
X0237419Y0214757D01*
X0237529Y0214697D01*
X0237636Y0214632D01*
X0237741Y0214565D01*
X0237844Y0214494D01*
X0237944Y0214420D01*
X0238042Y0214343D01*
X0238138Y0214262D01*
X0238231Y0214179D01*
X0238322Y0214093D01*
X0238409Y0214004D01*
X0238494Y0213912D01*
X0238576Y0213818D01*
X0238655Y0213721D01*
X0238730Y0213621D01*
X0238803Y0213520D01*
X0238872Y0213416D01*
X0238938Y0213309D01*
X0239000Y0213201D01*
X0239059Y0213091D01*
X0239115Y0212979D01*
X0239167Y0212865D01*
X0239215Y0212750D01*
X0239260Y0212634D01*
X0239300Y0212515D01*
X0239338Y0212396D01*
X0239371Y0212276D01*
X0239400Y0212154D01*
X0239426Y0212032D01*
X0239448Y0211909D01*
X0239465Y0211785D01*
X0239479Y0211661D01*
X0239489Y0211537D01*
X0239495Y0211412D01*
X0239497Y0211287D01*
X0239495Y0211162D01*
X0239489Y0211037D01*
X0239479Y0210913D01*
X0239465Y0210789D01*
X0239448Y0210665D01*
X0239426Y0210542D01*
X0239400Y0210420D01*
X0239371Y0210298D01*
X0239338Y0210178D01*
X0239300Y0210059D01*
X0239260Y0209940D01*
X0239215Y0209824D01*
X0239167Y0209709D01*
X0239115Y0209595D01*
X0239059Y0209483D01*
X0239000Y0209373D01*
X0238938Y0209265D01*
X0238872Y0209158D01*
X0238803Y0209054D01*
X0238730Y0208953D01*
X0238655Y0208853D01*
X0238576Y0208756D01*
X0238494Y0208662D01*
X0238409Y0208570D01*
X0238322Y0208481D01*
X0238231Y0208395D01*
X0238138Y0208312D01*
X0238042Y0208231D01*
X0237944Y0208154D01*
X0237844Y0208080D01*
X0237741Y0208009D01*
X0237636Y0207942D01*
X0237528Y0207877D01*
X0237419Y0207817D01*
X0237308Y0207759D01*
X0237195Y0207706D01*
X0237081Y0207656D01*
X0236965Y0207609D01*
X0236848Y0207567D01*
X0236729Y0207528D01*
X0236609Y0207492D01*
X0236488Y0207461D01*
X0236366Y0207433D01*
X0236244Y0207410D01*
X0236120Y0207390D01*
X0235996Y0207374D01*
X0235872Y0207362D01*
X0235747Y0207354D01*
X0235622Y0207350D01*
X0235498Y0207350D01*
X0235373Y0207354D01*
X0235248Y0207362D01*
X0235124Y0207374D01*
X0235000Y0207390D01*
X0234876Y0207410D01*
X0234754Y0207433D01*
X0234632Y0207461D01*
X0234511Y0207492D01*
X0234391Y0207528D01*
X0234272Y0207567D01*
X0234155Y0207609D01*
X0234039Y0207656D01*
X0233925Y0207706D01*
X0233812Y0207759D01*
X0233701Y0207817D01*
X0233591Y0207877D01*
X0233484Y0207942D01*
X0233379Y0208009D01*
X0233276Y0208080D01*
X0233176Y0208154D01*
X0233078Y0208231D01*
X0232982Y0208312D01*
X0232889Y0208395D01*
X0232798Y0208481D01*
X0232711Y0208570D01*
X0232626Y0208662D01*
X0232544Y0208756D01*
X0232465Y0208853D01*
X0232390Y0208953D01*
X0232317Y0209054D01*
X0232248Y0209158D01*
X0232182Y0209265D01*
X0232120Y0209373D01*
X0232061Y0209483D01*
X0232005Y0209595D01*
X0231953Y0209709D01*
X0231905Y0209824D01*
X0231860Y0209940D01*
X0231820Y0210059D01*
X0231782Y0210178D01*
X0231749Y0210298D01*
X0231720Y0210420D01*
X0231694Y0210542D01*
X0231672Y0210665D01*
X0231655Y0210789D01*
X0231641Y0210913D01*
X0231631Y0211037D01*
X0231625Y0211162D01*
X0231623Y0211287D01*
X0206981Y0234715D02*
X0206983Y0234873D01*
X0206989Y0235031D01*
X0206999Y0235189D01*
X0207013Y0235347D01*
X0207031Y0235504D01*
X0207052Y0235661D01*
X0207078Y0235817D01*
X0207108Y0235973D01*
X0207141Y0236128D01*
X0207179Y0236281D01*
X0207220Y0236434D01*
X0207265Y0236586D01*
X0207314Y0236737D01*
X0207367Y0236886D01*
X0207423Y0237034D01*
X0207483Y0237180D01*
X0207547Y0237325D01*
X0207615Y0237468D01*
X0207686Y0237610D01*
X0207760Y0237750D01*
X0207838Y0237887D01*
X0207920Y0238023D01*
X0208004Y0238157D01*
X0208093Y0238288D01*
X0208184Y0238417D01*
X0208279Y0238544D01*
X0208376Y0238669D01*
X0208477Y0238791D01*
X0208581Y0238910D01*
X0208688Y0239027D01*
X0208798Y0239141D01*
X0208911Y0239252D01*
X0209026Y0239361D01*
X0209144Y0239466D01*
X0209265Y0239568D01*
X0209388Y0239668D01*
X0209514Y0239764D01*
X0209642Y0239857D01*
X0209772Y0239947D01*
X0209905Y0240033D01*
X0210040Y0240117D01*
X0210176Y0240196D01*
X0210315Y0240273D01*
X0210456Y0240345D01*
X0210598Y0240415D01*
X0210742Y0240480D01*
X0210888Y0240542D01*
X0211035Y0240600D01*
X0211184Y0240655D01*
X0211334Y0240706D01*
X0211485Y0240753D01*
X0211637Y0240796D01*
X0211790Y0240835D01*
X0211945Y0240871D01*
X0212100Y0240902D01*
X0212256Y0240930D01*
X0212412Y0240954D01*
X0212569Y0240974D01*
X0212727Y0240990D01*
X0212884Y0241002D01*
X0213043Y0241010D01*
X0213201Y0241014D01*
X0213359Y0241014D01*
X0213517Y0241010D01*
X0213676Y0241002D01*
X0213833Y0240990D01*
X0213991Y0240974D01*
X0214148Y0240954D01*
X0214304Y0240930D01*
X0214460Y0240902D01*
X0214615Y0240871D01*
X0214770Y0240835D01*
X0214923Y0240796D01*
X0215075Y0240753D01*
X0215226Y0240706D01*
X0215376Y0240655D01*
X0215525Y0240600D01*
X0215672Y0240542D01*
X0215818Y0240480D01*
X0215962Y0240415D01*
X0216104Y0240345D01*
X0216245Y0240273D01*
X0216384Y0240196D01*
X0216520Y0240117D01*
X0216655Y0240033D01*
X0216788Y0239947D01*
X0216918Y0239857D01*
X0217046Y0239764D01*
X0217172Y0239668D01*
X0217295Y0239568D01*
X0217416Y0239466D01*
X0217534Y0239361D01*
X0217649Y0239252D01*
X0217762Y0239141D01*
X0217872Y0239027D01*
X0217979Y0238910D01*
X0218083Y0238791D01*
X0218184Y0238669D01*
X0218281Y0238544D01*
X0218376Y0238417D01*
X0218467Y0238288D01*
X0218556Y0238157D01*
X0218640Y0238023D01*
X0218722Y0237887D01*
X0218800Y0237750D01*
X0218874Y0237610D01*
X0218945Y0237468D01*
X0219013Y0237325D01*
X0219077Y0237180D01*
X0219137Y0237034D01*
X0219193Y0236886D01*
X0219246Y0236737D01*
X0219295Y0236586D01*
X0219340Y0236434D01*
X0219381Y0236281D01*
X0219419Y0236128D01*
X0219452Y0235973D01*
X0219482Y0235817D01*
X0219508Y0235661D01*
X0219529Y0235504D01*
X0219547Y0235347D01*
X0219561Y0235189D01*
X0219571Y0235031D01*
X0219577Y0234873D01*
X0219579Y0234715D01*
X0219577Y0234557D01*
X0219571Y0234399D01*
X0219561Y0234241D01*
X0219547Y0234083D01*
X0219529Y0233926D01*
X0219508Y0233769D01*
X0219482Y0233613D01*
X0219452Y0233457D01*
X0219419Y0233302D01*
X0219381Y0233149D01*
X0219340Y0232996D01*
X0219295Y0232844D01*
X0219246Y0232693D01*
X0219193Y0232544D01*
X0219137Y0232396D01*
X0219077Y0232250D01*
X0219013Y0232105D01*
X0218945Y0231962D01*
X0218874Y0231820D01*
X0218800Y0231680D01*
X0218722Y0231543D01*
X0218640Y0231407D01*
X0218556Y0231273D01*
X0218467Y0231142D01*
X0218376Y0231013D01*
X0218281Y0230886D01*
X0218184Y0230761D01*
X0218083Y0230639D01*
X0217979Y0230520D01*
X0217872Y0230403D01*
X0217762Y0230289D01*
X0217649Y0230178D01*
X0217534Y0230069D01*
X0217416Y0229964D01*
X0217295Y0229862D01*
X0217172Y0229762D01*
X0217046Y0229666D01*
X0216918Y0229573D01*
X0216788Y0229483D01*
X0216655Y0229397D01*
X0216520Y0229313D01*
X0216384Y0229234D01*
X0216245Y0229157D01*
X0216104Y0229085D01*
X0215962Y0229015D01*
X0215818Y0228950D01*
X0215672Y0228888D01*
X0215525Y0228830D01*
X0215376Y0228775D01*
X0215226Y0228724D01*
X0215075Y0228677D01*
X0214923Y0228634D01*
X0214770Y0228595D01*
X0214615Y0228559D01*
X0214460Y0228528D01*
X0214304Y0228500D01*
X0214148Y0228476D01*
X0213991Y0228456D01*
X0213833Y0228440D01*
X0213676Y0228428D01*
X0213517Y0228420D01*
X0213359Y0228416D01*
X0213201Y0228416D01*
X0213043Y0228420D01*
X0212884Y0228428D01*
X0212727Y0228440D01*
X0212569Y0228456D01*
X0212412Y0228476D01*
X0212256Y0228500D01*
X0212100Y0228528D01*
X0211945Y0228559D01*
X0211790Y0228595D01*
X0211637Y0228634D01*
X0211485Y0228677D01*
X0211334Y0228724D01*
X0211184Y0228775D01*
X0211035Y0228830D01*
X0210888Y0228888D01*
X0210742Y0228950D01*
X0210598Y0229015D01*
X0210456Y0229085D01*
X0210315Y0229157D01*
X0210176Y0229234D01*
X0210040Y0229313D01*
X0209905Y0229397D01*
X0209772Y0229483D01*
X0209642Y0229573D01*
X0209514Y0229666D01*
X0209388Y0229762D01*
X0209265Y0229862D01*
X0209144Y0229964D01*
X0209026Y0230069D01*
X0208911Y0230178D01*
X0208798Y0230289D01*
X0208688Y0230403D01*
X0208581Y0230520D01*
X0208477Y0230639D01*
X0208376Y0230761D01*
X0208279Y0230886D01*
X0208184Y0231013D01*
X0208093Y0231142D01*
X0208004Y0231273D01*
X0207920Y0231407D01*
X0207838Y0231543D01*
X0207760Y0231680D01*
X0207686Y0231820D01*
X0207615Y0231962D01*
X0207547Y0232105D01*
X0207483Y0232250D01*
X0207423Y0232396D01*
X0207367Y0232544D01*
X0207314Y0232693D01*
X0207265Y0232844D01*
X0207220Y0232996D01*
X0207179Y0233149D01*
X0207141Y0233302D01*
X0207108Y0233457D01*
X0207078Y0233613D01*
X0207052Y0233769D01*
X0207031Y0233926D01*
X0207013Y0234083D01*
X0206999Y0234241D01*
X0206989Y0234399D01*
X0206983Y0234557D01*
X0206981Y0234715D01*
X0149623Y0211287D02*
X0149625Y0211412D01*
X0149631Y0211537D01*
X0149641Y0211661D01*
X0149655Y0211785D01*
X0149672Y0211909D01*
X0149694Y0212032D01*
X0149720Y0212154D01*
X0149749Y0212276D01*
X0149782Y0212396D01*
X0149820Y0212515D01*
X0149860Y0212634D01*
X0149905Y0212750D01*
X0149953Y0212865D01*
X0150005Y0212979D01*
X0150061Y0213091D01*
X0150120Y0213201D01*
X0150182Y0213309D01*
X0150248Y0213416D01*
X0150317Y0213520D01*
X0150390Y0213621D01*
X0150465Y0213721D01*
X0150544Y0213818D01*
X0150626Y0213912D01*
X0150711Y0214004D01*
X0150798Y0214093D01*
X0150889Y0214179D01*
X0150982Y0214262D01*
X0151078Y0214343D01*
X0151176Y0214420D01*
X0151276Y0214494D01*
X0151379Y0214565D01*
X0151484Y0214632D01*
X0151592Y0214697D01*
X0151701Y0214757D01*
X0151812Y0214815D01*
X0151925Y0214868D01*
X0152039Y0214918D01*
X0152155Y0214965D01*
X0152272Y0215007D01*
X0152391Y0215046D01*
X0152511Y0215082D01*
X0152632Y0215113D01*
X0152754Y0215141D01*
X0152876Y0215164D01*
X0153000Y0215184D01*
X0153124Y0215200D01*
X0153248Y0215212D01*
X0153373Y0215220D01*
X0153498Y0215224D01*
X0153622Y0215224D01*
X0153747Y0215220D01*
X0153872Y0215212D01*
X0153996Y0215200D01*
X0154120Y0215184D01*
X0154244Y0215164D01*
X0154366Y0215141D01*
X0154488Y0215113D01*
X0154609Y0215082D01*
X0154729Y0215046D01*
X0154848Y0215007D01*
X0154965Y0214965D01*
X0155081Y0214918D01*
X0155195Y0214868D01*
X0155308Y0214815D01*
X0155419Y0214757D01*
X0155529Y0214697D01*
X0155636Y0214632D01*
X0155741Y0214565D01*
X0155844Y0214494D01*
X0155944Y0214420D01*
X0156042Y0214343D01*
X0156138Y0214262D01*
X0156231Y0214179D01*
X0156322Y0214093D01*
X0156409Y0214004D01*
X0156494Y0213912D01*
X0156576Y0213818D01*
X0156655Y0213721D01*
X0156730Y0213621D01*
X0156803Y0213520D01*
X0156872Y0213416D01*
X0156938Y0213309D01*
X0157000Y0213201D01*
X0157059Y0213091D01*
X0157115Y0212979D01*
X0157167Y0212865D01*
X0157215Y0212750D01*
X0157260Y0212634D01*
X0157300Y0212515D01*
X0157338Y0212396D01*
X0157371Y0212276D01*
X0157400Y0212154D01*
X0157426Y0212032D01*
X0157448Y0211909D01*
X0157465Y0211785D01*
X0157479Y0211661D01*
X0157489Y0211537D01*
X0157495Y0211412D01*
X0157497Y0211287D01*
X0157495Y0211162D01*
X0157489Y0211037D01*
X0157479Y0210913D01*
X0157465Y0210789D01*
X0157448Y0210665D01*
X0157426Y0210542D01*
X0157400Y0210420D01*
X0157371Y0210298D01*
X0157338Y0210178D01*
X0157300Y0210059D01*
X0157260Y0209940D01*
X0157215Y0209824D01*
X0157167Y0209709D01*
X0157115Y0209595D01*
X0157059Y0209483D01*
X0157000Y0209373D01*
X0156938Y0209265D01*
X0156872Y0209158D01*
X0156803Y0209054D01*
X0156730Y0208953D01*
X0156655Y0208853D01*
X0156576Y0208756D01*
X0156494Y0208662D01*
X0156409Y0208570D01*
X0156322Y0208481D01*
X0156231Y0208395D01*
X0156138Y0208312D01*
X0156042Y0208231D01*
X0155944Y0208154D01*
X0155844Y0208080D01*
X0155741Y0208009D01*
X0155636Y0207942D01*
X0155528Y0207877D01*
X0155419Y0207817D01*
X0155308Y0207759D01*
X0155195Y0207706D01*
X0155081Y0207656D01*
X0154965Y0207609D01*
X0154848Y0207567D01*
X0154729Y0207528D01*
X0154609Y0207492D01*
X0154488Y0207461D01*
X0154366Y0207433D01*
X0154244Y0207410D01*
X0154120Y0207390D01*
X0153996Y0207374D01*
X0153872Y0207362D01*
X0153747Y0207354D01*
X0153622Y0207350D01*
X0153498Y0207350D01*
X0153373Y0207354D01*
X0153248Y0207362D01*
X0153124Y0207374D01*
X0153000Y0207390D01*
X0152876Y0207410D01*
X0152754Y0207433D01*
X0152632Y0207461D01*
X0152511Y0207492D01*
X0152391Y0207528D01*
X0152272Y0207567D01*
X0152155Y0207609D01*
X0152039Y0207656D01*
X0151925Y0207706D01*
X0151812Y0207759D01*
X0151701Y0207817D01*
X0151591Y0207877D01*
X0151484Y0207942D01*
X0151379Y0208009D01*
X0151276Y0208080D01*
X0151176Y0208154D01*
X0151078Y0208231D01*
X0150982Y0208312D01*
X0150889Y0208395D01*
X0150798Y0208481D01*
X0150711Y0208570D01*
X0150626Y0208662D01*
X0150544Y0208756D01*
X0150465Y0208853D01*
X0150390Y0208953D01*
X0150317Y0209054D01*
X0150248Y0209158D01*
X0150182Y0209265D01*
X0150120Y0209373D01*
X0150061Y0209483D01*
X0150005Y0209595D01*
X0149953Y0209709D01*
X0149905Y0209824D01*
X0149860Y0209940D01*
X0149820Y0210059D01*
X0149782Y0210178D01*
X0149749Y0210298D01*
X0149720Y0210420D01*
X0149694Y0210542D01*
X0149672Y0210665D01*
X0149655Y0210789D01*
X0149641Y0210913D01*
X0149631Y0211037D01*
X0149625Y0211162D01*
X0149623Y0211287D01*
X0040446Y0234715D02*
X0040448Y0234873D01*
X0040454Y0235031D01*
X0040464Y0235189D01*
X0040478Y0235347D01*
X0040496Y0235504D01*
X0040517Y0235661D01*
X0040543Y0235817D01*
X0040573Y0235973D01*
X0040606Y0236128D01*
X0040644Y0236281D01*
X0040685Y0236434D01*
X0040730Y0236586D01*
X0040779Y0236737D01*
X0040832Y0236886D01*
X0040888Y0237034D01*
X0040948Y0237180D01*
X0041012Y0237325D01*
X0041080Y0237468D01*
X0041151Y0237610D01*
X0041225Y0237750D01*
X0041303Y0237887D01*
X0041385Y0238023D01*
X0041469Y0238157D01*
X0041558Y0238288D01*
X0041649Y0238417D01*
X0041744Y0238544D01*
X0041841Y0238669D01*
X0041942Y0238791D01*
X0042046Y0238910D01*
X0042153Y0239027D01*
X0042263Y0239141D01*
X0042376Y0239252D01*
X0042491Y0239361D01*
X0042609Y0239466D01*
X0042730Y0239568D01*
X0042853Y0239668D01*
X0042979Y0239764D01*
X0043107Y0239857D01*
X0043237Y0239947D01*
X0043370Y0240033D01*
X0043505Y0240117D01*
X0043641Y0240196D01*
X0043780Y0240273D01*
X0043921Y0240345D01*
X0044063Y0240415D01*
X0044207Y0240480D01*
X0044353Y0240542D01*
X0044500Y0240600D01*
X0044649Y0240655D01*
X0044799Y0240706D01*
X0044950Y0240753D01*
X0045102Y0240796D01*
X0045255Y0240835D01*
X0045410Y0240871D01*
X0045565Y0240902D01*
X0045721Y0240930D01*
X0045877Y0240954D01*
X0046034Y0240974D01*
X0046192Y0240990D01*
X0046349Y0241002D01*
X0046508Y0241010D01*
X0046666Y0241014D01*
X0046824Y0241014D01*
X0046982Y0241010D01*
X0047141Y0241002D01*
X0047298Y0240990D01*
X0047456Y0240974D01*
X0047613Y0240954D01*
X0047769Y0240930D01*
X0047925Y0240902D01*
X0048080Y0240871D01*
X0048235Y0240835D01*
X0048388Y0240796D01*
X0048540Y0240753D01*
X0048691Y0240706D01*
X0048841Y0240655D01*
X0048990Y0240600D01*
X0049137Y0240542D01*
X0049283Y0240480D01*
X0049427Y0240415D01*
X0049569Y0240345D01*
X0049710Y0240273D01*
X0049849Y0240196D01*
X0049985Y0240117D01*
X0050120Y0240033D01*
X0050253Y0239947D01*
X0050383Y0239857D01*
X0050511Y0239764D01*
X0050637Y0239668D01*
X0050760Y0239568D01*
X0050881Y0239466D01*
X0050999Y0239361D01*
X0051114Y0239252D01*
X0051227Y0239141D01*
X0051337Y0239027D01*
X0051444Y0238910D01*
X0051548Y0238791D01*
X0051649Y0238669D01*
X0051746Y0238544D01*
X0051841Y0238417D01*
X0051932Y0238288D01*
X0052021Y0238157D01*
X0052105Y0238023D01*
X0052187Y0237887D01*
X0052265Y0237750D01*
X0052339Y0237610D01*
X0052410Y0237468D01*
X0052478Y0237325D01*
X0052542Y0237180D01*
X0052602Y0237034D01*
X0052658Y0236886D01*
X0052711Y0236737D01*
X0052760Y0236586D01*
X0052805Y0236434D01*
X0052846Y0236281D01*
X0052884Y0236128D01*
X0052917Y0235973D01*
X0052947Y0235817D01*
X0052973Y0235661D01*
X0052994Y0235504D01*
X0053012Y0235347D01*
X0053026Y0235189D01*
X0053036Y0235031D01*
X0053042Y0234873D01*
X0053044Y0234715D01*
X0053042Y0234557D01*
X0053036Y0234399D01*
X0053026Y0234241D01*
X0053012Y0234083D01*
X0052994Y0233926D01*
X0052973Y0233769D01*
X0052947Y0233613D01*
X0052917Y0233457D01*
X0052884Y0233302D01*
X0052846Y0233149D01*
X0052805Y0232996D01*
X0052760Y0232844D01*
X0052711Y0232693D01*
X0052658Y0232544D01*
X0052602Y0232396D01*
X0052542Y0232250D01*
X0052478Y0232105D01*
X0052410Y0231962D01*
X0052339Y0231820D01*
X0052265Y0231680D01*
X0052187Y0231543D01*
X0052105Y0231407D01*
X0052021Y0231273D01*
X0051932Y0231142D01*
X0051841Y0231013D01*
X0051746Y0230886D01*
X0051649Y0230761D01*
X0051548Y0230639D01*
X0051444Y0230520D01*
X0051337Y0230403D01*
X0051227Y0230289D01*
X0051114Y0230178D01*
X0050999Y0230069D01*
X0050881Y0229964D01*
X0050760Y0229862D01*
X0050637Y0229762D01*
X0050511Y0229666D01*
X0050383Y0229573D01*
X0050253Y0229483D01*
X0050120Y0229397D01*
X0049985Y0229313D01*
X0049849Y0229234D01*
X0049710Y0229157D01*
X0049569Y0229085D01*
X0049427Y0229015D01*
X0049283Y0228950D01*
X0049137Y0228888D01*
X0048990Y0228830D01*
X0048841Y0228775D01*
X0048691Y0228724D01*
X0048540Y0228677D01*
X0048388Y0228634D01*
X0048235Y0228595D01*
X0048080Y0228559D01*
X0047925Y0228528D01*
X0047769Y0228500D01*
X0047613Y0228476D01*
X0047456Y0228456D01*
X0047298Y0228440D01*
X0047141Y0228428D01*
X0046982Y0228420D01*
X0046824Y0228416D01*
X0046666Y0228416D01*
X0046508Y0228420D01*
X0046349Y0228428D01*
X0046192Y0228440D01*
X0046034Y0228456D01*
X0045877Y0228476D01*
X0045721Y0228500D01*
X0045565Y0228528D01*
X0045410Y0228559D01*
X0045255Y0228595D01*
X0045102Y0228634D01*
X0044950Y0228677D01*
X0044799Y0228724D01*
X0044649Y0228775D01*
X0044500Y0228830D01*
X0044353Y0228888D01*
X0044207Y0228950D01*
X0044063Y0229015D01*
X0043921Y0229085D01*
X0043780Y0229157D01*
X0043641Y0229234D01*
X0043505Y0229313D01*
X0043370Y0229397D01*
X0043237Y0229483D01*
X0043107Y0229573D01*
X0042979Y0229666D01*
X0042853Y0229762D01*
X0042730Y0229862D01*
X0042609Y0229964D01*
X0042491Y0230069D01*
X0042376Y0230178D01*
X0042263Y0230289D01*
X0042153Y0230403D01*
X0042046Y0230520D01*
X0041942Y0230639D01*
X0041841Y0230761D01*
X0041744Y0230886D01*
X0041649Y0231013D01*
X0041558Y0231142D01*
X0041469Y0231273D01*
X0041385Y0231407D01*
X0041303Y0231543D01*
X0041225Y0231680D01*
X0041151Y0231820D01*
X0041080Y0231962D01*
X0041012Y0232105D01*
X0040948Y0232250D01*
X0040888Y0232396D01*
X0040832Y0232544D01*
X0040779Y0232693D01*
X0040730Y0232844D01*
X0040685Y0232996D01*
X0040644Y0233149D01*
X0040606Y0233302D01*
X0040573Y0233457D01*
X0040543Y0233613D01*
X0040517Y0233769D01*
X0040496Y0233926D01*
X0040478Y0234083D01*
X0040464Y0234241D01*
X0040454Y0234399D01*
X0040448Y0234557D01*
X0040446Y0234715D01*
X0373517Y0235108D02*
X0373519Y0235266D01*
X0373525Y0235424D01*
X0373535Y0235582D01*
X0373549Y0235740D01*
X0373567Y0235897D01*
X0373588Y0236054D01*
X0373614Y0236210D01*
X0373644Y0236366D01*
X0373677Y0236521D01*
X0373715Y0236674D01*
X0373756Y0236827D01*
X0373801Y0236979D01*
X0373850Y0237130D01*
X0373903Y0237279D01*
X0373959Y0237427D01*
X0374019Y0237573D01*
X0374083Y0237718D01*
X0374151Y0237861D01*
X0374222Y0238003D01*
X0374296Y0238143D01*
X0374374Y0238280D01*
X0374456Y0238416D01*
X0374540Y0238550D01*
X0374629Y0238681D01*
X0374720Y0238810D01*
X0374815Y0238937D01*
X0374912Y0239062D01*
X0375013Y0239184D01*
X0375117Y0239303D01*
X0375224Y0239420D01*
X0375334Y0239534D01*
X0375447Y0239645D01*
X0375562Y0239754D01*
X0375680Y0239859D01*
X0375801Y0239961D01*
X0375924Y0240061D01*
X0376050Y0240157D01*
X0376178Y0240250D01*
X0376308Y0240340D01*
X0376441Y0240426D01*
X0376576Y0240510D01*
X0376712Y0240589D01*
X0376851Y0240666D01*
X0376992Y0240738D01*
X0377134Y0240808D01*
X0377278Y0240873D01*
X0377424Y0240935D01*
X0377571Y0240993D01*
X0377720Y0241048D01*
X0377870Y0241099D01*
X0378021Y0241146D01*
X0378173Y0241189D01*
X0378326Y0241228D01*
X0378481Y0241264D01*
X0378636Y0241295D01*
X0378792Y0241323D01*
X0378948Y0241347D01*
X0379105Y0241367D01*
X0379263Y0241383D01*
X0379420Y0241395D01*
X0379579Y0241403D01*
X0379737Y0241407D01*
X0379895Y0241407D01*
X0380053Y0241403D01*
X0380212Y0241395D01*
X0380369Y0241383D01*
X0380527Y0241367D01*
X0380684Y0241347D01*
X0380840Y0241323D01*
X0380996Y0241295D01*
X0381151Y0241264D01*
X0381306Y0241228D01*
X0381459Y0241189D01*
X0381611Y0241146D01*
X0381762Y0241099D01*
X0381912Y0241048D01*
X0382061Y0240993D01*
X0382208Y0240935D01*
X0382354Y0240873D01*
X0382498Y0240808D01*
X0382640Y0240738D01*
X0382781Y0240666D01*
X0382920Y0240589D01*
X0383056Y0240510D01*
X0383191Y0240426D01*
X0383324Y0240340D01*
X0383454Y0240250D01*
X0383582Y0240157D01*
X0383708Y0240061D01*
X0383831Y0239961D01*
X0383952Y0239859D01*
X0384070Y0239754D01*
X0384185Y0239645D01*
X0384298Y0239534D01*
X0384408Y0239420D01*
X0384515Y0239303D01*
X0384619Y0239184D01*
X0384720Y0239062D01*
X0384817Y0238937D01*
X0384912Y0238810D01*
X0385003Y0238681D01*
X0385092Y0238550D01*
X0385176Y0238416D01*
X0385258Y0238280D01*
X0385336Y0238143D01*
X0385410Y0238003D01*
X0385481Y0237861D01*
X0385549Y0237718D01*
X0385613Y0237573D01*
X0385673Y0237427D01*
X0385729Y0237279D01*
X0385782Y0237130D01*
X0385831Y0236979D01*
X0385876Y0236827D01*
X0385917Y0236674D01*
X0385955Y0236521D01*
X0385988Y0236366D01*
X0386018Y0236210D01*
X0386044Y0236054D01*
X0386065Y0235897D01*
X0386083Y0235740D01*
X0386097Y0235582D01*
X0386107Y0235424D01*
X0386113Y0235266D01*
X0386115Y0235108D01*
X0386113Y0234950D01*
X0386107Y0234792D01*
X0386097Y0234634D01*
X0386083Y0234476D01*
X0386065Y0234319D01*
X0386044Y0234162D01*
X0386018Y0234006D01*
X0385988Y0233850D01*
X0385955Y0233695D01*
X0385917Y0233542D01*
X0385876Y0233389D01*
X0385831Y0233237D01*
X0385782Y0233086D01*
X0385729Y0232937D01*
X0385673Y0232789D01*
X0385613Y0232643D01*
X0385549Y0232498D01*
X0385481Y0232355D01*
X0385410Y0232213D01*
X0385336Y0232073D01*
X0385258Y0231936D01*
X0385176Y0231800D01*
X0385092Y0231666D01*
X0385003Y0231535D01*
X0384912Y0231406D01*
X0384817Y0231279D01*
X0384720Y0231154D01*
X0384619Y0231032D01*
X0384515Y0230913D01*
X0384408Y0230796D01*
X0384298Y0230682D01*
X0384185Y0230571D01*
X0384070Y0230462D01*
X0383952Y0230357D01*
X0383831Y0230255D01*
X0383708Y0230155D01*
X0383582Y0230059D01*
X0383454Y0229966D01*
X0383324Y0229876D01*
X0383191Y0229790D01*
X0383056Y0229706D01*
X0382920Y0229627D01*
X0382781Y0229550D01*
X0382640Y0229478D01*
X0382498Y0229408D01*
X0382354Y0229343D01*
X0382208Y0229281D01*
X0382061Y0229223D01*
X0381912Y0229168D01*
X0381762Y0229117D01*
X0381611Y0229070D01*
X0381459Y0229027D01*
X0381306Y0228988D01*
X0381151Y0228952D01*
X0380996Y0228921D01*
X0380840Y0228893D01*
X0380684Y0228869D01*
X0380527Y0228849D01*
X0380369Y0228833D01*
X0380212Y0228821D01*
X0380053Y0228813D01*
X0379895Y0228809D01*
X0379737Y0228809D01*
X0379579Y0228813D01*
X0379420Y0228821D01*
X0379263Y0228833D01*
X0379105Y0228849D01*
X0378948Y0228869D01*
X0378792Y0228893D01*
X0378636Y0228921D01*
X0378481Y0228952D01*
X0378326Y0228988D01*
X0378173Y0229027D01*
X0378021Y0229070D01*
X0377870Y0229117D01*
X0377720Y0229168D01*
X0377571Y0229223D01*
X0377424Y0229281D01*
X0377278Y0229343D01*
X0377134Y0229408D01*
X0376992Y0229478D01*
X0376851Y0229550D01*
X0376712Y0229627D01*
X0376576Y0229706D01*
X0376441Y0229790D01*
X0376308Y0229876D01*
X0376178Y0229966D01*
X0376050Y0230059D01*
X0375924Y0230155D01*
X0375801Y0230255D01*
X0375680Y0230357D01*
X0375562Y0230462D01*
X0375447Y0230571D01*
X0375334Y0230682D01*
X0375224Y0230796D01*
X0375117Y0230913D01*
X0375013Y0231032D01*
X0374912Y0231154D01*
X0374815Y0231279D01*
X0374720Y0231406D01*
X0374629Y0231535D01*
X0374540Y0231666D01*
X0374456Y0231800D01*
X0374374Y0231936D01*
X0374296Y0232073D01*
X0374222Y0232213D01*
X0374151Y0232355D01*
X0374083Y0232498D01*
X0374019Y0232643D01*
X0373959Y0232789D01*
X0373903Y0232937D01*
X0373850Y0233086D01*
X0373801Y0233237D01*
X0373756Y0233389D01*
X0373715Y0233542D01*
X0373677Y0233695D01*
X0373644Y0233850D01*
X0373614Y0234006D01*
X0373588Y0234162D01*
X0373567Y0234319D01*
X0373549Y0234476D01*
X0373535Y0234634D01*
X0373525Y0234792D01*
X0373519Y0234950D01*
X0373517Y0235108D01*
M02*
