G75*
%MOIN*%
%OFA0B0*%
%FSLAX25Y25*%
%IPPOS*%
%LPD*%
%AMOC8*
5,1,8,0,0,1.08239X$1,22.5*
%
%ADD10R,0.01300X0.00100*%
%ADD11R,0.01200X0.00100*%
%ADD12R,0.22700X0.00100*%
%ADD13R,0.29600X0.00100*%
%ADD14R,0.08300X0.00100*%
%ADD15R,0.11100X0.00100*%
%ADD16R,0.09300X0.00100*%
%ADD17R,0.07700X0.00100*%
%ADD18R,0.03300X0.00100*%
%ADD19R,0.02700X0.00100*%
%ADD20R,0.02500X0.00100*%
%ADD21R,0.07000X0.00100*%
%ADD22R,0.07400X0.00100*%
%ADD23R,0.02800X0.00100*%
%ADD24R,0.02400X0.00100*%
%ADD25R,0.02100X0.00100*%
%ADD26R,0.01000X0.00100*%
%ADD27R,0.06800X0.00100*%
%ADD28R,0.07300X0.00100*%
%ADD29R,0.02300X0.00100*%
%ADD30R,0.01900X0.00100*%
%ADD31R,0.01800X0.00100*%
%ADD32R,0.00700X0.00100*%
%ADD33R,0.06600X0.00100*%
%ADD34R,0.07100X0.00100*%
%ADD35R,0.01700X0.00100*%
%ADD36R,0.01600X0.00100*%
%ADD37R,0.00600X0.00100*%
%ADD38R,0.06900X0.00100*%
%ADD39R,0.01500X0.00100*%
%ADD40R,0.06500X0.00100*%
%ADD41R,0.03500X0.00100*%
%ADD42R,0.01400X0.00100*%
%ADD43R,0.01100X0.00100*%
%ADD44R,0.00500X0.00100*%
%ADD45R,0.03000X0.00100*%
%ADD46R,0.03400X0.00100*%
%ADD47R,0.00900X0.00100*%
%ADD48R,0.00400X0.00100*%
%ADD49R,0.00800X0.00100*%
%ADD50R,0.02900X0.00100*%
%ADD51R,0.03200X0.00100*%
%ADD52R,0.03100X0.00100*%
%ADD53R,0.00200X0.00100*%
%ADD54R,0.00300X0.00100*%
%ADD55R,0.06400X0.00100*%
%ADD56R,0.07900X0.00100*%
%ADD57R,0.08000X0.00100*%
%ADD58R,0.02200X0.00100*%
%ADD59R,0.00100X0.00100*%
%ADD60R,0.09200X0.00100*%
%ADD61R,0.08500X0.00100*%
%ADD62R,0.08400X0.00100*%
%ADD63R,0.08200X0.00100*%
%ADD64R,0.08100X0.00100*%
%ADD65R,0.04500X0.00100*%
%ADD66R,0.04400X0.00100*%
%ADD67R,0.04300X0.00100*%
%ADD68R,0.07800X0.00100*%
%ADD69R,0.02000X0.00100*%
%ADD70R,0.07200X0.00100*%
%ADD71R,0.02600X0.00100*%
%ADD72R,0.14600X0.00100*%
%ADD73R,0.07500X0.00100*%
%ADD74R,0.07600X0.00100*%
%ADD75R,0.04700X0.00100*%
%ADD76R,0.04900X0.00100*%
%ADD77R,0.05000X0.00100*%
%ADD78R,0.05100X0.00100*%
%ADD79R,0.11200X0.00100*%
%ADD80R,0.05300X0.00100*%
%ADD81R,0.05500X0.00100*%
%ADD82R,0.11300X0.00100*%
%ADD83R,0.05700X0.00100*%
%ADD84R,0.11400X0.00100*%
%ADD85R,0.05900X0.00100*%
%ADD86R,0.11500X0.00100*%
%ADD87R,0.06300X0.00100*%
%ADD88R,0.03800X0.00100*%
%ADD89R,0.11700X0.00100*%
%ADD90R,0.16100X0.00100*%
%ADD91R,0.19500X0.00100*%
%ADD92R,0.09100X0.00100*%
%ADD93R,0.19300X0.00100*%
%ADD94R,0.09000X0.00100*%
%ADD95R,0.19200X0.00100*%
%ADD96R,0.08900X0.00100*%
%ADD97R,0.19100X0.00100*%
%ADD98R,0.08800X0.00100*%
%ADD99R,0.19000X0.00100*%
%ADD100R,0.08700X0.00100*%
%ADD101R,0.18900X0.00100*%
%ADD102R,0.18800X0.00100*%
%ADD103R,0.08600X0.00100*%
%ADD104R,0.18700X0.00100*%
%ADD105R,0.18600X0.00100*%
%ADD106R,0.11800X0.00100*%
%ADD107R,0.05200X0.00100*%
%ADD108R,0.10800X0.00100*%
%ADD109R,0.10700X0.00100*%
%ADD110R,0.10600X0.00100*%
%ADD111R,0.10500X0.00100*%
%ADD112R,0.09500X0.00100*%
%ADD113R,0.10300X0.00100*%
%ADD114R,0.10100X0.00100*%
%ADD115R,0.10400X0.00100*%
%ADD116R,0.10000X0.00100*%
%ADD117R,0.06200X0.00100*%
%ADD118R,0.06100X0.00100*%
%ADD119R,0.09900X0.00100*%
%ADD120R,0.09800X0.00100*%
%ADD121R,0.09700X0.00100*%
%ADD122R,0.09600X0.00100*%
%ADD123R,0.05600X0.00100*%
%ADD124R,0.06000X0.00100*%
%ADD125R,0.03900X0.00100*%
D10*
G36*
X0090082Y0174940D02*
X0088803Y0174715D01*
X0088786Y0174814D01*
X0090065Y0175039D01*
X0090082Y0174940D01*
G37*
G36*
X0090065Y0175039D02*
X0088786Y0174814D01*
X0088769Y0174913D01*
X0090048Y0175138D01*
X0090065Y0175039D01*
G37*
G36*
X0090047Y0175137D02*
X0088768Y0174912D01*
X0088751Y0175011D01*
X0090030Y0175236D01*
X0090047Y0175137D01*
G37*
G36*
X0090030Y0175236D02*
X0088751Y0175011D01*
X0088734Y0175110D01*
X0090013Y0175335D01*
X0090030Y0175236D01*
G37*
G36*
X0090013Y0175334D02*
X0088734Y0175109D01*
X0088717Y0175208D01*
X0089996Y0175433D01*
X0090013Y0175334D01*
G37*
G36*
X0089995Y0175433D02*
X0088716Y0175208D01*
X0088699Y0175307D01*
X0089978Y0175532D01*
X0089995Y0175433D01*
G37*
G36*
X0089978Y0175531D02*
X0088699Y0175306D01*
X0088682Y0175405D01*
X0089961Y0175630D01*
X0089978Y0175531D01*
G37*
G36*
X0089961Y0175630D02*
X0088682Y0175405D01*
X0088665Y0175504D01*
X0089944Y0175729D01*
X0089961Y0175630D01*
G37*
G36*
X0089943Y0175728D02*
X0088664Y0175503D01*
X0088647Y0175602D01*
X0089926Y0175827D01*
X0089943Y0175728D01*
G37*
G36*
X0089926Y0175827D02*
X0088647Y0175602D01*
X0088630Y0175701D01*
X0089909Y0175926D01*
X0089926Y0175827D01*
G37*
G36*
X0089908Y0175925D02*
X0088629Y0175700D01*
X0088612Y0175799D01*
X0089891Y0176024D01*
X0089908Y0175925D01*
G37*
G36*
X0089891Y0176024D02*
X0088612Y0175799D01*
X0088595Y0175898D01*
X0089874Y0176123D01*
X0089891Y0176024D01*
G37*
G36*
X0089874Y0176122D02*
X0088595Y0175897D01*
X0088578Y0175996D01*
X0089857Y0176221D01*
X0089874Y0176122D01*
G37*
G36*
X0089856Y0176221D02*
X0088577Y0175996D01*
X0088560Y0176095D01*
X0089839Y0176320D01*
X0089856Y0176221D01*
G37*
G36*
X0089839Y0176319D02*
X0088560Y0176094D01*
X0088543Y0176193D01*
X0089822Y0176418D01*
X0089839Y0176319D01*
G37*
G36*
X0089822Y0176418D02*
X0088543Y0176193D01*
X0088526Y0176292D01*
X0089805Y0176517D01*
X0089822Y0176418D01*
G37*
G36*
X0089804Y0176516D02*
X0088525Y0176291D01*
X0088508Y0176390D01*
X0089787Y0176615D01*
X0089804Y0176516D01*
G37*
G36*
X0089787Y0176614D02*
X0088508Y0176389D01*
X0088491Y0176488D01*
X0089770Y0176713D01*
X0089787Y0176614D01*
G37*
G36*
X0089770Y0176713D02*
X0088491Y0176488D01*
X0088474Y0176587D01*
X0089753Y0176812D01*
X0089770Y0176713D01*
G37*
G36*
X0089752Y0176811D02*
X0088473Y0176586D01*
X0088456Y0176685D01*
X0089735Y0176910D01*
X0089752Y0176811D01*
G37*
G36*
X0089735Y0176910D02*
X0088456Y0176685D01*
X0088439Y0176784D01*
X0089718Y0177009D01*
X0089735Y0176910D01*
G37*
G36*
X0089717Y0177008D02*
X0088438Y0176783D01*
X0088421Y0176882D01*
X0089700Y0177107D01*
X0089717Y0177008D01*
G37*
G36*
X0089700Y0177107D02*
X0088421Y0176882D01*
X0088404Y0176981D01*
X0089683Y0177206D01*
X0089700Y0177107D01*
G37*
G36*
X0089683Y0177205D02*
X0088404Y0176980D01*
X0088387Y0177079D01*
X0089666Y0177304D01*
X0089683Y0177205D01*
G37*
G36*
X0089665Y0177304D02*
X0088386Y0177079D01*
X0088369Y0177178D01*
X0089648Y0177403D01*
X0089665Y0177304D01*
G37*
G36*
X0089648Y0177402D02*
X0088369Y0177177D01*
X0088352Y0177276D01*
X0089631Y0177501D01*
X0089648Y0177402D01*
G37*
G36*
X0089631Y0177501D02*
X0088352Y0177276D01*
X0088335Y0177375D01*
X0089614Y0177600D01*
X0089631Y0177501D01*
G37*
G36*
X0089613Y0177599D02*
X0088334Y0177374D01*
X0088317Y0177473D01*
X0089596Y0177698D01*
X0089613Y0177599D01*
G37*
G36*
X0089596Y0177698D02*
X0088317Y0177473D01*
X0088300Y0177572D01*
X0089579Y0177797D01*
X0089596Y0177698D01*
G37*
G36*
X0089579Y0177796D02*
X0088300Y0177571D01*
X0088283Y0177670D01*
X0089562Y0177895D01*
X0089579Y0177796D01*
G37*
G36*
X0089561Y0177895D02*
X0088282Y0177670D01*
X0088265Y0177769D01*
X0089544Y0177994D01*
X0089561Y0177895D01*
G37*
G36*
X0089544Y0177993D02*
X0088265Y0177768D01*
X0088248Y0177867D01*
X0089527Y0178092D01*
X0089544Y0177993D01*
G37*
G36*
X0089526Y0178092D02*
X0088247Y0177867D01*
X0088230Y0177966D01*
X0089509Y0178191D01*
X0089526Y0178092D01*
G37*
G36*
X0089509Y0178190D02*
X0088230Y0177965D01*
X0088213Y0178064D01*
X0089492Y0178289D01*
X0089509Y0178190D01*
G37*
G36*
X0093761Y0178838D02*
X0092482Y0178613D01*
X0092465Y0178712D01*
X0093744Y0178937D01*
X0093761Y0178838D01*
G37*
G36*
X0093778Y0178740D02*
X0092499Y0178515D01*
X0092482Y0178614D01*
X0093761Y0178839D01*
X0093778Y0178740D01*
G37*
G36*
X0093796Y0178641D02*
X0092517Y0178416D01*
X0092500Y0178515D01*
X0093779Y0178740D01*
X0093796Y0178641D01*
G37*
G36*
X0093813Y0178543D02*
X0092534Y0178318D01*
X0092517Y0178417D01*
X0093796Y0178642D01*
X0093813Y0178543D01*
G37*
G36*
X0093831Y0178444D02*
X0092552Y0178219D01*
X0092535Y0178318D01*
X0093814Y0178543D01*
X0093831Y0178444D01*
G37*
G36*
X0093848Y0178346D02*
X0092569Y0178121D01*
X0092552Y0178220D01*
X0093831Y0178445D01*
X0093848Y0178346D01*
G37*
G36*
X0093865Y0178247D02*
X0092586Y0178022D01*
X0092569Y0178121D01*
X0093848Y0178346D01*
X0093865Y0178247D01*
G37*
G36*
X0093883Y0178149D02*
X0092604Y0177924D01*
X0092587Y0178023D01*
X0093866Y0178248D01*
X0093883Y0178149D01*
G37*
G36*
X0093900Y0178051D02*
X0092621Y0177826D01*
X0092604Y0177925D01*
X0093883Y0178150D01*
X0093900Y0178051D01*
G37*
G36*
X0093917Y0177952D02*
X0092638Y0177727D01*
X0092621Y0177826D01*
X0093900Y0178051D01*
X0093917Y0177952D01*
G37*
G36*
X0093935Y0177854D02*
X0092656Y0177629D01*
X0092639Y0177728D01*
X0093918Y0177953D01*
X0093935Y0177854D01*
G37*
G36*
X0093952Y0177755D02*
X0092673Y0177530D01*
X0092656Y0177629D01*
X0093935Y0177854D01*
X0093952Y0177755D01*
G37*
G36*
X0093970Y0177657D02*
X0092691Y0177432D01*
X0092674Y0177531D01*
X0093953Y0177756D01*
X0093970Y0177657D01*
G37*
G36*
X0093987Y0177558D02*
X0092708Y0177333D01*
X0092691Y0177432D01*
X0093970Y0177657D01*
X0093987Y0177558D01*
G37*
G36*
X0094004Y0177460D02*
X0092725Y0177235D01*
X0092708Y0177334D01*
X0093987Y0177559D01*
X0094004Y0177460D01*
G37*
G36*
X0094022Y0177361D02*
X0092743Y0177136D01*
X0092726Y0177235D01*
X0094005Y0177460D01*
X0094022Y0177361D01*
G37*
G36*
X0094039Y0177263D02*
X0092760Y0177038D01*
X0092743Y0177137D01*
X0094022Y0177362D01*
X0094039Y0177263D01*
G37*
G36*
X0094056Y0177164D02*
X0092777Y0176939D01*
X0092760Y0177038D01*
X0094039Y0177263D01*
X0094056Y0177164D01*
G37*
G36*
X0094074Y0177066D02*
X0092795Y0176841D01*
X0092778Y0176940D01*
X0094057Y0177165D01*
X0094074Y0177066D01*
G37*
G36*
X0094091Y0176967D02*
X0092812Y0176742D01*
X0092795Y0176841D01*
X0094074Y0177066D01*
X0094091Y0176967D01*
G37*
G36*
X0094108Y0176869D02*
X0092829Y0176644D01*
X0092812Y0176743D01*
X0094091Y0176968D01*
X0094108Y0176869D01*
G37*
G36*
X0094126Y0176770D02*
X0092847Y0176545D01*
X0092830Y0176644D01*
X0094109Y0176869D01*
X0094126Y0176770D01*
G37*
G36*
X0094143Y0176672D02*
X0092864Y0176447D01*
X0092847Y0176546D01*
X0094126Y0176771D01*
X0094143Y0176672D01*
G37*
G36*
X0094161Y0176573D02*
X0092882Y0176348D01*
X0092865Y0176447D01*
X0094144Y0176672D01*
X0094161Y0176573D01*
G37*
G36*
X0094178Y0176475D02*
X0092899Y0176250D01*
X0092882Y0176349D01*
X0094161Y0176574D01*
X0094178Y0176475D01*
G37*
G36*
X0094195Y0176376D02*
X0092916Y0176151D01*
X0092899Y0176250D01*
X0094178Y0176475D01*
X0094195Y0176376D01*
G37*
G36*
X0094213Y0176278D02*
X0092934Y0176053D01*
X0092917Y0176152D01*
X0094196Y0176377D01*
X0094213Y0176278D01*
G37*
G36*
X0094230Y0176179D02*
X0092951Y0175954D01*
X0092934Y0176053D01*
X0094213Y0176278D01*
X0094230Y0176179D01*
G37*
G36*
X0094247Y0176081D02*
X0092968Y0175856D01*
X0092951Y0175955D01*
X0094230Y0176180D01*
X0094247Y0176081D01*
G37*
G36*
X0094265Y0175982D02*
X0092986Y0175757D01*
X0092969Y0175856D01*
X0094248Y0176081D01*
X0094265Y0175982D01*
G37*
G36*
X0094282Y0175884D02*
X0093003Y0175659D01*
X0092986Y0175758D01*
X0094265Y0175983D01*
X0094282Y0175884D01*
G37*
G36*
X0094299Y0175785D02*
X0093020Y0175560D01*
X0093003Y0175659D01*
X0094282Y0175884D01*
X0094299Y0175785D01*
G37*
G36*
X0094317Y0175687D02*
X0093038Y0175462D01*
X0093021Y0175561D01*
X0094300Y0175786D01*
X0094317Y0175687D01*
G37*
G36*
X0096385Y0176052D02*
X0095106Y0175827D01*
X0095089Y0175926D01*
X0096368Y0176151D01*
X0096385Y0176052D01*
G37*
G36*
X0096368Y0176150D02*
X0095089Y0175925D01*
X0095072Y0176024D01*
X0096351Y0176249D01*
X0096368Y0176150D01*
G37*
G36*
X0096350Y0176249D02*
X0095071Y0176024D01*
X0095054Y0176123D01*
X0096333Y0176348D01*
X0096350Y0176249D01*
G37*
G36*
X0096333Y0176347D02*
X0095054Y0176122D01*
X0095037Y0176221D01*
X0096316Y0176446D01*
X0096333Y0176347D01*
G37*
G36*
X0096315Y0176446D02*
X0095036Y0176221D01*
X0095019Y0176320D01*
X0096298Y0176545D01*
X0096315Y0176446D01*
G37*
G36*
X0096298Y0176544D02*
X0095019Y0176319D01*
X0095002Y0176418D01*
X0096281Y0176643D01*
X0096298Y0176544D01*
G37*
G36*
X0096281Y0176643D02*
X0095002Y0176418D01*
X0094985Y0176517D01*
X0096264Y0176742D01*
X0096281Y0176643D01*
G37*
G36*
X0096263Y0176741D02*
X0094984Y0176516D01*
X0094967Y0176615D01*
X0096246Y0176840D01*
X0096263Y0176741D01*
G37*
G36*
X0096246Y0176839D02*
X0094967Y0176614D01*
X0094950Y0176713D01*
X0096229Y0176938D01*
X0096246Y0176839D01*
G37*
G36*
X0096229Y0176938D02*
X0094950Y0176713D01*
X0094933Y0176812D01*
X0096212Y0177037D01*
X0096229Y0176938D01*
G37*
G36*
X0096211Y0177036D02*
X0094932Y0176811D01*
X0094915Y0176910D01*
X0096194Y0177135D01*
X0096211Y0177036D01*
G37*
G36*
X0096194Y0177135D02*
X0094915Y0176910D01*
X0094898Y0177009D01*
X0096177Y0177234D01*
X0096194Y0177135D01*
G37*
G36*
X0096177Y0177233D02*
X0094898Y0177008D01*
X0094881Y0177107D01*
X0096160Y0177332D01*
X0096177Y0177233D01*
G37*
G36*
X0096159Y0177332D02*
X0094880Y0177107D01*
X0094863Y0177206D01*
X0096142Y0177431D01*
X0096159Y0177332D01*
G37*
G36*
X0096142Y0177430D02*
X0094863Y0177205D01*
X0094846Y0177304D01*
X0096125Y0177529D01*
X0096142Y0177430D01*
G37*
G36*
X0096124Y0177529D02*
X0094845Y0177304D01*
X0094828Y0177403D01*
X0096107Y0177628D01*
X0096124Y0177529D01*
G37*
G36*
X0096107Y0177627D02*
X0094828Y0177402D01*
X0094811Y0177501D01*
X0096090Y0177726D01*
X0096107Y0177627D01*
G37*
G36*
X0096090Y0177726D02*
X0094811Y0177501D01*
X0094794Y0177600D01*
X0096073Y0177825D01*
X0096090Y0177726D01*
G37*
G36*
X0096072Y0177824D02*
X0094793Y0177599D01*
X0094776Y0177698D01*
X0096055Y0177923D01*
X0096072Y0177824D01*
G37*
G36*
X0096055Y0177923D02*
X0094776Y0177698D01*
X0094759Y0177797D01*
X0096038Y0178022D01*
X0096055Y0177923D01*
G37*
G36*
X0096038Y0178021D02*
X0094759Y0177796D01*
X0094742Y0177895D01*
X0096021Y0178120D01*
X0096038Y0178021D01*
G37*
G36*
X0096020Y0178120D02*
X0094741Y0177895D01*
X0094724Y0177994D01*
X0096003Y0178219D01*
X0096020Y0178120D01*
G37*
G36*
X0096003Y0178218D02*
X0094724Y0177993D01*
X0094707Y0178092D01*
X0095986Y0178317D01*
X0096003Y0178218D01*
G37*
G36*
X0095986Y0178317D02*
X0094707Y0178092D01*
X0094690Y0178191D01*
X0095969Y0178416D01*
X0095986Y0178317D01*
G37*
G36*
X0095968Y0178415D02*
X0094689Y0178190D01*
X0094672Y0178289D01*
X0095951Y0178514D01*
X0095968Y0178415D01*
G37*
G36*
X0095951Y0178514D02*
X0094672Y0178289D01*
X0094655Y0178388D01*
X0095934Y0178613D01*
X0095951Y0178514D01*
G37*
G36*
X0095933Y0178612D02*
X0094654Y0178387D01*
X0094637Y0178486D01*
X0095916Y0178711D01*
X0095933Y0178612D01*
G37*
G36*
X0095916Y0178711D02*
X0094637Y0178486D01*
X0094620Y0178585D01*
X0095899Y0178810D01*
X0095916Y0178711D01*
G37*
G36*
X0095899Y0178809D02*
X0094620Y0178584D01*
X0094603Y0178683D01*
X0095882Y0178908D01*
X0095899Y0178809D01*
G37*
G36*
X0095881Y0178908D02*
X0094602Y0178683D01*
X0094585Y0178782D01*
X0095864Y0179007D01*
X0095881Y0178908D01*
G37*
G36*
X0095864Y0179006D02*
X0094585Y0178781D01*
X0094568Y0178880D01*
X0095847Y0179105D01*
X0095864Y0179006D01*
G37*
G36*
X0095847Y0179105D02*
X0094568Y0178880D01*
X0094551Y0178979D01*
X0095830Y0179204D01*
X0095847Y0179105D01*
G37*
G36*
X0095829Y0179203D02*
X0094550Y0178978D01*
X0094533Y0179077D01*
X0095812Y0179302D01*
X0095829Y0179203D01*
G37*
G36*
X0095812Y0179302D02*
X0094533Y0179077D01*
X0094516Y0179176D01*
X0095795Y0179401D01*
X0095812Y0179302D01*
G37*
G36*
X0097996Y0179585D02*
X0096717Y0179360D01*
X0096700Y0179459D01*
X0097979Y0179684D01*
X0097996Y0179585D01*
G37*
G36*
X0098013Y0179487D02*
X0096734Y0179262D01*
X0096717Y0179361D01*
X0097996Y0179586D01*
X0098013Y0179487D01*
G37*
G36*
X0098031Y0179388D02*
X0096752Y0179163D01*
X0096735Y0179262D01*
X0098014Y0179487D01*
X0098031Y0179388D01*
G37*
G36*
X0098048Y0179290D02*
X0096769Y0179065D01*
X0096752Y0179164D01*
X0098031Y0179389D01*
X0098048Y0179290D01*
G37*
G36*
X0098065Y0179191D02*
X0096786Y0178966D01*
X0096769Y0179065D01*
X0098048Y0179290D01*
X0098065Y0179191D01*
G37*
G36*
X0098083Y0179093D02*
X0096804Y0178868D01*
X0096787Y0178967D01*
X0098066Y0179192D01*
X0098083Y0179093D01*
G37*
G36*
X0098100Y0178994D02*
X0096821Y0178769D01*
X0096804Y0178868D01*
X0098083Y0179093D01*
X0098100Y0178994D01*
G37*
G36*
X0098117Y0178896D02*
X0096838Y0178671D01*
X0096821Y0178770D01*
X0098100Y0178995D01*
X0098117Y0178896D01*
G37*
G36*
X0098135Y0178797D02*
X0096856Y0178572D01*
X0096839Y0178671D01*
X0098118Y0178896D01*
X0098135Y0178797D01*
G37*
G36*
X0098152Y0178699D02*
X0096873Y0178474D01*
X0096856Y0178573D01*
X0098135Y0178798D01*
X0098152Y0178699D01*
G37*
G36*
X0098169Y0178600D02*
X0096890Y0178375D01*
X0096873Y0178474D01*
X0098152Y0178699D01*
X0098169Y0178600D01*
G37*
G36*
X0098187Y0178502D02*
X0096908Y0178277D01*
X0096891Y0178376D01*
X0098170Y0178601D01*
X0098187Y0178502D01*
G37*
G36*
X0098204Y0178403D02*
X0096925Y0178178D01*
X0096908Y0178277D01*
X0098187Y0178502D01*
X0098204Y0178403D01*
G37*
G36*
X0098222Y0178305D02*
X0096943Y0178080D01*
X0096926Y0178179D01*
X0098205Y0178404D01*
X0098222Y0178305D01*
G37*
G36*
X0098239Y0178206D02*
X0096960Y0177981D01*
X0096943Y0178080D01*
X0098222Y0178305D01*
X0098239Y0178206D01*
G37*
G36*
X0098256Y0178108D02*
X0096977Y0177883D01*
X0096960Y0177982D01*
X0098239Y0178207D01*
X0098256Y0178108D01*
G37*
G36*
X0098274Y0178009D02*
X0096995Y0177784D01*
X0096978Y0177883D01*
X0098257Y0178108D01*
X0098274Y0178009D01*
G37*
G36*
X0098291Y0177911D02*
X0097012Y0177686D01*
X0096995Y0177785D01*
X0098274Y0178010D01*
X0098291Y0177911D01*
G37*
G36*
X0098308Y0177812D02*
X0097029Y0177587D01*
X0097012Y0177686D01*
X0098291Y0177911D01*
X0098308Y0177812D01*
G37*
G36*
X0098326Y0177714D02*
X0097047Y0177489D01*
X0097030Y0177588D01*
X0098309Y0177813D01*
X0098326Y0177714D01*
G37*
G36*
X0098343Y0177615D02*
X0097064Y0177390D01*
X0097047Y0177489D01*
X0098326Y0177714D01*
X0098343Y0177615D01*
G37*
G36*
X0098360Y0177517D02*
X0097081Y0177292D01*
X0097064Y0177391D01*
X0098343Y0177616D01*
X0098360Y0177517D01*
G37*
G36*
X0098378Y0177418D02*
X0097099Y0177193D01*
X0097082Y0177292D01*
X0098361Y0177517D01*
X0098378Y0177418D01*
G37*
G36*
X0098395Y0177320D02*
X0097116Y0177095D01*
X0097099Y0177194D01*
X0098378Y0177419D01*
X0098395Y0177320D01*
G37*
G36*
X0098413Y0177222D02*
X0097134Y0176997D01*
X0097117Y0177096D01*
X0098396Y0177321D01*
X0098413Y0177222D01*
G37*
G36*
X0098430Y0177123D02*
X0097151Y0176898D01*
X0097134Y0176997D01*
X0098413Y0177222D01*
X0098430Y0177123D01*
G37*
G36*
X0098447Y0177025D02*
X0097168Y0176800D01*
X0097151Y0176899D01*
X0098430Y0177124D01*
X0098447Y0177025D01*
G37*
G36*
X0098465Y0176926D02*
X0097186Y0176701D01*
X0097169Y0176800D01*
X0098448Y0177025D01*
X0098465Y0176926D01*
G37*
G36*
X0098482Y0176828D02*
X0097203Y0176603D01*
X0097186Y0176702D01*
X0098465Y0176927D01*
X0098482Y0176828D01*
G37*
G36*
X0098499Y0176729D02*
X0097220Y0176504D01*
X0097203Y0176603D01*
X0098482Y0176828D01*
X0098499Y0176729D01*
G37*
G36*
X0098517Y0176631D02*
X0097238Y0176406D01*
X0097221Y0176505D01*
X0098500Y0176730D01*
X0098517Y0176631D01*
G37*
G36*
X0098534Y0176532D02*
X0097255Y0176307D01*
X0097238Y0176406D01*
X0098517Y0176631D01*
X0098534Y0176532D01*
G37*
G36*
X0098551Y0176434D02*
X0097272Y0176209D01*
X0097255Y0176308D01*
X0098534Y0176533D01*
X0098551Y0176434D01*
G37*
G36*
X0100620Y0176798D02*
X0099341Y0176573D01*
X0099324Y0176672D01*
X0100603Y0176897D01*
X0100620Y0176798D01*
G37*
G36*
X0100602Y0176897D02*
X0099323Y0176672D01*
X0099306Y0176771D01*
X0100585Y0176996D01*
X0100602Y0176897D01*
G37*
G36*
X0100585Y0176995D02*
X0099306Y0176770D01*
X0099289Y0176869D01*
X0100568Y0177094D01*
X0100585Y0176995D01*
G37*
G36*
X0100567Y0177094D02*
X0099288Y0176869D01*
X0099271Y0176968D01*
X0100550Y0177193D01*
X0100567Y0177094D01*
G37*
G36*
X0100550Y0177192D02*
X0099271Y0176967D01*
X0099254Y0177066D01*
X0100533Y0177291D01*
X0100550Y0177192D01*
G37*
G36*
X0100533Y0177291D02*
X0099254Y0177066D01*
X0099237Y0177165D01*
X0100516Y0177390D01*
X0100533Y0177291D01*
G37*
G36*
X0100515Y0177389D02*
X0099236Y0177164D01*
X0099219Y0177263D01*
X0100498Y0177488D01*
X0100515Y0177389D01*
G37*
G36*
X0100498Y0177488D02*
X0099219Y0177263D01*
X0099202Y0177362D01*
X0100481Y0177587D01*
X0100498Y0177488D01*
G37*
G36*
X0100481Y0177586D02*
X0099202Y0177361D01*
X0099185Y0177460D01*
X0100464Y0177685D01*
X0100481Y0177586D01*
G37*
G36*
X0100463Y0177685D02*
X0099184Y0177460D01*
X0099167Y0177559D01*
X0100446Y0177784D01*
X0100463Y0177685D01*
G37*
G36*
X0100446Y0177783D02*
X0099167Y0177558D01*
X0099150Y0177657D01*
X0100429Y0177882D01*
X0100446Y0177783D01*
G37*
G36*
X0100429Y0177882D02*
X0099150Y0177657D01*
X0099133Y0177756D01*
X0100412Y0177981D01*
X0100429Y0177882D01*
G37*
G36*
X0100411Y0177980D02*
X0099132Y0177755D01*
X0099115Y0177854D01*
X0100394Y0178079D01*
X0100411Y0177980D01*
G37*
G36*
X0100394Y0178079D02*
X0099115Y0177854D01*
X0099098Y0177953D01*
X0100377Y0178178D01*
X0100394Y0178079D01*
G37*
G36*
X0100376Y0178177D02*
X0099097Y0177952D01*
X0099080Y0178051D01*
X0100359Y0178276D01*
X0100376Y0178177D01*
G37*
G36*
X0100359Y0178276D02*
X0099080Y0178051D01*
X0099063Y0178150D01*
X0100342Y0178375D01*
X0100359Y0178276D01*
G37*
G36*
X0100342Y0178374D02*
X0099063Y0178149D01*
X0099046Y0178248D01*
X0100325Y0178473D01*
X0100342Y0178374D01*
G37*
G36*
X0100324Y0178473D02*
X0099045Y0178248D01*
X0099028Y0178347D01*
X0100307Y0178572D01*
X0100324Y0178473D01*
G37*
G36*
X0100307Y0178571D02*
X0099028Y0178346D01*
X0099011Y0178445D01*
X0100290Y0178670D01*
X0100307Y0178571D01*
G37*
G36*
X0100290Y0178669D02*
X0099011Y0178444D01*
X0098994Y0178543D01*
X0100273Y0178768D01*
X0100290Y0178669D01*
G37*
G36*
X0100272Y0178768D02*
X0098993Y0178543D01*
X0098976Y0178642D01*
X0100255Y0178867D01*
X0100272Y0178768D01*
G37*
G36*
X0100255Y0178866D02*
X0098976Y0178641D01*
X0098959Y0178740D01*
X0100238Y0178965D01*
X0100255Y0178866D01*
G37*
G36*
X0100238Y0178965D02*
X0098959Y0178740D01*
X0098942Y0178839D01*
X0100221Y0179064D01*
X0100238Y0178965D01*
G37*
G36*
X0100220Y0179063D02*
X0098941Y0178838D01*
X0098924Y0178937D01*
X0100203Y0179162D01*
X0100220Y0179063D01*
G37*
G36*
X0100203Y0179162D02*
X0098924Y0178937D01*
X0098907Y0179036D01*
X0100186Y0179261D01*
X0100203Y0179162D01*
G37*
G36*
X0100185Y0179260D02*
X0098906Y0179035D01*
X0098889Y0179134D01*
X0100168Y0179359D01*
X0100185Y0179260D01*
G37*
G36*
X0100168Y0179359D02*
X0098889Y0179134D01*
X0098872Y0179233D01*
X0100151Y0179458D01*
X0100168Y0179359D01*
G37*
G36*
X0100151Y0179457D02*
X0098872Y0179232D01*
X0098855Y0179331D01*
X0100134Y0179556D01*
X0100151Y0179457D01*
G37*
G36*
X0100133Y0179556D02*
X0098854Y0179331D01*
X0098837Y0179430D01*
X0100116Y0179655D01*
X0100133Y0179556D01*
G37*
G36*
X0100116Y0179654D02*
X0098837Y0179429D01*
X0098820Y0179528D01*
X0100099Y0179753D01*
X0100116Y0179654D01*
G37*
G36*
X0100099Y0179753D02*
X0098820Y0179528D01*
X0098803Y0179627D01*
X0100082Y0179852D01*
X0100099Y0179753D01*
G37*
G36*
X0100081Y0179851D02*
X0098802Y0179626D01*
X0098785Y0179725D01*
X0100064Y0179950D01*
X0100081Y0179851D01*
G37*
G36*
X0100064Y0179950D02*
X0098785Y0179725D01*
X0098768Y0179824D01*
X0100047Y0180049D01*
X0100064Y0179950D01*
G37*
G36*
X0100047Y0180048D02*
X0098768Y0179823D01*
X0098751Y0179922D01*
X0100030Y0180147D01*
X0100047Y0180048D01*
G37*
G36*
X0097978Y0179684D02*
X0096699Y0179459D01*
X0096682Y0179558D01*
X0097961Y0179783D01*
X0097978Y0179684D01*
G37*
G36*
X0104299Y0180696D02*
X0103020Y0180471D01*
X0103003Y0180570D01*
X0104282Y0180795D01*
X0104299Y0180696D01*
G37*
G36*
X0104316Y0180598D02*
X0103037Y0180373D01*
X0103020Y0180472D01*
X0104299Y0180697D01*
X0104316Y0180598D01*
G37*
G36*
X0104333Y0180499D02*
X0103054Y0180274D01*
X0103037Y0180373D01*
X0104316Y0180598D01*
X0104333Y0180499D01*
G37*
G36*
X0104351Y0180401D02*
X0103072Y0180176D01*
X0103055Y0180275D01*
X0104334Y0180500D01*
X0104351Y0180401D01*
G37*
G36*
X0104368Y0180302D02*
X0103089Y0180077D01*
X0103072Y0180176D01*
X0104351Y0180401D01*
X0104368Y0180302D01*
G37*
G36*
X0104385Y0180204D02*
X0103106Y0179979D01*
X0103089Y0180078D01*
X0104368Y0180303D01*
X0104385Y0180204D01*
G37*
G36*
X0104403Y0180106D02*
X0103124Y0179881D01*
X0103107Y0179980D01*
X0104386Y0180205D01*
X0104403Y0180106D01*
G37*
G36*
X0104420Y0180007D02*
X0103141Y0179782D01*
X0103124Y0179881D01*
X0104403Y0180106D01*
X0104420Y0180007D01*
G37*
G36*
X0104438Y0179909D02*
X0103159Y0179684D01*
X0103142Y0179783D01*
X0104421Y0180008D01*
X0104438Y0179909D01*
G37*
G36*
X0104455Y0179810D02*
X0103176Y0179585D01*
X0103159Y0179684D01*
X0104438Y0179909D01*
X0104455Y0179810D01*
G37*
G36*
X0104472Y0179712D02*
X0103193Y0179487D01*
X0103176Y0179586D01*
X0104455Y0179811D01*
X0104472Y0179712D01*
G37*
G36*
X0104490Y0179613D02*
X0103211Y0179388D01*
X0103194Y0179487D01*
X0104473Y0179712D01*
X0104490Y0179613D01*
G37*
G36*
X0104507Y0179515D02*
X0103228Y0179290D01*
X0103211Y0179389D01*
X0104490Y0179614D01*
X0104507Y0179515D01*
G37*
G36*
X0104524Y0179416D02*
X0103245Y0179191D01*
X0103228Y0179290D01*
X0104507Y0179515D01*
X0104524Y0179416D01*
G37*
G36*
X0104542Y0179318D02*
X0103263Y0179093D01*
X0103246Y0179192D01*
X0104525Y0179417D01*
X0104542Y0179318D01*
G37*
G36*
X0104559Y0179219D02*
X0103280Y0178994D01*
X0103263Y0179093D01*
X0104542Y0179318D01*
X0104559Y0179219D01*
G37*
G36*
X0104576Y0179121D02*
X0103297Y0178896D01*
X0103280Y0178995D01*
X0104559Y0179220D01*
X0104576Y0179121D01*
G37*
G36*
X0104594Y0179022D02*
X0103315Y0178797D01*
X0103298Y0178896D01*
X0104577Y0179121D01*
X0104594Y0179022D01*
G37*
G36*
X0104611Y0178924D02*
X0103332Y0178699D01*
X0103315Y0178798D01*
X0104594Y0179023D01*
X0104611Y0178924D01*
G37*
G36*
X0104629Y0178825D02*
X0103350Y0178600D01*
X0103333Y0178699D01*
X0104612Y0178924D01*
X0104629Y0178825D01*
G37*
G36*
X0104646Y0178727D02*
X0103367Y0178502D01*
X0103350Y0178601D01*
X0104629Y0178826D01*
X0104646Y0178727D01*
G37*
G36*
X0104663Y0178628D02*
X0103384Y0178403D01*
X0103367Y0178502D01*
X0104646Y0178727D01*
X0104663Y0178628D01*
G37*
G36*
X0104681Y0178530D02*
X0103402Y0178305D01*
X0103385Y0178404D01*
X0104664Y0178629D01*
X0104681Y0178530D01*
G37*
G36*
X0104698Y0178431D02*
X0103419Y0178206D01*
X0103402Y0178305D01*
X0104681Y0178530D01*
X0104698Y0178431D01*
G37*
G36*
X0104715Y0178333D02*
X0103436Y0178108D01*
X0103419Y0178207D01*
X0104698Y0178432D01*
X0104715Y0178333D01*
G37*
G36*
X0104733Y0178234D02*
X0103454Y0178009D01*
X0103437Y0178108D01*
X0104716Y0178333D01*
X0104733Y0178234D01*
G37*
G36*
X0104750Y0178136D02*
X0103471Y0177911D01*
X0103454Y0178010D01*
X0104733Y0178235D01*
X0104750Y0178136D01*
G37*
G36*
X0104767Y0178037D02*
X0103488Y0177812D01*
X0103471Y0177911D01*
X0104750Y0178136D01*
X0104767Y0178037D01*
G37*
G36*
X0104785Y0177939D02*
X0103506Y0177714D01*
X0103489Y0177813D01*
X0104768Y0178038D01*
X0104785Y0177939D01*
G37*
G36*
X0104802Y0177840D02*
X0103523Y0177615D01*
X0103506Y0177714D01*
X0104785Y0177939D01*
X0104802Y0177840D01*
G37*
G36*
X0104820Y0177742D02*
X0103541Y0177517D01*
X0103524Y0177616D01*
X0104803Y0177841D01*
X0104820Y0177742D01*
G37*
G36*
X0104837Y0177643D02*
X0103558Y0177418D01*
X0103541Y0177517D01*
X0104820Y0177742D01*
X0104837Y0177643D01*
G37*
G36*
X0104854Y0177545D02*
X0103575Y0177320D01*
X0103558Y0177419D01*
X0104837Y0177644D01*
X0104854Y0177545D01*
G37*
G36*
X0106922Y0177910D02*
X0105643Y0177685D01*
X0105626Y0177784D01*
X0106905Y0178009D01*
X0106922Y0177910D01*
G37*
G36*
X0106905Y0178008D02*
X0105626Y0177783D01*
X0105609Y0177882D01*
X0106888Y0178107D01*
X0106905Y0178008D01*
G37*
G36*
X0106888Y0178107D02*
X0105609Y0177882D01*
X0105592Y0177981D01*
X0106871Y0178206D01*
X0106888Y0178107D01*
G37*
G36*
X0106870Y0178205D02*
X0105591Y0177980D01*
X0105574Y0178079D01*
X0106853Y0178304D01*
X0106870Y0178205D01*
G37*
G36*
X0106853Y0178304D02*
X0105574Y0178079D01*
X0105557Y0178178D01*
X0106836Y0178403D01*
X0106853Y0178304D01*
G37*
G36*
X0106836Y0178402D02*
X0105557Y0178177D01*
X0105540Y0178276D01*
X0106819Y0178501D01*
X0106836Y0178402D01*
G37*
G36*
X0106818Y0178501D02*
X0105539Y0178276D01*
X0105522Y0178375D01*
X0106801Y0178600D01*
X0106818Y0178501D01*
G37*
G36*
X0106801Y0178599D02*
X0105522Y0178374D01*
X0105505Y0178473D01*
X0106784Y0178698D01*
X0106801Y0178599D01*
G37*
G36*
X0106783Y0178698D02*
X0105504Y0178473D01*
X0105487Y0178572D01*
X0106766Y0178797D01*
X0106783Y0178698D01*
G37*
G36*
X0106766Y0178796D02*
X0105487Y0178571D01*
X0105470Y0178670D01*
X0106749Y0178895D01*
X0106766Y0178796D01*
G37*
G36*
X0106749Y0178894D02*
X0105470Y0178669D01*
X0105453Y0178768D01*
X0106732Y0178993D01*
X0106749Y0178894D01*
G37*
G36*
X0106731Y0178993D02*
X0105452Y0178768D01*
X0105435Y0178867D01*
X0106714Y0179092D01*
X0106731Y0178993D01*
G37*
G36*
X0106714Y0179091D02*
X0105435Y0178866D01*
X0105418Y0178965D01*
X0106697Y0179190D01*
X0106714Y0179091D01*
G37*
G36*
X0106697Y0179190D02*
X0105418Y0178965D01*
X0105401Y0179064D01*
X0106680Y0179289D01*
X0106697Y0179190D01*
G37*
G36*
X0106679Y0179288D02*
X0105400Y0179063D01*
X0105383Y0179162D01*
X0106662Y0179387D01*
X0106679Y0179288D01*
G37*
G36*
X0106662Y0179387D02*
X0105383Y0179162D01*
X0105366Y0179261D01*
X0106645Y0179486D01*
X0106662Y0179387D01*
G37*
G36*
X0106645Y0179485D02*
X0105366Y0179260D01*
X0105349Y0179359D01*
X0106628Y0179584D01*
X0106645Y0179485D01*
G37*
G36*
X0106627Y0179584D02*
X0105348Y0179359D01*
X0105331Y0179458D01*
X0106610Y0179683D01*
X0106627Y0179584D01*
G37*
G36*
X0106610Y0179682D02*
X0105331Y0179457D01*
X0105314Y0179556D01*
X0106593Y0179781D01*
X0106610Y0179682D01*
G37*
G36*
X0106592Y0179781D02*
X0105313Y0179556D01*
X0105296Y0179655D01*
X0106575Y0179880D01*
X0106592Y0179781D01*
G37*
G36*
X0106575Y0179879D02*
X0105296Y0179654D01*
X0105279Y0179753D01*
X0106558Y0179978D01*
X0106575Y0179879D01*
G37*
G36*
X0106558Y0179978D02*
X0105279Y0179753D01*
X0105262Y0179852D01*
X0106541Y0180077D01*
X0106558Y0179978D01*
G37*
G36*
X0106540Y0180076D02*
X0105261Y0179851D01*
X0105244Y0179950D01*
X0106523Y0180175D01*
X0106540Y0180076D01*
G37*
G36*
X0106523Y0180175D02*
X0105244Y0179950D01*
X0105227Y0180049D01*
X0106506Y0180274D01*
X0106523Y0180175D01*
G37*
G36*
X0106506Y0180273D02*
X0105227Y0180048D01*
X0105210Y0180147D01*
X0106489Y0180372D01*
X0106506Y0180273D01*
G37*
G36*
X0106488Y0180372D02*
X0105209Y0180147D01*
X0105192Y0180246D01*
X0106471Y0180471D01*
X0106488Y0180372D01*
G37*
G36*
X0106471Y0180470D02*
X0105192Y0180245D01*
X0105175Y0180344D01*
X0106454Y0180569D01*
X0106471Y0180470D01*
G37*
G36*
X0106453Y0180569D02*
X0105174Y0180344D01*
X0105157Y0180443D01*
X0106436Y0180668D01*
X0106453Y0180569D01*
G37*
G36*
X0106436Y0180667D02*
X0105157Y0180442D01*
X0105140Y0180541D01*
X0106419Y0180766D01*
X0106436Y0180667D01*
G37*
G36*
X0106419Y0180766D02*
X0105140Y0180541D01*
X0105123Y0180640D01*
X0106402Y0180865D01*
X0106419Y0180766D01*
G37*
G36*
X0106401Y0180864D02*
X0105122Y0180639D01*
X0105105Y0180738D01*
X0106384Y0180963D01*
X0106401Y0180864D01*
G37*
G36*
X0106384Y0180963D02*
X0105105Y0180738D01*
X0105088Y0180837D01*
X0106367Y0181062D01*
X0106384Y0180963D01*
G37*
G36*
X0106367Y0181061D02*
X0105088Y0180836D01*
X0105071Y0180935D01*
X0106350Y0181160D01*
X0106367Y0181061D01*
G37*
G36*
X0106349Y0181160D02*
X0105070Y0180935D01*
X0105053Y0181034D01*
X0106332Y0181259D01*
X0106349Y0181160D01*
G37*
G36*
X0108516Y0181542D02*
X0107237Y0181317D01*
X0107220Y0181416D01*
X0108499Y0181641D01*
X0108516Y0181542D01*
G37*
G36*
X0108533Y0181443D02*
X0107254Y0181218D01*
X0107237Y0181317D01*
X0108516Y0181542D01*
X0108533Y0181443D01*
G37*
G36*
X0108551Y0181345D02*
X0107272Y0181120D01*
X0107255Y0181219D01*
X0108534Y0181444D01*
X0108551Y0181345D01*
G37*
G36*
X0108568Y0181246D02*
X0107289Y0181021D01*
X0107272Y0181120D01*
X0108551Y0181345D01*
X0108568Y0181246D01*
G37*
G36*
X0108585Y0181148D02*
X0107306Y0180923D01*
X0107289Y0181022D01*
X0108568Y0181247D01*
X0108585Y0181148D01*
G37*
G36*
X0108603Y0181049D02*
X0107324Y0180824D01*
X0107307Y0180923D01*
X0108586Y0181148D01*
X0108603Y0181049D01*
G37*
G36*
X0108620Y0180951D02*
X0107341Y0180726D01*
X0107324Y0180825D01*
X0108603Y0181050D01*
X0108620Y0180951D01*
G37*
G36*
X0108637Y0180852D02*
X0107358Y0180627D01*
X0107341Y0180726D01*
X0108620Y0180951D01*
X0108637Y0180852D01*
G37*
G36*
X0108655Y0180754D02*
X0107376Y0180529D01*
X0107359Y0180628D01*
X0108638Y0180853D01*
X0108655Y0180754D01*
G37*
G36*
X0108672Y0180655D02*
X0107393Y0180430D01*
X0107376Y0180529D01*
X0108655Y0180754D01*
X0108672Y0180655D01*
G37*
G36*
X0108690Y0180557D02*
X0107411Y0180332D01*
X0107394Y0180431D01*
X0108673Y0180656D01*
X0108690Y0180557D01*
G37*
G36*
X0108707Y0180458D02*
X0107428Y0180233D01*
X0107411Y0180332D01*
X0108690Y0180557D01*
X0108707Y0180458D01*
G37*
G36*
X0108724Y0180360D02*
X0107445Y0180135D01*
X0107428Y0180234D01*
X0108707Y0180459D01*
X0108724Y0180360D01*
G37*
G36*
X0108742Y0180261D02*
X0107463Y0180036D01*
X0107446Y0180135D01*
X0108725Y0180360D01*
X0108742Y0180261D01*
G37*
G36*
X0108759Y0180163D02*
X0107480Y0179938D01*
X0107463Y0180037D01*
X0108742Y0180262D01*
X0108759Y0180163D01*
G37*
G36*
X0108776Y0180064D02*
X0107497Y0179839D01*
X0107480Y0179938D01*
X0108759Y0180163D01*
X0108776Y0180064D01*
G37*
G36*
X0108794Y0179966D02*
X0107515Y0179741D01*
X0107498Y0179840D01*
X0108777Y0180065D01*
X0108794Y0179966D01*
G37*
G36*
X0108811Y0179867D02*
X0107532Y0179642D01*
X0107515Y0179741D01*
X0108794Y0179966D01*
X0108811Y0179867D01*
G37*
G36*
X0108828Y0179769D02*
X0107549Y0179544D01*
X0107532Y0179643D01*
X0108811Y0179868D01*
X0108828Y0179769D01*
G37*
G36*
X0108846Y0179670D02*
X0107567Y0179445D01*
X0107550Y0179544D01*
X0108829Y0179769D01*
X0108846Y0179670D01*
G37*
G36*
X0108863Y0179572D02*
X0107584Y0179347D01*
X0107567Y0179446D01*
X0108846Y0179671D01*
X0108863Y0179572D01*
G37*
G36*
X0108881Y0179473D02*
X0107602Y0179248D01*
X0107585Y0179347D01*
X0108864Y0179572D01*
X0108881Y0179473D01*
G37*
G36*
X0108898Y0179375D02*
X0107619Y0179150D01*
X0107602Y0179249D01*
X0108881Y0179474D01*
X0108898Y0179375D01*
G37*
G36*
X0108915Y0179277D02*
X0107636Y0179052D01*
X0107619Y0179151D01*
X0108898Y0179376D01*
X0108915Y0179277D01*
G37*
G36*
X0108933Y0179178D02*
X0107654Y0178953D01*
X0107637Y0179052D01*
X0108916Y0179277D01*
X0108933Y0179178D01*
G37*
G36*
X0108950Y0179080D02*
X0107671Y0178855D01*
X0107654Y0178954D01*
X0108933Y0179179D01*
X0108950Y0179080D01*
G37*
G36*
X0108967Y0178981D02*
X0107688Y0178756D01*
X0107671Y0178855D01*
X0108950Y0179080D01*
X0108967Y0178981D01*
G37*
G36*
X0108985Y0178883D02*
X0107706Y0178658D01*
X0107689Y0178757D01*
X0108968Y0178982D01*
X0108985Y0178883D01*
G37*
G36*
X0109002Y0178784D02*
X0107723Y0178559D01*
X0107706Y0178658D01*
X0108985Y0178883D01*
X0109002Y0178784D01*
G37*
G36*
X0109019Y0178686D02*
X0107740Y0178461D01*
X0107723Y0178560D01*
X0109002Y0178785D01*
X0109019Y0178686D01*
G37*
G36*
X0109037Y0178587D02*
X0107758Y0178362D01*
X0107741Y0178461D01*
X0109020Y0178686D01*
X0109037Y0178587D01*
G37*
G36*
X0109054Y0178489D02*
X0107775Y0178264D01*
X0107758Y0178363D01*
X0109037Y0178588D01*
X0109054Y0178489D01*
G37*
G36*
X0109072Y0178390D02*
X0107793Y0178165D01*
X0107776Y0178264D01*
X0109055Y0178489D01*
X0109072Y0178390D01*
G37*
G36*
X0109089Y0178292D02*
X0107810Y0178067D01*
X0107793Y0178166D01*
X0109072Y0178391D01*
X0109089Y0178292D01*
G37*
G36*
X0104281Y0180795D02*
X0103002Y0180570D01*
X0102985Y0180669D01*
X0104264Y0180894D01*
X0104281Y0180795D01*
G37*
G36*
X0101727Y0184914D02*
X0100448Y0184689D01*
X0100431Y0184788D01*
X0101710Y0185013D01*
X0101727Y0184914D01*
G37*
G36*
X0102110Y0187926D02*
X0100831Y0187701D01*
X0100814Y0187800D01*
X0102093Y0188025D01*
X0102110Y0187926D01*
G37*
G36*
X0098240Y0186838D02*
X0096961Y0186613D01*
X0096944Y0186712D01*
X0098223Y0186937D01*
X0098240Y0186838D01*
G37*
G36*
X0098176Y0186623D02*
X0096897Y0186398D01*
X0096880Y0186497D01*
X0098159Y0186722D01*
X0098176Y0186623D01*
G37*
G36*
X0098095Y0186508D02*
X0096816Y0186283D01*
X0096799Y0186382D01*
X0098078Y0186607D01*
X0098095Y0186508D01*
G37*
G36*
X0094602Y0187313D02*
X0093323Y0187088D01*
X0093306Y0187187D01*
X0094585Y0187412D01*
X0094602Y0187313D01*
G37*
G36*
X0094539Y0187099D02*
X0093260Y0186874D01*
X0093243Y0186973D01*
X0094522Y0187198D01*
X0094539Y0187099D01*
G37*
G36*
X0094162Y0185205D02*
X0092883Y0184980D01*
X0092866Y0185079D01*
X0094145Y0185304D01*
X0094162Y0185205D01*
G37*
G36*
X0093744Y0178937D02*
X0092465Y0178712D01*
X0092448Y0178811D01*
X0093727Y0179036D01*
X0093744Y0178937D01*
G37*
G36*
X0093699Y0192434D02*
X0092420Y0192209D01*
X0092403Y0192308D01*
X0093682Y0192533D01*
X0093699Y0192434D01*
G37*
G36*
X0094001Y0193604D02*
X0092722Y0193379D01*
X0092705Y0193478D01*
X0093984Y0193703D01*
X0094001Y0193604D01*
G37*
G36*
X0098224Y0193841D02*
X0096945Y0193616D01*
X0096928Y0193715D01*
X0098207Y0193940D01*
X0098224Y0193841D01*
G37*
G36*
X0098287Y0194056D02*
X0097008Y0193831D01*
X0096991Y0193930D01*
X0098270Y0194155D01*
X0098287Y0194056D01*
G37*
G36*
X0098270Y0194154D02*
X0096991Y0193929D01*
X0096974Y0194028D01*
X0098253Y0194253D01*
X0098270Y0194154D01*
G37*
G36*
X0098316Y0194467D02*
X0097037Y0194242D01*
X0097020Y0194341D01*
X0098299Y0194566D01*
X0098316Y0194467D01*
G37*
G36*
X0098363Y0194780D02*
X0097084Y0194555D01*
X0097067Y0194654D01*
X0098346Y0194879D01*
X0098363Y0194780D01*
G37*
G36*
X0098346Y0194878D02*
X0097067Y0194653D01*
X0097050Y0194752D01*
X0098329Y0194977D01*
X0098346Y0194878D01*
G37*
G36*
X0098299Y0194565D02*
X0097020Y0194340D01*
X0097003Y0194439D01*
X0098282Y0194664D01*
X0098299Y0194565D01*
G37*
G36*
X0098241Y0193743D02*
X0096962Y0193518D01*
X0096945Y0193617D01*
X0098224Y0193842D01*
X0098241Y0193743D01*
G37*
G36*
X0098577Y0196442D02*
X0097298Y0196217D01*
X0097281Y0196316D01*
X0098560Y0196541D01*
X0098577Y0196442D01*
G37*
G36*
X0098624Y0196755D02*
X0097345Y0196530D01*
X0097328Y0196629D01*
X0098607Y0196854D01*
X0098624Y0196755D01*
G37*
G36*
X0098670Y0197068D02*
X0097391Y0196843D01*
X0097374Y0196942D01*
X0098653Y0197167D01*
X0098670Y0197068D01*
G37*
G36*
X0098717Y0197381D02*
X0097438Y0197156D01*
X0097421Y0197255D01*
X0098700Y0197480D01*
X0098717Y0197381D01*
G37*
G36*
X0098763Y0197693D02*
X0097484Y0197468D01*
X0097467Y0197567D01*
X0098746Y0197792D01*
X0098763Y0197693D01*
G37*
G36*
X0094019Y0202137D02*
X0092740Y0201912D01*
X0092723Y0202011D01*
X0094002Y0202236D01*
X0094019Y0202137D01*
G37*
G36*
X0094002Y0202236D02*
X0092723Y0202011D01*
X0092706Y0202110D01*
X0093985Y0202335D01*
X0094002Y0202236D01*
G37*
G36*
X0093985Y0202334D02*
X0092706Y0202109D01*
X0092689Y0202208D01*
X0093968Y0202433D01*
X0093985Y0202334D01*
G37*
G36*
X0093967Y0202433D02*
X0092688Y0202208D01*
X0092671Y0202307D01*
X0093950Y0202532D01*
X0093967Y0202433D01*
G37*
G36*
X0093950Y0202531D02*
X0092671Y0202306D01*
X0092654Y0202405D01*
X0093933Y0202630D01*
X0093950Y0202531D01*
G37*
G36*
X0093932Y0202630D02*
X0092653Y0202405D01*
X0092636Y0202504D01*
X0093915Y0202729D01*
X0093932Y0202630D01*
G37*
G36*
X0093915Y0202728D02*
X0092636Y0202503D01*
X0092619Y0202602D01*
X0093898Y0202827D01*
X0093915Y0202728D01*
G37*
G36*
X0093898Y0202827D02*
X0092619Y0202602D01*
X0092602Y0202701D01*
X0093881Y0202926D01*
X0093898Y0202827D01*
G37*
G36*
X0093880Y0202925D02*
X0092601Y0202700D01*
X0092584Y0202799D01*
X0093863Y0203024D01*
X0093880Y0202925D01*
G37*
G36*
X0093863Y0203023D02*
X0092584Y0202798D01*
X0092567Y0202897D01*
X0093846Y0203122D01*
X0093863Y0203023D01*
G37*
G36*
X0093846Y0203122D02*
X0092567Y0202897D01*
X0092550Y0202996D01*
X0093829Y0203221D01*
X0093846Y0203122D01*
G37*
G36*
X0093828Y0203220D02*
X0092549Y0202995D01*
X0092532Y0203094D01*
X0093811Y0203319D01*
X0093828Y0203220D01*
G37*
G36*
X0093811Y0203319D02*
X0092532Y0203094D01*
X0092515Y0203193D01*
X0093794Y0203418D01*
X0093811Y0203319D01*
G37*
G36*
X0093794Y0203417D02*
X0092515Y0203192D01*
X0092498Y0203291D01*
X0093777Y0203516D01*
X0093794Y0203417D01*
G37*
G36*
X0093776Y0203516D02*
X0092497Y0203291D01*
X0092480Y0203390D01*
X0093759Y0203615D01*
X0093776Y0203516D01*
G37*
G36*
X0093759Y0203614D02*
X0092480Y0203389D01*
X0092463Y0203488D01*
X0093742Y0203713D01*
X0093759Y0203614D01*
G37*
G36*
X0093741Y0203713D02*
X0092462Y0203488D01*
X0092445Y0203587D01*
X0093724Y0203812D01*
X0093741Y0203713D01*
G37*
G36*
X0093724Y0203811D02*
X0092445Y0203586D01*
X0092428Y0203685D01*
X0093707Y0203910D01*
X0093724Y0203811D01*
G37*
G36*
X0093707Y0203910D02*
X0092428Y0203685D01*
X0092411Y0203784D01*
X0093690Y0204009D01*
X0093707Y0203910D01*
G37*
G36*
X0093689Y0204008D02*
X0092410Y0203783D01*
X0092393Y0203882D01*
X0093672Y0204107D01*
X0093689Y0204008D01*
G37*
G36*
X0093672Y0204107D02*
X0092393Y0203882D01*
X0092376Y0203981D01*
X0093655Y0204206D01*
X0093672Y0204107D01*
G37*
G36*
X0093655Y0204205D02*
X0092376Y0203980D01*
X0092359Y0204079D01*
X0093638Y0204304D01*
X0093655Y0204205D01*
G37*
G36*
X0093637Y0204304D02*
X0092358Y0204079D01*
X0092341Y0204178D01*
X0093620Y0204403D01*
X0093637Y0204304D01*
G37*
G36*
X0093620Y0204402D02*
X0092341Y0204177D01*
X0092324Y0204276D01*
X0093603Y0204501D01*
X0093620Y0204402D01*
G37*
G36*
X0093603Y0204501D02*
X0092324Y0204276D01*
X0092307Y0204375D01*
X0093586Y0204600D01*
X0093603Y0204501D01*
G37*
G36*
X0093585Y0204599D02*
X0092306Y0204374D01*
X0092289Y0204473D01*
X0093568Y0204698D01*
X0093585Y0204599D01*
G37*
G36*
X0093568Y0204698D02*
X0092289Y0204473D01*
X0092272Y0204572D01*
X0093551Y0204797D01*
X0093568Y0204698D01*
G37*
G36*
X0093550Y0204796D02*
X0092271Y0204571D01*
X0092254Y0204670D01*
X0093533Y0204895D01*
X0093550Y0204796D01*
G37*
G36*
X0093533Y0204895D02*
X0092254Y0204670D01*
X0092237Y0204769D01*
X0093516Y0204994D01*
X0093533Y0204895D01*
G37*
G36*
X0093516Y0204993D02*
X0092237Y0204768D01*
X0092220Y0204867D01*
X0093499Y0205092D01*
X0093516Y0204993D01*
G37*
G36*
X0093498Y0205092D02*
X0092219Y0204867D01*
X0092202Y0204966D01*
X0093481Y0205191D01*
X0093498Y0205092D01*
G37*
G36*
X0093481Y0205190D02*
X0092202Y0204965D01*
X0092185Y0205064D01*
X0093464Y0205289D01*
X0093481Y0205190D01*
G37*
G36*
X0093464Y0205289D02*
X0092185Y0205064D01*
X0092168Y0205163D01*
X0093447Y0205388D01*
X0093464Y0205289D01*
G37*
G36*
X0093446Y0205387D02*
X0092167Y0205162D01*
X0092150Y0205261D01*
X0093429Y0205486D01*
X0093446Y0205387D01*
G37*
G36*
X0093429Y0205486D02*
X0092150Y0205261D01*
X0092133Y0205360D01*
X0093412Y0205585D01*
X0093429Y0205486D01*
G37*
G36*
X0095514Y0205752D02*
X0094235Y0205527D01*
X0094218Y0205626D01*
X0095497Y0205851D01*
X0095514Y0205752D01*
G37*
G36*
X0095532Y0205653D02*
X0094253Y0205428D01*
X0094236Y0205527D01*
X0095515Y0205752D01*
X0095532Y0205653D01*
G37*
G36*
X0095549Y0205555D02*
X0094270Y0205330D01*
X0094253Y0205429D01*
X0095532Y0205654D01*
X0095549Y0205555D01*
G37*
G36*
X0095566Y0205456D02*
X0094287Y0205231D01*
X0094270Y0205330D01*
X0095549Y0205555D01*
X0095566Y0205456D01*
G37*
G36*
X0095584Y0205358D02*
X0094305Y0205133D01*
X0094288Y0205232D01*
X0095567Y0205457D01*
X0095584Y0205358D01*
G37*
G36*
X0095601Y0205259D02*
X0094322Y0205034D01*
X0094305Y0205133D01*
X0095584Y0205358D01*
X0095601Y0205259D01*
G37*
G36*
X0095619Y0205161D02*
X0094340Y0204936D01*
X0094323Y0205035D01*
X0095602Y0205260D01*
X0095619Y0205161D01*
G37*
G36*
X0095636Y0205062D02*
X0094357Y0204837D01*
X0094340Y0204936D01*
X0095619Y0205161D01*
X0095636Y0205062D01*
G37*
G36*
X0095653Y0204964D02*
X0094374Y0204739D01*
X0094357Y0204838D01*
X0095636Y0205063D01*
X0095653Y0204964D01*
G37*
G36*
X0095671Y0204865D02*
X0094392Y0204640D01*
X0094375Y0204739D01*
X0095654Y0204964D01*
X0095671Y0204865D01*
G37*
G36*
X0095688Y0204767D02*
X0094409Y0204542D01*
X0094392Y0204641D01*
X0095671Y0204866D01*
X0095688Y0204767D01*
G37*
G36*
X0095705Y0204668D02*
X0094426Y0204443D01*
X0094409Y0204542D01*
X0095688Y0204767D01*
X0095705Y0204668D01*
G37*
G36*
X0095723Y0204570D02*
X0094444Y0204345D01*
X0094427Y0204444D01*
X0095706Y0204669D01*
X0095723Y0204570D01*
G37*
G36*
X0095740Y0204471D02*
X0094461Y0204246D01*
X0094444Y0204345D01*
X0095723Y0204570D01*
X0095740Y0204471D01*
G37*
G36*
X0095757Y0204373D02*
X0094478Y0204148D01*
X0094461Y0204247D01*
X0095740Y0204472D01*
X0095757Y0204373D01*
G37*
G36*
X0095775Y0204274D02*
X0094496Y0204049D01*
X0094479Y0204148D01*
X0095758Y0204373D01*
X0095775Y0204274D01*
G37*
G36*
X0095792Y0204176D02*
X0094513Y0203951D01*
X0094496Y0204050D01*
X0095775Y0204275D01*
X0095792Y0204176D01*
G37*
G36*
X0095810Y0204078D02*
X0094531Y0203853D01*
X0094514Y0203952D01*
X0095793Y0204177D01*
X0095810Y0204078D01*
G37*
G36*
X0095827Y0203979D02*
X0094548Y0203754D01*
X0094531Y0203853D01*
X0095810Y0204078D01*
X0095827Y0203979D01*
G37*
G36*
X0095844Y0203881D02*
X0094565Y0203656D01*
X0094548Y0203755D01*
X0095827Y0203980D01*
X0095844Y0203881D01*
G37*
G36*
X0095862Y0203782D02*
X0094583Y0203557D01*
X0094566Y0203656D01*
X0095845Y0203881D01*
X0095862Y0203782D01*
G37*
G36*
X0095879Y0203684D02*
X0094600Y0203459D01*
X0094583Y0203558D01*
X0095862Y0203783D01*
X0095879Y0203684D01*
G37*
G36*
X0095896Y0203585D02*
X0094617Y0203360D01*
X0094600Y0203459D01*
X0095879Y0203684D01*
X0095896Y0203585D01*
G37*
G36*
X0095914Y0203487D02*
X0094635Y0203262D01*
X0094618Y0203361D01*
X0095897Y0203586D01*
X0095914Y0203487D01*
G37*
G36*
X0095931Y0203388D02*
X0094652Y0203163D01*
X0094635Y0203262D01*
X0095914Y0203487D01*
X0095931Y0203388D01*
G37*
G36*
X0095948Y0203290D02*
X0094669Y0203065D01*
X0094652Y0203164D01*
X0095931Y0203389D01*
X0095948Y0203290D01*
G37*
G36*
X0095966Y0203191D02*
X0094687Y0202966D01*
X0094670Y0203065D01*
X0095949Y0203290D01*
X0095966Y0203191D01*
G37*
G36*
X0095983Y0203093D02*
X0094704Y0202868D01*
X0094687Y0202967D01*
X0095966Y0203192D01*
X0095983Y0203093D01*
G37*
G36*
X0096001Y0202994D02*
X0094722Y0202769D01*
X0094705Y0202868D01*
X0095984Y0203093D01*
X0096001Y0202994D01*
G37*
G36*
X0096018Y0202896D02*
X0094739Y0202671D01*
X0094722Y0202770D01*
X0096001Y0202995D01*
X0096018Y0202896D01*
G37*
G36*
X0096035Y0202797D02*
X0094756Y0202572D01*
X0094739Y0202671D01*
X0096018Y0202896D01*
X0096035Y0202797D01*
G37*
G36*
X0096053Y0202699D02*
X0094774Y0202474D01*
X0094757Y0202573D01*
X0096036Y0202798D01*
X0096053Y0202699D01*
G37*
G36*
X0096070Y0202600D02*
X0094791Y0202375D01*
X0094774Y0202474D01*
X0096053Y0202699D01*
X0096070Y0202600D01*
G37*
G36*
X0096087Y0202502D02*
X0094808Y0202277D01*
X0094791Y0202376D01*
X0096070Y0202601D01*
X0096087Y0202502D01*
G37*
G36*
X0095497Y0205850D02*
X0094218Y0205625D01*
X0094201Y0205724D01*
X0095480Y0205949D01*
X0095497Y0205850D01*
G37*
G36*
X0099749Y0206498D02*
X0098470Y0206273D01*
X0098453Y0206372D01*
X0099732Y0206597D01*
X0099749Y0206498D01*
G37*
G36*
X0099766Y0206400D02*
X0098487Y0206175D01*
X0098470Y0206274D01*
X0099749Y0206499D01*
X0099766Y0206400D01*
G37*
G36*
X0099784Y0206301D02*
X0098505Y0206076D01*
X0098488Y0206175D01*
X0099767Y0206400D01*
X0099784Y0206301D01*
G37*
G36*
X0099801Y0206203D02*
X0098522Y0205978D01*
X0098505Y0206077D01*
X0099784Y0206302D01*
X0099801Y0206203D01*
G37*
G36*
X0099818Y0206104D02*
X0098539Y0205879D01*
X0098522Y0205978D01*
X0099801Y0206203D01*
X0099818Y0206104D01*
G37*
G36*
X0099836Y0206006D02*
X0098557Y0205781D01*
X0098540Y0205880D01*
X0099819Y0206105D01*
X0099836Y0206006D01*
G37*
G36*
X0099853Y0205907D02*
X0098574Y0205682D01*
X0098557Y0205781D01*
X0099836Y0206006D01*
X0099853Y0205907D01*
G37*
G36*
X0099871Y0205809D02*
X0098592Y0205584D01*
X0098575Y0205683D01*
X0099854Y0205908D01*
X0099871Y0205809D01*
G37*
G36*
X0099888Y0205711D02*
X0098609Y0205486D01*
X0098592Y0205585D01*
X0099871Y0205810D01*
X0099888Y0205711D01*
G37*
G36*
X0099905Y0205612D02*
X0098626Y0205387D01*
X0098609Y0205486D01*
X0099888Y0205711D01*
X0099905Y0205612D01*
G37*
G36*
X0099923Y0205514D02*
X0098644Y0205289D01*
X0098627Y0205388D01*
X0099906Y0205613D01*
X0099923Y0205514D01*
G37*
G36*
X0099940Y0205415D02*
X0098661Y0205190D01*
X0098644Y0205289D01*
X0099923Y0205514D01*
X0099940Y0205415D01*
G37*
G36*
X0099957Y0205317D02*
X0098678Y0205092D01*
X0098661Y0205191D01*
X0099940Y0205416D01*
X0099957Y0205317D01*
G37*
G36*
X0099975Y0205218D02*
X0098696Y0204993D01*
X0098679Y0205092D01*
X0099958Y0205317D01*
X0099975Y0205218D01*
G37*
G36*
X0099992Y0205120D02*
X0098713Y0204895D01*
X0098696Y0204994D01*
X0099975Y0205219D01*
X0099992Y0205120D01*
G37*
G36*
X0100009Y0205021D02*
X0098730Y0204796D01*
X0098713Y0204895D01*
X0099992Y0205120D01*
X0100009Y0205021D01*
G37*
G36*
X0100027Y0204923D02*
X0098748Y0204698D01*
X0098731Y0204797D01*
X0100010Y0205022D01*
X0100027Y0204923D01*
G37*
G36*
X0100044Y0204824D02*
X0098765Y0204599D01*
X0098748Y0204698D01*
X0100027Y0204923D01*
X0100044Y0204824D01*
G37*
G36*
X0100062Y0204726D02*
X0098783Y0204501D01*
X0098766Y0204600D01*
X0100045Y0204825D01*
X0100062Y0204726D01*
G37*
G36*
X0100079Y0204627D02*
X0098800Y0204402D01*
X0098783Y0204501D01*
X0100062Y0204726D01*
X0100079Y0204627D01*
G37*
G36*
X0100096Y0204529D02*
X0098817Y0204304D01*
X0098800Y0204403D01*
X0100079Y0204628D01*
X0100096Y0204529D01*
G37*
G36*
X0100114Y0204430D02*
X0098835Y0204205D01*
X0098818Y0204304D01*
X0100097Y0204529D01*
X0100114Y0204430D01*
G37*
G36*
X0100131Y0204332D02*
X0098852Y0204107D01*
X0098835Y0204206D01*
X0100114Y0204431D01*
X0100131Y0204332D01*
G37*
G36*
X0100148Y0204233D02*
X0098869Y0204008D01*
X0098852Y0204107D01*
X0100131Y0204332D01*
X0100148Y0204233D01*
G37*
G36*
X0100166Y0204135D02*
X0098887Y0203910D01*
X0098870Y0204009D01*
X0100149Y0204234D01*
X0100166Y0204135D01*
G37*
G36*
X0100183Y0204036D02*
X0098904Y0203811D01*
X0098887Y0203910D01*
X0100166Y0204135D01*
X0100183Y0204036D01*
G37*
G36*
X0100200Y0203938D02*
X0098921Y0203713D01*
X0098904Y0203812D01*
X0100183Y0204037D01*
X0100200Y0203938D01*
G37*
G36*
X0100218Y0203839D02*
X0098939Y0203614D01*
X0098922Y0203713D01*
X0100201Y0203938D01*
X0100218Y0203839D01*
G37*
G36*
X0100235Y0203741D02*
X0098956Y0203516D01*
X0098939Y0203615D01*
X0100218Y0203840D01*
X0100235Y0203741D01*
G37*
G36*
X0100253Y0203642D02*
X0098974Y0203417D01*
X0098957Y0203516D01*
X0100236Y0203741D01*
X0100253Y0203642D01*
G37*
G36*
X0100270Y0203544D02*
X0098991Y0203319D01*
X0098974Y0203418D01*
X0100253Y0203643D01*
X0100270Y0203544D01*
G37*
G36*
X0100287Y0203445D02*
X0099008Y0203220D01*
X0098991Y0203319D01*
X0100270Y0203544D01*
X0100287Y0203445D01*
G37*
G36*
X0100305Y0203347D02*
X0099026Y0203122D01*
X0099009Y0203221D01*
X0100288Y0203446D01*
X0100305Y0203347D01*
G37*
G36*
X0100322Y0203249D02*
X0099043Y0203024D01*
X0099026Y0203123D01*
X0100305Y0203348D01*
X0100322Y0203249D01*
G37*
G36*
X0102390Y0203613D02*
X0101111Y0203388D01*
X0101094Y0203487D01*
X0102373Y0203712D01*
X0102390Y0203613D01*
G37*
G36*
X0102373Y0203712D02*
X0101094Y0203487D01*
X0101077Y0203586D01*
X0102356Y0203811D01*
X0102373Y0203712D01*
G37*
G36*
X0102355Y0203810D02*
X0101076Y0203585D01*
X0101059Y0203684D01*
X0102338Y0203909D01*
X0102355Y0203810D01*
G37*
G36*
X0102338Y0203909D02*
X0101059Y0203684D01*
X0101042Y0203783D01*
X0102321Y0204008D01*
X0102338Y0203909D01*
G37*
G36*
X0102321Y0204007D02*
X0101042Y0203782D01*
X0101025Y0203881D01*
X0102304Y0204106D01*
X0102321Y0204007D01*
G37*
G36*
X0102303Y0204106D02*
X0101024Y0203881D01*
X0101007Y0203980D01*
X0102286Y0204205D01*
X0102303Y0204106D01*
G37*
G36*
X0102286Y0204204D02*
X0101007Y0203979D01*
X0100990Y0204078D01*
X0102269Y0204303D01*
X0102286Y0204204D01*
G37*
G36*
X0102269Y0204303D02*
X0100990Y0204078D01*
X0100973Y0204177D01*
X0102252Y0204402D01*
X0102269Y0204303D01*
G37*
G36*
X0102251Y0204401D02*
X0100972Y0204176D01*
X0100955Y0204275D01*
X0102234Y0204500D01*
X0102251Y0204401D01*
G37*
G36*
X0102234Y0204499D02*
X0100955Y0204274D01*
X0100938Y0204373D01*
X0102217Y0204598D01*
X0102234Y0204499D01*
G37*
G36*
X0102216Y0204598D02*
X0100937Y0204373D01*
X0100920Y0204472D01*
X0102199Y0204697D01*
X0102216Y0204598D01*
G37*
G36*
X0102199Y0204696D02*
X0100920Y0204471D01*
X0100903Y0204570D01*
X0102182Y0204795D01*
X0102199Y0204696D01*
G37*
G36*
X0102182Y0204795D02*
X0100903Y0204570D01*
X0100886Y0204669D01*
X0102165Y0204894D01*
X0102182Y0204795D01*
G37*
G36*
X0102164Y0204893D02*
X0100885Y0204668D01*
X0100868Y0204767D01*
X0102147Y0204992D01*
X0102164Y0204893D01*
G37*
G36*
X0102147Y0204992D02*
X0100868Y0204767D01*
X0100851Y0204866D01*
X0102130Y0205091D01*
X0102147Y0204992D01*
G37*
G36*
X0102130Y0205090D02*
X0100851Y0204865D01*
X0100834Y0204964D01*
X0102113Y0205189D01*
X0102130Y0205090D01*
G37*
G36*
X0102112Y0205189D02*
X0100833Y0204964D01*
X0100816Y0205063D01*
X0102095Y0205288D01*
X0102112Y0205189D01*
G37*
G36*
X0102095Y0205287D02*
X0100816Y0205062D01*
X0100799Y0205161D01*
X0102078Y0205386D01*
X0102095Y0205287D01*
G37*
G36*
X0102078Y0205386D02*
X0100799Y0205161D01*
X0100782Y0205260D01*
X0102061Y0205485D01*
X0102078Y0205386D01*
G37*
G36*
X0102060Y0205484D02*
X0100781Y0205259D01*
X0100764Y0205358D01*
X0102043Y0205583D01*
X0102060Y0205484D01*
G37*
G36*
X0102043Y0205583D02*
X0100764Y0205358D01*
X0100747Y0205457D01*
X0102026Y0205682D01*
X0102043Y0205583D01*
G37*
G36*
X0102025Y0205681D02*
X0100746Y0205456D01*
X0100729Y0205555D01*
X0102008Y0205780D01*
X0102025Y0205681D01*
G37*
G36*
X0102008Y0205780D02*
X0100729Y0205555D01*
X0100712Y0205654D01*
X0101991Y0205879D01*
X0102008Y0205780D01*
G37*
G36*
X0101991Y0205878D02*
X0100712Y0205653D01*
X0100695Y0205752D01*
X0101974Y0205977D01*
X0101991Y0205878D01*
G37*
G36*
X0101973Y0205977D02*
X0100694Y0205752D01*
X0100677Y0205851D01*
X0101956Y0206076D01*
X0101973Y0205977D01*
G37*
G36*
X0101956Y0206075D02*
X0100677Y0205850D01*
X0100660Y0205949D01*
X0101939Y0206174D01*
X0101956Y0206075D01*
G37*
G36*
X0101939Y0206174D02*
X0100660Y0205949D01*
X0100643Y0206048D01*
X0101922Y0206273D01*
X0101939Y0206174D01*
G37*
G36*
X0101921Y0206272D02*
X0100642Y0206047D01*
X0100625Y0206146D01*
X0101904Y0206371D01*
X0101921Y0206272D01*
G37*
G36*
X0101904Y0206371D02*
X0100625Y0206146D01*
X0100608Y0206245D01*
X0101887Y0206470D01*
X0101904Y0206371D01*
G37*
G36*
X0101887Y0206469D02*
X0100608Y0206244D01*
X0100591Y0206343D01*
X0101870Y0206568D01*
X0101887Y0206469D01*
G37*
G36*
X0101869Y0206568D02*
X0100590Y0206343D01*
X0100573Y0206442D01*
X0101852Y0206667D01*
X0101869Y0206568D01*
G37*
G36*
X0101852Y0206666D02*
X0100573Y0206441D01*
X0100556Y0206540D01*
X0101835Y0206765D01*
X0101852Y0206666D01*
G37*
G36*
X0101834Y0206765D02*
X0100555Y0206540D01*
X0100538Y0206639D01*
X0101817Y0206864D01*
X0101834Y0206765D01*
G37*
G36*
X0101817Y0206863D02*
X0100538Y0206638D01*
X0100521Y0206737D01*
X0101800Y0206962D01*
X0101817Y0206863D01*
G37*
G36*
X0101800Y0206962D02*
X0100521Y0206737D01*
X0100504Y0206836D01*
X0101783Y0207061D01*
X0101800Y0206962D01*
G37*
G36*
X0103966Y0207344D02*
X0102687Y0207119D01*
X0102670Y0207218D01*
X0103949Y0207443D01*
X0103966Y0207344D01*
G37*
G36*
X0103984Y0207245D02*
X0102705Y0207020D01*
X0102688Y0207119D01*
X0103967Y0207344D01*
X0103984Y0207245D01*
G37*
G36*
X0104001Y0207147D02*
X0102722Y0206922D01*
X0102705Y0207021D01*
X0103984Y0207246D01*
X0104001Y0207147D01*
G37*
G36*
X0104018Y0207048D02*
X0102739Y0206823D01*
X0102722Y0206922D01*
X0104001Y0207147D01*
X0104018Y0207048D01*
G37*
G36*
X0104036Y0206950D02*
X0102757Y0206725D01*
X0102740Y0206824D01*
X0104019Y0207049D01*
X0104036Y0206950D01*
G37*
G36*
X0104053Y0206851D02*
X0102774Y0206626D01*
X0102757Y0206725D01*
X0104036Y0206950D01*
X0104053Y0206851D01*
G37*
G36*
X0104071Y0206753D02*
X0102792Y0206528D01*
X0102775Y0206627D01*
X0104054Y0206852D01*
X0104071Y0206753D01*
G37*
G36*
X0104088Y0206654D02*
X0102809Y0206429D01*
X0102792Y0206528D01*
X0104071Y0206753D01*
X0104088Y0206654D01*
G37*
G36*
X0104105Y0206556D02*
X0102826Y0206331D01*
X0102809Y0206430D01*
X0104088Y0206655D01*
X0104105Y0206556D01*
G37*
G36*
X0104123Y0206457D02*
X0102844Y0206232D01*
X0102827Y0206331D01*
X0104106Y0206556D01*
X0104123Y0206457D01*
G37*
G36*
X0104140Y0206359D02*
X0102861Y0206134D01*
X0102844Y0206233D01*
X0104123Y0206458D01*
X0104140Y0206359D01*
G37*
G36*
X0104157Y0206260D02*
X0102878Y0206035D01*
X0102861Y0206134D01*
X0104140Y0206359D01*
X0104157Y0206260D01*
G37*
G36*
X0104175Y0206162D02*
X0102896Y0205937D01*
X0102879Y0206036D01*
X0104158Y0206261D01*
X0104175Y0206162D01*
G37*
G36*
X0104192Y0206063D02*
X0102913Y0205838D01*
X0102896Y0205937D01*
X0104175Y0206162D01*
X0104192Y0206063D01*
G37*
G36*
X0104209Y0205965D02*
X0102930Y0205740D01*
X0102913Y0205839D01*
X0104192Y0206064D01*
X0104209Y0205965D01*
G37*
G36*
X0104227Y0205866D02*
X0102948Y0205641D01*
X0102931Y0205740D01*
X0104210Y0205965D01*
X0104227Y0205866D01*
G37*
G36*
X0104244Y0205768D02*
X0102965Y0205543D01*
X0102948Y0205642D01*
X0104227Y0205867D01*
X0104244Y0205768D01*
G37*
G36*
X0104262Y0205669D02*
X0102983Y0205444D01*
X0102966Y0205543D01*
X0104245Y0205768D01*
X0104262Y0205669D01*
G37*
G36*
X0104279Y0205571D02*
X0103000Y0205346D01*
X0102983Y0205445D01*
X0104262Y0205670D01*
X0104279Y0205571D01*
G37*
G36*
X0104296Y0205472D02*
X0103017Y0205247D01*
X0103000Y0205346D01*
X0104279Y0205571D01*
X0104296Y0205472D01*
G37*
G36*
X0104314Y0205374D02*
X0103035Y0205149D01*
X0103018Y0205248D01*
X0104297Y0205473D01*
X0104314Y0205374D01*
G37*
G36*
X0104331Y0205275D02*
X0103052Y0205050D01*
X0103035Y0205149D01*
X0104314Y0205374D01*
X0104331Y0205275D01*
G37*
G36*
X0104348Y0205177D02*
X0103069Y0204952D01*
X0103052Y0205051D01*
X0104331Y0205276D01*
X0104348Y0205177D01*
G37*
G36*
X0104366Y0205078D02*
X0103087Y0204853D01*
X0103070Y0204952D01*
X0104349Y0205177D01*
X0104366Y0205078D01*
G37*
G36*
X0104383Y0204980D02*
X0103104Y0204755D01*
X0103087Y0204854D01*
X0104366Y0205079D01*
X0104383Y0204980D01*
G37*
G36*
X0104400Y0204882D02*
X0103121Y0204657D01*
X0103104Y0204756D01*
X0104383Y0204981D01*
X0104400Y0204882D01*
G37*
G36*
X0104418Y0204783D02*
X0103139Y0204558D01*
X0103122Y0204657D01*
X0104401Y0204882D01*
X0104418Y0204783D01*
G37*
G36*
X0104435Y0204685D02*
X0103156Y0204460D01*
X0103139Y0204559D01*
X0104418Y0204784D01*
X0104435Y0204685D01*
G37*
G36*
X0104453Y0204586D02*
X0103174Y0204361D01*
X0103157Y0204460D01*
X0104436Y0204685D01*
X0104453Y0204586D01*
G37*
G36*
X0104470Y0204488D02*
X0103191Y0204263D01*
X0103174Y0204362D01*
X0104453Y0204587D01*
X0104470Y0204488D01*
G37*
G36*
X0104487Y0204389D02*
X0103208Y0204164D01*
X0103191Y0204263D01*
X0104470Y0204488D01*
X0104487Y0204389D01*
G37*
G36*
X0104505Y0204291D02*
X0103226Y0204066D01*
X0103209Y0204165D01*
X0104488Y0204390D01*
X0104505Y0204291D01*
G37*
G36*
X0104522Y0204192D02*
X0103243Y0203967D01*
X0103226Y0204066D01*
X0104505Y0204291D01*
X0104522Y0204192D01*
G37*
G36*
X0104539Y0204094D02*
X0103260Y0203869D01*
X0103243Y0203968D01*
X0104522Y0204193D01*
X0104539Y0204094D01*
G37*
G36*
X0104557Y0203995D02*
X0103278Y0203770D01*
X0103261Y0203869D01*
X0104540Y0204094D01*
X0104557Y0203995D01*
G37*
G36*
X0099732Y0206597D02*
X0098453Y0206372D01*
X0098436Y0206471D01*
X0099715Y0206696D01*
X0099732Y0206597D01*
G37*
G36*
X0091280Y0205005D02*
X0090001Y0204780D01*
X0089984Y0204879D01*
X0091263Y0205104D01*
X0091280Y0205005D01*
G37*
G36*
X0091297Y0204907D02*
X0090018Y0204682D01*
X0090001Y0204781D01*
X0091280Y0205006D01*
X0091297Y0204907D01*
G37*
G36*
X0091314Y0204808D02*
X0090035Y0204583D01*
X0090018Y0204682D01*
X0091297Y0204907D01*
X0091314Y0204808D01*
G37*
G36*
X0091332Y0204710D02*
X0090053Y0204485D01*
X0090036Y0204584D01*
X0091315Y0204809D01*
X0091332Y0204710D01*
G37*
G36*
X0091349Y0204611D02*
X0090070Y0204386D01*
X0090053Y0204485D01*
X0091332Y0204710D01*
X0091349Y0204611D01*
G37*
G36*
X0091366Y0204513D02*
X0090087Y0204288D01*
X0090070Y0204387D01*
X0091349Y0204612D01*
X0091366Y0204513D01*
G37*
G36*
X0091384Y0204414D02*
X0090105Y0204189D01*
X0090088Y0204288D01*
X0091367Y0204513D01*
X0091384Y0204414D01*
G37*
G36*
X0091401Y0204316D02*
X0090122Y0204091D01*
X0090105Y0204190D01*
X0091384Y0204415D01*
X0091401Y0204316D01*
G37*
G36*
X0091419Y0204217D02*
X0090140Y0203992D01*
X0090123Y0204091D01*
X0091402Y0204316D01*
X0091419Y0204217D01*
G37*
G36*
X0091436Y0204119D02*
X0090157Y0203894D01*
X0090140Y0203993D01*
X0091419Y0204218D01*
X0091436Y0204119D01*
G37*
G36*
X0091453Y0204020D02*
X0090174Y0203795D01*
X0090157Y0203894D01*
X0091436Y0204119D01*
X0091453Y0204020D01*
G37*
G36*
X0091471Y0203922D02*
X0090192Y0203697D01*
X0090175Y0203796D01*
X0091454Y0204021D01*
X0091471Y0203922D01*
G37*
G36*
X0091488Y0203823D02*
X0090209Y0203598D01*
X0090192Y0203697D01*
X0091471Y0203922D01*
X0091488Y0203823D01*
G37*
G36*
X0091505Y0203725D02*
X0090226Y0203500D01*
X0090209Y0203599D01*
X0091488Y0203824D01*
X0091505Y0203725D01*
G37*
G36*
X0091523Y0203626D02*
X0090244Y0203401D01*
X0090227Y0203500D01*
X0091506Y0203725D01*
X0091523Y0203626D01*
G37*
G36*
X0091540Y0203528D02*
X0090261Y0203303D01*
X0090244Y0203402D01*
X0091523Y0203627D01*
X0091540Y0203528D01*
G37*
G36*
X0091557Y0203429D02*
X0090278Y0203204D01*
X0090261Y0203303D01*
X0091540Y0203528D01*
X0091557Y0203429D01*
G37*
G36*
X0091575Y0203331D02*
X0090296Y0203106D01*
X0090279Y0203205D01*
X0091558Y0203430D01*
X0091575Y0203331D01*
G37*
G36*
X0091592Y0203232D02*
X0090313Y0203007D01*
X0090296Y0203106D01*
X0091575Y0203331D01*
X0091592Y0203232D01*
G37*
G36*
X0091610Y0203134D02*
X0090331Y0202909D01*
X0090314Y0203008D01*
X0091593Y0203233D01*
X0091610Y0203134D01*
G37*
G36*
X0091627Y0203035D02*
X0090348Y0202810D01*
X0090331Y0202909D01*
X0091610Y0203134D01*
X0091627Y0203035D01*
G37*
G36*
X0091644Y0202937D02*
X0090365Y0202712D01*
X0090348Y0202811D01*
X0091627Y0203036D01*
X0091644Y0202937D01*
G37*
G36*
X0091662Y0202838D02*
X0090383Y0202613D01*
X0090366Y0202712D01*
X0091645Y0202937D01*
X0091662Y0202838D01*
G37*
G36*
X0091679Y0202740D02*
X0090400Y0202515D01*
X0090383Y0202614D01*
X0091662Y0202839D01*
X0091679Y0202740D01*
G37*
G36*
X0091696Y0202641D02*
X0090417Y0202416D01*
X0090400Y0202515D01*
X0091679Y0202740D01*
X0091696Y0202641D01*
G37*
G36*
X0091714Y0202543D02*
X0090435Y0202318D01*
X0090418Y0202417D01*
X0091697Y0202642D01*
X0091714Y0202543D01*
G37*
G36*
X0091731Y0202444D02*
X0090452Y0202219D01*
X0090435Y0202318D01*
X0091714Y0202543D01*
X0091731Y0202444D01*
G37*
G36*
X0091749Y0202346D02*
X0090470Y0202121D01*
X0090453Y0202220D01*
X0091732Y0202445D01*
X0091749Y0202346D01*
G37*
G36*
X0091766Y0202248D02*
X0090487Y0202023D01*
X0090470Y0202122D01*
X0091749Y0202347D01*
X0091766Y0202248D01*
G37*
G36*
X0091783Y0202149D02*
X0090504Y0201924D01*
X0090487Y0202023D01*
X0091766Y0202248D01*
X0091783Y0202149D01*
G37*
G36*
X0091801Y0202051D02*
X0090522Y0201826D01*
X0090505Y0201925D01*
X0091784Y0202150D01*
X0091801Y0202051D01*
G37*
G36*
X0091818Y0201952D02*
X0090539Y0201727D01*
X0090522Y0201826D01*
X0091801Y0202051D01*
X0091818Y0201952D01*
G37*
G36*
X0091835Y0201854D02*
X0090556Y0201629D01*
X0090539Y0201728D01*
X0091818Y0201953D01*
X0091835Y0201854D01*
G37*
G36*
X0091853Y0201755D02*
X0090574Y0201530D01*
X0090557Y0201629D01*
X0091836Y0201854D01*
X0091853Y0201755D01*
G37*
G36*
X0089785Y0201390D02*
X0088506Y0201165D01*
X0088489Y0201264D01*
X0089768Y0201489D01*
X0089785Y0201390D01*
G37*
G36*
X0089767Y0201489D02*
X0088488Y0201264D01*
X0088471Y0201363D01*
X0089750Y0201588D01*
X0089767Y0201489D01*
G37*
G36*
X0089750Y0201587D02*
X0088471Y0201362D01*
X0088454Y0201461D01*
X0089733Y0201686D01*
X0089750Y0201587D01*
G37*
G36*
X0089732Y0201686D02*
X0088453Y0201461D01*
X0088436Y0201560D01*
X0089715Y0201785D01*
X0089732Y0201686D01*
G37*
G36*
X0089715Y0201784D02*
X0088436Y0201559D01*
X0088419Y0201658D01*
X0089698Y0201883D01*
X0089715Y0201784D01*
G37*
G36*
X0089698Y0201883D02*
X0088419Y0201658D01*
X0088402Y0201757D01*
X0089681Y0201982D01*
X0089698Y0201883D01*
G37*
G36*
X0089680Y0201981D02*
X0088401Y0201756D01*
X0088384Y0201855D01*
X0089663Y0202080D01*
X0089680Y0201981D01*
G37*
G36*
X0089663Y0202080D02*
X0088384Y0201855D01*
X0088367Y0201954D01*
X0089646Y0202179D01*
X0089663Y0202080D01*
G37*
G36*
X0089646Y0202178D02*
X0088367Y0201953D01*
X0088350Y0202052D01*
X0089629Y0202277D01*
X0089646Y0202178D01*
G37*
G36*
X0089628Y0202277D02*
X0088349Y0202052D01*
X0088332Y0202151D01*
X0089611Y0202376D01*
X0089628Y0202277D01*
G37*
G36*
X0089611Y0202375D02*
X0088332Y0202150D01*
X0088315Y0202249D01*
X0089594Y0202474D01*
X0089611Y0202375D01*
G37*
G36*
X0089594Y0202474D02*
X0088315Y0202249D01*
X0088298Y0202348D01*
X0089577Y0202573D01*
X0089594Y0202474D01*
G37*
G36*
X0089576Y0202572D02*
X0088297Y0202347D01*
X0088280Y0202446D01*
X0089559Y0202671D01*
X0089576Y0202572D01*
G37*
G36*
X0089559Y0202671D02*
X0088280Y0202446D01*
X0088263Y0202545D01*
X0089542Y0202770D01*
X0089559Y0202671D01*
G37*
G36*
X0089541Y0202769D02*
X0088262Y0202544D01*
X0088245Y0202643D01*
X0089524Y0202868D01*
X0089541Y0202769D01*
G37*
G36*
X0089524Y0202868D02*
X0088245Y0202643D01*
X0088228Y0202742D01*
X0089507Y0202967D01*
X0089524Y0202868D01*
G37*
G36*
X0089507Y0202966D02*
X0088228Y0202741D01*
X0088211Y0202840D01*
X0089490Y0203065D01*
X0089507Y0202966D01*
G37*
G36*
X0089489Y0203065D02*
X0088210Y0202840D01*
X0088193Y0202939D01*
X0089472Y0203164D01*
X0089489Y0203065D01*
G37*
G36*
X0089472Y0203163D02*
X0088193Y0202938D01*
X0088176Y0203037D01*
X0089455Y0203262D01*
X0089472Y0203163D01*
G37*
G36*
X0089455Y0203262D02*
X0088176Y0203037D01*
X0088159Y0203136D01*
X0089438Y0203361D01*
X0089455Y0203262D01*
G37*
G36*
X0089437Y0203360D02*
X0088158Y0203135D01*
X0088141Y0203234D01*
X0089420Y0203459D01*
X0089437Y0203360D01*
G37*
G36*
X0089420Y0203459D02*
X0088141Y0203234D01*
X0088124Y0203333D01*
X0089403Y0203558D01*
X0089420Y0203459D01*
G37*
G36*
X0089403Y0203557D02*
X0088124Y0203332D01*
X0088107Y0203431D01*
X0089386Y0203656D01*
X0089403Y0203557D01*
G37*
G36*
X0089385Y0203656D02*
X0088106Y0203431D01*
X0088089Y0203530D01*
X0089368Y0203755D01*
X0089385Y0203656D01*
G37*
G36*
X0089368Y0203754D02*
X0088089Y0203529D01*
X0088072Y0203628D01*
X0089351Y0203853D01*
X0089368Y0203754D01*
G37*
G36*
X0089350Y0203852D02*
X0088071Y0203627D01*
X0088054Y0203726D01*
X0089333Y0203951D01*
X0089350Y0203852D01*
G37*
G36*
X0089333Y0203951D02*
X0088054Y0203726D01*
X0088037Y0203825D01*
X0089316Y0204050D01*
X0089333Y0203951D01*
G37*
G36*
X0089316Y0204049D02*
X0088037Y0203824D01*
X0088020Y0203923D01*
X0089299Y0204148D01*
X0089316Y0204049D01*
G37*
G36*
X0089298Y0204148D02*
X0088019Y0203923D01*
X0088002Y0204022D01*
X0089281Y0204247D01*
X0089298Y0204148D01*
G37*
G36*
X0089281Y0204246D02*
X0088002Y0204021D01*
X0087985Y0204120D01*
X0089264Y0204345D01*
X0089281Y0204246D01*
G37*
G36*
X0089264Y0204345D02*
X0087985Y0204120D01*
X0087968Y0204219D01*
X0089247Y0204444D01*
X0089264Y0204345D01*
G37*
G36*
X0089246Y0204443D02*
X0087967Y0204218D01*
X0087950Y0204317D01*
X0089229Y0204542D01*
X0089246Y0204443D01*
G37*
G36*
X0089229Y0204542D02*
X0087950Y0204317D01*
X0087933Y0204416D01*
X0089212Y0204641D01*
X0089229Y0204542D01*
G37*
G36*
X0089212Y0204640D02*
X0087933Y0204415D01*
X0087916Y0204514D01*
X0089195Y0204739D01*
X0089212Y0204640D01*
G37*
G36*
X0089194Y0204739D02*
X0087915Y0204514D01*
X0087898Y0204613D01*
X0089177Y0204838D01*
X0089194Y0204739D01*
G37*
G36*
X0091262Y0205103D02*
X0089983Y0204878D01*
X0089966Y0204977D01*
X0091245Y0205202D01*
X0091262Y0205103D01*
G37*
G36*
X0084977Y0203894D02*
X0083698Y0203669D01*
X0083681Y0203768D01*
X0084960Y0203993D01*
X0084977Y0203894D01*
G37*
G36*
X0084994Y0203795D02*
X0083715Y0203570D01*
X0083698Y0203669D01*
X0084977Y0203894D01*
X0084994Y0203795D01*
G37*
G36*
X0085012Y0203697D02*
X0083733Y0203472D01*
X0083716Y0203571D01*
X0084995Y0203796D01*
X0085012Y0203697D01*
G37*
G36*
X0085029Y0203598D02*
X0083750Y0203373D01*
X0083733Y0203472D01*
X0085012Y0203697D01*
X0085029Y0203598D01*
G37*
G36*
X0085046Y0203500D02*
X0083767Y0203275D01*
X0083750Y0203374D01*
X0085029Y0203599D01*
X0085046Y0203500D01*
G37*
G36*
X0085064Y0203401D02*
X0083785Y0203176D01*
X0083768Y0203275D01*
X0085047Y0203500D01*
X0085064Y0203401D01*
G37*
G36*
X0085081Y0203303D02*
X0083802Y0203078D01*
X0083785Y0203177D01*
X0085064Y0203402D01*
X0085081Y0203303D01*
G37*
G36*
X0085098Y0203204D02*
X0083819Y0202979D01*
X0083802Y0203078D01*
X0085081Y0203303D01*
X0085098Y0203204D01*
G37*
G36*
X0085116Y0203106D02*
X0083837Y0202881D01*
X0083820Y0202980D01*
X0085099Y0203205D01*
X0085116Y0203106D01*
G37*
G36*
X0085133Y0203007D02*
X0083854Y0202782D01*
X0083837Y0202881D01*
X0085116Y0203106D01*
X0085133Y0203007D01*
G37*
G36*
X0085151Y0202909D02*
X0083872Y0202684D01*
X0083855Y0202783D01*
X0085134Y0203008D01*
X0085151Y0202909D01*
G37*
G36*
X0085168Y0202810D02*
X0083889Y0202585D01*
X0083872Y0202684D01*
X0085151Y0202909D01*
X0085168Y0202810D01*
G37*
G36*
X0085185Y0202712D02*
X0083906Y0202487D01*
X0083889Y0202586D01*
X0085168Y0202811D01*
X0085185Y0202712D01*
G37*
G36*
X0085203Y0202613D02*
X0083924Y0202388D01*
X0083907Y0202487D01*
X0085186Y0202712D01*
X0085203Y0202613D01*
G37*
G36*
X0085220Y0202515D02*
X0083941Y0202290D01*
X0083924Y0202389D01*
X0085203Y0202614D01*
X0085220Y0202515D01*
G37*
G36*
X0085237Y0202416D02*
X0083958Y0202191D01*
X0083941Y0202290D01*
X0085220Y0202515D01*
X0085237Y0202416D01*
G37*
G36*
X0085255Y0202318D02*
X0083976Y0202093D01*
X0083959Y0202192D01*
X0085238Y0202417D01*
X0085255Y0202318D01*
G37*
G36*
X0085272Y0202219D02*
X0083993Y0201994D01*
X0083976Y0202093D01*
X0085255Y0202318D01*
X0085272Y0202219D01*
G37*
G36*
X0085289Y0202121D02*
X0084010Y0201896D01*
X0083993Y0201995D01*
X0085272Y0202220D01*
X0085289Y0202121D01*
G37*
G36*
X0085307Y0202023D02*
X0084028Y0201798D01*
X0084011Y0201897D01*
X0085290Y0202122D01*
X0085307Y0202023D01*
G37*
G36*
X0085324Y0201924D02*
X0084045Y0201699D01*
X0084028Y0201798D01*
X0085307Y0202023D01*
X0085324Y0201924D01*
G37*
G36*
X0085342Y0201826D02*
X0084063Y0201601D01*
X0084046Y0201700D01*
X0085325Y0201925D01*
X0085342Y0201826D01*
G37*
G36*
X0085359Y0201727D02*
X0084080Y0201502D01*
X0084063Y0201601D01*
X0085342Y0201826D01*
X0085359Y0201727D01*
G37*
G36*
X0085376Y0201629D02*
X0084097Y0201404D01*
X0084080Y0201503D01*
X0085359Y0201728D01*
X0085376Y0201629D01*
G37*
G36*
X0085394Y0201530D02*
X0084115Y0201305D01*
X0084098Y0201404D01*
X0085377Y0201629D01*
X0085394Y0201530D01*
G37*
G36*
X0085411Y0201432D02*
X0084132Y0201207D01*
X0084115Y0201306D01*
X0085394Y0201531D01*
X0085411Y0201432D01*
G37*
G36*
X0085428Y0201333D02*
X0084149Y0201108D01*
X0084132Y0201207D01*
X0085411Y0201432D01*
X0085428Y0201333D01*
G37*
G36*
X0085446Y0201235D02*
X0084167Y0201010D01*
X0084150Y0201109D01*
X0085429Y0201334D01*
X0085446Y0201235D01*
G37*
G36*
X0085463Y0201136D02*
X0084184Y0200911D01*
X0084167Y0201010D01*
X0085446Y0201235D01*
X0085463Y0201136D01*
G37*
G36*
X0085480Y0201038D02*
X0084201Y0200813D01*
X0084184Y0200912D01*
X0085463Y0201137D01*
X0085480Y0201038D01*
G37*
G36*
X0085498Y0200939D02*
X0084219Y0200714D01*
X0084202Y0200813D01*
X0085481Y0201038D01*
X0085498Y0200939D01*
G37*
G36*
X0085515Y0200841D02*
X0084236Y0200616D01*
X0084219Y0200715D01*
X0085498Y0200940D01*
X0085515Y0200841D01*
G37*
G36*
X0085533Y0200742D02*
X0084254Y0200517D01*
X0084237Y0200616D01*
X0085516Y0200841D01*
X0085533Y0200742D01*
G37*
G36*
X0085550Y0200644D02*
X0084271Y0200419D01*
X0084254Y0200518D01*
X0085533Y0200743D01*
X0085550Y0200644D01*
G37*
G36*
X0084960Y0203992D02*
X0083681Y0203767D01*
X0083664Y0203866D01*
X0084943Y0204091D01*
X0084960Y0203992D01*
G37*
D11*
G36*
X0087045Y0204258D02*
X0085864Y0204051D01*
X0085847Y0204150D01*
X0087028Y0204357D01*
X0087045Y0204258D01*
G37*
G36*
X0087063Y0204160D02*
X0085882Y0203953D01*
X0085865Y0204052D01*
X0087046Y0204259D01*
X0087063Y0204160D01*
G37*
G36*
X0087080Y0204061D02*
X0085899Y0203854D01*
X0085882Y0203953D01*
X0087063Y0204160D01*
X0087080Y0204061D01*
G37*
G36*
X0087097Y0203963D02*
X0085916Y0203756D01*
X0085899Y0203855D01*
X0087080Y0204062D01*
X0087097Y0203963D01*
G37*
G36*
X0087115Y0203864D02*
X0085934Y0203657D01*
X0085917Y0203756D01*
X0087098Y0203963D01*
X0087115Y0203864D01*
G37*
G36*
X0087132Y0203766D02*
X0085951Y0203559D01*
X0085934Y0203658D01*
X0087115Y0203865D01*
X0087132Y0203766D01*
G37*
G36*
X0087149Y0203667D02*
X0085968Y0203460D01*
X0085951Y0203559D01*
X0087132Y0203766D01*
X0087149Y0203667D01*
G37*
G36*
X0087167Y0203569D02*
X0085986Y0203362D01*
X0085969Y0203461D01*
X0087150Y0203668D01*
X0087167Y0203569D01*
G37*
G36*
X0087184Y0203470D02*
X0086003Y0203263D01*
X0085986Y0203362D01*
X0087167Y0203569D01*
X0087184Y0203470D01*
G37*
G36*
X0087202Y0203372D02*
X0086021Y0203165D01*
X0086004Y0203264D01*
X0087185Y0203471D01*
X0087202Y0203372D01*
G37*
G36*
X0087219Y0203273D02*
X0086038Y0203066D01*
X0086021Y0203165D01*
X0087202Y0203372D01*
X0087219Y0203273D01*
G37*
G36*
X0087236Y0203175D02*
X0086055Y0202968D01*
X0086038Y0203067D01*
X0087219Y0203274D01*
X0087236Y0203175D01*
G37*
G36*
X0087254Y0203076D02*
X0086073Y0202869D01*
X0086056Y0202968D01*
X0087237Y0203175D01*
X0087254Y0203076D01*
G37*
G36*
X0087271Y0202978D02*
X0086090Y0202771D01*
X0086073Y0202870D01*
X0087254Y0203077D01*
X0087271Y0202978D01*
G37*
G36*
X0087288Y0202879D02*
X0086107Y0202672D01*
X0086090Y0202771D01*
X0087271Y0202978D01*
X0087288Y0202879D01*
G37*
G36*
X0087306Y0202781D02*
X0086125Y0202574D01*
X0086108Y0202673D01*
X0087289Y0202880D01*
X0087306Y0202781D01*
G37*
G36*
X0087323Y0202682D02*
X0086142Y0202475D01*
X0086125Y0202574D01*
X0087306Y0202781D01*
X0087323Y0202682D01*
G37*
G36*
X0087340Y0202584D02*
X0086159Y0202377D01*
X0086142Y0202476D01*
X0087323Y0202683D01*
X0087340Y0202584D01*
G37*
G36*
X0087358Y0202485D02*
X0086177Y0202278D01*
X0086160Y0202377D01*
X0087341Y0202584D01*
X0087358Y0202485D01*
G37*
G36*
X0087375Y0202387D02*
X0086194Y0202180D01*
X0086177Y0202279D01*
X0087358Y0202486D01*
X0087375Y0202387D01*
G37*
G36*
X0087393Y0202288D02*
X0086212Y0202081D01*
X0086195Y0202180D01*
X0087376Y0202387D01*
X0087393Y0202288D01*
G37*
G36*
X0087410Y0202190D02*
X0086229Y0201983D01*
X0086212Y0202082D01*
X0087393Y0202289D01*
X0087410Y0202190D01*
G37*
G36*
X0087427Y0202091D02*
X0086246Y0201884D01*
X0086229Y0201983D01*
X0087410Y0202190D01*
X0087427Y0202091D01*
G37*
G36*
X0087445Y0201993D02*
X0086264Y0201786D01*
X0086247Y0201885D01*
X0087428Y0202092D01*
X0087445Y0201993D01*
G37*
G36*
X0087462Y0201894D02*
X0086281Y0201687D01*
X0086264Y0201786D01*
X0087445Y0201993D01*
X0087462Y0201894D01*
G37*
G36*
X0087479Y0201796D02*
X0086298Y0201589D01*
X0086281Y0201688D01*
X0087462Y0201895D01*
X0087479Y0201796D01*
G37*
G36*
X0087497Y0201697D02*
X0086316Y0201490D01*
X0086299Y0201589D01*
X0087480Y0201796D01*
X0087497Y0201697D01*
G37*
G36*
X0087514Y0201599D02*
X0086333Y0201392D01*
X0086316Y0201491D01*
X0087497Y0201698D01*
X0087514Y0201599D01*
G37*
G36*
X0087531Y0201501D02*
X0086350Y0201294D01*
X0086333Y0201393D01*
X0087514Y0201600D01*
X0087531Y0201501D01*
G37*
G36*
X0087549Y0201402D02*
X0086368Y0201195D01*
X0086351Y0201294D01*
X0087532Y0201501D01*
X0087549Y0201402D01*
G37*
G36*
X0087566Y0201304D02*
X0086385Y0201097D01*
X0086368Y0201196D01*
X0087549Y0201403D01*
X0087566Y0201304D01*
G37*
G36*
X0087584Y0201205D02*
X0086403Y0200998D01*
X0086386Y0201097D01*
X0087567Y0201304D01*
X0087584Y0201205D01*
G37*
G36*
X0087601Y0201107D02*
X0086420Y0200900D01*
X0086403Y0200999D01*
X0087584Y0201206D01*
X0087601Y0201107D01*
G37*
G36*
X0087618Y0201008D02*
X0086437Y0200801D01*
X0086420Y0200900D01*
X0087601Y0201107D01*
X0087618Y0201008D01*
G37*
G36*
X0087028Y0204356D02*
X0085847Y0204149D01*
X0085830Y0204248D01*
X0087011Y0204455D01*
X0087028Y0204356D01*
G37*
G36*
X0097583Y0206116D02*
X0096402Y0205909D01*
X0096385Y0206008D01*
X0097566Y0206215D01*
X0097583Y0206116D01*
G37*
G36*
X0097600Y0206018D02*
X0096419Y0205811D01*
X0096402Y0205910D01*
X0097583Y0206117D01*
X0097600Y0206018D01*
G37*
G36*
X0097617Y0205919D02*
X0096436Y0205712D01*
X0096419Y0205811D01*
X0097600Y0206018D01*
X0097617Y0205919D01*
G37*
G36*
X0097635Y0205821D02*
X0096454Y0205614D01*
X0096437Y0205713D01*
X0097618Y0205920D01*
X0097635Y0205821D01*
G37*
G36*
X0097652Y0205722D02*
X0096471Y0205515D01*
X0096454Y0205614D01*
X0097635Y0205821D01*
X0097652Y0205722D01*
G37*
G36*
X0097669Y0205624D02*
X0096488Y0205417D01*
X0096471Y0205516D01*
X0097652Y0205723D01*
X0097669Y0205624D01*
G37*
G36*
X0097687Y0205525D02*
X0096506Y0205318D01*
X0096489Y0205417D01*
X0097670Y0205624D01*
X0097687Y0205525D01*
G37*
G36*
X0097704Y0205427D02*
X0096523Y0205220D01*
X0096506Y0205319D01*
X0097687Y0205526D01*
X0097704Y0205427D01*
G37*
G36*
X0097722Y0205328D02*
X0096541Y0205121D01*
X0096524Y0205220D01*
X0097705Y0205427D01*
X0097722Y0205328D01*
G37*
G36*
X0097739Y0205230D02*
X0096558Y0205023D01*
X0096541Y0205122D01*
X0097722Y0205329D01*
X0097739Y0205230D01*
G37*
G36*
X0097756Y0205131D02*
X0096575Y0204924D01*
X0096558Y0205023D01*
X0097739Y0205230D01*
X0097756Y0205131D01*
G37*
G36*
X0097774Y0205033D02*
X0096593Y0204826D01*
X0096576Y0204925D01*
X0097757Y0205132D01*
X0097774Y0205033D01*
G37*
G36*
X0097791Y0204934D02*
X0096610Y0204727D01*
X0096593Y0204826D01*
X0097774Y0205033D01*
X0097791Y0204934D01*
G37*
G36*
X0097808Y0204836D02*
X0096627Y0204629D01*
X0096610Y0204728D01*
X0097791Y0204935D01*
X0097808Y0204836D01*
G37*
G36*
X0097826Y0204737D02*
X0096645Y0204530D01*
X0096628Y0204629D01*
X0097809Y0204836D01*
X0097826Y0204737D01*
G37*
G36*
X0097843Y0204639D02*
X0096662Y0204432D01*
X0096645Y0204531D01*
X0097826Y0204738D01*
X0097843Y0204639D01*
G37*
G36*
X0097861Y0204540D02*
X0096680Y0204333D01*
X0096663Y0204432D01*
X0097844Y0204639D01*
X0097861Y0204540D01*
G37*
G36*
X0097878Y0204442D02*
X0096697Y0204235D01*
X0096680Y0204334D01*
X0097861Y0204541D01*
X0097878Y0204442D01*
G37*
G36*
X0097895Y0204343D02*
X0096714Y0204136D01*
X0096697Y0204235D01*
X0097878Y0204442D01*
X0097895Y0204343D01*
G37*
G36*
X0097913Y0204245D02*
X0096732Y0204038D01*
X0096715Y0204137D01*
X0097896Y0204344D01*
X0097913Y0204245D01*
G37*
G36*
X0097930Y0204146D02*
X0096749Y0203939D01*
X0096732Y0204038D01*
X0097913Y0204245D01*
X0097930Y0204146D01*
G37*
G36*
X0097947Y0204048D02*
X0096766Y0203841D01*
X0096749Y0203940D01*
X0097930Y0204147D01*
X0097947Y0204048D01*
G37*
G36*
X0097965Y0203949D02*
X0096784Y0203742D01*
X0096767Y0203841D01*
X0097948Y0204048D01*
X0097965Y0203949D01*
G37*
G36*
X0097982Y0203851D02*
X0096801Y0203644D01*
X0096784Y0203743D01*
X0097965Y0203950D01*
X0097982Y0203851D01*
G37*
G36*
X0097999Y0203752D02*
X0096818Y0203545D01*
X0096801Y0203644D01*
X0097982Y0203851D01*
X0097999Y0203752D01*
G37*
G36*
X0098017Y0203654D02*
X0096836Y0203447D01*
X0096819Y0203546D01*
X0098000Y0203753D01*
X0098017Y0203654D01*
G37*
G36*
X0098034Y0203556D02*
X0096853Y0203349D01*
X0096836Y0203448D01*
X0098017Y0203655D01*
X0098034Y0203556D01*
G37*
G36*
X0098052Y0203457D02*
X0096871Y0203250D01*
X0096854Y0203349D01*
X0098035Y0203556D01*
X0098052Y0203457D01*
G37*
G36*
X0098069Y0203359D02*
X0096888Y0203152D01*
X0096871Y0203251D01*
X0098052Y0203458D01*
X0098069Y0203359D01*
G37*
G36*
X0098086Y0203260D02*
X0096905Y0203053D01*
X0096888Y0203152D01*
X0098069Y0203359D01*
X0098086Y0203260D01*
G37*
G36*
X0098104Y0203162D02*
X0096923Y0202955D01*
X0096906Y0203054D01*
X0098087Y0203261D01*
X0098104Y0203162D01*
G37*
G36*
X0098121Y0203063D02*
X0096940Y0202856D01*
X0096923Y0202955D01*
X0098104Y0203162D01*
X0098121Y0203063D01*
G37*
G36*
X0098138Y0202965D02*
X0096957Y0202758D01*
X0096940Y0202857D01*
X0098121Y0203064D01*
X0098138Y0202965D01*
G37*
G36*
X0098156Y0202866D02*
X0096975Y0202659D01*
X0096958Y0202758D01*
X0098139Y0202965D01*
X0098156Y0202866D01*
G37*
G36*
X0097565Y0206215D02*
X0096384Y0206008D01*
X0096367Y0206107D01*
X0097548Y0206314D01*
X0097565Y0206215D01*
G37*
G36*
X0093920Y0193488D02*
X0092739Y0193281D01*
X0092722Y0193380D01*
X0093903Y0193587D01*
X0093920Y0193488D01*
G37*
G36*
X0093839Y0193372D02*
X0092658Y0193165D01*
X0092641Y0193264D01*
X0093822Y0193471D01*
X0093839Y0193372D01*
G37*
G36*
X0093775Y0193158D02*
X0092594Y0192951D01*
X0092577Y0193050D01*
X0093758Y0193257D01*
X0093775Y0193158D01*
G37*
G36*
X0093729Y0192845D02*
X0092548Y0192638D01*
X0092531Y0192737D01*
X0093712Y0192944D01*
X0093729Y0192845D01*
G37*
G36*
X0093665Y0192631D02*
X0092484Y0192424D01*
X0092467Y0192523D01*
X0093648Y0192730D01*
X0093665Y0192631D01*
G37*
G36*
X0093682Y0192532D02*
X0092501Y0192325D01*
X0092484Y0192424D01*
X0093665Y0192631D01*
X0093682Y0192532D01*
G37*
G36*
X0102029Y0187810D02*
X0100848Y0187603D01*
X0100831Y0187702D01*
X0102012Y0187909D01*
X0102029Y0187810D01*
G37*
G36*
X0102046Y0187712D02*
X0100865Y0187505D01*
X0100848Y0187604D01*
X0102029Y0187811D01*
X0102046Y0187712D01*
G37*
G36*
X0104554Y0185006D02*
X0103373Y0184799D01*
X0103356Y0184898D01*
X0104537Y0185105D01*
X0104554Y0185006D01*
G37*
G36*
X0098049Y0184468D02*
X0096868Y0184261D01*
X0096851Y0184360D01*
X0098032Y0184567D01*
X0098049Y0184468D01*
G37*
G36*
X0094405Y0183826D02*
X0093224Y0183619D01*
X0093207Y0183718D01*
X0094388Y0183925D01*
X0094405Y0183826D01*
G37*
G36*
X0094145Y0185303D02*
X0092964Y0185096D01*
X0092947Y0185195D01*
X0094128Y0185402D01*
X0094145Y0185303D01*
G37*
G36*
X0102115Y0180413D02*
X0100934Y0180206D01*
X0100917Y0180305D01*
X0102098Y0180512D01*
X0102115Y0180413D01*
G37*
G36*
X0102132Y0180314D02*
X0100951Y0180107D01*
X0100934Y0180206D01*
X0102115Y0180413D01*
X0102132Y0180314D01*
G37*
G36*
X0102150Y0180216D02*
X0100969Y0180009D01*
X0100952Y0180108D01*
X0102133Y0180315D01*
X0102150Y0180216D01*
G37*
G36*
X0102167Y0180117D02*
X0100986Y0179910D01*
X0100969Y0180009D01*
X0102150Y0180216D01*
X0102167Y0180117D01*
G37*
G36*
X0102184Y0180019D02*
X0101003Y0179812D01*
X0100986Y0179911D01*
X0102167Y0180118D01*
X0102184Y0180019D01*
G37*
G36*
X0102202Y0179920D02*
X0101021Y0179713D01*
X0101004Y0179812D01*
X0102185Y0180019D01*
X0102202Y0179920D01*
G37*
G36*
X0102219Y0179822D02*
X0101038Y0179615D01*
X0101021Y0179714D01*
X0102202Y0179921D01*
X0102219Y0179822D01*
G37*
G36*
X0102236Y0179723D02*
X0101055Y0179516D01*
X0101038Y0179615D01*
X0102219Y0179822D01*
X0102236Y0179723D01*
G37*
G36*
X0102254Y0179625D02*
X0101073Y0179418D01*
X0101056Y0179517D01*
X0102237Y0179724D01*
X0102254Y0179625D01*
G37*
G36*
X0102271Y0179526D02*
X0101090Y0179319D01*
X0101073Y0179418D01*
X0102254Y0179625D01*
X0102271Y0179526D01*
G37*
G36*
X0102289Y0179428D02*
X0101108Y0179221D01*
X0101091Y0179320D01*
X0102272Y0179527D01*
X0102289Y0179428D01*
G37*
G36*
X0102306Y0179329D02*
X0101125Y0179122D01*
X0101108Y0179221D01*
X0102289Y0179428D01*
X0102306Y0179329D01*
G37*
G36*
X0102323Y0179231D02*
X0101142Y0179024D01*
X0101125Y0179123D01*
X0102306Y0179330D01*
X0102323Y0179231D01*
G37*
G36*
X0102341Y0179132D02*
X0101160Y0178925D01*
X0101143Y0179024D01*
X0102324Y0179231D01*
X0102341Y0179132D01*
G37*
G36*
X0102358Y0179034D02*
X0101177Y0178827D01*
X0101160Y0178926D01*
X0102341Y0179133D01*
X0102358Y0179034D01*
G37*
G36*
X0102375Y0178935D02*
X0101194Y0178728D01*
X0101177Y0178827D01*
X0102358Y0179034D01*
X0102375Y0178935D01*
G37*
G36*
X0102393Y0178837D02*
X0101212Y0178630D01*
X0101195Y0178729D01*
X0102376Y0178936D01*
X0102393Y0178837D01*
G37*
G36*
X0102410Y0178738D02*
X0101229Y0178531D01*
X0101212Y0178630D01*
X0102393Y0178837D01*
X0102410Y0178738D01*
G37*
G36*
X0102427Y0178640D02*
X0101246Y0178433D01*
X0101229Y0178532D01*
X0102410Y0178739D01*
X0102427Y0178640D01*
G37*
G36*
X0102445Y0178541D02*
X0101264Y0178334D01*
X0101247Y0178433D01*
X0102428Y0178640D01*
X0102445Y0178541D01*
G37*
G36*
X0102462Y0178443D02*
X0101281Y0178236D01*
X0101264Y0178335D01*
X0102445Y0178542D01*
X0102462Y0178443D01*
G37*
G36*
X0102480Y0178344D02*
X0101299Y0178137D01*
X0101282Y0178236D01*
X0102463Y0178443D01*
X0102480Y0178344D01*
G37*
G36*
X0102497Y0178246D02*
X0101316Y0178039D01*
X0101299Y0178138D01*
X0102480Y0178345D01*
X0102497Y0178246D01*
G37*
G36*
X0102514Y0178147D02*
X0101333Y0177940D01*
X0101316Y0178039D01*
X0102497Y0178246D01*
X0102514Y0178147D01*
G37*
G36*
X0102532Y0178049D02*
X0101351Y0177842D01*
X0101334Y0177941D01*
X0102515Y0178148D01*
X0102532Y0178049D01*
G37*
G36*
X0102549Y0177951D02*
X0101368Y0177744D01*
X0101351Y0177843D01*
X0102532Y0178050D01*
X0102549Y0177951D01*
G37*
G36*
X0102566Y0177852D02*
X0101385Y0177645D01*
X0101368Y0177744D01*
X0102549Y0177951D01*
X0102566Y0177852D01*
G37*
G36*
X0102584Y0177754D02*
X0101403Y0177547D01*
X0101386Y0177646D01*
X0102567Y0177853D01*
X0102584Y0177754D01*
G37*
G36*
X0102601Y0177655D02*
X0101420Y0177448D01*
X0101403Y0177547D01*
X0102584Y0177754D01*
X0102601Y0177655D01*
G37*
G36*
X0102618Y0177557D02*
X0101437Y0177350D01*
X0101420Y0177449D01*
X0102601Y0177656D01*
X0102618Y0177557D01*
G37*
G36*
X0102636Y0177458D02*
X0101455Y0177251D01*
X0101438Y0177350D01*
X0102619Y0177557D01*
X0102636Y0177458D01*
G37*
G36*
X0102653Y0177360D02*
X0101472Y0177153D01*
X0101455Y0177252D01*
X0102636Y0177459D01*
X0102653Y0177360D01*
G37*
G36*
X0102671Y0177261D02*
X0101490Y0177054D01*
X0101473Y0177153D01*
X0102654Y0177360D01*
X0102671Y0177261D01*
G37*
G36*
X0102688Y0177163D02*
X0101507Y0176956D01*
X0101490Y0177055D01*
X0102671Y0177262D01*
X0102688Y0177163D01*
G37*
G36*
X0092150Y0175305D02*
X0090969Y0175098D01*
X0090952Y0175197D01*
X0092133Y0175404D01*
X0092150Y0175305D01*
G37*
G36*
X0092133Y0175403D02*
X0090952Y0175196D01*
X0090935Y0175295D01*
X0092116Y0175502D01*
X0092133Y0175403D01*
G37*
G36*
X0092116Y0175502D02*
X0090935Y0175295D01*
X0090918Y0175394D01*
X0092099Y0175601D01*
X0092116Y0175502D01*
G37*
G36*
X0092098Y0175600D02*
X0090917Y0175393D01*
X0090900Y0175492D01*
X0092081Y0175699D01*
X0092098Y0175600D01*
G37*
G36*
X0092081Y0175699D02*
X0090900Y0175492D01*
X0090883Y0175591D01*
X0092064Y0175798D01*
X0092081Y0175699D01*
G37*
G36*
X0092064Y0175797D02*
X0090883Y0175590D01*
X0090866Y0175689D01*
X0092047Y0175896D01*
X0092064Y0175797D01*
G37*
G36*
X0092046Y0175896D02*
X0090865Y0175689D01*
X0090848Y0175788D01*
X0092029Y0175995D01*
X0092046Y0175896D01*
G37*
G36*
X0092029Y0175994D02*
X0090848Y0175787D01*
X0090831Y0175886D01*
X0092012Y0176093D01*
X0092029Y0175994D01*
G37*
G36*
X0092012Y0176092D02*
X0090831Y0175885D01*
X0090814Y0175984D01*
X0091995Y0176191D01*
X0092012Y0176092D01*
G37*
G36*
X0091994Y0176191D02*
X0090813Y0175984D01*
X0090796Y0176083D01*
X0091977Y0176290D01*
X0091994Y0176191D01*
G37*
G36*
X0091977Y0176289D02*
X0090796Y0176082D01*
X0090779Y0176181D01*
X0091960Y0176388D01*
X0091977Y0176289D01*
G37*
G36*
X0091959Y0176388D02*
X0090778Y0176181D01*
X0090761Y0176280D01*
X0091942Y0176487D01*
X0091959Y0176388D01*
G37*
G36*
X0091942Y0176486D02*
X0090761Y0176279D01*
X0090744Y0176378D01*
X0091925Y0176585D01*
X0091942Y0176486D01*
G37*
G36*
X0091925Y0176585D02*
X0090744Y0176378D01*
X0090727Y0176477D01*
X0091908Y0176684D01*
X0091925Y0176585D01*
G37*
G36*
X0091907Y0176683D02*
X0090726Y0176476D01*
X0090709Y0176575D01*
X0091890Y0176782D01*
X0091907Y0176683D01*
G37*
G36*
X0091890Y0176782D02*
X0090709Y0176575D01*
X0090692Y0176674D01*
X0091873Y0176881D01*
X0091890Y0176782D01*
G37*
G36*
X0091873Y0176880D02*
X0090692Y0176673D01*
X0090675Y0176772D01*
X0091856Y0176979D01*
X0091873Y0176880D01*
G37*
G36*
X0091855Y0176979D02*
X0090674Y0176772D01*
X0090657Y0176871D01*
X0091838Y0177078D01*
X0091855Y0176979D01*
G37*
G36*
X0091838Y0177077D02*
X0090657Y0176870D01*
X0090640Y0176969D01*
X0091821Y0177176D01*
X0091838Y0177077D01*
G37*
G36*
X0091821Y0177176D02*
X0090640Y0176969D01*
X0090623Y0177068D01*
X0091804Y0177275D01*
X0091821Y0177176D01*
G37*
G36*
X0091803Y0177274D02*
X0090622Y0177067D01*
X0090605Y0177166D01*
X0091786Y0177373D01*
X0091803Y0177274D01*
G37*
G36*
X0091786Y0177373D02*
X0090605Y0177166D01*
X0090588Y0177265D01*
X0091769Y0177472D01*
X0091786Y0177373D01*
G37*
G36*
X0091768Y0177471D02*
X0090587Y0177264D01*
X0090570Y0177363D01*
X0091751Y0177570D01*
X0091768Y0177471D01*
G37*
G36*
X0091751Y0177570D02*
X0090570Y0177363D01*
X0090553Y0177462D01*
X0091734Y0177669D01*
X0091751Y0177570D01*
G37*
G36*
X0091734Y0177668D02*
X0090553Y0177461D01*
X0090536Y0177560D01*
X0091717Y0177767D01*
X0091734Y0177668D01*
G37*
G36*
X0091716Y0177767D02*
X0090535Y0177560D01*
X0090518Y0177659D01*
X0091699Y0177866D01*
X0091716Y0177767D01*
G37*
G36*
X0091699Y0177865D02*
X0090518Y0177658D01*
X0090501Y0177757D01*
X0091682Y0177964D01*
X0091699Y0177865D01*
G37*
G36*
X0091682Y0177964D02*
X0090501Y0177757D01*
X0090484Y0177856D01*
X0091665Y0178063D01*
X0091682Y0177964D01*
G37*
G36*
X0091664Y0178062D02*
X0090483Y0177855D01*
X0090466Y0177954D01*
X0091647Y0178161D01*
X0091664Y0178062D01*
G37*
G36*
X0091647Y0178161D02*
X0090466Y0177954D01*
X0090449Y0178053D01*
X0091630Y0178260D01*
X0091647Y0178161D01*
G37*
G36*
X0091630Y0178259D02*
X0090449Y0178052D01*
X0090432Y0178151D01*
X0091613Y0178358D01*
X0091630Y0178259D01*
G37*
G36*
X0091612Y0178358D02*
X0090431Y0178151D01*
X0090414Y0178250D01*
X0091595Y0178457D01*
X0091612Y0178358D01*
G37*
G36*
X0091595Y0178456D02*
X0090414Y0178249D01*
X0090397Y0178348D01*
X0091578Y0178555D01*
X0091595Y0178456D01*
G37*
G36*
X0091577Y0178555D02*
X0090396Y0178348D01*
X0090379Y0178447D01*
X0091560Y0178654D01*
X0091577Y0178555D01*
G37*
D12*
G36*
X0109484Y0181814D02*
X0087130Y0177873D01*
X0087112Y0177972D01*
X0109466Y0181913D01*
X0109484Y0181814D01*
G37*
G36*
X0109467Y0181912D02*
X0087113Y0177971D01*
X0087095Y0178070D01*
X0109449Y0182011D01*
X0109467Y0181912D01*
G37*
G36*
X0109449Y0182011D02*
X0087095Y0178070D01*
X0087077Y0178169D01*
X0109431Y0182110D01*
X0109449Y0182011D01*
G37*
G36*
X0109432Y0182109D02*
X0087078Y0178168D01*
X0087060Y0178267D01*
X0109414Y0182208D01*
X0109432Y0182109D01*
G37*
G36*
X0109414Y0182208D02*
X0087060Y0178267D01*
X0087042Y0178366D01*
X0109396Y0182307D01*
X0109414Y0182208D01*
G37*
G36*
X0109397Y0182306D02*
X0087043Y0178365D01*
X0087025Y0178464D01*
X0109379Y0182405D01*
X0109397Y0182306D01*
G37*
G36*
X0109380Y0182405D02*
X0087026Y0178464D01*
X0087008Y0178563D01*
X0109362Y0182504D01*
X0109380Y0182405D01*
G37*
G36*
X0109362Y0182503D02*
X0087008Y0178562D01*
X0086990Y0178661D01*
X0109344Y0182602D01*
X0109362Y0182503D01*
G37*
G36*
X0109345Y0182602D02*
X0086991Y0178661D01*
X0086973Y0178760D01*
X0109327Y0182701D01*
X0109345Y0182602D01*
G37*
G36*
X0109328Y0182700D02*
X0086974Y0178759D01*
X0086956Y0178858D01*
X0109310Y0182799D01*
X0109328Y0182700D01*
G37*
G36*
X0109310Y0182798D02*
X0086956Y0178857D01*
X0086938Y0178956D01*
X0109292Y0182897D01*
X0109310Y0182798D01*
G37*
G36*
X0109067Y0184177D02*
X0086713Y0180236D01*
X0086695Y0180335D01*
X0109049Y0184276D01*
X0109067Y0184177D01*
G37*
G36*
X0109050Y0184276D02*
X0086696Y0180335D01*
X0086678Y0180434D01*
X0109032Y0184375D01*
X0109050Y0184276D01*
G37*
G36*
X0109032Y0184374D02*
X0086678Y0180433D01*
X0086660Y0180532D01*
X0109014Y0184473D01*
X0109032Y0184374D01*
G37*
G36*
X0109015Y0184473D02*
X0086661Y0180532D01*
X0086643Y0180631D01*
X0108997Y0184572D01*
X0109015Y0184473D01*
G37*
G36*
X0108998Y0184571D02*
X0086644Y0180630D01*
X0086626Y0180729D01*
X0108980Y0184670D01*
X0108998Y0184571D01*
G37*
G36*
X0108980Y0184670D02*
X0086626Y0180729D01*
X0086608Y0180828D01*
X0108962Y0184769D01*
X0108980Y0184670D01*
G37*
G36*
X0108963Y0184768D02*
X0086609Y0180827D01*
X0086591Y0180926D01*
X0108945Y0184867D01*
X0108963Y0184768D01*
G37*
G36*
X0108946Y0184867D02*
X0086592Y0180926D01*
X0086574Y0181025D01*
X0108928Y0184966D01*
X0108946Y0184867D01*
G37*
G36*
X0107591Y0192548D02*
X0085237Y0188607D01*
X0085219Y0188706D01*
X0107573Y0192647D01*
X0107591Y0192548D01*
G37*
G36*
X0107574Y0192647D02*
X0085220Y0188706D01*
X0085202Y0188805D01*
X0107556Y0192746D01*
X0107574Y0192647D01*
G37*
G36*
X0107556Y0192745D02*
X0085202Y0188804D01*
X0085184Y0188903D01*
X0107538Y0192844D01*
X0107556Y0192745D01*
G37*
G36*
X0107539Y0192844D02*
X0085185Y0188903D01*
X0085167Y0189002D01*
X0107521Y0192943D01*
X0107539Y0192844D01*
G37*
G36*
X0107522Y0192942D02*
X0085168Y0189001D01*
X0085150Y0189100D01*
X0107504Y0193041D01*
X0107522Y0192942D01*
G37*
G36*
X0107504Y0193040D02*
X0085150Y0189099D01*
X0085132Y0189198D01*
X0107486Y0193139D01*
X0107504Y0193040D01*
G37*
G36*
X0107487Y0193139D02*
X0085133Y0189198D01*
X0085115Y0189297D01*
X0107469Y0193238D01*
X0107487Y0193139D01*
G37*
G36*
X0107470Y0193237D02*
X0085116Y0189296D01*
X0085098Y0189395D01*
X0107452Y0193336D01*
X0107470Y0193237D01*
G37*
G36*
X0106098Y0201017D02*
X0083744Y0197076D01*
X0083726Y0197175D01*
X0106080Y0201116D01*
X0106098Y0201017D01*
G37*
G36*
X0106080Y0201116D02*
X0083726Y0197175D01*
X0083708Y0197274D01*
X0106062Y0201215D01*
X0106080Y0201116D01*
G37*
G36*
X0106063Y0201214D02*
X0083709Y0197273D01*
X0083691Y0197372D01*
X0106045Y0201313D01*
X0106063Y0201214D01*
G37*
G36*
X0106046Y0201313D02*
X0083692Y0197372D01*
X0083674Y0197471D01*
X0106028Y0201412D01*
X0106046Y0201313D01*
G37*
G36*
X0106028Y0201411D02*
X0083674Y0197470D01*
X0083656Y0197569D01*
X0106010Y0201510D01*
X0106028Y0201411D01*
G37*
G36*
X0106011Y0201510D02*
X0083657Y0197569D01*
X0083639Y0197668D01*
X0105993Y0201609D01*
X0106011Y0201510D01*
G37*
G36*
X0105994Y0201608D02*
X0083640Y0197667D01*
X0083622Y0197766D01*
X0105976Y0201707D01*
X0105994Y0201608D01*
G37*
G36*
X0105976Y0201707D02*
X0083622Y0197766D01*
X0083604Y0197865D01*
X0105958Y0201806D01*
X0105976Y0201707D01*
G37*
G36*
X0105959Y0201805D02*
X0083605Y0197864D01*
X0083587Y0197963D01*
X0105941Y0201904D01*
X0105959Y0201805D01*
G37*
G36*
X0105733Y0203086D02*
X0083379Y0199145D01*
X0083361Y0199244D01*
X0105715Y0203185D01*
X0105733Y0203086D01*
G37*
G36*
X0105716Y0203184D02*
X0083362Y0199243D01*
X0083344Y0199342D01*
X0105698Y0203283D01*
X0105716Y0203184D01*
G37*
G36*
X0105698Y0203282D02*
X0083344Y0199341D01*
X0083326Y0199440D01*
X0105680Y0203381D01*
X0105698Y0203282D01*
G37*
G36*
X0105681Y0203381D02*
X0083327Y0199440D01*
X0083309Y0199539D01*
X0105663Y0203480D01*
X0105681Y0203381D01*
G37*
G36*
X0105664Y0203479D02*
X0083310Y0199538D01*
X0083292Y0199637D01*
X0105646Y0203578D01*
X0105664Y0203479D01*
G37*
G36*
X0105646Y0203578D02*
X0083292Y0199637D01*
X0083274Y0199736D01*
X0105628Y0203677D01*
X0105646Y0203578D01*
G37*
G36*
X0105629Y0203676D02*
X0083275Y0199735D01*
X0083257Y0199834D01*
X0105611Y0203775D01*
X0105629Y0203676D01*
G37*
G36*
X0105612Y0203775D02*
X0083258Y0199834D01*
X0083240Y0199933D01*
X0105594Y0203874D01*
X0105612Y0203775D01*
G37*
G36*
X0105594Y0203873D02*
X0083240Y0199932D01*
X0083222Y0200031D01*
X0105576Y0203972D01*
X0105594Y0203873D01*
G37*
G36*
X0105577Y0203972D02*
X0083223Y0200031D01*
X0083205Y0200130D01*
X0105559Y0204071D01*
X0105577Y0203972D01*
G37*
G36*
X0105559Y0204070D02*
X0083205Y0200129D01*
X0083187Y0200228D01*
X0105541Y0204169D01*
X0105559Y0204070D01*
G37*
D13*
G36*
X0109197Y0203595D02*
X0080048Y0198456D01*
X0080031Y0198555D01*
X0109180Y0203694D01*
X0109197Y0203595D01*
G37*
G36*
X0109214Y0203496D02*
X0080065Y0198357D01*
X0080048Y0198456D01*
X0109197Y0203595D01*
X0109214Y0203496D01*
G37*
G36*
X0109231Y0203398D02*
X0080082Y0198259D01*
X0080065Y0198358D01*
X0109214Y0203497D01*
X0109231Y0203398D01*
G37*
G36*
X0109249Y0203299D02*
X0080100Y0198160D01*
X0080083Y0198259D01*
X0109232Y0203398D01*
X0109249Y0203299D01*
G37*
G36*
X0109266Y0203201D02*
X0080117Y0198062D01*
X0080100Y0198161D01*
X0109249Y0203300D01*
X0109266Y0203201D01*
G37*
G36*
X0109284Y0203102D02*
X0080135Y0197963D01*
X0080118Y0198062D01*
X0109267Y0203201D01*
X0109284Y0203102D01*
G37*
G36*
X0109301Y0203004D02*
X0080152Y0197865D01*
X0080135Y0197964D01*
X0109284Y0203103D01*
X0109301Y0203004D01*
G37*
G36*
X0109318Y0202905D02*
X0080169Y0197766D01*
X0080152Y0197865D01*
X0109301Y0203004D01*
X0109318Y0202905D01*
G37*
G36*
X0109336Y0202807D02*
X0080187Y0197668D01*
X0080170Y0197767D01*
X0109319Y0202906D01*
X0109336Y0202807D01*
G37*
G36*
X0109353Y0202708D02*
X0080204Y0197569D01*
X0080187Y0197668D01*
X0109336Y0202807D01*
X0109353Y0202708D01*
G37*
G36*
X0109370Y0202610D02*
X0080221Y0197471D01*
X0080204Y0197570D01*
X0109353Y0202709D01*
X0109370Y0202610D01*
G37*
G36*
X0109388Y0202511D02*
X0080239Y0197372D01*
X0080222Y0197471D01*
X0109371Y0202610D01*
X0109388Y0202511D01*
G37*
G36*
X0109561Y0201527D02*
X0080412Y0196388D01*
X0080395Y0196487D01*
X0109544Y0201626D01*
X0109561Y0201527D01*
G37*
G36*
X0109579Y0201428D02*
X0080430Y0196289D01*
X0080413Y0196388D01*
X0109562Y0201527D01*
X0109579Y0201428D01*
G37*
G36*
X0109596Y0201330D02*
X0080447Y0196191D01*
X0080430Y0196290D01*
X0109579Y0201429D01*
X0109596Y0201330D01*
G37*
G36*
X0109613Y0201231D02*
X0080464Y0196092D01*
X0080447Y0196191D01*
X0109596Y0201330D01*
X0109613Y0201231D01*
G37*
G36*
X0109631Y0201133D02*
X0080482Y0195994D01*
X0080465Y0196093D01*
X0109614Y0201232D01*
X0109631Y0201133D01*
G37*
G36*
X0109648Y0201034D02*
X0080499Y0195895D01*
X0080482Y0195994D01*
X0109631Y0201133D01*
X0109648Y0201034D01*
G37*
G36*
X0111055Y0193057D02*
X0081906Y0187918D01*
X0081889Y0188017D01*
X0111038Y0193156D01*
X0111055Y0193057D01*
G37*
G36*
X0111072Y0192959D02*
X0081923Y0187820D01*
X0081906Y0187919D01*
X0111055Y0193058D01*
X0111072Y0192959D01*
G37*
G36*
X0111089Y0192860D02*
X0081940Y0187721D01*
X0081923Y0187820D01*
X0111072Y0192959D01*
X0111089Y0192860D01*
G37*
G36*
X0111107Y0192762D02*
X0081958Y0187623D01*
X0081941Y0187722D01*
X0111090Y0192861D01*
X0111107Y0192762D01*
G37*
G36*
X0111124Y0192663D02*
X0081975Y0187524D01*
X0081958Y0187623D01*
X0111107Y0192762D01*
X0111124Y0192663D01*
G37*
G36*
X0111142Y0192565D02*
X0081993Y0187426D01*
X0081976Y0187525D01*
X0111125Y0192664D01*
X0111142Y0192565D01*
G37*
G36*
X0111159Y0192466D02*
X0082010Y0187327D01*
X0081993Y0187426D01*
X0111142Y0192565D01*
X0111159Y0192466D01*
G37*
G36*
X0111176Y0192368D02*
X0082027Y0187229D01*
X0082010Y0187328D01*
X0111159Y0192467D01*
X0111176Y0192368D01*
G37*
G36*
X0111194Y0192269D02*
X0082045Y0187130D01*
X0082028Y0187229D01*
X0111177Y0192368D01*
X0111194Y0192269D01*
G37*
G36*
X0112270Y0186164D02*
X0083121Y0181025D01*
X0083104Y0181124D01*
X0112253Y0186263D01*
X0112270Y0186164D01*
G37*
G36*
X0112288Y0186065D02*
X0083139Y0180926D01*
X0083122Y0181025D01*
X0112271Y0186164D01*
X0112288Y0186065D01*
G37*
G36*
X0112305Y0185967D02*
X0083156Y0180828D01*
X0083139Y0180927D01*
X0112288Y0186066D01*
X0112305Y0185967D01*
G37*
G36*
X0112322Y0185868D02*
X0083173Y0180729D01*
X0083156Y0180828D01*
X0112305Y0185967D01*
X0112322Y0185868D01*
G37*
G36*
X0112340Y0185770D02*
X0083191Y0180631D01*
X0083174Y0180730D01*
X0112323Y0185869D01*
X0112340Y0185770D01*
G37*
G36*
X0112357Y0185671D02*
X0083208Y0180532D01*
X0083191Y0180631D01*
X0112340Y0185770D01*
X0112357Y0185671D01*
G37*
G36*
X0112374Y0185573D02*
X0083225Y0180434D01*
X0083208Y0180533D01*
X0112357Y0185672D01*
X0112374Y0185573D01*
G37*
G36*
X0112531Y0184686D02*
X0083382Y0179547D01*
X0083365Y0179646D01*
X0112514Y0184785D01*
X0112531Y0184686D01*
G37*
G36*
X0112548Y0184588D02*
X0083399Y0179449D01*
X0083382Y0179548D01*
X0112531Y0184687D01*
X0112548Y0184588D01*
G37*
G36*
X0112565Y0184489D02*
X0083416Y0179350D01*
X0083399Y0179449D01*
X0112548Y0184588D01*
X0112565Y0184489D01*
G37*
G36*
X0112583Y0184391D02*
X0083434Y0179252D01*
X0083417Y0179351D01*
X0112566Y0184490D01*
X0112583Y0184391D01*
G37*
G36*
X0112600Y0184292D02*
X0083451Y0179153D01*
X0083434Y0179252D01*
X0112583Y0184391D01*
X0112600Y0184292D01*
G37*
G36*
X0112618Y0184194D02*
X0083469Y0179055D01*
X0083452Y0179154D01*
X0112601Y0184293D01*
X0112618Y0184194D01*
G37*
G36*
X0112635Y0184096D02*
X0083486Y0178957D01*
X0083469Y0179056D01*
X0112618Y0184195D01*
X0112635Y0184096D01*
G37*
G36*
X0112652Y0183997D02*
X0083503Y0178858D01*
X0083486Y0178957D01*
X0112635Y0184096D01*
X0112652Y0183997D01*
G37*
G36*
X0112670Y0183899D02*
X0083521Y0178760D01*
X0083504Y0178859D01*
X0112653Y0183998D01*
X0112670Y0183899D01*
G37*
G36*
X0112687Y0183800D02*
X0083538Y0178661D01*
X0083521Y0178760D01*
X0112670Y0183899D01*
X0112687Y0183800D01*
G37*
G36*
X0112704Y0183702D02*
X0083555Y0178563D01*
X0083538Y0178662D01*
X0112687Y0183801D01*
X0112704Y0183702D01*
G37*
G36*
X0112722Y0183603D02*
X0083573Y0178464D01*
X0083556Y0178563D01*
X0112705Y0183702D01*
X0112722Y0183603D01*
G37*
G36*
X0112739Y0183505D02*
X0083590Y0178366D01*
X0083573Y0178465D01*
X0112722Y0183604D01*
X0112739Y0183505D01*
G37*
G36*
X0111246Y0191974D02*
X0082097Y0186835D01*
X0082080Y0186934D01*
X0111229Y0192073D01*
X0111246Y0191974D01*
G37*
G36*
X0111228Y0192072D02*
X0082079Y0186933D01*
X0082062Y0187032D01*
X0111211Y0192171D01*
X0111228Y0192072D01*
G37*
G36*
X0111211Y0192171D02*
X0082062Y0187032D01*
X0082045Y0187131D01*
X0111194Y0192270D01*
X0111211Y0192171D01*
G37*
D14*
G36*
X0111559Y0190202D02*
X0103386Y0188762D01*
X0103369Y0188860D01*
X0111542Y0190300D01*
X0111559Y0190202D01*
G37*
G36*
X0091277Y0182564D02*
X0083104Y0181124D01*
X0083087Y0181222D01*
X0091260Y0182662D01*
X0091277Y0182564D01*
G37*
D15*
G36*
X0102405Y0184526D02*
X0091474Y0182600D01*
X0091457Y0182698D01*
X0102388Y0184624D01*
X0102405Y0184526D01*
G37*
G36*
X0107956Y0190480D02*
X0097025Y0188554D01*
X0097008Y0188652D01*
X0107939Y0190578D01*
X0107956Y0190480D01*
G37*
G36*
X0107938Y0190579D02*
X0097007Y0188653D01*
X0096990Y0188751D01*
X0107921Y0190677D01*
X0107938Y0190579D01*
G37*
G36*
X0107921Y0190677D02*
X0096990Y0188751D01*
X0096973Y0188849D01*
X0107904Y0190775D01*
X0107921Y0190677D01*
G37*
D16*
G36*
X0111906Y0188232D02*
X0102748Y0186618D01*
X0102730Y0186716D01*
X0111888Y0188330D01*
X0111906Y0188232D01*
G37*
G36*
X0111924Y0188134D02*
X0102766Y0186520D01*
X0102748Y0186618D01*
X0111906Y0188232D01*
X0111924Y0188134D01*
G37*
G36*
X0111941Y0188035D02*
X0102783Y0186421D01*
X0102765Y0186519D01*
X0111923Y0188133D01*
X0111941Y0188035D01*
G37*
G36*
X0111958Y0187937D02*
X0102800Y0186323D01*
X0102782Y0186421D01*
X0111940Y0188035D01*
X0111958Y0187937D01*
G37*
G36*
X0112254Y0186263D02*
X0103096Y0184649D01*
X0103078Y0184747D01*
X0112236Y0186361D01*
X0112254Y0186263D01*
G37*
G36*
X0090387Y0193374D02*
X0081229Y0191760D01*
X0081211Y0191858D01*
X0090369Y0193472D01*
X0090387Y0193374D01*
G37*
G36*
X0089744Y0197017D02*
X0080586Y0195403D01*
X0080568Y0195501D01*
X0089726Y0197115D01*
X0089744Y0197017D01*
G37*
G36*
X0089727Y0197116D02*
X0080569Y0195502D01*
X0080551Y0195600D01*
X0089709Y0197214D01*
X0089727Y0197116D01*
G37*
D17*
G36*
X0107174Y0194912D02*
X0099592Y0193576D01*
X0099574Y0193674D01*
X0107156Y0195010D01*
X0107174Y0194912D01*
G37*
G36*
X0089905Y0186891D02*
X0082323Y0185555D01*
X0082305Y0185653D01*
X0089887Y0186989D01*
X0089905Y0186891D01*
G37*
G36*
X0090669Y0182558D02*
X0083087Y0181222D01*
X0083069Y0181320D01*
X0090651Y0182656D01*
X0090669Y0182558D01*
G37*
D18*
G36*
X0089562Y0183074D02*
X0086313Y0182502D01*
X0086296Y0182600D01*
X0089545Y0183172D01*
X0089562Y0183074D01*
G37*
G36*
X0089180Y0185240D02*
X0085931Y0184668D01*
X0085914Y0184766D01*
X0089163Y0185338D01*
X0089180Y0185240D01*
G37*
G36*
X0089163Y0185339D02*
X0085914Y0184767D01*
X0085897Y0184865D01*
X0089146Y0185437D01*
X0089163Y0185339D01*
G37*
G36*
X0095199Y0183357D02*
X0091950Y0182785D01*
X0091933Y0182883D01*
X0095182Y0183455D01*
X0095199Y0183357D01*
G37*
G36*
X0095721Y0189034D02*
X0092472Y0188462D01*
X0092455Y0188560D01*
X0095704Y0189132D01*
X0095721Y0189034D01*
G37*
D19*
G36*
X0095426Y0194161D02*
X0092768Y0193693D01*
X0092750Y0193791D01*
X0095408Y0194259D01*
X0095426Y0194161D01*
G37*
G36*
X0095409Y0194259D02*
X0092751Y0193791D01*
X0092733Y0193889D01*
X0095391Y0194357D01*
X0095409Y0194259D01*
G37*
G36*
X0095641Y0195823D02*
X0092983Y0195355D01*
X0092965Y0195453D01*
X0095623Y0195921D01*
X0095641Y0195823D01*
G37*
G36*
X0095687Y0196136D02*
X0093029Y0195668D01*
X0093011Y0195766D01*
X0095669Y0196234D01*
X0095687Y0196136D01*
G37*
G36*
X0095734Y0196449D02*
X0093076Y0195981D01*
X0093058Y0196079D01*
X0095716Y0196547D01*
X0095734Y0196449D01*
G37*
G36*
X0095780Y0196762D02*
X0093122Y0196294D01*
X0093104Y0196392D01*
X0095762Y0196860D01*
X0095780Y0196762D01*
G37*
G36*
X0095809Y0197173D02*
X0093151Y0196705D01*
X0093133Y0196803D01*
X0095791Y0197271D01*
X0095809Y0197173D01*
G37*
G36*
X0095792Y0197271D02*
X0093134Y0196803D01*
X0093116Y0196901D01*
X0095774Y0197369D01*
X0095792Y0197271D01*
G37*
G36*
X0095745Y0196959D02*
X0093087Y0196491D01*
X0093069Y0196589D01*
X0095727Y0197057D01*
X0095745Y0196959D01*
G37*
G36*
X0095763Y0196860D02*
X0093105Y0196392D01*
X0093087Y0196490D01*
X0095745Y0196958D01*
X0095763Y0196860D01*
G37*
G36*
X0095699Y0196646D02*
X0093041Y0196178D01*
X0093023Y0196276D01*
X0095681Y0196744D01*
X0095699Y0196646D01*
G37*
G36*
X0095716Y0196547D02*
X0093058Y0196079D01*
X0093040Y0196177D01*
X0095698Y0196645D01*
X0095716Y0196547D01*
G37*
G36*
X0095670Y0196234D02*
X0093012Y0195766D01*
X0092994Y0195864D01*
X0095652Y0196332D01*
X0095670Y0196234D01*
G37*
G36*
X0098744Y0183982D02*
X0096086Y0183514D01*
X0096068Y0183612D01*
X0098726Y0184080D01*
X0098744Y0183982D01*
G37*
D20*
G36*
X0102191Y0184589D02*
X0099730Y0184156D01*
X0099713Y0184255D01*
X0102174Y0184688D01*
X0102191Y0184589D01*
G37*
G36*
X0095293Y0194340D02*
X0092832Y0193907D01*
X0092815Y0194006D01*
X0095276Y0194439D01*
X0095293Y0194340D01*
G37*
G36*
X0095415Y0195377D02*
X0092954Y0194944D01*
X0092937Y0195043D01*
X0095398Y0195476D01*
X0095415Y0195377D01*
G37*
D21*
G36*
X0091348Y0194254D02*
X0084455Y0193039D01*
X0084438Y0193138D01*
X0091331Y0194353D01*
X0091348Y0194254D01*
G37*
G36*
X0091365Y0194155D02*
X0084472Y0192940D01*
X0084455Y0193039D01*
X0091348Y0194254D01*
X0091365Y0194155D01*
G37*
G36*
X0091383Y0194057D02*
X0084490Y0192842D01*
X0084473Y0192941D01*
X0091366Y0194156D01*
X0091383Y0194057D01*
G37*
G36*
X0089371Y0185883D02*
X0082478Y0184668D01*
X0082461Y0184767D01*
X0089354Y0185982D01*
X0089371Y0185883D01*
G37*
G36*
X0112236Y0186361D02*
X0105343Y0185146D01*
X0105326Y0185245D01*
X0112219Y0186460D01*
X0112236Y0186361D01*
G37*
D22*
G36*
X0107122Y0195207D02*
X0099835Y0193923D01*
X0099818Y0194021D01*
X0107105Y0195305D01*
X0107122Y0195207D01*
G37*
G36*
X0107105Y0195306D02*
X0099818Y0194022D01*
X0099801Y0194120D01*
X0107088Y0195404D01*
X0107105Y0195306D01*
G37*
G36*
X0107087Y0195404D02*
X0099800Y0194120D01*
X0099783Y0194218D01*
X0107070Y0195502D01*
X0107087Y0195404D01*
G37*
G36*
X0089661Y0186544D02*
X0082374Y0185260D01*
X0082357Y0185358D01*
X0089644Y0186642D01*
X0089661Y0186544D01*
G37*
G36*
X0090356Y0182605D02*
X0083069Y0181321D01*
X0083052Y0181419D01*
X0090339Y0182703D01*
X0090356Y0182605D01*
G37*
D23*
G36*
X0094984Y0183420D02*
X0092227Y0182935D01*
X0092210Y0183034D01*
X0094967Y0183519D01*
X0094984Y0183420D01*
G37*
G36*
X0095826Y0197074D02*
X0093069Y0196589D01*
X0093052Y0196688D01*
X0095809Y0197173D01*
X0095826Y0197074D01*
G37*
G36*
X0095873Y0197387D02*
X0093116Y0196902D01*
X0093099Y0197001D01*
X0095856Y0197486D01*
X0095873Y0197387D01*
G37*
G36*
X0095919Y0197699D02*
X0093162Y0197214D01*
X0093145Y0197313D01*
X0095902Y0197798D01*
X0095919Y0197699D01*
G37*
G36*
X0095855Y0197485D02*
X0093098Y0197000D01*
X0093081Y0197099D01*
X0095838Y0197584D01*
X0095855Y0197485D01*
G37*
D24*
G36*
X0095334Y0195261D02*
X0092971Y0194845D01*
X0092954Y0194943D01*
X0095317Y0195359D01*
X0095334Y0195261D01*
G37*
G36*
X0095253Y0195146D02*
X0092890Y0194730D01*
X0092873Y0194828D01*
X0095236Y0195244D01*
X0095253Y0195146D01*
G37*
G36*
X0095177Y0194421D02*
X0092814Y0194005D01*
X0092797Y0194103D01*
X0095160Y0194519D01*
X0095177Y0194421D01*
G37*
G36*
X0095379Y0188669D02*
X0093016Y0188253D01*
X0092999Y0188351D01*
X0095362Y0188767D01*
X0095379Y0188669D01*
G37*
G36*
X0098628Y0184063D02*
X0096265Y0183647D01*
X0096248Y0183745D01*
X0098611Y0184161D01*
X0098628Y0184063D01*
G37*
D25*
G36*
X0101976Y0184654D02*
X0099909Y0184290D01*
X0099892Y0184388D01*
X0101959Y0184752D01*
X0101976Y0184654D01*
G37*
G36*
X0095217Y0188437D02*
X0093150Y0188073D01*
X0093133Y0188171D01*
X0095200Y0188535D01*
X0095217Y0188437D01*
G37*
G36*
X0094365Y0186358D02*
X0092298Y0185994D01*
X0092281Y0186092D01*
X0094348Y0186456D01*
X0094365Y0186358D01*
G37*
G36*
X0093050Y0184603D02*
X0090983Y0184239D01*
X0090966Y0184337D01*
X0093033Y0184701D01*
X0093050Y0184603D01*
G37*
G36*
X0099261Y0198899D02*
X0097194Y0198535D01*
X0097177Y0198633D01*
X0099244Y0198997D01*
X0099261Y0198899D01*
G37*
D26*
G36*
X0101885Y0187480D02*
X0100901Y0187307D01*
X0100883Y0187406D01*
X0101867Y0187579D01*
X0101885Y0187480D01*
G37*
G36*
X0101421Y0186078D02*
X0100437Y0185905D01*
X0100419Y0186004D01*
X0101403Y0186177D01*
X0101421Y0186078D01*
G37*
G36*
X0103819Y0186298D02*
X0102835Y0186125D01*
X0102817Y0186224D01*
X0103801Y0186397D01*
X0103819Y0186298D01*
G37*
G36*
X0104537Y0185105D02*
X0103553Y0184932D01*
X0103535Y0185031D01*
X0104519Y0185204D01*
X0104537Y0185105D01*
G37*
G36*
X0098015Y0184665D02*
X0097031Y0184492D01*
X0097013Y0184591D01*
X0097997Y0184764D01*
X0098015Y0184665D01*
G37*
G36*
X0096613Y0185129D02*
X0095629Y0184956D01*
X0095611Y0185055D01*
X0096595Y0185228D01*
X0096613Y0185129D01*
G37*
G36*
X0096595Y0185228D02*
X0095611Y0185055D01*
X0095593Y0185154D01*
X0096577Y0185327D01*
X0096595Y0185228D01*
G37*
G36*
X0094255Y0185830D02*
X0093271Y0185657D01*
X0093253Y0185756D01*
X0094237Y0185929D01*
X0094255Y0185830D01*
G37*
G36*
X0094191Y0185616D02*
X0093207Y0185443D01*
X0093189Y0185542D01*
X0094173Y0185715D01*
X0094191Y0185616D01*
G37*
G36*
X0094110Y0185500D02*
X0093126Y0185327D01*
X0093108Y0185426D01*
X0094092Y0185599D01*
X0094110Y0185500D01*
G37*
G36*
X0092233Y0184052D02*
X0091249Y0183879D01*
X0091231Y0183978D01*
X0092215Y0184151D01*
X0092233Y0184052D01*
G37*
G36*
X0091979Y0186647D02*
X0090995Y0186474D01*
X0090977Y0186573D01*
X0091961Y0186746D01*
X0091979Y0186647D01*
G37*
D27*
G36*
X0112219Y0186460D02*
X0105523Y0185280D01*
X0105505Y0185378D01*
X0112201Y0186558D01*
X0112219Y0186460D01*
G37*
D28*
G36*
X0090240Y0182685D02*
X0083052Y0181418D01*
X0083034Y0181517D01*
X0090222Y0182784D01*
X0090240Y0182685D01*
G37*
G36*
X0089598Y0186329D02*
X0082410Y0185062D01*
X0082392Y0185161D01*
X0089580Y0186428D01*
X0089598Y0186329D01*
G37*
G36*
X0089580Y0186428D02*
X0082392Y0185161D01*
X0082374Y0185260D01*
X0089562Y0186527D01*
X0089580Y0186428D01*
G37*
D29*
G36*
X0095298Y0188553D02*
X0093034Y0188155D01*
X0093016Y0188253D01*
X0095280Y0188651D01*
X0095298Y0188553D01*
G37*
G36*
X0099446Y0188066D02*
X0097182Y0187668D01*
X0097164Y0187766D01*
X0099428Y0188164D01*
X0099446Y0188066D01*
G37*
G36*
X0102713Y0188540D02*
X0100449Y0188142D01*
X0100431Y0188240D01*
X0102695Y0188638D01*
X0102713Y0188540D01*
G37*
G36*
X0098560Y0193088D02*
X0096296Y0192690D01*
X0096278Y0192788D01*
X0098542Y0193186D01*
X0098560Y0193088D01*
G37*
G36*
X0095125Y0194717D02*
X0092861Y0194319D01*
X0092843Y0194417D01*
X0095107Y0194815D01*
X0095125Y0194717D01*
G37*
G36*
X0095172Y0195029D02*
X0092908Y0194631D01*
X0092890Y0194729D01*
X0095154Y0195127D01*
X0095172Y0195029D01*
G37*
G36*
X0094770Y0183484D02*
X0092506Y0183086D01*
X0092488Y0183184D01*
X0094752Y0183582D01*
X0094770Y0183484D01*
G37*
D30*
G36*
X0094654Y0183565D02*
X0092784Y0183236D01*
X0092766Y0183335D01*
X0094636Y0183664D01*
X0094654Y0183565D01*
G37*
G36*
X0092870Y0184469D02*
X0091000Y0184140D01*
X0090982Y0184239D01*
X0092852Y0184568D01*
X0092870Y0184469D01*
G37*
G36*
X0095136Y0188321D02*
X0093266Y0187992D01*
X0093248Y0188091D01*
X0095118Y0188420D01*
X0095136Y0188321D01*
G37*
G36*
X0098414Y0184126D02*
X0096544Y0183797D01*
X0096526Y0183896D01*
X0098396Y0184225D01*
X0098414Y0184126D01*
G37*
G36*
X0098444Y0193169D02*
X0096574Y0192840D01*
X0096556Y0192939D01*
X0098426Y0193268D01*
X0098444Y0193169D01*
G37*
G36*
X0099181Y0198782D02*
X0097311Y0198453D01*
X0097293Y0198552D01*
X0099163Y0198881D01*
X0099181Y0198782D01*
G37*
D31*
G36*
X0094558Y0193906D02*
X0092786Y0193594D01*
X0092768Y0193692D01*
X0094540Y0194004D01*
X0094558Y0193906D01*
G37*
G36*
X0095055Y0188206D02*
X0093283Y0187894D01*
X0093265Y0187992D01*
X0095037Y0188304D01*
X0095055Y0188206D01*
G37*
G36*
X0094348Y0186456D02*
X0092576Y0186144D01*
X0092558Y0186242D01*
X0094330Y0186554D01*
X0094348Y0186456D01*
G37*
G36*
X0098907Y0187667D02*
X0097135Y0187355D01*
X0097117Y0187453D01*
X0098889Y0187765D01*
X0098907Y0187667D01*
G37*
G36*
X0102453Y0188292D02*
X0100681Y0187980D01*
X0100663Y0188078D01*
X0102435Y0188390D01*
X0102453Y0188292D01*
G37*
G36*
X0101861Y0184735D02*
X0100089Y0184423D01*
X0100071Y0184521D01*
X0101843Y0184833D01*
X0101861Y0184735D01*
G37*
D32*
G36*
X0101514Y0186704D02*
X0100825Y0186583D01*
X0100808Y0186682D01*
X0101497Y0186803D01*
X0101514Y0186704D01*
G37*
G36*
X0101595Y0186820D02*
X0100906Y0186699D01*
X0100889Y0186798D01*
X0101578Y0186919D01*
X0101595Y0186820D01*
G37*
G36*
X0101577Y0186918D02*
X0100888Y0186797D01*
X0100871Y0186896D01*
X0101560Y0187017D01*
X0101577Y0186918D01*
G37*
G36*
X0104421Y0185186D02*
X0103732Y0185065D01*
X0103715Y0185164D01*
X0104404Y0185285D01*
X0104421Y0185186D01*
G37*
G36*
X0097928Y0185158D02*
X0097239Y0185037D01*
X0097222Y0185136D01*
X0097911Y0185257D01*
X0097928Y0185158D01*
G37*
G36*
X0097910Y0185256D02*
X0097221Y0185135D01*
X0097204Y0185234D01*
X0097893Y0185355D01*
X0097910Y0185256D01*
G37*
G36*
X0097893Y0185355D02*
X0097204Y0185234D01*
X0097187Y0185333D01*
X0097876Y0185454D01*
X0097893Y0185355D01*
G37*
G36*
X0097875Y0185453D02*
X0097186Y0185332D01*
X0097169Y0185431D01*
X0097858Y0185552D01*
X0097875Y0185453D01*
G37*
G36*
X0097858Y0185552D02*
X0097169Y0185431D01*
X0097152Y0185530D01*
X0097841Y0185651D01*
X0097858Y0185552D01*
G37*
G36*
X0097846Y0185042D02*
X0097157Y0184921D01*
X0097140Y0185020D01*
X0097829Y0185141D01*
X0097846Y0185042D01*
G37*
G36*
X0097864Y0184944D02*
X0097175Y0184823D01*
X0097158Y0184922D01*
X0097847Y0185043D01*
X0097864Y0184944D01*
G37*
G36*
X0096352Y0184880D02*
X0095663Y0184759D01*
X0095646Y0184858D01*
X0096335Y0184979D01*
X0096352Y0184880D01*
G37*
G36*
X0094255Y0184104D02*
X0093566Y0183983D01*
X0093549Y0184082D01*
X0094238Y0184203D01*
X0094255Y0184104D01*
G37*
G36*
X0092071Y0187273D02*
X0091382Y0187152D01*
X0091365Y0187251D01*
X0092054Y0187372D01*
X0092071Y0187273D01*
G37*
G36*
X0095472Y0192747D02*
X0094783Y0192626D01*
X0094766Y0192725D01*
X0095455Y0192846D01*
X0095472Y0192747D01*
G37*
D33*
G36*
X0112184Y0186656D02*
X0105685Y0185511D01*
X0105668Y0185610D01*
X0112167Y0186755D01*
X0112184Y0186656D01*
G37*
G36*
X0112201Y0186557D02*
X0105702Y0185412D01*
X0105685Y0185511D01*
X0112184Y0186656D01*
X0112201Y0186557D01*
G37*
D34*
G36*
X0091429Y0194370D02*
X0084438Y0193138D01*
X0084421Y0193236D01*
X0091412Y0194468D01*
X0091429Y0194370D01*
G37*
G36*
X0091411Y0194468D02*
X0084420Y0193236D01*
X0084403Y0193334D01*
X0091394Y0194566D01*
X0091411Y0194468D01*
G37*
G36*
X0091394Y0194567D02*
X0084403Y0193335D01*
X0084386Y0193433D01*
X0091377Y0194665D01*
X0091394Y0194567D01*
G37*
G36*
X0091377Y0194665D02*
X0084386Y0193433D01*
X0084369Y0193531D01*
X0091360Y0194763D01*
X0091377Y0194665D01*
G37*
G36*
X0091359Y0194764D02*
X0084368Y0193532D01*
X0084351Y0193630D01*
X0091342Y0194862D01*
X0091359Y0194764D01*
G37*
G36*
X0091342Y0194862D02*
X0084351Y0193630D01*
X0084334Y0193728D01*
X0091325Y0194960D01*
X0091342Y0194862D01*
G37*
G36*
X0089435Y0186098D02*
X0082444Y0184866D01*
X0082427Y0184964D01*
X0089418Y0186196D01*
X0089435Y0186098D01*
G37*
G36*
X0089452Y0185999D02*
X0082461Y0184767D01*
X0082444Y0184865D01*
X0089435Y0186097D01*
X0089452Y0185999D01*
G37*
G36*
X0090025Y0182749D02*
X0083034Y0181517D01*
X0083017Y0181615D01*
X0090008Y0182847D01*
X0090025Y0182749D01*
G37*
D35*
G36*
X0094428Y0186572D02*
X0092755Y0186278D01*
X0092738Y0186376D01*
X0094411Y0186670D01*
X0094428Y0186572D01*
G37*
G36*
X0094973Y0188090D02*
X0093300Y0187796D01*
X0093283Y0187894D01*
X0094956Y0188188D01*
X0094973Y0188090D01*
G37*
G36*
X0098298Y0184208D02*
X0096625Y0183914D01*
X0096608Y0184012D01*
X0098281Y0184306D01*
X0098298Y0184208D01*
G37*
G36*
X0102371Y0188176D02*
X0100698Y0187882D01*
X0100681Y0187980D01*
X0102354Y0188274D01*
X0102371Y0188176D01*
G37*
G36*
X0099099Y0198667D02*
X0097426Y0198373D01*
X0097409Y0198471D01*
X0099082Y0198765D01*
X0099099Y0198667D01*
G37*
D36*
G36*
X0099018Y0198551D02*
X0097443Y0198274D01*
X0097426Y0198373D01*
X0099001Y0198650D01*
X0099018Y0198551D01*
G37*
G36*
X0099036Y0198452D02*
X0097461Y0198175D01*
X0097444Y0198274D01*
X0099019Y0198551D01*
X0099036Y0198452D01*
G37*
G36*
X0098328Y0193250D02*
X0096753Y0192973D01*
X0096736Y0193072D01*
X0098311Y0193349D01*
X0098328Y0193250D01*
G37*
G36*
X0098727Y0187533D02*
X0097152Y0187256D01*
X0097135Y0187355D01*
X0098710Y0187632D01*
X0098727Y0187533D01*
G37*
G36*
X0098646Y0187417D02*
X0097071Y0187140D01*
X0097054Y0187239D01*
X0098629Y0187516D01*
X0098646Y0187417D01*
G37*
G36*
X0094910Y0187875D02*
X0093335Y0187598D01*
X0093318Y0187697D01*
X0094893Y0187974D01*
X0094910Y0187875D01*
G37*
G36*
X0094892Y0187973D02*
X0093317Y0187696D01*
X0093300Y0187795D01*
X0094875Y0188072D01*
X0094892Y0187973D01*
G37*
G36*
X0094411Y0186670D02*
X0092836Y0186393D01*
X0092819Y0186492D01*
X0094394Y0186769D01*
X0094411Y0186670D01*
G37*
G36*
X0094538Y0183646D02*
X0092963Y0183369D01*
X0092946Y0183468D01*
X0094521Y0183745D01*
X0094538Y0183646D01*
G37*
G36*
X0092691Y0184336D02*
X0091116Y0184059D01*
X0091099Y0184158D01*
X0092674Y0184435D01*
X0092691Y0184336D01*
G37*
G36*
X0101843Y0184833D02*
X0100268Y0184556D01*
X0100251Y0184655D01*
X0101826Y0184932D01*
X0101843Y0184833D01*
G37*
D37*
G36*
X0101461Y0185273D02*
X0100871Y0185170D01*
X0100853Y0185269D01*
X0101443Y0185372D01*
X0101461Y0185273D01*
G37*
G36*
X0100048Y0185227D02*
X0099458Y0185124D01*
X0099440Y0185223D01*
X0100030Y0185326D01*
X0100048Y0185227D01*
G37*
G36*
X0103576Y0185950D02*
X0102986Y0185847D01*
X0102968Y0185946D01*
X0103558Y0186049D01*
X0103576Y0185950D01*
G37*
G36*
X0104485Y0185400D02*
X0103895Y0185297D01*
X0103877Y0185396D01*
X0104467Y0185499D01*
X0104485Y0185400D01*
G37*
G36*
X0104404Y0185284D02*
X0103814Y0185181D01*
X0103796Y0185280D01*
X0104386Y0185383D01*
X0104404Y0185284D01*
G37*
G36*
X0104740Y0186257D02*
X0104150Y0186154D01*
X0104132Y0186253D01*
X0104722Y0186356D01*
X0104740Y0186257D01*
G37*
G36*
X0096839Y0185575D02*
X0096249Y0185472D01*
X0096231Y0185571D01*
X0096821Y0185674D01*
X0096839Y0185575D01*
G37*
G36*
X0096758Y0185459D02*
X0096168Y0185356D01*
X0096150Y0185455D01*
X0096740Y0185558D01*
X0096758Y0185459D01*
G37*
G36*
X0096271Y0184764D02*
X0095681Y0184661D01*
X0095663Y0184760D01*
X0096253Y0184863D01*
X0096271Y0184764D01*
G37*
G36*
X0094220Y0184301D02*
X0093630Y0184198D01*
X0093612Y0184297D01*
X0094202Y0184400D01*
X0094220Y0184301D01*
G37*
G36*
X0094238Y0184202D02*
X0093648Y0184099D01*
X0093630Y0184198D01*
X0094220Y0184301D01*
X0094238Y0184202D01*
G37*
G36*
X0093392Y0184967D02*
X0092802Y0184864D01*
X0092784Y0184963D01*
X0093374Y0185066D01*
X0093392Y0184967D01*
G37*
G36*
X0092054Y0187371D02*
X0091464Y0187268D01*
X0091446Y0187367D01*
X0092036Y0187470D01*
X0092054Y0187371D01*
G37*
G36*
X0091371Y0193547D02*
X0090781Y0193444D01*
X0090763Y0193543D01*
X0091353Y0193646D01*
X0091371Y0193547D01*
G37*
G36*
X0091354Y0193645D02*
X0090764Y0193542D01*
X0090746Y0193641D01*
X0091336Y0193744D01*
X0091354Y0193645D01*
G37*
D38*
G36*
X0089812Y0182813D02*
X0083018Y0181616D01*
X0083000Y0181715D01*
X0089794Y0182912D01*
X0089812Y0182813D01*
G37*
D39*
G36*
X0094493Y0186786D02*
X0093017Y0186527D01*
X0092999Y0186626D01*
X0094475Y0186885D01*
X0094493Y0186786D01*
G37*
G36*
X0094829Y0187759D02*
X0093353Y0187500D01*
X0093335Y0187599D01*
X0094811Y0187858D01*
X0094829Y0187759D01*
G37*
G36*
X0098484Y0187185D02*
X0097008Y0186926D01*
X0096990Y0187025D01*
X0098466Y0187284D01*
X0098484Y0187185D01*
G37*
G36*
X0098565Y0187301D02*
X0097089Y0187042D01*
X0097071Y0187141D01*
X0098547Y0187400D01*
X0098565Y0187301D01*
G37*
G36*
X0097986Y0185980D02*
X0096510Y0185721D01*
X0096492Y0185820D01*
X0097968Y0186079D01*
X0097986Y0185980D01*
G37*
G36*
X0098182Y0184288D02*
X0096706Y0184029D01*
X0096688Y0184128D01*
X0098164Y0184387D01*
X0098182Y0184288D01*
G37*
G36*
X0098311Y0193348D02*
X0096835Y0193089D01*
X0096817Y0193188D01*
X0098293Y0193447D01*
X0098311Y0193348D01*
G37*
G36*
X0098294Y0193447D02*
X0096818Y0193188D01*
X0096800Y0193287D01*
X0098276Y0193546D01*
X0098294Y0193447D01*
G37*
G36*
X0094181Y0193737D02*
X0092705Y0193478D01*
X0092687Y0193577D01*
X0094163Y0193836D01*
X0094181Y0193737D01*
G37*
G36*
X0098908Y0198023D02*
X0097432Y0197764D01*
X0097414Y0197863D01*
X0098890Y0198122D01*
X0098908Y0198023D01*
G37*
G36*
X0098972Y0198238D02*
X0097496Y0197979D01*
X0097478Y0198078D01*
X0098954Y0198337D01*
X0098972Y0198238D01*
G37*
G36*
X0098955Y0198336D02*
X0097479Y0198077D01*
X0097461Y0198176D01*
X0098937Y0198435D01*
X0098955Y0198336D01*
G37*
D40*
G36*
X0112167Y0186755D02*
X0105767Y0185627D01*
X0105749Y0185725D01*
X0112149Y0186853D01*
X0112167Y0186755D01*
G37*
G36*
X0089088Y0184615D02*
X0082688Y0183487D01*
X0082670Y0183585D01*
X0089070Y0184713D01*
X0089088Y0184615D01*
G37*
G36*
X0089070Y0184713D02*
X0082670Y0183585D01*
X0082652Y0183683D01*
X0089052Y0184811D01*
X0089070Y0184713D01*
G37*
G36*
X0089053Y0184812D02*
X0082653Y0183684D01*
X0082635Y0183782D01*
X0089035Y0184910D01*
X0089053Y0184812D01*
G37*
G36*
X0089036Y0184910D02*
X0082636Y0183782D01*
X0082618Y0183880D01*
X0089018Y0185008D01*
X0089036Y0184910D01*
G37*
D41*
G36*
X0089308Y0185669D02*
X0085862Y0185062D01*
X0085844Y0185161D01*
X0089290Y0185768D01*
X0089308Y0185669D01*
G37*
G36*
X0089291Y0185767D02*
X0085845Y0185160D01*
X0085827Y0185259D01*
X0089273Y0185866D01*
X0089291Y0185767D01*
G37*
G36*
X0094284Y0186242D02*
X0090838Y0185635D01*
X0090820Y0185734D01*
X0094266Y0186341D01*
X0094284Y0186242D01*
G37*
G36*
X0089794Y0182911D02*
X0086348Y0182304D01*
X0086330Y0182403D01*
X0089776Y0183010D01*
X0089794Y0182911D01*
G37*
G36*
X0095803Y0192602D02*
X0092357Y0191995D01*
X0092339Y0192094D01*
X0095785Y0192701D01*
X0095803Y0192602D01*
G37*
D42*
G36*
X0098277Y0193546D02*
X0096899Y0193304D01*
X0096881Y0193402D01*
X0098259Y0193644D01*
X0098277Y0193546D01*
G37*
G36*
X0098259Y0193645D02*
X0096881Y0193403D01*
X0096863Y0193501D01*
X0098241Y0193743D01*
X0098259Y0193645D01*
G37*
G36*
X0098306Y0193957D02*
X0096928Y0193715D01*
X0096910Y0193813D01*
X0098288Y0194055D01*
X0098306Y0193957D01*
G37*
G36*
X0098352Y0194270D02*
X0096974Y0194028D01*
X0096956Y0194126D01*
X0098334Y0194368D01*
X0098352Y0194270D01*
G37*
G36*
X0098335Y0194369D02*
X0096957Y0194127D01*
X0096939Y0194225D01*
X0098317Y0194467D01*
X0098335Y0194369D01*
G37*
G36*
X0098381Y0194681D02*
X0097003Y0194439D01*
X0096985Y0194537D01*
X0098363Y0194779D01*
X0098381Y0194681D01*
G37*
G36*
X0098613Y0196246D02*
X0097235Y0196004D01*
X0097217Y0196102D01*
X0098595Y0196344D01*
X0098613Y0196246D01*
G37*
G36*
X0098659Y0196558D02*
X0097281Y0196316D01*
X0097263Y0196414D01*
X0098641Y0196656D01*
X0098659Y0196558D01*
G37*
G36*
X0098706Y0196871D02*
X0097328Y0196629D01*
X0097310Y0196727D01*
X0098688Y0196969D01*
X0098706Y0196871D01*
G37*
G36*
X0098752Y0197184D02*
X0097374Y0196942D01*
X0097356Y0197040D01*
X0098734Y0197282D01*
X0098752Y0197184D01*
G37*
G36*
X0098798Y0197497D02*
X0097420Y0197255D01*
X0097402Y0197353D01*
X0098780Y0197595D01*
X0098798Y0197497D01*
G37*
G36*
X0098845Y0197810D02*
X0097467Y0197568D01*
X0097449Y0197666D01*
X0098827Y0197908D01*
X0098845Y0197810D01*
G37*
G36*
X0098891Y0198122D02*
X0097513Y0197880D01*
X0097495Y0197978D01*
X0098873Y0198220D01*
X0098891Y0198122D01*
G37*
G36*
X0098828Y0197908D02*
X0097450Y0197666D01*
X0097432Y0197764D01*
X0098810Y0198006D01*
X0098828Y0197908D01*
G37*
G36*
X0098781Y0197595D02*
X0097403Y0197353D01*
X0097385Y0197451D01*
X0098763Y0197693D01*
X0098781Y0197595D01*
G37*
G36*
X0098735Y0197282D02*
X0097357Y0197040D01*
X0097339Y0197138D01*
X0098717Y0197380D01*
X0098735Y0197282D01*
G37*
G36*
X0098688Y0196970D02*
X0097310Y0196728D01*
X0097292Y0196826D01*
X0098670Y0197068D01*
X0098688Y0196970D01*
G37*
G36*
X0098642Y0196657D02*
X0097264Y0196415D01*
X0097246Y0196513D01*
X0098624Y0196755D01*
X0098642Y0196657D01*
G37*
G36*
X0098596Y0196344D02*
X0097218Y0196102D01*
X0097200Y0196200D01*
X0098578Y0196442D01*
X0098596Y0196344D01*
G37*
G36*
X0093816Y0192353D02*
X0092438Y0192111D01*
X0092420Y0192209D01*
X0093798Y0192451D01*
X0093816Y0192353D01*
G37*
G36*
X0094748Y0187644D02*
X0093370Y0187402D01*
X0093352Y0187500D01*
X0094730Y0187742D01*
X0094748Y0187644D01*
G37*
G36*
X0094765Y0187545D02*
X0093387Y0187303D01*
X0093369Y0187401D01*
X0094747Y0187643D01*
X0094765Y0187545D01*
G37*
G36*
X0094684Y0187429D02*
X0093306Y0187187D01*
X0093288Y0187285D01*
X0094666Y0187527D01*
X0094684Y0187429D01*
G37*
G36*
X0094620Y0187215D02*
X0093242Y0186973D01*
X0093224Y0187071D01*
X0094602Y0187313D01*
X0094620Y0187215D01*
G37*
G36*
X0094557Y0187001D02*
X0093179Y0186759D01*
X0093161Y0186857D01*
X0094539Y0187099D01*
X0094557Y0187001D01*
G37*
G36*
X0094476Y0186885D02*
X0093098Y0186643D01*
X0093080Y0186741D01*
X0094458Y0186983D01*
X0094476Y0186885D01*
G37*
G36*
X0097969Y0186079D02*
X0096591Y0185837D01*
X0096573Y0185935D01*
X0097951Y0186177D01*
X0097969Y0186079D01*
G37*
G36*
X0098113Y0186409D02*
X0096735Y0186167D01*
X0096717Y0186265D01*
X0098095Y0186507D01*
X0098113Y0186409D01*
G37*
G36*
X0098258Y0186740D02*
X0096880Y0186498D01*
X0096862Y0186596D01*
X0098240Y0186838D01*
X0098258Y0186740D01*
G37*
G36*
X0098403Y0187070D02*
X0097025Y0186828D01*
X0097007Y0186926D01*
X0098385Y0187168D01*
X0098403Y0187070D01*
G37*
G36*
X0098322Y0186954D02*
X0096944Y0186712D01*
X0096926Y0186810D01*
X0098304Y0187052D01*
X0098322Y0186954D01*
G37*
G36*
X0098032Y0186293D02*
X0096654Y0186051D01*
X0096636Y0186149D01*
X0098014Y0186391D01*
X0098032Y0186293D01*
G37*
G36*
X0098050Y0186195D02*
X0096672Y0185953D01*
X0096654Y0186051D01*
X0098032Y0186293D01*
X0098050Y0186195D01*
G37*
G36*
X0098165Y0184388D02*
X0096787Y0184146D01*
X0096769Y0184244D01*
X0098147Y0184486D01*
X0098165Y0184388D01*
G37*
G36*
X0094521Y0183745D02*
X0093143Y0183503D01*
X0093125Y0183601D01*
X0094503Y0183843D01*
X0094521Y0183745D01*
G37*
G36*
X0092511Y0184203D02*
X0091133Y0183961D01*
X0091115Y0184059D01*
X0092493Y0184301D01*
X0092511Y0184203D01*
G37*
G36*
X0102192Y0188042D02*
X0100814Y0187800D01*
X0100796Y0187898D01*
X0102174Y0188140D01*
X0102192Y0188042D01*
G37*
D43*
G36*
X0101966Y0187596D02*
X0100884Y0187406D01*
X0100866Y0187504D01*
X0101948Y0187694D01*
X0101966Y0187596D01*
G37*
G36*
X0103900Y0186414D02*
X0102818Y0186224D01*
X0102800Y0186322D01*
X0103882Y0186512D01*
X0103900Y0186414D01*
G37*
G36*
X0101438Y0185980D02*
X0100356Y0185790D01*
X0100338Y0185888D01*
X0101420Y0186078D01*
X0101438Y0185980D01*
G37*
G36*
X0101612Y0184995D02*
X0100530Y0184805D01*
X0100512Y0184903D01*
X0101594Y0185093D01*
X0101612Y0184995D01*
G37*
G36*
X0098032Y0184567D02*
X0096950Y0184377D01*
X0096932Y0184475D01*
X0098014Y0184665D01*
X0098032Y0184567D01*
G37*
G36*
X0096676Y0185344D02*
X0095594Y0185154D01*
X0095576Y0185252D01*
X0096658Y0185442D01*
X0096676Y0185344D01*
G37*
G36*
X0094301Y0186143D02*
X0093219Y0185953D01*
X0093201Y0186051D01*
X0094283Y0186241D01*
X0094301Y0186143D01*
G37*
G36*
X0094127Y0185402D02*
X0093045Y0185212D01*
X0093027Y0185310D01*
X0094109Y0185500D01*
X0094127Y0185402D01*
G37*
G36*
X0095588Y0192666D02*
X0094506Y0192476D01*
X0094488Y0192574D01*
X0095570Y0192764D01*
X0095588Y0192666D01*
G37*
G36*
X0093711Y0192944D02*
X0092629Y0192754D01*
X0092611Y0192852D01*
X0093693Y0193042D01*
X0093711Y0192944D01*
G37*
G36*
X0093694Y0193043D02*
X0092612Y0192853D01*
X0092594Y0192951D01*
X0093676Y0193141D01*
X0093694Y0193043D01*
G37*
G36*
X0093758Y0193257D02*
X0092676Y0193067D01*
X0092658Y0193165D01*
X0093740Y0193355D01*
X0093758Y0193257D01*
G37*
G36*
X0093648Y0192730D02*
X0092566Y0192540D01*
X0092548Y0192638D01*
X0093630Y0192828D01*
X0093648Y0192730D01*
G37*
D44*
G36*
X0095356Y0192829D02*
X0094865Y0192742D01*
X0094848Y0192839D01*
X0095339Y0192926D01*
X0095356Y0192829D01*
G37*
G36*
X0095379Y0193849D02*
X0094888Y0193762D01*
X0094871Y0193859D01*
X0095362Y0193946D01*
X0095379Y0193849D01*
G37*
G36*
X0095362Y0193947D02*
X0094871Y0193860D01*
X0094854Y0193957D01*
X0095345Y0194044D01*
X0095362Y0193947D01*
G37*
G36*
X0091388Y0193450D02*
X0090897Y0193363D01*
X0090880Y0193460D01*
X0091371Y0193547D01*
X0091388Y0193450D01*
G37*
G36*
X0091359Y0193038D02*
X0090868Y0192951D01*
X0090851Y0193048D01*
X0091342Y0193135D01*
X0091359Y0193038D01*
G37*
G36*
X0092117Y0187587D02*
X0091626Y0187500D01*
X0091609Y0187597D01*
X0092100Y0187684D01*
X0092117Y0187587D01*
G37*
G36*
X0092036Y0187471D02*
X0091545Y0187384D01*
X0091528Y0187481D01*
X0092019Y0187568D01*
X0092036Y0187471D01*
G37*
G36*
X0096919Y0185692D02*
X0096428Y0185605D01*
X0096411Y0185702D01*
X0096902Y0185789D01*
X0096919Y0185692D01*
G37*
G36*
X0099758Y0186294D02*
X0099267Y0186207D01*
X0099250Y0186304D01*
X0099741Y0186391D01*
X0099758Y0186294D01*
G37*
G36*
X0099804Y0186607D02*
X0099313Y0186520D01*
X0099296Y0186617D01*
X0099787Y0186704D01*
X0099804Y0186607D01*
G37*
G36*
X0101455Y0185883D02*
X0100964Y0185796D01*
X0100947Y0185893D01*
X0101438Y0185980D01*
X0101455Y0185883D01*
G37*
G36*
X0101443Y0185373D02*
X0100952Y0185286D01*
X0100935Y0185383D01*
X0101426Y0185470D01*
X0101443Y0185373D01*
G37*
G36*
X0104467Y0185500D02*
X0103976Y0185413D01*
X0103959Y0185510D01*
X0104450Y0185597D01*
X0104467Y0185500D01*
G37*
G36*
X0104531Y0185714D02*
X0104040Y0185627D01*
X0104023Y0185724D01*
X0104514Y0185811D01*
X0104531Y0185714D01*
G37*
G36*
X0104658Y0186143D02*
X0104167Y0186056D01*
X0104150Y0186153D01*
X0104641Y0186240D01*
X0104658Y0186143D01*
G37*
G36*
X0094185Y0184499D02*
X0093694Y0184412D01*
X0093677Y0184509D01*
X0094168Y0184596D01*
X0094185Y0184499D01*
G37*
G36*
X0094167Y0184598D02*
X0093676Y0184511D01*
X0093659Y0184608D01*
X0094150Y0184695D01*
X0094167Y0184598D01*
G37*
D45*
G36*
X0089162Y0183613D02*
X0086209Y0183093D01*
X0086192Y0183191D01*
X0089145Y0183711D01*
X0089162Y0183613D01*
G37*
G36*
X0089180Y0183514D02*
X0086227Y0182994D01*
X0086210Y0183092D01*
X0089163Y0183612D01*
X0089180Y0183514D01*
G37*
G36*
X0108563Y0187034D02*
X0105610Y0186514D01*
X0105593Y0186612D01*
X0108546Y0187132D01*
X0108563Y0187034D01*
G37*
G36*
X0108684Y0186344D02*
X0105731Y0185824D01*
X0105714Y0185922D01*
X0108667Y0186442D01*
X0108684Y0186344D01*
G37*
G36*
X0108702Y0186246D02*
X0105749Y0185726D01*
X0105732Y0185824D01*
X0108685Y0186344D01*
X0108702Y0186246D01*
G37*
G36*
X0096046Y0198129D02*
X0093093Y0197609D01*
X0093076Y0197707D01*
X0096029Y0198227D01*
X0096046Y0198129D01*
G37*
D46*
G36*
X0096208Y0198360D02*
X0092861Y0197771D01*
X0092844Y0197870D01*
X0096191Y0198459D01*
X0096208Y0198360D01*
G37*
G36*
X0089226Y0185553D02*
X0085879Y0184964D01*
X0085862Y0185063D01*
X0089209Y0185652D01*
X0089226Y0185553D01*
G37*
G36*
X0089244Y0185454D02*
X0085897Y0184865D01*
X0085880Y0184964D01*
X0089227Y0185553D01*
X0089244Y0185454D01*
G37*
G36*
X0089678Y0182992D02*
X0086331Y0182403D01*
X0086314Y0182502D01*
X0089661Y0183091D01*
X0089678Y0182992D01*
G37*
D47*
G36*
X0091706Y0185888D02*
X0090821Y0185733D01*
X0090804Y0185832D01*
X0091689Y0185987D01*
X0091706Y0185888D01*
G37*
G36*
X0091735Y0186300D02*
X0090850Y0186145D01*
X0090833Y0186244D01*
X0091718Y0186399D01*
X0091735Y0186300D01*
G37*
G36*
X0091897Y0186531D02*
X0091012Y0186376D01*
X0090995Y0186475D01*
X0091880Y0186630D01*
X0091897Y0186531D01*
G37*
G36*
X0091961Y0186746D02*
X0091076Y0186591D01*
X0091059Y0186690D01*
X0091944Y0186845D01*
X0091961Y0186746D01*
G37*
G36*
X0092024Y0186960D02*
X0091139Y0186805D01*
X0091122Y0186904D01*
X0092007Y0187059D01*
X0092024Y0186960D01*
G37*
G36*
X0091943Y0186844D02*
X0091058Y0186689D01*
X0091041Y0186788D01*
X0091926Y0186943D01*
X0091943Y0186844D01*
G37*
G36*
X0091816Y0186415D02*
X0090931Y0186260D01*
X0090914Y0186359D01*
X0091799Y0186514D01*
X0091816Y0186415D01*
G37*
G36*
X0094220Y0186027D02*
X0093335Y0185872D01*
X0093318Y0185971D01*
X0094203Y0186126D01*
X0094220Y0186027D01*
G37*
G36*
X0094237Y0185928D02*
X0093352Y0185773D01*
X0093335Y0185872D01*
X0094220Y0186027D01*
X0094237Y0185928D01*
G37*
G36*
X0094173Y0185714D02*
X0093288Y0185559D01*
X0093271Y0185658D01*
X0094156Y0185813D01*
X0094173Y0185714D01*
G37*
G36*
X0094289Y0183907D02*
X0093404Y0183752D01*
X0093387Y0183851D01*
X0094272Y0184006D01*
X0094289Y0183907D01*
G37*
G36*
X0096531Y0185013D02*
X0095646Y0184858D01*
X0095629Y0184957D01*
X0096514Y0185112D01*
X0096531Y0185013D01*
G37*
G36*
X0097904Y0185864D02*
X0097019Y0185709D01*
X0097002Y0185808D01*
X0097887Y0185963D01*
X0097904Y0185864D01*
G37*
G36*
X0101403Y0186177D02*
X0100518Y0186022D01*
X0100501Y0186121D01*
X0101386Y0186276D01*
X0101403Y0186177D01*
G37*
G36*
X0101484Y0186292D02*
X0100599Y0186137D01*
X0100582Y0186236D01*
X0101467Y0186391D01*
X0101484Y0186292D01*
G37*
G36*
X0101803Y0187364D02*
X0100918Y0187209D01*
X0100901Y0187308D01*
X0101786Y0187463D01*
X0101803Y0187364D01*
G37*
G36*
X0103737Y0186182D02*
X0102852Y0186027D01*
X0102835Y0186126D01*
X0103720Y0186281D01*
X0103737Y0186182D01*
G37*
G36*
X0101594Y0185093D02*
X0100709Y0184938D01*
X0100692Y0185037D01*
X0101577Y0185192D01*
X0101594Y0185093D01*
G37*
D48*
G36*
X0101426Y0185471D02*
X0101033Y0185402D01*
X0101016Y0185499D01*
X0101409Y0185568D01*
X0101426Y0185471D01*
G37*
G36*
X0100227Y0185361D02*
X0099834Y0185292D01*
X0099817Y0185389D01*
X0100210Y0185458D01*
X0100227Y0185361D01*
G37*
G36*
X0099630Y0185865D02*
X0099237Y0185796D01*
X0099220Y0185893D01*
X0099613Y0185962D01*
X0099630Y0185865D01*
G37*
G36*
X0099694Y0186080D02*
X0099301Y0186011D01*
X0099284Y0186108D01*
X0099677Y0186177D01*
X0099694Y0186080D01*
G37*
G36*
X0099677Y0186178D02*
X0099284Y0186109D01*
X0099267Y0186206D01*
X0099660Y0186275D01*
X0099677Y0186178D01*
G37*
G36*
X0099741Y0186393D02*
X0099348Y0186324D01*
X0099331Y0186421D01*
X0099724Y0186490D01*
X0099741Y0186393D01*
G37*
G36*
X0099723Y0186491D02*
X0099330Y0186422D01*
X0099313Y0186519D01*
X0099706Y0186588D01*
X0099723Y0186491D01*
G37*
G36*
X0099787Y0186705D02*
X0099394Y0186636D01*
X0099377Y0186733D01*
X0099770Y0186802D01*
X0099787Y0186705D01*
G37*
G36*
X0099770Y0186804D02*
X0099377Y0186735D01*
X0099360Y0186832D01*
X0099753Y0186901D01*
X0099770Y0186804D01*
G37*
G36*
X0103396Y0185819D02*
X0103003Y0185750D01*
X0102986Y0185847D01*
X0103379Y0185916D01*
X0103396Y0185819D01*
G37*
G36*
X0104450Y0185598D02*
X0104057Y0185529D01*
X0104040Y0185626D01*
X0104433Y0185695D01*
X0104450Y0185598D01*
G37*
G36*
X0104514Y0185813D02*
X0104121Y0185744D01*
X0104104Y0185841D01*
X0104497Y0185910D01*
X0104514Y0185813D01*
G37*
G36*
X0104595Y0185928D02*
X0104202Y0185859D01*
X0104185Y0185956D01*
X0104578Y0186025D01*
X0104595Y0185928D01*
G37*
G36*
X0104578Y0186027D02*
X0104185Y0185958D01*
X0104168Y0186055D01*
X0104561Y0186124D01*
X0104578Y0186027D01*
G37*
G36*
X0096085Y0186967D02*
X0095692Y0186898D01*
X0095675Y0186995D01*
X0096068Y0187064D01*
X0096085Y0186967D01*
G37*
G36*
X0096068Y0187065D02*
X0095675Y0186996D01*
X0095658Y0187093D01*
X0096051Y0187162D01*
X0096068Y0187065D01*
G37*
G36*
X0096114Y0187378D02*
X0095721Y0187309D01*
X0095704Y0187406D01*
X0096097Y0187475D01*
X0096114Y0187378D01*
G37*
G36*
X0096022Y0186752D02*
X0095629Y0186683D01*
X0095612Y0186780D01*
X0096005Y0186849D01*
X0096022Y0186752D01*
G37*
G36*
X0096039Y0186654D02*
X0095646Y0186585D01*
X0095629Y0186682D01*
X0096022Y0186751D01*
X0096039Y0186654D01*
G37*
G36*
X0095975Y0186439D02*
X0095582Y0186370D01*
X0095565Y0186467D01*
X0095958Y0186536D01*
X0095975Y0186439D01*
G37*
G36*
X0095993Y0186341D02*
X0095600Y0186272D01*
X0095583Y0186369D01*
X0095976Y0186438D01*
X0095993Y0186341D01*
G37*
G36*
X0095929Y0186127D02*
X0095536Y0186058D01*
X0095519Y0186155D01*
X0095912Y0186224D01*
X0095929Y0186127D01*
G37*
G36*
X0094081Y0185090D02*
X0093688Y0185021D01*
X0093671Y0185118D01*
X0094064Y0185187D01*
X0094081Y0185090D01*
G37*
G36*
X0094098Y0184991D02*
X0093705Y0184922D01*
X0093688Y0185019D01*
X0094081Y0185088D01*
X0094098Y0184991D01*
G37*
G36*
X0094116Y0184893D02*
X0093723Y0184824D01*
X0093706Y0184921D01*
X0094099Y0184990D01*
X0094116Y0184893D01*
G37*
G36*
X0094133Y0184795D02*
X0093740Y0184726D01*
X0093723Y0184823D01*
X0094116Y0184892D01*
X0094133Y0184795D01*
G37*
G36*
X0094150Y0184696D02*
X0093757Y0184627D01*
X0093740Y0184724D01*
X0094133Y0184793D01*
X0094150Y0184696D01*
G37*
G36*
X0094104Y0184383D02*
X0093711Y0184314D01*
X0093694Y0184411D01*
X0094087Y0184480D01*
X0094104Y0184383D01*
G37*
G36*
X0092100Y0187685D02*
X0091707Y0187616D01*
X0091690Y0187713D01*
X0092083Y0187782D01*
X0092100Y0187685D01*
G37*
G36*
X0091284Y0192314D02*
X0090891Y0192245D01*
X0090874Y0192342D01*
X0091267Y0192411D01*
X0091284Y0192314D01*
G37*
G36*
X0091266Y0192413D02*
X0090873Y0192344D01*
X0090856Y0192441D01*
X0091249Y0192510D01*
X0091266Y0192413D01*
G37*
G36*
X0091330Y0192627D02*
X0090937Y0192558D01*
X0090920Y0192655D01*
X0091313Y0192724D01*
X0091330Y0192627D01*
G37*
G36*
X0091313Y0192725D02*
X0090920Y0192656D01*
X0090903Y0192753D01*
X0091296Y0192822D01*
X0091313Y0192725D01*
G37*
G36*
X0091296Y0192824D02*
X0090903Y0192755D01*
X0090886Y0192852D01*
X0091279Y0192921D01*
X0091296Y0192824D01*
G37*
G36*
X0091278Y0192922D02*
X0090885Y0192853D01*
X0090868Y0192950D01*
X0091261Y0193019D01*
X0091278Y0192922D01*
G37*
G36*
X0091342Y0193137D02*
X0090949Y0193068D01*
X0090932Y0193165D01*
X0091325Y0193234D01*
X0091342Y0193137D01*
G37*
G36*
X0091325Y0193235D02*
X0090932Y0193166D01*
X0090915Y0193263D01*
X0091308Y0193332D01*
X0091325Y0193235D01*
G37*
G36*
X0091307Y0193334D02*
X0090914Y0193265D01*
X0090897Y0193362D01*
X0091290Y0193431D01*
X0091307Y0193334D01*
G37*
G36*
X0091279Y0196375D02*
X0090886Y0196306D01*
X0090869Y0196403D01*
X0091262Y0196472D01*
X0091279Y0196375D01*
G37*
G36*
X0095397Y0193750D02*
X0095004Y0193681D01*
X0094987Y0193778D01*
X0095380Y0193847D01*
X0095397Y0193750D01*
G37*
G36*
X0095368Y0193339D02*
X0094975Y0193270D01*
X0094958Y0193367D01*
X0095351Y0193436D01*
X0095368Y0193339D01*
G37*
G36*
X0095322Y0193026D02*
X0094929Y0192957D01*
X0094912Y0193054D01*
X0095305Y0193123D01*
X0095322Y0193026D01*
G37*
G36*
X0095339Y0192927D02*
X0094946Y0192858D01*
X0094929Y0192955D01*
X0095322Y0193024D01*
X0095339Y0192927D01*
G37*
D49*
G36*
X0095443Y0194062D02*
X0094656Y0193924D01*
X0094639Y0194022D01*
X0095426Y0194160D01*
X0095443Y0194062D01*
G37*
G36*
X0091296Y0196276D02*
X0090509Y0196138D01*
X0090492Y0196236D01*
X0091279Y0196374D01*
X0091296Y0196276D01*
G37*
G36*
X0092088Y0187175D02*
X0091301Y0187037D01*
X0091284Y0187135D01*
X0092071Y0187273D01*
X0092088Y0187175D01*
G37*
G36*
X0092007Y0187059D02*
X0091220Y0186921D01*
X0091203Y0187019D01*
X0091990Y0187157D01*
X0092007Y0187059D01*
G37*
G36*
X0091654Y0186184D02*
X0090867Y0186046D01*
X0090850Y0186144D01*
X0091637Y0186282D01*
X0091654Y0186184D01*
G37*
G36*
X0091671Y0186086D02*
X0090884Y0185948D01*
X0090867Y0186046D01*
X0091654Y0186184D01*
X0091671Y0186086D01*
G37*
G36*
X0091590Y0185970D02*
X0090803Y0185832D01*
X0090786Y0185930D01*
X0091573Y0186068D01*
X0091590Y0185970D01*
G37*
G36*
X0093310Y0184852D02*
X0092523Y0184714D01*
X0092506Y0184812D01*
X0093293Y0184950D01*
X0093310Y0184852D01*
G37*
G36*
X0094272Y0184006D02*
X0093485Y0183868D01*
X0093468Y0183966D01*
X0094255Y0184104D01*
X0094272Y0184006D01*
G37*
G36*
X0092053Y0183919D02*
X0091266Y0183781D01*
X0091249Y0183879D01*
X0092036Y0184017D01*
X0092053Y0183919D01*
G37*
G36*
X0097881Y0184845D02*
X0097094Y0184707D01*
X0097077Y0184805D01*
X0097864Y0184943D01*
X0097881Y0184845D01*
G37*
G36*
X0097898Y0184747D02*
X0097111Y0184609D01*
X0097094Y0184707D01*
X0097881Y0184845D01*
X0097898Y0184747D01*
G37*
G36*
X0097939Y0185668D02*
X0097152Y0185530D01*
X0097135Y0185628D01*
X0097922Y0185766D01*
X0097939Y0185668D01*
G37*
G36*
X0097922Y0185766D02*
X0097135Y0185628D01*
X0097118Y0185726D01*
X0097905Y0185864D01*
X0097922Y0185766D01*
G37*
G36*
X0101467Y0186392D02*
X0100680Y0186254D01*
X0100663Y0186352D01*
X0101450Y0186490D01*
X0101467Y0186392D01*
G37*
G36*
X0101548Y0186507D02*
X0100761Y0186369D01*
X0100744Y0186467D01*
X0101531Y0186605D01*
X0101548Y0186507D01*
G37*
G36*
X0101531Y0186606D02*
X0100744Y0186468D01*
X0100727Y0186566D01*
X0101514Y0186704D01*
X0101531Y0186606D01*
G37*
G36*
X0101658Y0187035D02*
X0100871Y0186897D01*
X0100854Y0186995D01*
X0101641Y0187133D01*
X0101658Y0187035D01*
G37*
G36*
X0101739Y0187150D02*
X0100952Y0187012D01*
X0100935Y0187110D01*
X0101722Y0187248D01*
X0101739Y0187150D01*
G37*
G36*
X0101722Y0187249D02*
X0100935Y0187111D01*
X0100918Y0187209D01*
X0101705Y0187347D01*
X0101722Y0187249D01*
G37*
G36*
X0103657Y0186067D02*
X0102870Y0185929D01*
X0102853Y0186027D01*
X0103640Y0186165D01*
X0103657Y0186067D01*
G37*
G36*
X0104919Y0186391D02*
X0104132Y0186253D01*
X0104115Y0186351D01*
X0104902Y0186489D01*
X0104919Y0186391D01*
G37*
G36*
X0101577Y0185192D02*
X0100790Y0185054D01*
X0100773Y0185152D01*
X0101560Y0185290D01*
X0101577Y0185192D01*
G37*
D50*
G36*
X0108667Y0186442D02*
X0105812Y0185939D01*
X0105795Y0186038D01*
X0108650Y0186541D01*
X0108667Y0186442D01*
G37*
G36*
X0108650Y0186541D02*
X0105795Y0186038D01*
X0105778Y0186137D01*
X0108633Y0186640D01*
X0108650Y0186541D01*
G37*
G36*
X0108633Y0186639D02*
X0105778Y0186136D01*
X0105761Y0186235D01*
X0108616Y0186738D01*
X0108633Y0186639D01*
G37*
G36*
X0108615Y0186738D02*
X0105760Y0186235D01*
X0105743Y0186334D01*
X0108598Y0186837D01*
X0108615Y0186738D01*
G37*
G36*
X0108598Y0186836D02*
X0105743Y0186333D01*
X0105726Y0186432D01*
X0108581Y0186935D01*
X0108598Y0186836D01*
G37*
G36*
X0108581Y0186935D02*
X0105726Y0186432D01*
X0105709Y0186531D01*
X0108564Y0187034D01*
X0108581Y0186935D01*
G37*
G36*
X0095541Y0188900D02*
X0092686Y0188397D01*
X0092669Y0188496D01*
X0095524Y0188999D01*
X0095541Y0188900D01*
G37*
G36*
X0095936Y0197601D02*
X0093081Y0197098D01*
X0093064Y0197197D01*
X0095919Y0197700D01*
X0095936Y0197601D01*
G37*
G36*
X0096000Y0197815D02*
X0093145Y0197312D01*
X0093128Y0197411D01*
X0095983Y0197914D01*
X0096000Y0197815D01*
G37*
G36*
X0095983Y0197914D02*
X0093128Y0197411D01*
X0093111Y0197510D01*
X0095966Y0198013D01*
X0095983Y0197914D01*
G37*
G36*
X0095965Y0198012D02*
X0093110Y0197509D01*
X0093093Y0197608D01*
X0095948Y0198111D01*
X0095965Y0198012D01*
G37*
D51*
G36*
X0096128Y0198244D02*
X0092977Y0197689D01*
X0092960Y0197788D01*
X0096111Y0198343D01*
X0096128Y0198244D01*
G37*
G36*
X0089099Y0185124D02*
X0085948Y0184569D01*
X0085931Y0184668D01*
X0089082Y0185223D01*
X0089099Y0185124D01*
G37*
G36*
X0089117Y0185026D02*
X0085966Y0184471D01*
X0085949Y0184570D01*
X0089100Y0185125D01*
X0089117Y0185026D01*
G37*
G36*
X0089429Y0183253D02*
X0086278Y0182698D01*
X0086261Y0182797D01*
X0089412Y0183352D01*
X0089429Y0183253D01*
G37*
G36*
X0089446Y0183155D02*
X0086295Y0182600D01*
X0086278Y0182699D01*
X0089429Y0183254D01*
X0089446Y0183155D01*
G37*
D52*
G36*
X0089314Y0183334D02*
X0086262Y0182797D01*
X0086244Y0182896D01*
X0089296Y0183433D01*
X0089314Y0183334D01*
G37*
G36*
X0089296Y0183432D02*
X0086244Y0182895D01*
X0086226Y0182994D01*
X0089278Y0183531D01*
X0089296Y0183432D01*
G37*
D53*
G36*
X0091677Y0183753D02*
X0091481Y0183718D01*
X0091463Y0183815D01*
X0091659Y0183850D01*
X0091677Y0183753D01*
G37*
G36*
X0095721Y0185582D02*
X0095525Y0185547D01*
X0095507Y0185644D01*
X0095703Y0185679D01*
X0095721Y0185582D01*
G37*
G36*
X0095802Y0185698D02*
X0095606Y0185663D01*
X0095588Y0185760D01*
X0095784Y0185795D01*
X0095802Y0185698D01*
G37*
G36*
X0095784Y0185797D02*
X0095588Y0185762D01*
X0095570Y0185859D01*
X0095766Y0185894D01*
X0095784Y0185797D01*
G37*
G36*
X0096045Y0187772D02*
X0095849Y0187737D01*
X0095831Y0187834D01*
X0096027Y0187869D01*
X0096045Y0187772D01*
G37*
G36*
X0096109Y0187986D02*
X0095913Y0187951D01*
X0095895Y0188048D01*
X0096091Y0188083D01*
X0096109Y0187986D01*
G37*
G36*
X0096092Y0188085D02*
X0095896Y0188050D01*
X0095878Y0188147D01*
X0096074Y0188182D01*
X0096092Y0188085D01*
G37*
G36*
X0099764Y0187412D02*
X0099568Y0187377D01*
X0099550Y0187474D01*
X0099746Y0187509D01*
X0099764Y0187412D01*
G37*
G36*
X0099782Y0187314D02*
X0099586Y0187279D01*
X0099568Y0187376D01*
X0099764Y0187411D01*
X0099782Y0187314D01*
G37*
G36*
X0099469Y0185634D02*
X0099273Y0185599D01*
X0099255Y0185696D01*
X0099451Y0185731D01*
X0099469Y0185634D01*
G37*
G36*
X0099486Y0185536D02*
X0099290Y0185501D01*
X0099272Y0185598D01*
X0099468Y0185633D01*
X0099486Y0185536D01*
G37*
G36*
X0101392Y0185669D02*
X0101196Y0185634D01*
X0101178Y0185731D01*
X0101374Y0185766D01*
X0101392Y0185669D01*
G37*
G36*
X0103055Y0187180D02*
X0102859Y0187145D01*
X0102841Y0187242D01*
X0103037Y0187277D01*
X0103055Y0187180D01*
G37*
G36*
X0103037Y0187279D02*
X0102841Y0187244D01*
X0102823Y0187341D01*
X0103019Y0187376D01*
X0103037Y0187279D01*
G37*
G36*
X0103101Y0187493D02*
X0102905Y0187458D01*
X0102887Y0187555D01*
X0103083Y0187590D01*
X0103101Y0187493D01*
G37*
G36*
X0103084Y0187592D02*
X0102888Y0187557D01*
X0102870Y0187654D01*
X0103066Y0187689D01*
X0103084Y0187592D01*
G37*
G36*
X0103147Y0187806D02*
X0102951Y0187771D01*
X0102933Y0187868D01*
X0103129Y0187903D01*
X0103147Y0187806D01*
G37*
G36*
X0092083Y0187784D02*
X0091887Y0187749D01*
X0091869Y0187846D01*
X0092065Y0187881D01*
X0092083Y0187784D01*
G37*
G36*
X0091209Y0191590D02*
X0091013Y0191555D01*
X0090995Y0191652D01*
X0091191Y0191687D01*
X0091209Y0191590D01*
G37*
G36*
X0091192Y0191689D02*
X0090996Y0191654D01*
X0090978Y0191751D01*
X0091174Y0191786D01*
X0091192Y0191689D01*
G37*
G36*
X0091174Y0191787D02*
X0090978Y0191752D01*
X0090960Y0191849D01*
X0091156Y0191884D01*
X0091174Y0191787D01*
G37*
G36*
X0091360Y0196491D02*
X0091164Y0196456D01*
X0091146Y0196553D01*
X0091342Y0196588D01*
X0091360Y0196491D01*
G37*
D54*
G36*
X0091249Y0192511D02*
X0090954Y0192459D01*
X0090937Y0192557D01*
X0091232Y0192609D01*
X0091249Y0192511D01*
G37*
G36*
X0091203Y0192198D02*
X0090908Y0192146D01*
X0090891Y0192244D01*
X0091186Y0192296D01*
X0091203Y0192198D01*
G37*
G36*
X0091220Y0192099D02*
X0090925Y0192047D01*
X0090908Y0192145D01*
X0091203Y0192197D01*
X0091220Y0192099D01*
G37*
G36*
X0091238Y0192001D02*
X0090943Y0191949D01*
X0090926Y0192047D01*
X0091221Y0192099D01*
X0091238Y0192001D01*
G37*
G36*
X0091255Y0191902D02*
X0090960Y0191850D01*
X0090943Y0191948D01*
X0091238Y0192000D01*
X0091255Y0191902D01*
G37*
G36*
X0095304Y0193124D02*
X0095009Y0193072D01*
X0094992Y0193170D01*
X0095287Y0193222D01*
X0095304Y0193124D01*
G37*
G36*
X0095287Y0193223D02*
X0094992Y0193171D01*
X0094975Y0193269D01*
X0095270Y0193321D01*
X0095287Y0193223D01*
G37*
G36*
X0095351Y0193437D02*
X0095056Y0193385D01*
X0095039Y0193483D01*
X0095334Y0193535D01*
X0095351Y0193437D01*
G37*
G36*
X0095333Y0193535D02*
X0095038Y0193483D01*
X0095021Y0193581D01*
X0095316Y0193633D01*
X0095333Y0193535D01*
G37*
G36*
X0095316Y0193634D02*
X0095021Y0193582D01*
X0095004Y0193680D01*
X0095299Y0193732D01*
X0095316Y0193634D01*
G37*
G36*
X0096126Y0187887D02*
X0095831Y0187835D01*
X0095814Y0187933D01*
X0096109Y0187985D01*
X0096126Y0187887D01*
G37*
G36*
X0096063Y0187673D02*
X0095768Y0187621D01*
X0095751Y0187719D01*
X0096046Y0187771D01*
X0096063Y0187673D01*
G37*
G36*
X0096080Y0187574D02*
X0095785Y0187522D01*
X0095768Y0187620D01*
X0096063Y0187672D01*
X0096080Y0187574D01*
G37*
G36*
X0096097Y0187476D02*
X0095802Y0187424D01*
X0095785Y0187522D01*
X0096080Y0187574D01*
X0096097Y0187476D01*
G37*
G36*
X0096034Y0187262D02*
X0095739Y0187210D01*
X0095722Y0187308D01*
X0096017Y0187360D01*
X0096034Y0187262D01*
G37*
G36*
X0096051Y0187163D02*
X0095756Y0187111D01*
X0095739Y0187209D01*
X0096034Y0187261D01*
X0096051Y0187163D01*
G37*
G36*
X0096004Y0186850D02*
X0095709Y0186798D01*
X0095692Y0186896D01*
X0095987Y0186948D01*
X0096004Y0186850D01*
G37*
G36*
X0095958Y0186538D02*
X0095663Y0186486D01*
X0095646Y0186584D01*
X0095941Y0186636D01*
X0095958Y0186538D01*
G37*
G36*
X0095912Y0186225D02*
X0095617Y0186173D01*
X0095600Y0186271D01*
X0095895Y0186323D01*
X0095912Y0186225D01*
G37*
G36*
X0095848Y0186010D02*
X0095553Y0185958D01*
X0095536Y0186056D01*
X0095831Y0186108D01*
X0095848Y0186010D01*
G37*
G36*
X0095865Y0185912D02*
X0095570Y0185860D01*
X0095553Y0185958D01*
X0095848Y0186010D01*
X0095865Y0185912D01*
G37*
G36*
X0096091Y0184632D02*
X0095796Y0184580D01*
X0095779Y0184678D01*
X0096074Y0184730D01*
X0096091Y0184632D01*
G37*
G36*
X0099550Y0185749D02*
X0099255Y0185697D01*
X0099238Y0185795D01*
X0099533Y0185847D01*
X0099550Y0185749D01*
G37*
G36*
X0099613Y0185964D02*
X0099318Y0185912D01*
X0099301Y0186010D01*
X0099596Y0186062D01*
X0099613Y0185964D01*
G37*
G36*
X0100308Y0185477D02*
X0100013Y0185425D01*
X0099996Y0185523D01*
X0100291Y0185575D01*
X0100308Y0185477D01*
G37*
G36*
X0100488Y0185610D02*
X0100193Y0185558D01*
X0100176Y0185656D01*
X0100471Y0185708D01*
X0100488Y0185610D01*
G37*
G36*
X0100569Y0185726D02*
X0100274Y0185674D01*
X0100257Y0185772D01*
X0100552Y0185824D01*
X0100569Y0185726D01*
G37*
G36*
X0101409Y0185569D02*
X0101114Y0185517D01*
X0101097Y0185615D01*
X0101392Y0185667D01*
X0101409Y0185569D01*
G37*
G36*
X0101473Y0185784D02*
X0101178Y0185732D01*
X0101161Y0185830D01*
X0101456Y0185882D01*
X0101473Y0185784D01*
G37*
G36*
X0103089Y0186983D02*
X0102794Y0186931D01*
X0102777Y0187029D01*
X0103072Y0187081D01*
X0103089Y0186983D01*
G37*
G36*
X0103072Y0187081D02*
X0102777Y0187029D01*
X0102760Y0187127D01*
X0103055Y0187179D01*
X0103072Y0187081D01*
G37*
G36*
X0103118Y0187394D02*
X0102823Y0187342D01*
X0102806Y0187440D01*
X0103101Y0187492D01*
X0103118Y0187394D01*
G37*
G36*
X0099816Y0187116D02*
X0099521Y0187064D01*
X0099504Y0187162D01*
X0099799Y0187214D01*
X0099816Y0187116D01*
G37*
G36*
X0099799Y0187215D02*
X0099504Y0187163D01*
X0099487Y0187261D01*
X0099782Y0187313D01*
X0099799Y0187215D01*
G37*
G36*
X0099735Y0187000D02*
X0099440Y0186948D01*
X0099423Y0187046D01*
X0099718Y0187098D01*
X0099735Y0187000D01*
G37*
G36*
X0099752Y0186902D02*
X0099457Y0186850D01*
X0099440Y0186948D01*
X0099735Y0187000D01*
X0099752Y0186902D01*
G37*
D55*
G36*
X0089007Y0184499D02*
X0082705Y0183389D01*
X0082687Y0183487D01*
X0088989Y0184597D01*
X0089007Y0184499D01*
G37*
G36*
X0089024Y0184400D02*
X0082722Y0183290D01*
X0082704Y0183388D01*
X0089006Y0184498D01*
X0089024Y0184400D01*
G37*
G36*
X0089041Y0184302D02*
X0082739Y0183192D01*
X0082721Y0183290D01*
X0089023Y0184400D01*
X0089041Y0184302D01*
G37*
G36*
X0089059Y0184203D02*
X0082757Y0183093D01*
X0082739Y0183191D01*
X0089041Y0184301D01*
X0089059Y0184203D01*
G37*
G36*
X0089076Y0184105D02*
X0082774Y0182995D01*
X0082756Y0183093D01*
X0089058Y0184203D01*
X0089076Y0184105D01*
G37*
G36*
X0089094Y0184006D02*
X0082792Y0182896D01*
X0082774Y0182994D01*
X0089076Y0184104D01*
X0089094Y0184006D01*
G37*
G36*
X0089111Y0183908D02*
X0082809Y0182798D01*
X0082791Y0182896D01*
X0089093Y0184006D01*
X0089111Y0183908D01*
G37*
G36*
X0089128Y0183809D02*
X0082826Y0182699D01*
X0082808Y0182797D01*
X0089110Y0183907D01*
X0089128Y0183809D01*
G37*
G36*
X0089146Y0183711D02*
X0082844Y0182601D01*
X0082826Y0182699D01*
X0089128Y0183809D01*
X0089146Y0183711D01*
G37*
G36*
X0106845Y0196783D02*
X0100543Y0195673D01*
X0100525Y0195771D01*
X0106827Y0196881D01*
X0106845Y0196783D01*
G37*
D56*
G36*
X0107191Y0194813D02*
X0099412Y0193442D01*
X0099395Y0193541D01*
X0107174Y0194912D01*
X0107191Y0194813D01*
G37*
G36*
X0111611Y0189906D02*
X0103832Y0188535D01*
X0103815Y0188634D01*
X0111594Y0190005D01*
X0111611Y0189906D01*
G37*
G36*
X0111993Y0187739D02*
X0104214Y0186368D01*
X0104197Y0186467D01*
X0111976Y0187838D01*
X0111993Y0187739D01*
G37*
G36*
X0090067Y0187123D02*
X0082288Y0185752D01*
X0082271Y0185851D01*
X0090050Y0187222D01*
X0090067Y0187123D01*
G37*
D57*
G36*
X0090147Y0187239D02*
X0082270Y0185851D01*
X0082253Y0185949D01*
X0090130Y0187337D01*
X0090147Y0187239D01*
G37*
G36*
X0111593Y0190005D02*
X0103716Y0188617D01*
X0103699Y0188715D01*
X0111576Y0190103D01*
X0111593Y0190005D01*
G37*
G36*
X0111975Y0187838D02*
X0104098Y0186450D01*
X0104081Y0186548D01*
X0111958Y0187936D01*
X0111975Y0187838D01*
G37*
D58*
G36*
X0099265Y0187932D02*
X0097100Y0187551D01*
X0097083Y0187650D01*
X0099248Y0188031D01*
X0099265Y0187932D01*
G37*
G36*
X0093130Y0184718D02*
X0090965Y0184337D01*
X0090948Y0184436D01*
X0093113Y0184817D01*
X0093130Y0184718D01*
G37*
G36*
X0095061Y0194502D02*
X0092896Y0194121D01*
X0092879Y0194220D01*
X0095044Y0194601D01*
X0095061Y0194502D01*
G37*
G36*
X0095107Y0194815D02*
X0092942Y0194434D01*
X0092925Y0194533D01*
X0095090Y0194914D01*
X0095107Y0194815D01*
G37*
G36*
X0095090Y0194913D02*
X0092925Y0194532D01*
X0092908Y0194631D01*
X0095073Y0195012D01*
X0095090Y0194913D01*
G37*
G36*
X0095043Y0194600D02*
X0092878Y0194219D01*
X0092861Y0194318D01*
X0095026Y0194699D01*
X0095043Y0194600D01*
G37*
D59*
G36*
X0091127Y0191474D02*
X0091030Y0191457D01*
X0091013Y0191554D01*
X0091110Y0191571D01*
X0091127Y0191474D01*
G37*
G36*
X0091144Y0191376D02*
X0091047Y0191359D01*
X0091030Y0191456D01*
X0091127Y0191473D01*
X0091144Y0191376D01*
G37*
G36*
X0096074Y0188183D02*
X0095977Y0188166D01*
X0095960Y0188263D01*
X0096057Y0188280D01*
X0096074Y0188183D01*
G37*
G36*
X0095639Y0185466D02*
X0095542Y0185449D01*
X0095525Y0185546D01*
X0095622Y0185563D01*
X0095639Y0185466D01*
G37*
G36*
X0095656Y0185368D02*
X0095559Y0185351D01*
X0095542Y0185448D01*
X0095639Y0185465D01*
X0095656Y0185368D01*
G37*
G36*
X0095674Y0185269D02*
X0095577Y0185252D01*
X0095560Y0185349D01*
X0095657Y0185366D01*
X0095674Y0185269D01*
G37*
G36*
X0103066Y0187690D02*
X0102969Y0187673D01*
X0102952Y0187770D01*
X0103049Y0187787D01*
X0103066Y0187690D01*
G37*
G36*
X0103129Y0187904D02*
X0103032Y0187887D01*
X0103015Y0187984D01*
X0103112Y0188001D01*
X0103129Y0187904D01*
G37*
D60*
G36*
X0111871Y0188429D02*
X0102812Y0186832D01*
X0102795Y0186931D01*
X0111854Y0188528D01*
X0111871Y0188429D01*
G37*
G36*
X0111888Y0188330D02*
X0102829Y0186733D01*
X0102812Y0186832D01*
X0111871Y0188429D01*
X0111888Y0188330D01*
G37*
G36*
X0090791Y0190500D02*
X0081732Y0188903D01*
X0081715Y0189002D01*
X0090774Y0190599D01*
X0090791Y0190500D01*
G37*
G36*
X0090305Y0193257D02*
X0081246Y0191660D01*
X0081229Y0191759D01*
X0090288Y0193356D01*
X0090305Y0193257D01*
G37*
G36*
X0089662Y0196901D02*
X0080603Y0195304D01*
X0080586Y0195403D01*
X0089645Y0197000D01*
X0089662Y0196901D01*
G37*
D61*
G36*
X0111854Y0188527D02*
X0103484Y0187052D01*
X0103466Y0187151D01*
X0111836Y0188626D01*
X0111854Y0188527D01*
G37*
D62*
G36*
X0111836Y0188626D02*
X0103565Y0187168D01*
X0103548Y0187266D01*
X0111819Y0188724D01*
X0111836Y0188626D01*
G37*
D63*
G36*
X0111819Y0188724D02*
X0103744Y0187301D01*
X0103727Y0187400D01*
X0111802Y0188823D01*
X0111819Y0188724D01*
G37*
D64*
G36*
X0111802Y0188823D02*
X0103826Y0187417D01*
X0103808Y0187515D01*
X0111784Y0188921D01*
X0111802Y0188823D01*
G37*
G36*
X0111785Y0188922D02*
X0103809Y0187516D01*
X0103791Y0187614D01*
X0111767Y0189020D01*
X0111785Y0188922D01*
G37*
G36*
X0111576Y0190104D02*
X0103600Y0188698D01*
X0103582Y0188796D01*
X0111558Y0190202D01*
X0111576Y0190104D01*
G37*
G36*
X0107209Y0194715D02*
X0099233Y0193309D01*
X0099215Y0193407D01*
X0107191Y0194813D01*
X0107209Y0194715D01*
G37*
D65*
G36*
X0108320Y0188412D02*
X0103889Y0187632D01*
X0103872Y0187730D01*
X0108303Y0188510D01*
X0108320Y0188412D01*
G37*
D66*
G36*
X0108303Y0188510D02*
X0103971Y0187747D01*
X0103953Y0187846D01*
X0108285Y0188609D01*
X0108303Y0188510D01*
G37*
G36*
X0108286Y0188609D02*
X0103954Y0187846D01*
X0103936Y0187945D01*
X0108268Y0188708D01*
X0108286Y0188609D01*
G37*
D67*
G36*
X0108269Y0188708D02*
X0104035Y0187962D01*
X0104017Y0188060D01*
X0108251Y0188806D01*
X0108269Y0188708D01*
G37*
G36*
X0108251Y0188806D02*
X0104017Y0188060D01*
X0103999Y0188158D01*
X0108233Y0188904D01*
X0108251Y0188806D01*
G37*
G36*
X0108234Y0188905D02*
X0104000Y0188159D01*
X0103982Y0188257D01*
X0108216Y0189003D01*
X0108234Y0188905D01*
G37*
G36*
X0108216Y0189003D02*
X0103982Y0188257D01*
X0103964Y0188355D01*
X0108198Y0189101D01*
X0108216Y0189003D01*
G37*
G36*
X0108199Y0189102D02*
X0103965Y0188356D01*
X0103947Y0188454D01*
X0108181Y0189200D01*
X0108199Y0189102D01*
G37*
D68*
G36*
X0111628Y0189807D02*
X0103947Y0188454D01*
X0103930Y0188553D01*
X0111611Y0189906D01*
X0111628Y0189807D01*
G37*
G36*
X0089986Y0187006D02*
X0082305Y0185653D01*
X0082288Y0185752D01*
X0089969Y0187105D01*
X0089986Y0187006D01*
G37*
D69*
G36*
X0099086Y0187799D02*
X0097117Y0187453D01*
X0097100Y0187551D01*
X0099069Y0187897D01*
X0099086Y0187799D01*
G37*
G36*
X0102533Y0188407D02*
X0100564Y0188061D01*
X0100547Y0188159D01*
X0102516Y0188505D01*
X0102533Y0188407D01*
G37*
D70*
G36*
X0089516Y0186213D02*
X0082427Y0184964D01*
X0082410Y0185063D01*
X0089499Y0186312D01*
X0089516Y0186213D01*
G37*
D71*
G36*
X0095460Y0188785D02*
X0092901Y0188335D01*
X0092884Y0188433D01*
X0095443Y0188883D01*
X0095460Y0188785D01*
G37*
G36*
X0102892Y0188673D02*
X0100333Y0188223D01*
X0100316Y0188321D01*
X0102875Y0188771D01*
X0102892Y0188673D01*
G37*
G36*
X0095495Y0195493D02*
X0092936Y0195043D01*
X0092919Y0195141D01*
X0095478Y0195591D01*
X0095495Y0195493D01*
G37*
G36*
X0095623Y0195921D02*
X0093064Y0195471D01*
X0093047Y0195569D01*
X0095606Y0196019D01*
X0095623Y0195921D01*
G37*
G36*
X0095652Y0196333D02*
X0093093Y0195883D01*
X0093076Y0195981D01*
X0095635Y0196431D01*
X0095652Y0196333D01*
G37*
G36*
X0095606Y0196020D02*
X0093047Y0195570D01*
X0093030Y0195668D01*
X0095589Y0196118D01*
X0095606Y0196020D01*
G37*
G36*
X0095559Y0195707D02*
X0093000Y0195257D01*
X0092983Y0195355D01*
X0095542Y0195805D01*
X0095559Y0195707D01*
G37*
G36*
X0095577Y0195609D02*
X0093018Y0195159D01*
X0093001Y0195257D01*
X0095560Y0195707D01*
X0095577Y0195609D01*
G37*
G36*
X0099539Y0199049D02*
X0096980Y0198599D01*
X0096963Y0198697D01*
X0099522Y0199147D01*
X0099539Y0199049D01*
G37*
D72*
G36*
X0111419Y0190990D02*
X0097042Y0188456D01*
X0097025Y0188554D01*
X0111402Y0191088D01*
X0111419Y0190990D01*
G37*
G36*
X0111437Y0190891D02*
X0097060Y0188357D01*
X0097043Y0188455D01*
X0111420Y0190989D01*
X0111437Y0190891D01*
G37*
G36*
X0111454Y0190793D02*
X0097077Y0188259D01*
X0097060Y0188357D01*
X0111437Y0190891D01*
X0111454Y0190793D01*
G37*
G36*
X0111472Y0190694D02*
X0097095Y0188160D01*
X0097078Y0188258D01*
X0111455Y0190792D01*
X0111472Y0190694D01*
G37*
G36*
X0111489Y0190596D02*
X0097112Y0188062D01*
X0097095Y0188160D01*
X0111472Y0190694D01*
X0111489Y0190596D01*
G37*
G36*
X0111506Y0190497D02*
X0097129Y0187963D01*
X0097112Y0188061D01*
X0111489Y0190595D01*
X0111506Y0190497D01*
G37*
G36*
X0111524Y0190399D02*
X0097147Y0187865D01*
X0097130Y0187963D01*
X0111507Y0190497D01*
X0111524Y0190399D01*
G37*
G36*
X0111541Y0190300D02*
X0097164Y0187766D01*
X0097147Y0187864D01*
X0111524Y0190398D01*
X0111541Y0190300D01*
G37*
D73*
G36*
X0107139Y0195108D02*
X0099754Y0193807D01*
X0099737Y0193906D01*
X0107122Y0195207D01*
X0107139Y0195108D01*
G37*
G36*
X0089742Y0186659D02*
X0082357Y0185358D01*
X0082340Y0185457D01*
X0089725Y0186758D01*
X0089742Y0186659D01*
G37*
D74*
G36*
X0089823Y0186775D02*
X0082340Y0185456D01*
X0082323Y0185555D01*
X0089806Y0186874D01*
X0089823Y0186775D01*
G37*
G36*
X0107156Y0195010D02*
X0099673Y0193691D01*
X0099656Y0193790D01*
X0107139Y0195109D01*
X0107156Y0195010D01*
G37*
D75*
G36*
X0090229Y0187354D02*
X0085602Y0186539D01*
X0085585Y0186638D01*
X0090212Y0187453D01*
X0090229Y0187354D01*
G37*
D76*
G36*
X0090409Y0187488D02*
X0085584Y0186638D01*
X0085567Y0186736D01*
X0090392Y0187586D01*
X0090409Y0187488D01*
G37*
D77*
G36*
X0090490Y0187603D02*
X0085567Y0186736D01*
X0085550Y0186835D01*
X0090473Y0187702D01*
X0090490Y0187603D01*
G37*
D78*
G36*
X0090570Y0187719D02*
X0085549Y0186834D01*
X0085532Y0186933D01*
X0090553Y0187818D01*
X0090570Y0187719D01*
G37*
D79*
G36*
X0107903Y0190776D02*
X0096874Y0188832D01*
X0096857Y0188930D01*
X0107886Y0190874D01*
X0107903Y0190776D01*
G37*
G36*
X0107886Y0190874D02*
X0096857Y0188930D01*
X0096840Y0189028D01*
X0107869Y0190972D01*
X0107886Y0190874D01*
G37*
D80*
G36*
X0090751Y0187852D02*
X0085532Y0186933D01*
X0085515Y0187032D01*
X0090734Y0187951D01*
X0090751Y0187852D01*
G37*
G36*
X0089952Y0192382D02*
X0084733Y0191463D01*
X0084716Y0191562D01*
X0089935Y0192481D01*
X0089952Y0192382D01*
G37*
D81*
G36*
X0089488Y0196160D02*
X0084073Y0195206D01*
X0084056Y0195304D01*
X0089471Y0196258D01*
X0089488Y0196160D01*
G37*
G36*
X0089471Y0196258D02*
X0084056Y0195304D01*
X0084039Y0195402D01*
X0089454Y0196356D01*
X0089471Y0196258D01*
G37*
G36*
X0089454Y0196357D02*
X0084039Y0195403D01*
X0084022Y0195501D01*
X0089437Y0196455D01*
X0089454Y0196357D01*
G37*
G36*
X0089436Y0196455D02*
X0084021Y0195501D01*
X0084004Y0195599D01*
X0089419Y0196553D01*
X0089436Y0196455D01*
G37*
G36*
X0090930Y0187986D02*
X0085515Y0187032D01*
X0085498Y0187130D01*
X0090913Y0188084D01*
X0090930Y0187986D01*
G37*
D82*
G36*
X0107868Y0190972D02*
X0096741Y0189011D01*
X0096724Y0189110D01*
X0107851Y0191071D01*
X0107868Y0190972D01*
G37*
D83*
G36*
X0091110Y0188119D02*
X0085497Y0187130D01*
X0085480Y0187229D01*
X0091093Y0188218D01*
X0091110Y0188119D01*
G37*
G36*
X0089721Y0195997D02*
X0084108Y0195008D01*
X0084091Y0195107D01*
X0089704Y0196096D01*
X0089721Y0195997D01*
G37*
D84*
G36*
X0107852Y0191071D02*
X0096626Y0189092D01*
X0096608Y0189191D01*
X0107834Y0191170D01*
X0107852Y0191071D01*
G37*
D85*
G36*
X0106340Y0199639D02*
X0100531Y0198615D01*
X0100514Y0198713D01*
X0106323Y0199737D01*
X0106340Y0199639D01*
G37*
G36*
X0090907Y0190419D02*
X0085098Y0189395D01*
X0085081Y0189493D01*
X0090890Y0190517D01*
X0090907Y0190419D01*
G37*
G36*
X0091289Y0188253D02*
X0085480Y0187229D01*
X0085463Y0187327D01*
X0091272Y0188351D01*
X0091289Y0188253D01*
G37*
D86*
G36*
X0107834Y0191170D02*
X0096510Y0189174D01*
X0096492Y0189272D01*
X0107816Y0191268D01*
X0107834Y0191170D01*
G37*
D87*
G36*
X0106826Y0196881D02*
X0100623Y0195788D01*
X0100606Y0195887D01*
X0106809Y0196980D01*
X0106826Y0196881D01*
G37*
G36*
X0106705Y0197571D02*
X0100502Y0196478D01*
X0100485Y0196577D01*
X0106688Y0197670D01*
X0106705Y0197571D01*
G37*
G36*
X0091665Y0188420D02*
X0085462Y0187327D01*
X0085445Y0187426D01*
X0091648Y0188519D01*
X0091665Y0188420D01*
G37*
D88*
G36*
X0095900Y0189167D02*
X0092159Y0188508D01*
X0092142Y0188607D01*
X0095883Y0189266D01*
X0095900Y0189167D01*
G37*
D89*
G36*
X0107816Y0191268D02*
X0096295Y0189237D01*
X0096278Y0189336D01*
X0107799Y0191367D01*
X0107816Y0191268D01*
G37*
D90*
G36*
X0107452Y0193336D02*
X0091597Y0190541D01*
X0091580Y0190640D01*
X0107435Y0193435D01*
X0107452Y0193336D01*
G37*
D91*
G36*
X0110881Y0194042D02*
X0091678Y0190657D01*
X0091661Y0190756D01*
X0110864Y0194141D01*
X0110881Y0194042D01*
G37*
D92*
G36*
X0090675Y0190581D02*
X0081714Y0189002D01*
X0081697Y0189101D01*
X0090658Y0190680D01*
X0090675Y0190581D01*
G37*
G36*
X0090224Y0193141D02*
X0081263Y0191562D01*
X0081246Y0191661D01*
X0090207Y0193240D01*
X0090224Y0193141D01*
G37*
G36*
X0089581Y0196785D02*
X0080620Y0195206D01*
X0080603Y0195305D01*
X0089564Y0196884D01*
X0089581Y0196785D01*
G37*
D93*
G36*
X0110864Y0194141D02*
X0091858Y0190791D01*
X0091840Y0190889D01*
X0110846Y0194239D01*
X0110864Y0194141D01*
G37*
D94*
G36*
X0090560Y0190662D02*
X0081698Y0189100D01*
X0081680Y0189198D01*
X0090542Y0190760D01*
X0090560Y0190662D01*
G37*
G36*
X0090143Y0193026D02*
X0081281Y0191464D01*
X0081263Y0191562D01*
X0090125Y0193124D01*
X0090143Y0193026D01*
G37*
D95*
G36*
X0110846Y0194239D02*
X0091939Y0190906D01*
X0091922Y0191005D01*
X0110829Y0194338D01*
X0110846Y0194239D01*
G37*
D96*
G36*
X0090444Y0190743D02*
X0081680Y0189199D01*
X0081662Y0189297D01*
X0090426Y0190841D01*
X0090444Y0190743D01*
G37*
G36*
X0090062Y0192910D02*
X0081298Y0191366D01*
X0081280Y0191464D01*
X0090044Y0193008D01*
X0090062Y0192910D01*
G37*
D97*
G36*
X0110812Y0194437D02*
X0092003Y0191121D01*
X0091986Y0191219D01*
X0110795Y0194535D01*
X0110812Y0194437D01*
G37*
G36*
X0110829Y0194338D02*
X0092020Y0191022D01*
X0092003Y0191120D01*
X0110812Y0194436D01*
X0110829Y0194338D01*
G37*
D98*
G36*
X0090328Y0190824D02*
X0081663Y0189297D01*
X0081646Y0189396D01*
X0090311Y0190923D01*
X0090328Y0190824D01*
G37*
G36*
X0090310Y0190923D02*
X0081645Y0189396D01*
X0081628Y0189495D01*
X0090293Y0191022D01*
X0090310Y0190923D01*
G37*
G36*
X0089998Y0192695D02*
X0081333Y0191168D01*
X0081316Y0191267D01*
X0089981Y0192794D01*
X0089998Y0192695D01*
G37*
G36*
X0089980Y0192794D02*
X0081315Y0191267D01*
X0081298Y0191366D01*
X0089963Y0192893D01*
X0089980Y0192794D01*
G37*
D99*
G36*
X0110795Y0194535D02*
X0092085Y0191237D01*
X0092067Y0191335D01*
X0110777Y0194633D01*
X0110795Y0194535D01*
G37*
D100*
G36*
X0090195Y0191004D02*
X0081628Y0189494D01*
X0081611Y0189592D01*
X0090178Y0191102D01*
X0090195Y0191004D01*
G37*
G36*
X0090177Y0191103D02*
X0081610Y0189593D01*
X0081593Y0189691D01*
X0090160Y0191201D01*
X0090177Y0191103D01*
G37*
G36*
X0089934Y0192482D02*
X0081367Y0190972D01*
X0081350Y0191070D01*
X0089917Y0192580D01*
X0089934Y0192482D01*
G37*
G36*
X0089917Y0192580D02*
X0081350Y0191070D01*
X0081333Y0191168D01*
X0089900Y0192678D01*
X0089917Y0192580D01*
G37*
D101*
G36*
X0110778Y0194633D02*
X0092166Y0191352D01*
X0092148Y0191451D01*
X0110760Y0194732D01*
X0110778Y0194633D01*
G37*
D102*
G36*
X0110759Y0194732D02*
X0092246Y0191468D01*
X0092229Y0191566D01*
X0110742Y0194830D01*
X0110759Y0194732D01*
G37*
G36*
X0110742Y0194831D02*
X0092229Y0191567D01*
X0092212Y0191665D01*
X0110725Y0194929D01*
X0110742Y0194831D01*
G37*
D103*
G36*
X0090062Y0191184D02*
X0081594Y0189692D01*
X0081576Y0189790D01*
X0090044Y0191282D01*
X0090062Y0191184D01*
G37*
G36*
X0090044Y0191282D02*
X0081576Y0189790D01*
X0081558Y0189888D01*
X0090026Y0191380D01*
X0090044Y0191282D01*
G37*
G36*
X0090027Y0191381D02*
X0081559Y0189889D01*
X0081541Y0189987D01*
X0090009Y0191479D01*
X0090027Y0191381D01*
G37*
G36*
X0090010Y0191479D02*
X0081542Y0189987D01*
X0081524Y0190085D01*
X0089992Y0191577D01*
X0090010Y0191479D01*
G37*
G36*
X0089992Y0191578D02*
X0081524Y0190086D01*
X0081506Y0190184D01*
X0089974Y0191676D01*
X0089992Y0191578D01*
G37*
D104*
G36*
X0110708Y0195027D02*
X0092293Y0191781D01*
X0092276Y0191879D01*
X0110691Y0195125D01*
X0110708Y0195027D01*
G37*
G36*
X0110725Y0194929D02*
X0092310Y0191683D01*
X0092293Y0191781D01*
X0110708Y0195027D01*
X0110725Y0194929D01*
G37*
D105*
G36*
X0110691Y0195125D02*
X0092374Y0191896D01*
X0092357Y0191995D01*
X0110674Y0195224D01*
X0110691Y0195125D01*
G37*
G36*
X0109666Y0200936D02*
X0091349Y0197707D01*
X0091332Y0197806D01*
X0109649Y0201035D01*
X0109666Y0200936D01*
G37*
D106*
G36*
X0110673Y0195224D02*
X0099053Y0193176D01*
X0099035Y0193274D01*
X0110655Y0195322D01*
X0110673Y0195224D01*
G37*
D107*
G36*
X0089975Y0191676D02*
X0084855Y0190774D01*
X0084837Y0190872D01*
X0089957Y0191774D01*
X0089975Y0191676D01*
G37*
G36*
X0089958Y0191775D02*
X0084838Y0190873D01*
X0084820Y0190971D01*
X0089940Y0191873D01*
X0089958Y0191775D01*
G37*
G36*
X0089940Y0191873D02*
X0084820Y0190971D01*
X0084802Y0191069D01*
X0089922Y0191971D01*
X0089940Y0191873D01*
G37*
G36*
X0089923Y0191972D02*
X0084803Y0191070D01*
X0084785Y0191168D01*
X0089905Y0192070D01*
X0089923Y0191972D01*
G37*
G36*
X0089906Y0192070D02*
X0084786Y0191168D01*
X0084768Y0191266D01*
X0089888Y0192168D01*
X0089906Y0192070D01*
G37*
G36*
X0089888Y0192169D02*
X0084768Y0191267D01*
X0084750Y0191365D01*
X0089870Y0192267D01*
X0089888Y0192169D01*
G37*
G36*
X0089871Y0192267D02*
X0084751Y0191365D01*
X0084733Y0191463D01*
X0089853Y0192365D01*
X0089871Y0192267D01*
G37*
D108*
G36*
X0110517Y0196110D02*
X0099882Y0194236D01*
X0099865Y0194334D01*
X0110500Y0196208D01*
X0110517Y0196110D01*
G37*
G36*
X0110499Y0196209D02*
X0099864Y0194335D01*
X0099847Y0194433D01*
X0110482Y0196307D01*
X0110499Y0196209D01*
G37*
D109*
G36*
X0110482Y0196307D02*
X0099945Y0194450D01*
X0099928Y0194549D01*
X0110465Y0196406D01*
X0110482Y0196307D01*
G37*
G36*
X0110465Y0196406D02*
X0099928Y0194549D01*
X0099911Y0194648D01*
X0110448Y0196505D01*
X0110465Y0196406D01*
G37*
G36*
X0110447Y0196504D02*
X0099910Y0194647D01*
X0099893Y0194746D01*
X0110430Y0196603D01*
X0110447Y0196504D01*
G37*
G36*
X0091418Y0195586D02*
X0080881Y0193729D01*
X0080864Y0193828D01*
X0091401Y0195685D01*
X0091418Y0195586D01*
G37*
G36*
X0091400Y0195684D02*
X0080863Y0193827D01*
X0080846Y0193926D01*
X0091383Y0195783D01*
X0091400Y0195684D01*
G37*
G36*
X0091383Y0195783D02*
X0080846Y0193926D01*
X0080829Y0194025D01*
X0091366Y0195882D01*
X0091383Y0195783D01*
G37*
G36*
X0091366Y0195881D02*
X0080829Y0194024D01*
X0080812Y0194123D01*
X0091349Y0195980D01*
X0091366Y0195881D01*
G37*
G36*
X0091348Y0195980D02*
X0080811Y0194123D01*
X0080794Y0194222D01*
X0091331Y0196079D01*
X0091348Y0195980D01*
G37*
G36*
X0091331Y0196078D02*
X0080794Y0194221D01*
X0080777Y0194320D01*
X0091314Y0196177D01*
X0091331Y0196078D01*
G37*
G36*
X0091314Y0196177D02*
X0080777Y0194320D01*
X0080760Y0194419D01*
X0091297Y0196276D01*
X0091314Y0196177D01*
G37*
D110*
G36*
X0091337Y0195471D02*
X0080899Y0193631D01*
X0080881Y0193729D01*
X0091319Y0195569D01*
X0091337Y0195471D01*
G37*
G36*
X0091354Y0195372D02*
X0080916Y0193532D01*
X0080898Y0193630D01*
X0091336Y0195470D01*
X0091354Y0195372D01*
G37*
G36*
X0091372Y0195274D02*
X0080934Y0193434D01*
X0080916Y0193532D01*
X0091354Y0195372D01*
X0091372Y0195274D01*
G37*
G36*
X0091389Y0195175D02*
X0080951Y0193335D01*
X0080933Y0193433D01*
X0091371Y0195273D01*
X0091389Y0195175D01*
G37*
G36*
X0091406Y0195077D02*
X0080968Y0193237D01*
X0080950Y0193335D01*
X0091388Y0195175D01*
X0091406Y0195077D01*
G37*
G36*
X0091424Y0194978D02*
X0080986Y0193138D01*
X0080968Y0193236D01*
X0091406Y0195076D01*
X0091424Y0194978D01*
G37*
G36*
X0090955Y0197637D02*
X0080517Y0195797D01*
X0080499Y0195895D01*
X0090937Y0197735D01*
X0090955Y0197637D01*
G37*
G36*
X0110396Y0196800D02*
X0099958Y0194960D01*
X0099940Y0195058D01*
X0110378Y0196898D01*
X0110396Y0196800D01*
G37*
G36*
X0110413Y0196702D02*
X0099975Y0194862D01*
X0099957Y0194960D01*
X0110395Y0196800D01*
X0110413Y0196702D01*
G37*
G36*
X0110430Y0196603D02*
X0099992Y0194763D01*
X0099974Y0194861D01*
X0110412Y0196701D01*
X0110430Y0196603D01*
G37*
D111*
G36*
X0110377Y0196898D02*
X0100038Y0195076D01*
X0100021Y0195174D01*
X0110360Y0196996D01*
X0110377Y0196898D01*
G37*
G36*
X0110360Y0196997D02*
X0100021Y0195175D01*
X0100004Y0195273D01*
X0110343Y0197095D01*
X0110360Y0196997D01*
G37*
D112*
G36*
X0109770Y0200345D02*
X0100415Y0198696D01*
X0100398Y0198795D01*
X0109753Y0200444D01*
X0109770Y0200345D01*
G37*
G36*
X0109753Y0200443D02*
X0100398Y0198794D01*
X0100381Y0198893D01*
X0109736Y0200542D01*
X0109753Y0200443D01*
G37*
G36*
X0109735Y0200542D02*
X0100380Y0198893D01*
X0100363Y0198992D01*
X0109718Y0200641D01*
X0109735Y0200542D01*
G37*
G36*
X0089906Y0197249D02*
X0080551Y0195600D01*
X0080534Y0195699D01*
X0089889Y0197348D01*
X0089906Y0197249D01*
G37*
G36*
X0090566Y0193506D02*
X0081211Y0191857D01*
X0081194Y0191956D01*
X0090549Y0193605D01*
X0090566Y0193506D01*
G37*
D113*
G36*
X0091336Y0193744D02*
X0081193Y0191956D01*
X0081176Y0192054D01*
X0091319Y0193842D01*
X0091336Y0193744D01*
G37*
G36*
X0091319Y0193843D02*
X0081176Y0192055D01*
X0081159Y0192153D01*
X0091302Y0193941D01*
X0091319Y0193843D01*
G37*
G36*
X0110343Y0197096D02*
X0100200Y0195308D01*
X0100183Y0195406D01*
X0110326Y0197194D01*
X0110343Y0197096D01*
G37*
D114*
G36*
X0110325Y0197194D02*
X0100380Y0195441D01*
X0100363Y0195540D01*
X0110308Y0197293D01*
X0110325Y0197194D01*
G37*
G36*
X0110134Y0198277D02*
X0100189Y0196524D01*
X0100172Y0196623D01*
X0110117Y0198376D01*
X0110134Y0198277D01*
G37*
D115*
G36*
X0091400Y0193958D02*
X0081159Y0192153D01*
X0081142Y0192252D01*
X0091383Y0194057D01*
X0091400Y0193958D01*
G37*
D116*
G36*
X0110117Y0198376D02*
X0100270Y0196640D01*
X0100253Y0196738D01*
X0110100Y0198474D01*
X0110117Y0198376D01*
G37*
G36*
X0110308Y0197293D02*
X0100461Y0195557D01*
X0100444Y0195655D01*
X0110291Y0197391D01*
X0110308Y0197293D01*
G37*
G36*
X0110100Y0198474D02*
X0100253Y0196738D01*
X0100236Y0196836D01*
X0110083Y0198572D01*
X0110100Y0198474D01*
G37*
D117*
G36*
X0106723Y0197473D02*
X0100618Y0196397D01*
X0100601Y0196495D01*
X0106706Y0197571D01*
X0106723Y0197473D01*
G37*
G36*
X0106792Y0197079D02*
X0100687Y0196003D01*
X0100670Y0196101D01*
X0106775Y0197177D01*
X0106792Y0197079D01*
G37*
G36*
X0106809Y0196980D02*
X0100704Y0195904D01*
X0100687Y0196002D01*
X0106792Y0197078D01*
X0106809Y0196980D01*
G37*
D118*
G36*
X0106775Y0197177D02*
X0100769Y0196119D01*
X0100751Y0196217D01*
X0106757Y0197275D01*
X0106775Y0197177D01*
G37*
G36*
X0106758Y0197275D02*
X0100752Y0196217D01*
X0100734Y0196315D01*
X0106740Y0197373D01*
X0106758Y0197275D01*
G37*
G36*
X0106740Y0197374D02*
X0100734Y0196316D01*
X0100716Y0196414D01*
X0106722Y0197472D01*
X0106740Y0197374D01*
G37*
G36*
X0106462Y0198950D02*
X0100456Y0197892D01*
X0100438Y0197990D01*
X0106444Y0199048D01*
X0106462Y0198950D01*
G37*
G36*
X0106445Y0199048D02*
X0100439Y0197990D01*
X0100421Y0198088D01*
X0106427Y0199146D01*
X0106445Y0199048D01*
G37*
G36*
X0106428Y0199147D02*
X0100422Y0198089D01*
X0100404Y0198187D01*
X0106410Y0199245D01*
X0106428Y0199147D01*
G37*
D119*
G36*
X0110048Y0198770D02*
X0100299Y0197052D01*
X0100282Y0197150D01*
X0110031Y0198868D01*
X0110048Y0198770D01*
G37*
G36*
X0110065Y0198671D02*
X0100316Y0196953D01*
X0100299Y0197051D01*
X0110048Y0198769D01*
X0110065Y0198671D01*
G37*
G36*
X0110083Y0198573D02*
X0100334Y0196855D01*
X0100317Y0196953D01*
X0110066Y0198671D01*
X0110083Y0198573D01*
G37*
G36*
X0109683Y0200838D02*
X0099934Y0199120D01*
X0099917Y0199218D01*
X0109666Y0200936D01*
X0109683Y0200838D01*
G37*
D120*
G36*
X0109996Y0199065D02*
X0100346Y0197364D01*
X0100328Y0197463D01*
X0109978Y0199164D01*
X0109996Y0199065D01*
G37*
G36*
X0110013Y0198966D02*
X0100363Y0197265D01*
X0100345Y0197364D01*
X0109995Y0199065D01*
X0110013Y0198966D01*
G37*
G36*
X0110031Y0198868D02*
X0100381Y0197167D01*
X0100363Y0197266D01*
X0110013Y0198967D01*
X0110031Y0198868D01*
G37*
D121*
G36*
X0109979Y0199163D02*
X0100427Y0197480D01*
X0100409Y0197579D01*
X0109961Y0199262D01*
X0109979Y0199163D01*
G37*
G36*
X0109962Y0199261D02*
X0100410Y0197578D01*
X0100392Y0197677D01*
X0109944Y0199360D01*
X0109962Y0199261D01*
G37*
G36*
X0109944Y0199360D02*
X0100392Y0197677D01*
X0100374Y0197776D01*
X0109926Y0199459D01*
X0109944Y0199360D01*
G37*
G36*
X0109701Y0200739D02*
X0100149Y0199056D01*
X0100131Y0199155D01*
X0109683Y0200838D01*
X0109701Y0200739D01*
G37*
G36*
X0090086Y0197381D02*
X0080534Y0195698D01*
X0080516Y0195797D01*
X0090068Y0197480D01*
X0090086Y0197381D01*
G37*
D122*
G36*
X0109718Y0200641D02*
X0100265Y0198975D01*
X0100248Y0199073D01*
X0109701Y0200739D01*
X0109718Y0200641D01*
G37*
G36*
X0109926Y0199459D02*
X0100473Y0197793D01*
X0100456Y0197891D01*
X0109909Y0199557D01*
X0109926Y0199459D01*
G37*
D123*
G36*
X0089605Y0196078D02*
X0084091Y0195107D01*
X0084073Y0195206D01*
X0089587Y0196177D01*
X0089605Y0196078D01*
G37*
G36*
X0089518Y0196571D02*
X0084004Y0195600D01*
X0083986Y0195699D01*
X0089500Y0196670D01*
X0089518Y0196571D01*
G37*
G36*
X0089501Y0196669D02*
X0083987Y0195698D01*
X0083969Y0195797D01*
X0089483Y0196768D01*
X0089501Y0196669D01*
G37*
D124*
G36*
X0106358Y0199540D02*
X0100450Y0198499D01*
X0100432Y0198598D01*
X0106340Y0199639D01*
X0106358Y0199540D01*
G37*
G36*
X0106376Y0199442D02*
X0100468Y0198401D01*
X0100450Y0198500D01*
X0106358Y0199541D01*
X0106376Y0199442D01*
G37*
G36*
X0106393Y0199343D02*
X0100485Y0198302D01*
X0100467Y0198401D01*
X0106375Y0199442D01*
X0106393Y0199343D01*
G37*
G36*
X0106410Y0199245D02*
X0100502Y0198204D01*
X0100484Y0198303D01*
X0106392Y0199344D01*
X0106410Y0199245D01*
G37*
D125*
G36*
X0096389Y0198493D02*
X0092549Y0197817D01*
X0092531Y0197915D01*
X0096371Y0198591D01*
X0096389Y0198493D01*
G37*
M02*
